<svg width="1363" height="298" viewBox="0 0 1363 298" fill="none" xmlns="http://www.w3.org/2000/svg">
<g clip-path="url(#clip0_296_2540)">
<path d="M0 15.5C0 7.21573 6.71573 0.5 15 0.5H37V297.5H15C6.71573 297.5 0 290.784 0 282.5V15.5Z" fill="#40C784"/>
<path d="M37 0.5H1066V297.5H37V0.5Z" fill="#F0F0F0"/>
<path d="M112.354 60.3301V64.4434H98.9941V60.3301H112.354ZM100.559 49.9062V75.5H95.2852V49.9062H100.559ZM116.115 49.9062V75.5H110.859V49.9062H116.115ZM130.652 71.2109V62.7383C130.652 62.1289 130.553 61.6074 130.354 61.1738C130.154 60.7285 129.844 60.3828 129.422 60.1367C129.012 59.8906 128.479 59.7676 127.822 59.7676C127.26 59.7676 126.773 59.8672 126.363 60.0664C125.953 60.2539 125.637 60.5293 125.414 60.8926C125.191 61.2441 125.08 61.6602 125.08 62.1406H120.018C120.018 61.332 120.205 60.5645 120.58 59.8379C120.955 59.1113 121.5 58.4727 122.215 57.9219C122.93 57.3594 123.779 56.9199 124.764 56.6035C125.76 56.2871 126.873 56.1289 128.104 56.1289C129.58 56.1289 130.893 56.375 132.041 56.8672C133.189 57.3594 134.092 58.0977 134.748 59.082C135.416 60.0664 135.75 61.2969 135.75 62.7734V70.9121C135.75 71.9551 135.814 72.8105 135.943 73.4785C136.072 74.1348 136.26 74.709 136.506 75.2012V75.5H131.391C131.145 74.9844 130.957 74.3398 130.828 73.5664C130.711 72.7812 130.652 71.9961 130.652 71.2109ZM131.32 63.916L131.355 66.7812H128.525C127.857 66.7812 127.277 66.8574 126.785 67.0098C126.293 67.1621 125.889 67.3789 125.572 67.6602C125.256 67.9297 125.021 68.2461 124.869 68.6094C124.729 68.9727 124.658 69.3711 124.658 69.8047C124.658 70.2383 124.758 70.6309 124.957 70.9824C125.156 71.3223 125.443 71.5918 125.818 71.791C126.193 71.9785 126.633 72.0723 127.137 72.0723C127.898 72.0723 128.561 71.9199 129.123 71.6152C129.686 71.3105 130.119 70.9355 130.424 70.4902C130.74 70.0449 130.904 69.623 130.916 69.2246L132.252 71.3691C132.064 71.8496 131.807 72.3477 131.479 72.8633C131.162 73.3789 130.758 73.8652 130.266 74.3223C129.773 74.7676 129.182 75.1367 128.49 75.4297C127.799 75.7109 126.979 75.8516 126.029 75.8516C124.822 75.8516 123.727 75.6113 122.742 75.1309C121.77 74.6387 120.996 73.9648 120.422 73.1094C119.859 72.2422 119.578 71.2578 119.578 70.1562C119.578 69.1602 119.766 68.2754 120.141 67.502C120.516 66.7285 121.066 66.0781 121.793 65.5508C122.531 65.0117 123.451 64.6074 124.553 64.3379C125.654 64.0566 126.932 63.916 128.385 63.916H131.32ZM150.885 71.3516V48.5H155.982V75.5H151.395L150.885 71.3516ZM138.861 66.2188V65.8496C138.861 64.3965 139.025 63.0781 139.354 61.8945C139.682 60.6992 140.162 59.6738 140.795 58.8184C141.428 57.9629 142.207 57.3008 143.133 56.832C144.059 56.3633 145.113 56.1289 146.297 56.1289C147.41 56.1289 148.383 56.3633 149.215 56.832C150.059 57.3008 150.773 57.9688 151.359 58.8359C151.957 59.6914 152.438 60.7051 152.801 61.877C153.164 63.0371 153.428 64.3086 153.592 65.6914V66.5C153.428 67.8242 153.164 69.0547 152.801 70.1914C152.438 71.3281 151.957 72.3242 151.359 73.1797C150.773 74.0234 150.059 74.6797 149.215 75.1484C148.371 75.6172 147.387 75.8516 146.262 75.8516C145.078 75.8516 144.023 75.6113 143.098 75.1309C142.184 74.6504 141.41 73.9766 140.777 73.1094C140.156 72.2422 139.682 71.2227 139.354 70.0508C139.025 68.8789 138.861 67.6016 138.861 66.2188ZM143.924 65.8496V66.2188C143.924 67.0039 143.982 67.7363 144.1 68.416C144.229 69.0957 144.434 69.6992 144.715 70.2266C145.008 70.7422 145.383 71.1465 145.84 71.4395C146.309 71.7207 146.877 71.8613 147.545 71.8613C148.412 71.8613 149.127 71.668 149.689 71.2812C150.252 70.8828 150.68 70.3379 150.973 69.6465C151.277 68.9551 151.453 68.1582 151.5 67.2559V64.9531C151.465 64.2148 151.359 63.5527 151.184 62.9668C151.02 62.3691 150.773 61.8594 150.445 61.4375C150.129 61.0156 149.73 60.6875 149.25 60.4531C148.781 60.2188 148.225 60.1016 147.58 60.1016C146.924 60.1016 146.361 60.2539 145.893 60.5586C145.424 60.8516 145.043 61.2559 144.75 61.7715C144.469 62.2871 144.258 62.8965 144.117 63.5996C143.988 64.291 143.924 65.041 143.924 65.8496ZM165.58 73.3555L170.625 56.4805H176.057L168.41 78.3652C168.246 78.8457 168.023 79.3613 167.742 79.9121C167.473 80.4629 167.104 80.9844 166.635 81.4766C166.178 81.9805 165.598 82.3906 164.895 82.707C164.203 83.0234 163.354 83.1816 162.346 83.1816C161.865 83.1816 161.473 83.1523 161.168 83.0938C160.863 83.0352 160.5 82.9531 160.078 82.8477V79.1387C160.207 79.1387 160.342 79.1387 160.482 79.1387C160.623 79.1504 160.758 79.1562 160.887 79.1562C161.555 79.1562 162.1 79.0801 162.521 78.9277C162.943 78.7754 163.283 78.541 163.541 78.2246C163.799 77.9199 164.004 77.5215 164.156 77.0293L165.58 73.3555ZM163.471 56.4805L167.602 70.2617L168.322 75.623L164.877 75.9922L158.039 56.4805H163.471ZM197.766 54.2832L190.805 75.5H185.197L194.707 49.9062H198.275L197.766 54.2832ZM203.549 75.5L196.57 54.2832L196.008 49.9062H199.611L209.174 75.5H203.549ZM203.232 65.9727V70.1035H189.715V65.9727H203.232ZM216.064 70.5781L220.02 56.4805H223.236L222.199 62.0176L218.244 75.5H215.555L216.064 70.5781ZM214.061 56.4805L216.891 70.5605L217.154 75.5H213.99L209.174 56.4805H214.061ZM226.857 70.332L229.617 56.4805H234.521L229.705 75.5H226.559L226.857 70.332ZM223.676 56.4805L227.613 70.4727L228.158 75.5H225.451L221.496 62.0352L220.494 56.4805H223.676ZM247.336 71.2109V62.7383C247.336 62.1289 247.236 61.6074 247.037 61.1738C246.838 60.7285 246.527 60.3828 246.105 60.1367C245.695 59.8906 245.162 59.7676 244.506 59.7676C243.943 59.7676 243.457 59.8672 243.047 60.0664C242.637 60.2539 242.32 60.5293 242.098 60.8926C241.875 61.2441 241.764 61.6602 241.764 62.1406H236.701C236.701 61.332 236.889 60.5645 237.264 59.8379C237.639 59.1113 238.184 58.4727 238.898 57.9219C239.613 57.3594 240.463 56.9199 241.447 56.6035C242.443 56.2871 243.557 56.1289 244.787 56.1289C246.264 56.1289 247.576 56.375 248.725 56.8672C249.873 57.3594 250.775 58.0977 251.432 59.082C252.1 60.0664 252.434 61.2969 252.434 62.7734V70.9121C252.434 71.9551 252.498 72.8105 252.627 73.4785C252.756 74.1348 252.943 74.709 253.189 75.2012V75.5H248.074C247.828 74.9844 247.641 74.3398 247.512 73.5664C247.395 72.7812 247.336 71.9961 247.336 71.2109ZM248.004 63.916L248.039 66.7812H245.209C244.541 66.7812 243.961 66.8574 243.469 67.0098C242.977 67.1621 242.572 67.3789 242.256 67.6602C241.939 67.9297 241.705 68.2461 241.553 68.6094C241.412 68.9727 241.342 69.3711 241.342 69.8047C241.342 70.2383 241.441 70.6309 241.641 70.9824C241.84 71.3223 242.127 71.5918 242.502 71.791C242.877 71.9785 243.316 72.0723 243.82 72.0723C244.582 72.0723 245.244 71.9199 245.807 71.6152C246.369 71.3105 246.803 70.9355 247.107 70.4902C247.424 70.0449 247.588 69.623 247.6 69.2246L248.936 71.3691C248.748 71.8496 248.49 72.3477 248.162 72.8633C247.846 73.3789 247.441 73.8652 246.949 74.3223C246.457 74.7676 245.865 75.1367 245.174 75.4297C244.482 75.7109 243.662 75.8516 242.713 75.8516C241.506 75.8516 240.41 75.6113 239.426 75.1309C238.453 74.6387 237.68 73.9648 237.105 73.1094C236.543 72.2422 236.262 71.2578 236.262 70.1562C236.262 69.1602 236.449 68.2754 236.824 67.502C237.199 66.7285 237.75 66.0781 238.477 65.5508C239.215 65.0117 240.135 64.6074 241.236 64.3379C242.338 64.0566 243.615 63.916 245.068 63.916H248.004ZM261.697 73.3555L266.742 56.4805H272.174L264.527 78.3652C264.363 78.8457 264.141 79.3613 263.859 79.9121C263.59 80.4629 263.221 80.9844 262.752 81.4766C262.295 81.9805 261.715 82.3906 261.012 82.707C260.32 83.0234 259.471 83.1816 258.463 83.1816C257.982 83.1816 257.59 83.1523 257.285 83.0938C256.98 83.0352 256.617 82.9531 256.195 82.8477V79.1387C256.324 79.1387 256.459 79.1387 256.6 79.1387C256.74 79.1504 256.875 79.1562 257.004 79.1562C257.672 79.1562 258.217 79.0801 258.639 78.9277C259.061 78.7754 259.4 78.541 259.658 78.2246C259.916 77.9199 260.121 77.5215 260.273 77.0293L261.697 73.3555ZM259.588 56.4805L263.719 70.2617L264.439 75.623L260.994 75.9922L254.156 56.4805H259.588ZM285.182 71.3516V48.5H290.279V75.5H285.691L285.182 71.3516ZM273.158 66.2188V65.8496C273.158 64.3965 273.322 63.0781 273.65 61.8945C273.979 60.6992 274.459 59.6738 275.092 58.8184C275.725 57.9629 276.504 57.3008 277.43 56.832C278.355 56.3633 279.41 56.1289 280.594 56.1289C281.707 56.1289 282.68 56.3633 283.512 56.832C284.355 57.3008 285.07 57.9688 285.656 58.8359C286.254 59.6914 286.734 60.7051 287.098 61.877C287.461 63.0371 287.725 64.3086 287.889 65.6914V66.5C287.725 67.8242 287.461 69.0547 287.098 70.1914C286.734 71.3281 286.254 72.3242 285.656 73.1797C285.07 74.0234 284.355 74.6797 283.512 75.1484C282.668 75.6172 281.684 75.8516 280.559 75.8516C279.375 75.8516 278.32 75.6113 277.395 75.1309C276.48 74.6504 275.707 73.9766 275.074 73.1094C274.453 72.2422 273.979 71.2227 273.65 70.0508C273.322 68.8789 273.158 67.6016 273.158 66.2188ZM278.221 65.8496V66.2188C278.221 67.0039 278.279 67.7363 278.396 68.416C278.525 69.0957 278.73 69.6992 279.012 70.2266C279.305 70.7422 279.68 71.1465 280.137 71.4395C280.605 71.7207 281.174 71.8613 281.842 71.8613C282.709 71.8613 283.424 71.668 283.986 71.2812C284.549 70.8828 284.977 70.3379 285.27 69.6465C285.574 68.9551 285.75 68.1582 285.797 67.2559V64.9531C285.762 64.2148 285.656 63.5527 285.48 62.9668C285.316 62.3691 285.07 61.8594 284.742 61.4375C284.426 61.0156 284.027 60.6875 283.547 60.4531C283.078 60.2188 282.521 60.1016 281.877 60.1016C281.221 60.1016 280.658 60.2539 280.189 60.5586C279.721 60.8516 279.34 61.2559 279.047 61.7715C278.766 62.2871 278.555 62.8965 278.414 63.5996C278.285 64.291 278.221 65.041 278.221 65.8496ZM304.5 71.2109V62.7383C304.5 62.1289 304.4 61.6074 304.201 61.1738C304.002 60.7285 303.691 60.3828 303.27 60.1367C302.859 59.8906 302.326 59.7676 301.67 59.7676C301.107 59.7676 300.621 59.8672 300.211 60.0664C299.801 60.2539 299.484 60.5293 299.262 60.8926C299.039 61.2441 298.928 61.6602 298.928 62.1406H293.865C293.865 61.332 294.053 60.5645 294.428 59.8379C294.803 59.1113 295.348 58.4727 296.062 57.9219C296.777 57.3594 297.627 56.9199 298.611 56.6035C299.607 56.2871 300.721 56.1289 301.951 56.1289C303.428 56.1289 304.74 56.375 305.889 56.8672C307.037 57.3594 307.939 58.0977 308.596 59.082C309.264 60.0664 309.598 61.2969 309.598 62.7734V70.9121C309.598 71.9551 309.662 72.8105 309.791 73.4785C309.92 74.1348 310.107 74.709 310.354 75.2012V75.5H305.238C304.992 74.9844 304.805 74.3398 304.676 73.5664C304.559 72.7812 304.5 71.9961 304.5 71.2109ZM305.168 63.916L305.203 66.7812H302.373C301.705 66.7812 301.125 66.8574 300.633 67.0098C300.141 67.1621 299.736 67.3789 299.42 67.6602C299.104 67.9297 298.869 68.2461 298.717 68.6094C298.576 68.9727 298.506 69.3711 298.506 69.8047C298.506 70.2383 298.605 70.6309 298.805 70.9824C299.004 71.3223 299.291 71.5918 299.666 71.791C300.041 71.9785 300.48 72.0723 300.984 72.0723C301.746 72.0723 302.408 71.9199 302.971 71.6152C303.533 71.3105 303.967 70.9355 304.271 70.4902C304.588 70.0449 304.752 69.623 304.764 69.2246L306.1 71.3691C305.912 71.8496 305.654 72.3477 305.326 72.8633C305.01 73.3789 304.605 73.8652 304.113 74.3223C303.621 74.7676 303.029 75.1367 302.338 75.4297C301.646 75.7109 300.826 75.8516 299.877 75.8516C298.67 75.8516 297.574 75.6113 296.59 75.1309C295.617 74.6387 294.844 73.9648 294.27 73.1094C293.707 72.2422 293.426 71.2578 293.426 70.1562C293.426 69.1602 293.613 68.2754 293.988 67.502C294.363 66.7285 294.914 66.0781 295.641 65.5508C296.379 65.0117 297.299 64.6074 298.4 64.3379C299.502 64.0566 300.779 63.916 302.232 63.916H305.168Z" fill="#888888"/>
<path d="M118.676 127.02H128.246C128.118 129.79 127.371 132.233 126.004 134.348C124.637 136.462 122.741 138.112 120.316 139.297C117.91 140.464 115.066 141.047 111.785 141.047C109.124 141.047 106.745 140.6 104.648 139.707C102.57 138.814 100.802 137.529 99.3438 135.852C97.9036 134.174 96.8008 132.142 96.0352 129.754C95.2878 127.366 94.9141 124.677 94.9141 121.688V119.527C94.9141 116.538 95.306 113.849 96.0898 111.461C96.8919 109.055 98.0221 107.013 99.4805 105.336C100.957 103.641 102.725 102.346 104.785 101.453C106.845 100.56 109.133 100.113 111.648 100.113C115.112 100.113 118.038 100.733 120.426 101.973C122.814 103.212 124.664 104.917 125.977 107.086C127.289 109.237 128.064 111.689 128.301 114.441H118.73C118.694 112.947 118.439 111.698 117.965 110.695C117.491 109.674 116.743 108.909 115.723 108.398C114.702 107.888 113.344 107.633 111.648 107.633C110.464 107.633 109.434 107.852 108.559 108.289C107.684 108.727 106.954 109.419 106.371 110.367C105.788 111.315 105.35 112.546 105.059 114.059C104.785 115.553 104.648 117.358 104.648 119.473V121.688C104.648 123.802 104.776 125.607 105.031 127.102C105.286 128.596 105.697 129.818 106.262 130.766C106.827 131.714 107.556 132.415 108.449 132.871C109.361 133.309 110.473 133.527 111.785 133.527C113.243 133.527 114.474 133.299 115.477 132.844C116.479 132.37 117.254 131.659 117.801 130.711C118.348 129.745 118.639 128.514 118.676 127.02ZM147.715 133.062V120.867C147.715 120.029 147.596 119.309 147.359 118.707C147.122 118.105 146.749 117.641 146.238 117.312C145.728 116.966 145.044 116.793 144.188 116.793C143.495 116.793 142.902 116.911 142.41 117.148C141.918 117.385 141.544 117.741 141.289 118.215C141.034 118.689 140.906 119.29 140.906 120.02H131.691C131.691 118.652 131.992 117.385 132.594 116.219C133.214 115.034 134.089 114.004 135.219 113.129C136.367 112.254 137.734 111.579 139.32 111.105C140.924 110.613 142.711 110.367 144.68 110.367C147.031 110.367 149.128 110.759 150.969 111.543C152.828 112.327 154.296 113.503 155.371 115.07C156.447 116.62 156.984 118.57 156.984 120.922V133.035C156.984 134.967 157.094 136.435 157.312 137.438C157.531 138.422 157.841 139.288 158.242 140.035V140.5H149C148.562 139.589 148.234 138.477 148.016 137.164C147.815 135.833 147.715 134.466 147.715 133.062ZM148.836 122.426L148.891 127.348H144.816C143.96 127.348 143.23 127.466 142.629 127.703C142.046 127.94 141.572 128.268 141.207 128.688C140.861 129.089 140.605 129.544 140.441 130.055C140.296 130.565 140.223 131.103 140.223 131.668C140.223 132.215 140.35 132.707 140.605 133.145C140.879 133.564 141.243 133.892 141.699 134.129C142.155 134.366 142.665 134.484 143.23 134.484C144.251 134.484 145.117 134.293 145.828 133.91C146.557 133.509 147.113 133.026 147.496 132.461C147.879 131.896 148.07 131.367 148.07 130.875L150.094 134.648C149.729 135.378 149.31 136.116 148.836 136.863C148.38 137.611 147.806 138.303 147.113 138.941C146.439 139.561 145.609 140.072 144.625 140.473C143.641 140.855 142.447 141.047 141.043 141.047C139.22 141.047 137.543 140.673 136.012 139.926C134.499 139.178 133.286 138.139 132.375 136.809C131.464 135.46 131.008 133.91 131.008 132.16C131.008 130.629 131.281 129.262 131.828 128.059C132.393 126.855 133.241 125.835 134.371 124.996C135.501 124.158 136.941 123.52 138.691 123.082C140.441 122.645 142.501 122.426 144.871 122.426H148.836ZM171.395 118.242V140.5H162.18V110.914H170.793L171.395 118.242ZM180.145 110.695L179.98 119.254C179.616 119.217 179.124 119.172 178.504 119.117C177.884 119.062 177.365 119.035 176.945 119.035C175.87 119.035 174.94 119.163 174.156 119.418C173.391 119.655 172.753 120.02 172.242 120.512C171.75 120.986 171.385 121.587 171.148 122.316C170.93 123.046 170.829 123.893 170.848 124.859L169.18 123.766C169.18 121.779 169.371 119.974 169.754 118.352C170.155 116.711 170.72 115.298 171.449 114.113C172.178 112.91 173.062 111.99 174.102 111.352C175.141 110.695 176.307 110.367 177.602 110.367C178.057 110.367 178.504 110.395 178.941 110.449C179.397 110.504 179.798 110.586 180.145 110.695ZM192.613 116.602V151.875H183.398V110.914H191.984L192.613 116.602ZM210.77 125.352V125.926C210.77 128.077 210.523 130.073 210.031 131.914C209.539 133.755 208.81 135.359 207.844 136.727C206.878 138.094 205.674 139.16 204.234 139.926C202.812 140.673 201.163 141.047 199.285 141.047C197.517 141.047 195.995 140.655 194.719 139.871C193.443 139.087 192.376 138.003 191.52 136.617C190.663 135.232 189.97 133.646 189.441 131.859C188.913 130.073 188.493 128.186 188.184 126.199V125.461C188.493 123.328 188.913 121.35 189.441 119.527C189.97 117.686 190.663 116.082 191.52 114.715C192.376 113.348 193.434 112.281 194.691 111.516C195.967 110.75 197.49 110.367 199.258 110.367C201.135 110.367 202.785 110.723 204.207 111.434C205.647 112.145 206.85 113.165 207.816 114.496C208.801 115.809 209.539 117.385 210.031 119.227C210.523 121.068 210.77 123.109 210.77 125.352ZM201.555 125.926V125.352C201.555 124.203 201.473 123.155 201.309 122.207C201.145 121.241 200.88 120.402 200.516 119.691C200.169 118.98 199.704 118.434 199.121 118.051C198.538 117.668 197.818 117.477 196.961 117.477C195.977 117.477 195.147 117.632 194.473 117.941C193.816 118.233 193.288 118.689 192.887 119.309C192.504 119.91 192.23 120.667 192.066 121.578C191.921 122.471 191.857 123.52 191.875 124.723V126.965C191.839 128.35 191.975 129.572 192.285 130.629C192.595 131.668 193.133 132.479 193.898 133.062C194.664 133.646 195.703 133.938 197.016 133.938C197.891 133.938 198.62 133.737 199.203 133.336C199.786 132.917 200.251 132.342 200.598 131.613C200.944 130.866 201.19 130.009 201.336 129.043C201.482 128.077 201.555 127.038 201.555 125.926ZM213.723 126.008V125.434C213.723 123.264 214.033 121.268 214.652 119.445C215.272 117.604 216.184 116.009 217.387 114.66C218.59 113.311 220.076 112.263 221.844 111.516C223.612 110.75 225.654 110.367 227.969 110.367C230.302 110.367 232.353 110.75 234.121 111.516C235.908 112.263 237.402 113.311 238.605 114.66C239.809 116.009 240.72 117.604 241.34 119.445C241.96 121.268 242.27 123.264 242.27 125.434V126.008C242.27 128.159 241.96 130.155 241.34 131.996C240.72 133.819 239.809 135.414 238.605 136.781C237.402 138.13 235.917 139.178 234.148 139.926C232.38 140.673 230.339 141.047 228.023 141.047C225.708 141.047 223.658 140.673 221.871 139.926C220.085 139.178 218.59 138.13 217.387 136.781C216.184 135.414 215.272 133.819 214.652 131.996C214.033 130.155 213.723 128.159 213.723 126.008ZM222.938 125.434V126.008C222.938 127.12 223.02 128.159 223.184 129.125C223.348 130.091 223.621 130.939 224.004 131.668C224.387 132.379 224.906 132.935 225.562 133.336C226.219 133.737 227.039 133.938 228.023 133.938C228.99 133.938 229.792 133.737 230.43 133.336C231.086 132.935 231.605 132.379 231.988 131.668C232.371 130.939 232.645 130.091 232.809 129.125C232.973 128.159 233.055 127.12 233.055 126.008V125.434C233.055 124.358 232.973 123.346 232.809 122.398C232.645 121.432 232.371 120.585 231.988 119.855C231.605 119.108 231.086 118.525 230.43 118.105C229.773 117.686 228.953 117.477 227.969 117.477C227.003 117.477 226.191 117.686 225.535 118.105C224.897 118.525 224.387 119.108 224.004 119.855C223.621 120.585 223.348 121.432 223.184 122.398C223.02 123.346 222.938 124.358 222.938 125.434ZM245.223 126.008V125.434C245.223 123.264 245.533 121.268 246.152 119.445C246.772 117.604 247.684 116.009 248.887 114.66C250.09 113.311 251.576 112.263 253.344 111.516C255.112 110.75 257.154 110.367 259.469 110.367C261.802 110.367 263.853 110.75 265.621 111.516C267.408 112.263 268.902 113.311 270.105 114.66C271.309 116.009 272.22 117.604 272.84 119.445C273.46 121.268 273.77 123.264 273.77 125.434V126.008C273.77 128.159 273.46 130.155 272.84 131.996C272.22 133.819 271.309 135.414 270.105 136.781C268.902 138.13 267.417 139.178 265.648 139.926C263.88 140.673 261.839 141.047 259.523 141.047C257.208 141.047 255.158 140.673 253.371 139.926C251.585 139.178 250.09 138.13 248.887 136.781C247.684 135.414 246.772 133.819 246.152 131.996C245.533 130.155 245.223 128.159 245.223 126.008ZM254.438 125.434V126.008C254.438 127.12 254.52 128.159 254.684 129.125C254.848 130.091 255.121 130.939 255.504 131.668C255.887 132.379 256.406 132.935 257.062 133.336C257.719 133.737 258.539 133.938 259.523 133.938C260.49 133.938 261.292 133.737 261.93 133.336C262.586 132.935 263.105 132.379 263.488 131.668C263.871 130.939 264.145 130.091 264.309 129.125C264.473 128.159 264.555 127.12 264.555 126.008V125.434C264.555 124.358 264.473 123.346 264.309 122.398C264.145 121.432 263.871 120.585 263.488 119.855C263.105 119.108 262.586 118.525 261.93 118.105C261.273 117.686 260.453 117.477 259.469 117.477C258.503 117.477 257.691 117.686 257.035 118.105C256.397 118.525 255.887 119.108 255.504 119.855C255.121 120.585 254.848 121.432 254.684 122.398C254.52 123.346 254.438 124.358 254.438 125.434ZM287.605 98.5V140.5H278.363V98.5H287.605ZM330.316 127.02H339.887C339.759 129.79 339.012 132.233 337.645 134.348C336.277 136.462 334.382 138.112 331.957 139.297C329.551 140.464 326.707 141.047 323.426 141.047C320.764 141.047 318.385 140.6 316.289 139.707C314.211 138.814 312.443 137.529 310.984 135.852C309.544 134.174 308.441 132.142 307.676 129.754C306.928 127.366 306.555 124.677 306.555 121.688V119.527C306.555 116.538 306.947 113.849 307.73 111.461C308.533 109.055 309.663 107.013 311.121 105.336C312.598 103.641 314.366 102.346 316.426 101.453C318.486 100.56 320.773 100.113 323.289 100.113C326.753 100.113 329.678 100.733 332.066 101.973C334.454 103.212 336.305 104.917 337.617 107.086C338.93 109.237 339.704 111.689 339.941 114.441H330.371C330.335 112.947 330.079 111.698 329.605 110.695C329.132 109.674 328.384 108.909 327.363 108.398C326.342 107.888 324.984 107.633 323.289 107.633C322.104 107.633 321.074 107.852 320.199 108.289C319.324 108.727 318.595 109.419 318.012 110.367C317.428 111.315 316.991 112.546 316.699 114.059C316.426 115.553 316.289 117.358 316.289 119.473V121.688C316.289 123.802 316.417 125.607 316.672 127.102C316.927 128.596 317.337 129.818 317.902 130.766C318.467 131.714 319.197 132.415 320.09 132.871C321.001 133.309 322.113 133.527 323.426 133.527C324.884 133.527 326.115 133.299 327.117 132.844C328.12 132.37 328.895 131.659 329.441 130.711C329.988 129.745 330.28 128.514 330.316 127.02ZM342.84 126.008V125.434C342.84 123.264 343.15 121.268 343.77 119.445C344.389 117.604 345.301 116.009 346.504 114.66C347.707 113.311 349.193 112.263 350.961 111.516C352.729 110.75 354.771 110.367 357.086 110.367C359.419 110.367 361.47 110.75 363.238 111.516C365.025 112.263 366.52 113.311 367.723 114.66C368.926 116.009 369.837 117.604 370.457 119.445C371.077 121.268 371.387 123.264 371.387 125.434V126.008C371.387 128.159 371.077 130.155 370.457 131.996C369.837 133.819 368.926 135.414 367.723 136.781C366.52 138.13 365.034 139.178 363.266 139.926C361.497 140.673 359.456 141.047 357.141 141.047C354.826 141.047 352.775 140.673 350.988 139.926C349.202 139.178 347.707 138.13 346.504 136.781C345.301 135.414 344.389 133.819 343.77 131.996C343.15 130.155 342.84 128.159 342.84 126.008ZM352.055 125.434V126.008C352.055 127.12 352.137 128.159 352.301 129.125C352.465 130.091 352.738 130.939 353.121 131.668C353.504 132.379 354.023 132.935 354.68 133.336C355.336 133.737 356.156 133.938 357.141 133.938C358.107 133.938 358.909 133.737 359.547 133.336C360.203 132.935 360.723 132.379 361.105 131.668C361.488 130.939 361.762 130.091 361.926 129.125C362.09 128.159 362.172 127.12 362.172 126.008V125.434C362.172 124.358 362.09 123.346 361.926 122.398C361.762 121.432 361.488 120.585 361.105 119.855C360.723 119.108 360.203 118.525 359.547 118.105C358.891 117.686 358.07 117.477 357.086 117.477C356.12 117.477 355.309 117.686 354.652 118.105C354.014 118.525 353.504 119.108 353.121 119.855C352.738 120.585 352.465 121.432 352.301 122.398C352.137 123.346 352.055 124.358 352.055 125.434ZM384.539 117.23V140.5H375.324V110.914H383.965L384.539 117.23ZM383.445 124.695L381.285 124.75C381.285 122.49 381.559 120.475 382.105 118.707C382.652 116.921 383.427 115.408 384.43 114.168C385.432 112.928 386.626 111.99 388.012 111.352C389.415 110.695 390.974 110.367 392.688 110.367C394.055 110.367 395.303 110.568 396.434 110.969C397.582 111.37 398.566 112.017 399.387 112.91C400.225 113.803 400.863 114.988 401.301 116.465C401.757 117.923 401.984 119.728 401.984 121.879V140.5H392.715V121.852C392.715 120.667 392.551 119.764 392.223 119.145C391.895 118.507 391.421 118.069 390.801 117.832C390.181 117.595 389.424 117.477 388.531 117.477C387.583 117.477 386.781 117.659 386.125 118.023C385.469 118.388 384.94 118.898 384.539 119.555C384.156 120.193 383.874 120.949 383.691 121.824C383.527 122.699 383.445 123.656 383.445 124.695ZM416.148 117.23V140.5H406.934V110.914H415.574L416.148 117.23ZM415.055 124.695L412.895 124.75C412.895 122.49 413.168 120.475 413.715 118.707C414.262 116.921 415.036 115.408 416.039 114.168C417.042 112.928 418.236 111.99 419.621 111.352C421.025 110.695 422.583 110.367 424.297 110.367C425.664 110.367 426.913 110.568 428.043 110.969C429.191 111.37 430.176 112.017 430.996 112.91C431.835 113.803 432.473 114.988 432.91 116.465C433.366 117.923 433.594 119.728 433.594 121.879V140.5H424.324V121.852C424.324 120.667 424.16 119.764 423.832 119.145C423.504 118.507 423.03 118.069 422.41 117.832C421.79 117.595 421.034 117.477 420.141 117.477C419.193 117.477 418.391 117.659 417.734 118.023C417.078 118.388 416.549 118.898 416.148 119.555C415.766 120.193 415.483 120.949 415.301 121.824C415.137 122.699 415.055 123.656 415.055 124.695ZM453.035 141.047C450.629 141.047 448.478 140.673 446.582 139.926C444.686 139.16 443.082 138.112 441.77 136.781C440.475 135.451 439.482 133.919 438.789 132.188C438.115 130.456 437.777 128.624 437.777 126.691V125.652C437.777 123.483 438.078 121.478 438.68 119.637C439.281 117.777 440.174 116.155 441.359 114.77C442.544 113.384 444.03 112.309 445.816 111.543C447.603 110.759 449.681 110.367 452.051 110.367C454.147 110.367 456.025 110.704 457.684 111.379C459.342 112.053 460.746 113.02 461.895 114.277C463.061 115.535 463.945 117.057 464.547 118.844C465.167 120.63 465.477 122.635 465.477 124.859V128.605H441.305V122.836H456.48V122.125C456.499 121.141 456.326 120.302 455.961 119.609C455.615 118.917 455.104 118.388 454.43 118.023C453.755 117.659 452.935 117.477 451.969 117.477C450.966 117.477 450.137 117.695 449.48 118.133C448.842 118.57 448.341 119.172 447.977 119.938C447.63 120.685 447.384 121.551 447.238 122.535C447.092 123.52 447.02 124.559 447.02 125.652V126.691C447.02 127.785 447.165 128.779 447.457 129.672C447.767 130.565 448.204 131.331 448.77 131.969C449.353 132.589 450.046 133.072 450.848 133.418C451.668 133.764 452.598 133.938 453.637 133.938C454.895 133.938 456.134 133.701 457.355 133.227C458.577 132.753 459.625 131.969 460.5 130.875L464.684 135.852C464.082 136.708 463.225 137.538 462.113 138.34C461.02 139.142 459.707 139.798 458.176 140.309C456.645 140.801 454.931 141.047 453.035 141.047ZM481.719 133.938C482.576 133.938 483.305 133.783 483.906 133.473C484.526 133.145 484.991 132.689 485.301 132.105C485.629 131.504 485.784 130.784 485.766 129.945H494.434C494.452 132.169 493.905 134.12 492.793 135.797C491.699 137.456 490.204 138.75 488.309 139.68C486.431 140.591 484.307 141.047 481.938 141.047C479.622 141.047 477.599 140.673 475.867 139.926C474.135 139.16 472.686 138.103 471.52 136.754C470.371 135.387 469.505 133.792 468.922 131.969C468.357 130.146 468.074 128.168 468.074 126.035V125.406C468.074 123.273 468.357 121.296 468.922 119.473C469.505 117.632 470.371 116.036 471.52 114.688C472.686 113.32 474.126 112.263 475.84 111.516C477.572 110.75 479.586 110.367 481.883 110.367C484.344 110.367 486.513 110.832 488.391 111.762C490.286 112.691 491.772 114.04 492.848 115.809C493.923 117.577 494.452 119.719 494.434 122.234H485.766C485.784 121.341 485.647 120.539 485.355 119.828C485.064 119.117 484.608 118.552 483.988 118.133C483.387 117.695 482.612 117.477 481.664 117.477C480.716 117.477 479.951 117.686 479.367 118.105C478.784 118.525 478.337 119.108 478.027 119.855C477.736 120.585 477.535 121.423 477.426 122.371C477.335 123.319 477.289 124.331 477.289 125.406V126.035C477.289 127.129 477.335 128.159 477.426 129.125C477.535 130.073 477.745 130.911 478.055 131.641C478.365 132.352 478.811 132.917 479.395 133.336C479.978 133.737 480.753 133.938 481.719 133.938ZM513.957 110.914V117.312H496.129V110.914H513.957ZM499.875 103.559H509.09V130.848C509.09 131.632 509.181 132.242 509.363 132.68C509.546 133.099 509.855 133.4 510.293 133.582C510.749 133.746 511.35 133.828 512.098 133.828C512.626 133.828 513.064 133.819 513.41 133.801C513.757 133.764 514.085 133.719 514.395 133.664V140.254C513.611 140.509 512.79 140.701 511.934 140.828C511.077 140.974 510.165 141.047 509.199 141.047C507.23 141.047 505.544 140.737 504.141 140.117C502.755 139.497 501.698 138.522 500.969 137.191C500.24 135.861 499.875 134.129 499.875 131.996V103.559Z" fill="black"/>
<path d="M1000 178.5H103C97.4772 178.5 93 182.977 93 188.5V245.5C93 251.023 97.4772 255.5 103 255.5H1000C1005.52 255.5 1010 251.023 1010 245.5V188.5C1010 182.977 1005.52 178.5 1000 178.5Z" fill="#D3D3D3"/>
<path d="M199 196.5H114C112.343 196.5 111 197.843 111 199.5V234.5C111 236.157 112.343 237.5 114 237.5H199C200.657 237.5 202 236.157 202 234.5V199.5C202 197.843 200.657 196.5 199 196.5Z" fill="#424242"/>
<path d="M199 196.5H114C112.343 196.5 111 197.843 111 199.5V234.5C111 236.157 112.343 237.5 114 237.5H199C200.657 237.5 202 236.157 202 234.5V199.5C202 197.843 200.657 196.5 199 196.5Z" stroke="#424242" stroke-width="4"/>
<path d="M134.141 210.703H139.177C140.161 210.703 141.017 210.85 141.743 211.143C142.47 211.436 143.029 211.869 143.422 212.443C143.82 213.018 144.02 213.727 144.02 214.57C144.02 215.303 143.905 215.915 143.677 216.407C143.448 216.899 143.129 217.307 142.719 217.629C142.314 217.945 141.843 218.206 141.304 218.411L140.293 218.982H136.065L136.048 216.601H139.177C139.569 216.601 139.895 216.53 140.152 216.39C140.41 216.249 140.604 216.05 140.732 215.792C140.867 215.528 140.935 215.215 140.935 214.852C140.935 214.482 140.867 214.166 140.732 213.902C140.598 213.639 140.398 213.437 140.135 213.296C139.877 213.155 139.558 213.085 139.177 213.085H137.226V223.5H134.141V210.703ZM141.146 223.5L138.315 217.84L141.585 217.822L144.45 223.368V223.5H141.146ZM150.348 223.676C149.574 223.676 148.883 223.556 148.273 223.315C147.664 223.069 147.148 222.732 146.727 222.305C146.311 221.877 145.991 221.385 145.769 220.828C145.552 220.271 145.443 219.683 145.443 219.062V218.728C145.443 218.03 145.54 217.386 145.733 216.794C145.927 216.196 146.214 215.675 146.595 215.229C146.976 214.784 147.453 214.438 148.027 214.192C148.602 213.94 149.27 213.814 150.031 213.814C150.705 213.814 151.309 213.923 151.842 214.14C152.375 214.356 152.826 214.667 153.195 215.071C153.57 215.476 153.854 215.965 154.048 216.539C154.247 217.113 154.347 217.758 154.347 218.473V219.677H146.577V217.822H151.455V217.594C151.461 217.277 151.405 217.008 151.288 216.785C151.177 216.562 151.013 216.393 150.796 216.275C150.579 216.158 150.315 216.1 150.005 216.1C149.683 216.1 149.416 216.17 149.205 216.311C149 216.451 148.839 216.645 148.722 216.891C148.61 217.131 148.531 217.409 148.484 217.726C148.438 218.042 148.414 218.376 148.414 218.728V219.062C148.414 219.413 148.461 219.732 148.555 220.02C148.654 220.307 148.795 220.553 148.977 220.758C149.164 220.957 149.387 221.112 149.645 221.224C149.908 221.335 150.207 221.391 150.541 221.391C150.945 221.391 151.344 221.314 151.736 221.162C152.129 221.01 152.466 220.758 152.747 220.406L154.092 222.006C153.898 222.281 153.623 222.548 153.266 222.806C152.914 223.063 152.492 223.274 152 223.438C151.508 223.597 150.957 223.676 150.348 223.676ZM160.49 221.109V217.189C160.49 216.92 160.452 216.688 160.376 216.495C160.3 216.302 160.18 216.152 160.016 216.047C159.852 215.936 159.632 215.88 159.356 215.88C159.134 215.88 158.943 215.918 158.785 215.994C158.627 216.07 158.507 216.185 158.425 216.337C158.343 216.489 158.302 216.683 158.302 216.917H155.34C155.34 216.478 155.437 216.07 155.63 215.695C155.829 215.314 156.11 214.983 156.474 214.702C156.843 214.421 157.282 214.204 157.792 214.052C158.308 213.894 158.882 213.814 159.515 213.814C160.271 213.814 160.944 213.94 161.536 214.192C162.134 214.444 162.605 214.822 162.951 215.326C163.297 215.824 163.47 216.451 163.47 217.207V221.101C163.47 221.722 163.505 222.193 163.575 222.516C163.646 222.832 163.745 223.11 163.874 223.351V223.5H160.903C160.763 223.207 160.657 222.85 160.587 222.428C160.522 222 160.49 221.561 160.49 221.109ZM160.851 217.69L160.868 219.272H159.559C159.283 219.272 159.049 219.311 158.855 219.387C158.668 219.463 158.516 219.568 158.398 219.703C158.287 219.832 158.205 219.979 158.152 220.143C158.105 220.307 158.082 220.479 158.082 220.661C158.082 220.837 158.123 220.995 158.205 221.136C158.293 221.271 158.41 221.376 158.557 221.452C158.703 221.528 158.867 221.566 159.049 221.566C159.377 221.566 159.655 221.505 159.884 221.382C160.118 221.253 160.297 221.098 160.42 220.916C160.543 220.734 160.604 220.564 160.604 220.406L161.255 221.619C161.138 221.854 161.003 222.091 160.851 222.331C160.704 222.571 160.52 222.794 160.297 222.999C160.08 223.198 159.813 223.362 159.497 223.491C159.181 223.614 158.797 223.676 158.346 223.676C157.76 223.676 157.221 223.556 156.729 223.315C156.242 223.075 155.853 222.741 155.56 222.313C155.267 221.88 155.12 221.382 155.12 220.819C155.12 220.327 155.208 219.888 155.384 219.501C155.565 219.114 155.838 218.786 156.201 218.517C156.564 218.247 157.027 218.042 157.59 217.901C158.152 217.761 158.814 217.69 159.576 217.69H160.851ZM169.13 221.391C169.405 221.391 169.64 221.341 169.833 221.241C170.032 221.136 170.182 220.989 170.281 220.802C170.387 220.608 170.437 220.377 170.431 220.107H173.217C173.223 220.822 173.047 221.449 172.689 221.988C172.338 222.521 171.857 222.938 171.248 223.236C170.645 223.529 169.962 223.676 169.2 223.676C168.456 223.676 167.806 223.556 167.249 223.315C166.692 223.069 166.227 222.729 165.852 222.296C165.482 221.856 165.204 221.344 165.017 220.758C164.835 220.172 164.744 219.536 164.744 218.851V218.648C164.744 217.963 164.835 217.327 165.017 216.741C165.204 216.149 165.482 215.637 165.852 215.203C166.227 214.764 166.689 214.424 167.24 214.184C167.797 213.938 168.444 213.814 169.183 213.814C169.974 213.814 170.671 213.964 171.274 214.263C171.884 214.562 172.361 214.995 172.707 215.563C173.053 216.132 173.223 216.82 173.217 217.629H170.431C170.437 217.342 170.393 217.084 170.299 216.855C170.205 216.627 170.059 216.445 169.859 216.311C169.666 216.17 169.417 216.1 169.112 216.1C168.808 216.1 168.562 216.167 168.374 216.302C168.187 216.437 168.043 216.624 167.943 216.864C167.85 217.099 167.785 217.368 167.75 217.673C167.721 217.978 167.706 218.303 167.706 218.648V218.851C167.706 219.202 167.721 219.533 167.75 219.844C167.785 220.148 167.853 220.418 167.952 220.652C168.052 220.881 168.195 221.062 168.383 221.197C168.57 221.326 168.819 221.391 169.13 221.391ZM179.492 213.99V216.047H173.762V213.99H179.492ZM174.966 211.626H177.928V220.397C177.928 220.649 177.957 220.846 178.016 220.986C178.074 221.121 178.174 221.218 178.314 221.276C178.461 221.329 178.654 221.355 178.895 221.355C179.064 221.355 179.205 221.353 179.316 221.347C179.428 221.335 179.533 221.32 179.633 221.303V223.421C179.381 223.503 179.117 223.564 178.842 223.605C178.566 223.652 178.273 223.676 177.963 223.676C177.33 223.676 176.788 223.576 176.337 223.377C175.892 223.178 175.552 222.864 175.317 222.437C175.083 222.009 174.966 221.452 174.966 220.767V211.626Z" fill="white"/>
<path d="M352 196.5H225C223.343 196.5 222 197.843 222 199.5V234.5C222 236.157 223.343 237.5 225 237.5H352C353.657 237.5 355 236.157 355 234.5V199.5C355 197.843 353.657 196.5 352 196.5Z" fill="#424242"/>
<path d="M352 196.5H225C223.343 196.5 222 197.843 222 199.5V234.5C222 236.157 223.343 237.5 225 237.5H352C353.657 237.5 355 236.157 355 234.5V199.5C355 197.843 353.657 196.5 352 196.5Z" stroke="#424242" stroke-width="4"/>
<path d="M251.34 210.703V223.5H248.255V210.703H251.34ZM255.189 210.703V213.085H244.493V210.703H255.189ZM258.556 222.384L261.017 213.99H264.198L260.375 224.915C260.293 225.155 260.185 225.413 260.05 225.688C259.915 225.97 259.73 226.236 259.496 226.488C259.262 226.74 258.96 226.945 258.591 227.104C258.228 227.262 257.776 227.341 257.237 227.341C256.95 227.341 256.739 227.326 256.604 227.297C256.476 227.273 256.276 227.229 256.007 227.165V225.047C256.083 225.047 256.147 225.047 256.2 225.047C256.259 225.047 256.323 225.047 256.394 225.047C256.71 225.047 256.962 225.015 257.149 224.95C257.343 224.886 257.489 224.792 257.589 224.669C257.694 224.546 257.776 224.396 257.835 224.221L258.556 222.384ZM257.932 213.99L259.804 220.644L260.129 223.781H258.143L254.759 213.99H257.932ZM267.96 215.818V227.156H264.998V213.99H267.758L267.96 215.818ZM273.796 218.631V218.815C273.796 219.507 273.717 220.148 273.559 220.74C273.4 221.332 273.166 221.848 272.855 222.287C272.545 222.727 272.158 223.069 271.695 223.315C271.238 223.556 270.708 223.676 270.104 223.676C269.536 223.676 269.047 223.55 268.637 223.298C268.227 223.046 267.884 222.697 267.608 222.252C267.333 221.807 267.11 221.297 266.94 220.723C266.771 220.148 266.636 219.542 266.536 218.903V218.666C266.636 217.98 266.771 217.345 266.94 216.759C267.11 216.167 267.333 215.651 267.608 215.212C267.884 214.772 268.224 214.43 268.628 214.184C269.038 213.938 269.527 213.814 270.096 213.814C270.699 213.814 271.229 213.929 271.687 214.157C272.149 214.386 272.536 214.714 272.847 215.142C273.163 215.563 273.4 216.07 273.559 216.662C273.717 217.254 273.796 217.91 273.796 218.631ZM270.834 218.815V218.631C270.834 218.262 270.808 217.925 270.755 217.62C270.702 217.31 270.617 217.04 270.5 216.812C270.389 216.583 270.239 216.407 270.052 216.284C269.864 216.161 269.633 216.1 269.357 216.1C269.041 216.1 268.774 216.149 268.558 216.249C268.347 216.343 268.177 216.489 268.048 216.688C267.925 216.882 267.837 217.125 267.784 217.418C267.737 217.705 267.717 218.042 267.723 218.429V219.149C267.711 219.595 267.755 219.987 267.854 220.327C267.954 220.661 268.127 220.922 268.373 221.109C268.619 221.297 268.953 221.391 269.375 221.391C269.656 221.391 269.891 221.326 270.078 221.197C270.266 221.062 270.415 220.878 270.526 220.644C270.638 220.403 270.717 220.128 270.764 219.817C270.811 219.507 270.834 219.173 270.834 218.815ZM279.72 223.676C278.946 223.676 278.255 223.556 277.646 223.315C277.036 223.069 276.521 222.732 276.099 222.305C275.683 221.877 275.363 221.385 275.141 220.828C274.924 220.271 274.815 219.683 274.815 219.062V218.728C274.815 218.03 274.912 217.386 275.105 216.794C275.299 216.196 275.586 215.675 275.967 215.229C276.348 214.784 276.825 214.438 277.399 214.192C277.974 213.94 278.642 213.814 279.403 213.814C280.077 213.814 280.681 213.923 281.214 214.14C281.747 214.356 282.198 214.667 282.567 215.071C282.942 215.476 283.227 215.965 283.42 216.539C283.619 217.113 283.719 217.758 283.719 218.473V219.677H275.949V217.822H280.827V217.594C280.833 217.277 280.777 217.008 280.66 216.785C280.549 216.562 280.385 216.393 280.168 216.275C279.951 216.158 279.688 216.1 279.377 216.1C279.055 216.1 278.788 216.17 278.577 216.311C278.372 216.451 278.211 216.645 278.094 216.891C277.982 217.131 277.903 217.409 277.856 217.726C277.81 218.042 277.786 218.376 277.786 218.728V219.062C277.786 219.413 277.833 219.732 277.927 220.02C278.026 220.307 278.167 220.553 278.349 220.758C278.536 220.957 278.759 221.112 279.017 221.224C279.28 221.335 279.579 221.391 279.913 221.391C280.317 221.391 280.716 221.314 281.108 221.162C281.501 221.01 281.838 220.758 282.119 220.406L283.464 222.006C283.271 222.281 282.995 222.548 282.638 222.806C282.286 223.063 281.864 223.274 281.372 223.438C280.88 223.597 280.329 223.676 279.72 223.676ZM291.655 220.099C291.655 219.899 291.626 219.721 291.567 219.562C291.509 219.398 291.4 219.246 291.242 219.105C291.084 218.965 290.855 218.824 290.557 218.684C290.264 218.537 289.877 218.385 289.396 218.227C288.834 218.039 288.292 217.828 287.771 217.594C287.249 217.354 286.783 217.075 286.373 216.759C285.963 216.437 285.638 216.062 285.397 215.634C285.157 215.2 285.037 214.696 285.037 214.122C285.037 213.571 285.16 213.076 285.406 212.637C285.652 212.191 285.995 211.813 286.435 211.503C286.88 211.187 287.401 210.946 287.999 210.782C288.597 210.612 289.25 210.527 289.959 210.527C290.896 210.527 291.723 210.691 292.438 211.02C293.158 211.342 293.721 211.802 294.125 212.399C294.535 212.991 294.74 213.691 294.74 214.5H291.673C291.673 214.178 291.605 213.894 291.471 213.647C291.342 213.401 291.146 213.208 290.882 213.067C290.618 212.927 290.287 212.856 289.889 212.856C289.502 212.856 289.177 212.915 288.913 213.032C288.649 213.149 288.45 213.308 288.315 213.507C288.181 213.7 288.113 213.914 288.113 214.148C288.113 214.342 288.166 214.518 288.271 214.676C288.383 214.828 288.538 214.972 288.737 215.106C288.942 215.241 289.188 215.37 289.476 215.493C289.769 215.616 290.097 215.736 290.46 215.854C291.14 216.07 291.743 216.313 292.271 216.583C292.804 216.847 293.252 217.148 293.615 217.488C293.984 217.822 294.263 218.203 294.45 218.631C294.644 219.059 294.74 219.542 294.74 220.081C294.74 220.655 294.629 221.165 294.406 221.61C294.184 222.056 293.864 222.434 293.448 222.744C293.032 223.049 292.534 223.28 291.954 223.438C291.374 223.597 290.727 223.676 290.012 223.676C289.355 223.676 288.708 223.594 288.069 223.43C287.437 223.26 286.862 223.002 286.347 222.656C285.831 222.305 285.418 221.856 285.107 221.312C284.803 220.761 284.65 220.107 284.65 219.352H287.744C287.744 219.727 287.794 220.043 287.894 220.301C287.993 220.559 288.14 220.767 288.333 220.925C288.526 221.077 288.764 221.188 289.045 221.259C289.326 221.323 289.648 221.355 290.012 221.355C290.404 221.355 290.721 221.3 290.961 221.188C291.201 221.071 291.377 220.919 291.488 220.731C291.6 220.538 291.655 220.327 291.655 220.099ZM300.207 221.391C300.482 221.391 300.717 221.341 300.91 221.241C301.109 221.136 301.259 220.989 301.358 220.802C301.464 220.608 301.514 220.377 301.508 220.107H304.294C304.3 220.822 304.124 221.449 303.767 221.988C303.415 222.521 302.935 222.938 302.325 223.236C301.722 223.529 301.039 223.676 300.277 223.676C299.533 223.676 298.883 223.556 298.326 223.315C297.77 223.069 297.304 222.729 296.929 222.296C296.56 221.856 296.281 221.344 296.094 220.758C295.912 220.172 295.821 219.536 295.821 218.851V218.648C295.821 217.963 295.912 217.327 296.094 216.741C296.281 216.149 296.56 215.637 296.929 215.203C297.304 214.764 297.767 214.424 298.317 214.184C298.874 213.938 299.521 213.814 300.26 213.814C301.051 213.814 301.748 213.964 302.352 214.263C302.961 214.562 303.438 214.995 303.784 215.563C304.13 216.132 304.3 216.82 304.294 217.629H301.508C301.514 217.342 301.47 217.084 301.376 216.855C301.282 216.627 301.136 216.445 300.937 216.311C300.743 216.17 300.494 216.1 300.189 216.1C299.885 216.1 299.639 216.167 299.451 216.302C299.264 216.437 299.12 216.624 299.021 216.864C298.927 217.099 298.862 217.368 298.827 217.673C298.798 217.978 298.783 218.303 298.783 218.648V218.851C298.783 219.202 298.798 219.533 298.827 219.844C298.862 220.148 298.93 220.418 299.029 220.652C299.129 220.881 299.272 221.062 299.46 221.197C299.647 221.326 299.896 221.391 300.207 221.391ZM308.548 216.346V223.5H305.586V213.99H308.354L308.548 216.346ZM311.36 213.92L311.308 216.671C311.19 216.659 311.032 216.645 310.833 216.627C310.634 216.609 310.467 216.601 310.332 216.601C309.986 216.601 309.688 216.642 309.436 216.724C309.189 216.8 308.984 216.917 308.82 217.075C308.662 217.228 308.545 217.421 308.469 217.655C308.398 217.89 308.366 218.162 308.372 218.473L307.836 218.121C307.836 217.482 307.897 216.902 308.021 216.381C308.149 215.854 308.331 215.399 308.565 215.019C308.8 214.632 309.084 214.336 309.418 214.131C309.752 213.92 310.127 213.814 310.543 213.814C310.689 213.814 310.833 213.823 310.974 213.841C311.12 213.858 311.249 213.885 311.36 213.92ZM315.509 213.99V223.5H312.538V213.99H315.509ZM312.362 211.538C312.362 211.116 312.515 210.771 312.819 210.501C313.124 210.231 313.52 210.097 314.006 210.097C314.492 210.097 314.888 210.231 315.192 210.501C315.497 210.771 315.649 211.116 315.649 211.538C315.649 211.96 315.497 212.306 315.192 212.575C314.888 212.845 314.492 212.979 314.006 212.979C313.52 212.979 313.124 212.845 312.819 212.575C312.515 212.306 312.362 211.96 312.362 211.538ZM320.325 215.818V227.156H317.363V213.99H320.123L320.325 215.818ZM326.161 218.631V218.815C326.161 219.507 326.082 220.148 325.924 220.74C325.766 221.332 325.531 221.848 325.221 222.287C324.91 222.727 324.523 223.069 324.061 223.315C323.604 223.556 323.073 223.676 322.47 223.676C321.901 223.676 321.412 223.55 321.002 223.298C320.592 223.046 320.249 222.697 319.974 222.252C319.698 221.807 319.476 221.297 319.306 220.723C319.136 220.148 319.001 219.542 318.901 218.903V218.666C319.001 217.98 319.136 217.345 319.306 216.759C319.476 216.167 319.698 215.651 319.974 215.212C320.249 214.772 320.589 214.43 320.993 214.184C321.403 213.938 321.893 213.814 322.461 213.814C323.064 213.814 323.595 213.929 324.052 214.157C324.515 214.386 324.901 214.714 325.212 215.142C325.528 215.563 325.766 216.07 325.924 216.662C326.082 217.254 326.161 217.91 326.161 218.631ZM323.199 218.815V218.631C323.199 218.262 323.173 217.925 323.12 217.62C323.067 217.31 322.982 217.04 322.865 216.812C322.754 216.583 322.604 216.407 322.417 216.284C322.229 216.161 321.998 216.1 321.723 216.1C321.406 216.1 321.14 216.149 320.923 216.249C320.712 216.343 320.542 216.489 320.413 216.688C320.29 216.882 320.202 217.125 320.149 217.418C320.103 217.705 320.082 218.042 320.088 218.429V219.149C320.076 219.595 320.12 219.987 320.22 220.327C320.319 220.661 320.492 220.922 320.738 221.109C320.984 221.297 321.318 221.391 321.74 221.391C322.021 221.391 322.256 221.326 322.443 221.197C322.631 221.062 322.78 220.878 322.892 220.644C323.003 220.403 323.082 220.128 323.129 219.817C323.176 219.507 323.199 219.173 323.199 218.815ZM332.489 213.99V216.047H326.759V213.99H332.489ZM327.963 211.626H330.925V220.397C330.925 220.649 330.954 220.846 331.013 220.986C331.071 221.121 331.171 221.218 331.312 221.276C331.458 221.329 331.651 221.355 331.892 221.355C332.062 221.355 332.202 221.353 332.313 221.347C332.425 221.335 332.53 221.32 332.63 221.303V223.421C332.378 223.503 332.114 223.564 331.839 223.605C331.563 223.652 331.271 223.676 330.96 223.676C330.327 223.676 329.785 223.576 329.334 223.377C328.889 223.178 328.549 222.864 328.314 222.437C328.08 222.009 327.963 221.452 327.963 220.767V211.626Z" fill="white"/>
<path d="M453 196.5H378C376.343 196.5 375 197.843 375 199.5V234.5C375 236.157 376.343 237.5 378 237.5H453C454.657 237.5 456 236.157 456 234.5V199.5C456 197.843 454.657 196.5 453 196.5Z" fill="#424242"/>
<path d="M453 196.5H378C376.343 196.5 375 197.843 375 199.5V234.5C375 236.157 376.343 237.5 378 237.5H453C454.657 237.5 456 236.157 456 234.5V199.5C456 197.843 454.657 196.5 453 196.5Z" stroke="#424242" stroke-width="4"/>
<path d="M403.529 219.158H400.348V216.776H403.529C403.963 216.776 404.314 216.703 404.584 216.557C404.854 216.41 405.05 216.208 405.173 215.95C405.302 215.687 405.366 215.391 405.366 215.062C405.366 214.711 405.302 214.386 405.173 214.087C405.05 213.788 404.854 213.548 404.584 213.366C404.314 213.179 403.963 213.085 403.529 213.085H401.508V223.5H398.423V210.703H403.529C404.555 210.703 405.437 210.891 406.175 211.266C406.919 211.641 407.49 212.156 407.889 212.812C408.287 213.463 408.486 214.207 408.486 215.045C408.486 215.871 408.287 216.592 407.889 217.207C407.49 217.822 406.919 218.303 406.175 218.648C405.437 218.988 404.555 219.158 403.529 219.158ZM418.77 215.783V218.156H412.204V215.783H418.77ZM413.232 210.703V223.5H410.147V210.703H413.232ZM420.844 210.703V223.5H417.768V210.703H420.844ZM427.91 219.158H424.729V216.776H427.91C428.344 216.776 428.695 216.703 428.965 216.557C429.234 216.41 429.431 216.208 429.554 215.95C429.683 215.687 429.747 215.391 429.747 215.062C429.747 214.711 429.683 214.386 429.554 214.087C429.431 213.788 429.234 213.548 428.965 213.366C428.695 213.179 428.344 213.085 427.91 213.085H425.889V223.5H422.804V210.703H427.91C428.936 210.703 429.817 210.891 430.556 211.266C431.3 211.641 431.871 212.156 432.27 212.812C432.668 213.463 432.867 214.207 432.867 215.045C432.867 215.871 432.668 216.592 432.27 217.207C431.871 217.822 431.3 218.303 430.556 218.648C429.817 218.988 428.936 219.158 427.91 219.158Z" fill="white"/>
<path d="M577 196.5H479C477.343 196.5 476 197.843 476 199.5V234.5C476 236.157 477.343 237.5 479 237.5H577C578.657 237.5 580 236.157 580 234.5V199.5C580 197.843 578.657 196.5 577 196.5Z" fill="#424242"/>
<path d="M577 196.5H479C477.343 196.5 476 197.843 476 199.5V234.5C476 236.157 477.343 237.5 479 237.5H577C578.657 237.5 580 236.157 580 234.5V199.5C580 197.843 578.657 196.5 577 196.5Z" stroke="#424242" stroke-width="4"/>
<path d="M507.812 221.127V223.5H501.343V221.127H507.812ZM502.441 210.703V223.5H499.356V210.703H502.441ZM513.911 221.109V217.189C513.911 216.92 513.873 216.688 513.797 216.495C513.721 216.302 513.601 216.152 513.437 216.047C513.272 215.936 513.053 215.88 512.777 215.88C512.555 215.88 512.364 215.918 512.206 215.994C512.048 216.07 511.928 216.185 511.846 216.337C511.764 216.489 511.723 216.683 511.723 216.917H508.761C508.761 216.478 508.857 216.07 509.051 215.695C509.25 215.314 509.531 214.983 509.895 214.702C510.264 214.421 510.703 214.204 511.213 214.052C511.729 213.894 512.303 213.814 512.936 213.814C513.691 213.814 514.365 213.94 514.957 214.192C515.555 214.444 516.026 214.822 516.372 215.326C516.718 215.824 516.891 216.451 516.891 217.207V221.101C516.891 221.722 516.926 222.193 516.996 222.516C517.066 222.832 517.166 223.11 517.295 223.351V223.5H514.324C514.184 223.207 514.078 222.85 514.008 222.428C513.943 222 513.911 221.561 513.911 221.109ZM514.271 217.69L514.289 219.272H512.979C512.704 219.272 512.47 219.311 512.276 219.387C512.089 219.463 511.937 219.568 511.819 219.703C511.708 219.832 511.626 219.979 511.573 220.143C511.526 220.307 511.503 220.479 511.503 220.661C511.503 220.837 511.544 220.995 511.626 221.136C511.714 221.271 511.831 221.376 511.978 221.452C512.124 221.528 512.288 221.566 512.47 221.566C512.798 221.566 513.076 221.505 513.305 221.382C513.539 221.253 513.718 221.098 513.841 220.916C513.964 220.734 514.025 220.564 514.025 220.406L514.676 221.619C514.559 221.854 514.424 222.091 514.271 222.331C514.125 222.571 513.94 222.794 513.718 222.999C513.501 223.198 513.234 223.362 512.918 223.491C512.602 223.614 512.218 223.676 511.767 223.676C511.181 223.676 510.642 223.556 510.149 223.315C509.663 223.075 509.273 222.741 508.98 222.313C508.688 221.88 508.541 221.382 508.541 220.819C508.541 220.327 508.629 219.888 508.805 219.501C508.986 219.114 509.259 218.786 509.622 218.517C509.985 218.247 510.448 218.042 511.011 217.901C511.573 217.761 512.235 217.69 512.997 217.69H514.271ZM521.522 216.346V223.5H518.561V213.99H521.329L521.522 216.346ZM524.335 213.92L524.282 216.671C524.165 216.659 524.007 216.645 523.808 216.627C523.608 216.609 523.441 216.601 523.307 216.601C522.961 216.601 522.662 216.642 522.41 216.724C522.164 216.8 521.959 216.917 521.795 217.075C521.637 217.228 521.52 217.421 521.443 217.655C521.373 217.89 521.341 218.162 521.347 218.473L520.811 218.121C520.811 217.482 520.872 216.902 520.995 216.381C521.124 215.854 521.306 215.399 521.54 215.019C521.774 214.632 522.059 214.336 522.393 214.131C522.727 213.92 523.102 213.814 523.518 213.814C523.664 213.814 523.808 213.823 523.948 213.841C524.095 213.858 524.224 213.885 524.335 213.92ZM530.03 221.109V217.189C530.03 216.92 529.992 216.688 529.916 216.495C529.84 216.302 529.72 216.152 529.556 216.047C529.392 215.936 529.172 215.88 528.896 215.88C528.674 215.88 528.483 215.918 528.325 215.994C528.167 216.07 528.047 216.185 527.965 216.337C527.883 216.489 527.842 216.683 527.842 216.917H524.88C524.88 216.478 524.977 216.07 525.17 215.695C525.369 215.314 525.65 214.983 526.014 214.702C526.383 214.421 526.822 214.204 527.332 214.052C527.848 213.894 528.422 213.814 529.055 213.814C529.811 213.814 530.484 213.94 531.076 214.192C531.674 214.444 532.146 214.822 532.491 215.326C532.837 215.824 533.01 216.451 533.01 217.207V221.101C533.01 221.722 533.045 222.193 533.115 222.516C533.186 222.832 533.285 223.11 533.414 223.351V223.5H530.443C530.303 223.207 530.197 222.85 530.127 222.428C530.062 222 530.03 221.561 530.03 221.109ZM530.391 217.69L530.408 219.272H529.099C528.823 219.272 528.589 219.311 528.396 219.387C528.208 219.463 528.056 219.568 527.938 219.703C527.827 219.832 527.745 219.979 527.692 220.143C527.646 220.307 527.622 220.479 527.622 220.661C527.622 220.837 527.663 220.995 527.745 221.136C527.833 221.271 527.95 221.376 528.097 221.452C528.243 221.528 528.407 221.566 528.589 221.566C528.917 221.566 529.195 221.505 529.424 221.382C529.658 221.253 529.837 221.098 529.96 220.916C530.083 220.734 530.145 220.564 530.145 220.406L530.795 221.619C530.678 221.854 530.543 222.091 530.391 222.331C530.244 222.571 530.06 222.794 529.837 222.999C529.62 223.198 529.354 223.362 529.037 223.491C528.721 223.614 528.337 223.676 527.886 223.676C527.3 223.676 526.761 223.556 526.269 223.315C525.782 223.075 525.393 222.741 525.1 222.313C524.807 221.88 524.66 221.382 524.66 220.819C524.66 220.327 524.748 219.888 524.924 219.501C525.105 219.114 525.378 218.786 525.741 218.517C526.104 218.247 526.567 218.042 527.13 217.901C527.692 217.761 528.354 217.69 529.116 217.69H530.391ZM537.94 221.47L539.812 213.99H542.933L539.821 223.5H537.976L537.94 221.47ZM536.833 213.99L538.679 221.47L538.661 223.5H536.807L533.704 213.99H536.833ZM548.294 223.676C547.521 223.676 546.829 223.556 546.22 223.315C545.61 223.069 545.095 222.732 544.673 222.305C544.257 221.877 543.938 221.385 543.715 220.828C543.498 220.271 543.39 219.683 543.39 219.062V218.728C543.39 218.03 543.486 217.386 543.68 216.794C543.873 216.196 544.16 215.675 544.541 215.229C544.922 214.784 545.399 214.438 545.974 214.192C546.548 213.94 547.216 213.814 547.978 213.814C548.651 213.814 549.255 213.923 549.788 214.14C550.321 214.356 550.772 214.667 551.142 215.071C551.517 215.476 551.801 215.965 551.994 216.539C552.193 217.113 552.293 217.758 552.293 218.473V219.677H544.523V217.822H549.401V217.594C549.407 217.277 549.352 217.008 549.234 216.785C549.123 216.562 548.959 216.393 548.742 216.275C548.525 216.158 548.262 216.1 547.951 216.1C547.629 216.1 547.362 216.17 547.151 216.311C546.946 216.451 546.785 216.645 546.668 216.891C546.557 217.131 546.478 217.409 546.431 217.726C546.384 218.042 546.36 218.376 546.36 218.728V219.062C546.36 219.413 546.407 219.732 546.501 220.02C546.601 220.307 546.741 220.553 546.923 220.758C547.11 220.957 547.333 221.112 547.591 221.224C547.854 221.335 548.153 221.391 548.487 221.391C548.892 221.391 549.29 221.314 549.683 221.162C550.075 221.01 550.412 220.758 550.693 220.406L552.038 222.006C551.845 222.281 551.569 222.548 551.212 222.806C550.86 223.063 550.438 223.274 549.946 223.438C549.454 223.597 548.903 223.676 548.294 223.676ZM556.626 210V223.5H553.655V210H556.626Z" fill="white"/>
<path d="M680 196.5H603C601.343 196.5 600 197.843 600 199.5V234.5C600 236.157 601.343 237.5 603 237.5H680C681.657 237.5 683 236.157 683 234.5V199.5C683 197.843 681.657 196.5 680 196.5Z" fill="#424242"/>
<path d="M680 196.5H603C601.343 196.5 600 197.843 600 199.5V234.5C600 236.157 601.343 237.5 603 237.5H680C681.657 237.5 683 236.157 683 234.5V199.5C683 197.843 681.657 196.5 680 196.5Z" stroke="#424242" stroke-width="4"/>
<path d="M628.483 213.393L625.363 223.5H622.05L626.752 210.703H628.853L628.483 213.393ZM631.067 223.5L627.938 213.393L627.534 210.703H629.661L634.39 223.5H631.067ZM630.944 218.728V221.109H624.379V218.728H630.944ZM637.932 222.34L640.48 210.703H642.001L642.827 211.696L640.111 223.5H638.433L637.932 222.34ZM637.255 210.703L639.408 222.428L638.854 223.5H636.912L634.196 210.703H637.255ZM644.225 222.366L646.36 210.703H649.41L646.694 223.5H644.761L644.225 222.366ZM643.1 210.703L645.71 222.41L645.183 223.5H643.504L640.727 211.679L641.588 210.703H643.1ZM657.215 220.099C657.215 219.899 657.186 219.721 657.127 219.562C657.068 219.398 656.96 219.246 656.802 219.105C656.644 218.965 656.415 218.824 656.116 218.684C655.823 218.537 655.437 218.385 654.956 218.227C654.394 218.039 653.852 217.828 653.33 217.594C652.809 217.354 652.343 217.075 651.933 216.759C651.522 216.437 651.197 216.062 650.957 215.634C650.717 215.2 650.597 214.696 650.597 214.122C650.597 213.571 650.72 213.076 650.966 212.637C651.212 212.191 651.555 211.813 651.994 211.503C652.439 211.187 652.961 210.946 653.559 210.782C654.156 210.612 654.81 210.527 655.519 210.527C656.456 210.527 657.282 210.691 657.997 211.02C658.718 211.342 659.28 211.802 659.685 212.399C660.095 212.991 660.3 213.691 660.3 214.5H657.232C657.232 214.178 657.165 213.894 657.03 213.647C656.901 213.401 656.705 213.208 656.441 213.067C656.178 212.927 655.847 212.856 655.448 212.856C655.062 212.856 654.736 212.915 654.473 213.032C654.209 213.149 654.01 213.308 653.875 213.507C653.74 213.7 653.673 213.914 653.673 214.148C653.673 214.342 653.726 214.518 653.831 214.676C653.942 214.828 654.098 214.972 654.297 215.106C654.502 215.241 654.748 215.37 655.035 215.493C655.328 215.616 655.656 215.736 656.02 215.854C656.699 216.07 657.303 216.313 657.83 216.583C658.363 216.847 658.812 217.148 659.175 217.488C659.544 217.822 659.822 218.203 660.01 218.631C660.203 219.059 660.3 219.542 660.3 220.081C660.3 220.655 660.188 221.165 659.966 221.61C659.743 222.056 659.424 222.434 659.008 222.744C658.592 223.049 658.094 223.28 657.514 223.438C656.934 223.597 656.286 223.676 655.571 223.676C654.915 223.676 654.268 223.594 653.629 223.43C652.996 223.26 652.422 223.002 651.906 222.656C651.391 222.305 650.978 221.856 650.667 221.312C650.362 220.761 650.21 220.107 650.21 219.352H653.304C653.304 219.727 653.354 220.043 653.453 220.301C653.553 220.559 653.699 220.767 653.893 220.925C654.086 221.077 654.323 221.188 654.604 221.259C654.886 221.323 655.208 221.355 655.571 221.355C655.964 221.355 656.28 221.3 656.521 221.188C656.761 221.071 656.937 220.919 657.048 220.731C657.159 220.538 657.215 220.327 657.215 220.099Z" fill="white"/>
<path d="M1066 0.5H1348C1356.28 0.5 1363 7.21573 1363 15.5V282.5C1363 290.784 1356.28 297.5 1348 297.5H1066V0.5Z" fill="white"/>
<mask id="mask0_296_2540" style="mask-type:luminance" maskUnits="userSpaceOnUse" x="1136" y="206" width="157" height="23">
<path d="M1136.92 206.534H1292.09V228.432H1136.92V206.534Z" fill="white"/>
</mask>
<g mask="url(#mask0_296_2540)">
<mask id="mask1_296_2540" style="mask-type:luminance" maskUnits="userSpaceOnUse" x="1136" y="206" width="157" height="23">
<path d="M1214.5 206.534C1171.65 206.534 1136.92 211.435 1136.92 217.48C1136.92 223.53 1171.65 228.432 1214.5 228.432C1257.35 228.432 1292.08 223.53 1292.08 217.48C1292.08 211.435 1257.35 206.534 1214.5 206.534Z" fill="white"/>
</mask>
<g mask="url(#mask1_296_2540)">
<path d="M1136.92 206.534H1292.09V228.432H1136.92V206.534Z" fill="#DBE7F8"/>
</g>
</g>
<mask id="mask2_296_2540" style="mask-type:luminance" maskUnits="userSpaceOnUse" x="1169" y="73" width="91" height="88">
<path d="M1169.41 73.5189H1259.6V160.316H1169.41V73.5189Z" fill="white"/>
</mask>
<g mask="url(#mask2_296_2540)">
<mask id="mask3_296_2540" style="mask-type:luminance" maskUnits="userSpaceOnUse" x="1169" y="73" width="91" height="88">
<path d="M1214.5 73.5189C1189.6 73.5189 1169.41 92.9478 1169.41 116.917C1169.41 140.884 1189.6 160.316 1214.5 160.316C1239.4 160.316 1259.59 140.884 1259.59 116.917C1259.59 92.9478 1239.4 73.5189 1214.5 73.5189Z" fill="white"/>
</mask>
<g mask="url(#mask3_296_2540)">
<path d="M1169.41 73.5189H1259.6V160.316H1169.41V73.5189Z" fill="#F2FFF9"/>
</g>
</g>
<mask id="mask4_296_2540" style="mask-type:luminance" maskUnits="userSpaceOnUse" x="1169" y="88" width="91" height="91">
<path d="M1169.41 88.2319H1259.59V178.414H1169.41V88.2319Z" fill="white"/>
</mask>
<g mask="url(#mask4_296_2540)">
<mask id="mask5_296_2540" style="mask-type:luminance" maskUnits="userSpaceOnUse" x="1169" y="88" width="91" height="91">
<path d="M1214.5 88.2319C1189.6 88.2319 1169.41 108.421 1169.41 133.322C1169.41 158.226 1189.6 178.414 1214.5 178.414C1239.4 178.414 1259.59 158.226 1259.59 133.322C1259.59 108.421 1239.4 88.2319 1214.5 88.2319Z" fill="white"/>
</mask>
<g mask="url(#mask5_296_2540)">
<path d="M1169.41 88.2319H1259.59V178.414H1169.41V88.2319Z" fill="#A8FFD5"/>
</g>
</g>
<mask id="mask6_296_2540" style="mask-type:luminance" maskUnits="userSpaceOnUse" x="1169" y="103" width="91" height="91">
<path d="M1169.41 103.148H1259.59V193.33H1169.41V103.148Z" fill="white"/>
</mask>
<g mask="url(#mask6_296_2540)">
<mask id="mask7_296_2540" style="mask-type:luminance" maskUnits="userSpaceOnUse" x="1169" y="103" width="91" height="91">
<path d="M1214.5 103.148C1189.6 103.148 1169.41 123.337 1169.41 148.241C1169.41 173.141 1189.6 193.33 1214.5 193.33C1239.4 193.33 1259.59 173.141 1259.59 148.241C1259.59 123.337 1239.4 103.148 1214.5 103.148Z" fill="white"/>
</mask>
<g mask="url(#mask7_296_2540)">
<path d="M1169.41 103.148H1259.59V193.33H1169.41V103.148Z" fill="white"/>
</g>
</g>
<mask id="mask8_296_2540" style="mask-type:luminance" maskUnits="userSpaceOnUse" x="1169" y="103" width="91" height="115">
<path d="M1169.41 103.148H1259.94V217.26H1169.41V103.148Z" fill="white"/>
</mask>
<g mask="url(#mask8_296_2540)">
<path d="M1214.67 184.339C1194.56 184.339 1178.26 168.13 1178.26 148.138C1178.26 128.151 1194.56 111.943 1214.67 111.943C1234.78 111.943 1251.08 128.151 1251.08 148.138C1251.08 168.13 1234.78 184.339 1214.67 184.339ZM1214.67 103.151C1189.68 103.151 1169.42 123.29 1169.42 148.138C1169.42 188.004 1214.67 217.263 1214.67 217.263C1214.67 217.263 1259.93 188.004 1259.93 148.138C1259.93 123.29 1239.66 103.151 1214.67 103.151Z" fill="#40C784"/>
</g>
<path d="M1230.1 154.635C1228.59 154.635 1225.46 154.635 1225.46 152.106C1225.46 149.947 1227.93 147.487 1230.1 147.487C1232.28 147.487 1234.05 149.247 1234.05 151.408C1234.05 153.398 1232.54 154.635 1230.1 154.635ZM1222.46 157.734C1222.46 157.98 1222.26 158.189 1222.01 158.189H1207.34C1207.09 158.189 1206.88 157.98 1206.88 157.734V154.146C1206.88 153.9 1207.09 153.701 1207.34 153.701H1222.01C1222.26 153.701 1222.46 153.9 1222.46 154.146V157.734ZM1199.25 154.635C1196.82 154.635 1195.3 153.398 1195.3 151.408C1195.3 149.247 1197.07 147.487 1199.25 147.487C1201.41 147.487 1203.89 149.947 1203.89 152.106C1203.89 154.635 1200.75 154.635 1199.25 154.635ZM1202.35 137.016C1202.92 135.648 1204.68 134.496 1206.17 134.496H1223.18C1224.67 134.496 1226.42 135.648 1227 137.016L1229.35 142.591C1225.64 141.709 1220.74 141.264 1214.67 141.264C1208.6 141.264 1203.71 141.709 1200 142.591L1202.35 137.016ZM1238.04 149.876C1238.04 147.222 1236.35 145.185 1232.99 143.749L1235.48 143.5C1235.73 143.478 1235.96 143.354 1236.13 143.164C1236.29 142.965 1236.37 142.715 1236.35 142.463L1236.21 141.09C1236.16 140.576 1235.72 140.189 1235.19 140.227L1229.96 140.171L1228.39 136.44C1227.57 134.508 1225.29 132.995 1223.18 132.995H1206.17C1204.06 132.995 1201.77 134.508 1200.96 136.44L1199.38 140.171L1194.15 140.227C1193.62 140.189 1193.18 140.576 1193.13 141.09L1193.01 142.463C1192.98 142.715 1193.05 142.965 1193.22 143.164C1193.38 143.354 1193.61 143.478 1193.87 143.5L1196.35 143.749C1192.99 145.185 1191.3 147.222 1191.3 149.876V150.334C1191.3 152.716 1191.28 155.171 1193.22 157.102C1193.44 157.32 1193.69 157.528 1193.95 157.728V162.428C1193.95 163.194 1194.58 163.82 1195.35 163.82H1201.75C1202.52 163.82 1203.14 163.194 1203.14 162.428V160.562C1206.26 160.948 1210.06 161.129 1214.67 161.129C1219.28 161.129 1223.1 160.948 1226.2 160.562V162.428C1226.2 163.194 1226.83 163.82 1227.6 163.82H1234C1234.77 163.82 1235.39 163.194 1235.39 162.428V157.728C1235.66 157.528 1235.91 157.32 1236.13 157.102C1238.06 155.171 1238.06 152.716 1238.04 150.334V149.876Z" fill="#40C784"/>
</g>
<defs>
<clipPath id="clip0_296_2540">
<rect width="1363" height="297" fill="white" transform="translate(0 0.5)"/>
</clipPath>
</defs>
</svg>
