<svg width="1363" height="163" viewBox="0 0 1363 163" fill="none" xmlns="http://www.w3.org/2000/svg">
<path d="M0 15C0 6.71573 6.71573 0 15 0H37V163H15C6.71573 163 0 156.284 0 148V15Z" fill="#424242"/>
<rect width="1097" height="163" transform="translate(37)" fill="#F0F0F0"/>
<path d="M104.414 55.3398H107.918C107.848 56.4883 107.531 57.5078 106.969 58.3984C106.414 59.2891 105.637 59.9844 104.637 60.4844C103.645 60.9844 102.449 61.2344 101.051 61.2344C99.957 61.2344 98.9766 61.0469 98.1094 60.6719C97.2422 60.2891 96.5 59.7422 95.8828 59.0312C95.2734 58.3203 94.8086 57.4609 94.4883 56.4531C94.168 55.4453 94.0078 54.3164 94.0078 53.0664V51.8828C94.0078 50.6328 94.1719 49.5039 94.5 48.4961C94.8359 47.4805 95.3125 46.6172 95.9297 45.9062C96.5547 45.1953 97.3008 44.6484 98.168 44.2656C99.0352 43.8828 100.004 43.6914 101.074 43.6914C102.496 43.6914 103.695 43.9492 104.672 44.4648C105.656 44.9805 106.418 45.6914 106.957 46.5977C107.504 47.5039 107.832 48.5352 107.941 49.6914H104.426C104.387 49.0039 104.25 48.4219 104.016 47.9453C103.781 47.4609 103.426 47.0977 102.949 46.8555C102.48 46.6055 101.855 46.4805 101.074 46.4805C100.488 46.4805 99.9766 46.5898 99.5391 46.8086C99.1016 47.0273 98.7344 47.3594 98.4375 47.8047C98.1406 48.25 97.918 48.8125 97.7695 49.4922C97.6289 50.1641 97.5586 50.9531 97.5586 51.8594V53.0664C97.5586 53.9492 97.625 54.7266 97.7578 55.3984C97.8906 56.0625 98.0938 56.625 98.3672 57.0859C98.6484 57.5391 99.0078 57.8828 99.4453 58.1172C99.8906 58.3438 100.426 58.457 101.051 58.457C101.785 58.457 102.391 58.3398 102.867 58.1055C103.344 57.8711 103.707 57.5234 103.957 57.0625C104.215 56.6016 104.367 56.0273 104.414 55.3398ZM116.859 58.1406V52.4922C116.859 52.0859 116.793 51.7383 116.66 51.4492C116.527 51.1523 116.32 50.9219 116.039 50.7578C115.766 50.5938 115.41 50.5117 114.973 50.5117C114.598 50.5117 114.273 50.5781 114 50.7109C113.727 50.8359 113.516 51.0195 113.367 51.2617C113.219 51.4961 113.145 51.7734 113.145 52.0938H109.77C109.77 51.5547 109.895 51.043 110.145 50.5586C110.395 50.0742 110.758 49.6484 111.234 49.2812C111.711 48.9062 112.277 48.6133 112.934 48.4023C113.598 48.1914 114.34 48.0859 115.16 48.0859C116.145 48.0859 117.02 48.25 117.785 48.5781C118.551 48.9062 119.152 49.3984 119.59 50.0547C120.035 50.7109 120.258 51.5312 120.258 52.5156V57.9414C120.258 58.6367 120.301 59.207 120.387 59.6523C120.473 60.0898 120.598 60.4727 120.762 60.8008V61H117.352C117.188 60.6562 117.062 60.2266 116.977 59.7109C116.898 59.1875 116.859 58.6641 116.859 58.1406ZM117.305 53.2773L117.328 55.1875H115.441C114.996 55.1875 114.609 55.2383 114.281 55.3398C113.953 55.4414 113.684 55.5859 113.473 55.7734C113.262 55.9531 113.105 56.1641 113.004 56.4062C112.91 56.6484 112.863 56.9141 112.863 57.2031C112.863 57.4922 112.93 57.7539 113.062 57.9883C113.195 58.2148 113.387 58.3945 113.637 58.5273C113.887 58.6523 114.18 58.7148 114.516 58.7148C115.023 58.7148 115.465 58.6133 115.84 58.4102C116.215 58.207 116.504 57.957 116.707 57.6602C116.918 57.3633 117.027 57.082 117.035 56.8164L117.926 58.2461C117.801 58.5664 117.629 58.8984 117.41 59.2422C117.199 59.5859 116.93 59.9102 116.602 60.2148C116.273 60.5117 115.879 60.7578 115.418 60.9531C114.957 61.1406 114.41 61.2344 113.777 61.2344C112.973 61.2344 112.242 61.0742 111.586 60.7539C110.938 60.4258 110.422 59.9766 110.039 59.4062C109.664 58.8281 109.477 58.1719 109.477 57.4375C109.477 56.7734 109.602 56.1836 109.852 55.668C110.102 55.1523 110.469 54.7188 110.953 54.3672C111.445 54.0078 112.059 53.7383 112.793 53.5586C113.527 53.3711 114.379 53.2773 115.348 53.2773H117.305ZM126.234 51.0859V61H122.859V48.3203H126.035L126.234 51.0859ZM130.055 48.2383L129.996 51.3672C129.832 51.3438 129.633 51.3242 129.398 51.3086C129.172 51.2852 128.965 51.2734 128.777 51.2734C128.301 51.2734 127.887 51.3359 127.535 51.4609C127.191 51.5781 126.902 51.7539 126.668 51.9883C126.441 52.2227 126.27 52.5078 126.152 52.8438C126.043 53.1797 125.98 53.5625 125.965 53.9922L125.285 53.7812C125.285 52.9609 125.367 52.207 125.531 51.5195C125.695 50.8242 125.934 50.2188 126.246 49.7031C126.566 49.1875 126.957 48.7891 127.418 48.5078C127.879 48.2266 128.406 48.0859 129 48.0859C129.188 48.0859 129.379 48.1016 129.574 48.1328C129.77 48.1562 129.93 48.1914 130.055 48.2383ZM135.023 50.7578V65.875H131.648V48.3203H134.777L135.023 50.7578ZM143.051 54.5195V54.7656C143.051 55.6875 142.941 56.543 142.723 57.332C142.512 58.1211 142.199 58.8086 141.785 59.3945C141.371 59.9727 140.855 60.4258 140.238 60.7539C139.629 61.0742 138.926 61.2344 138.129 61.2344C137.355 61.2344 136.684 61.0781 136.113 60.7656C135.543 60.4531 135.062 60.0156 134.672 59.4531C134.289 58.8828 133.98 58.2227 133.746 57.4727C133.512 56.7227 133.332 55.918 133.207 55.0586V54.4141C133.332 53.4922 133.512 52.6484 133.746 51.8828C133.98 51.1094 134.289 50.4414 134.672 49.8789C135.062 49.3086 135.539 48.8672 136.102 48.5547C136.672 48.2422 137.34 48.0859 138.105 48.0859C138.91 48.0859 139.617 48.2383 140.227 48.543C140.844 48.8477 141.359 49.2852 141.773 49.8555C142.195 50.4258 142.512 51.1055 142.723 51.8945C142.941 52.6836 143.051 53.5586 143.051 54.5195ZM139.664 54.7656V54.5195C139.664 53.9805 139.617 53.4844 139.523 53.0312C139.438 52.5703 139.297 52.168 139.102 51.8242C138.914 51.4805 138.664 51.2148 138.352 51.0273C138.047 50.832 137.676 50.7344 137.238 50.7344C136.777 50.7344 136.383 50.8086 136.055 50.957C135.734 51.1055 135.473 51.3203 135.27 51.6016C135.066 51.8828 134.914 52.2188 134.812 52.6094C134.711 53 134.648 53.4414 134.625 53.9336V55.5625C134.664 56.1406 134.773 56.6602 134.953 57.1211C135.133 57.5742 135.41 57.9336 135.785 58.1992C136.16 58.4648 136.652 58.5977 137.262 58.5977C137.707 58.5977 138.082 58.5 138.387 58.3047C138.691 58.1016 138.938 57.8242 139.125 57.4727C139.32 57.1211 139.457 56.7148 139.535 56.2539C139.621 55.793 139.664 55.2969 139.664 54.7656ZM144.609 54.7891V54.543C144.609 53.6133 144.742 52.7578 145.008 51.9766C145.273 51.1875 145.66 50.5039 146.168 49.9258C146.676 49.3477 147.301 48.8984 148.043 48.5781C148.785 48.25 149.637 48.0859 150.598 48.0859C151.559 48.0859 152.414 48.25 153.164 48.5781C153.914 48.8984 154.543 49.3477 155.051 49.9258C155.566 50.5039 155.957 51.1875 156.223 51.9766C156.488 52.7578 156.621 53.6133 156.621 54.543V54.7891C156.621 55.7109 156.488 56.5664 156.223 57.3555C155.957 58.1367 155.566 58.8203 155.051 59.4062C154.543 59.9844 153.918 60.4336 153.176 60.7539C152.434 61.0742 151.582 61.2344 150.621 61.2344C149.66 61.2344 148.805 61.0742 148.055 60.7539C147.312 60.4336 146.684 59.9844 146.168 59.4062C145.66 58.8203 145.273 58.1367 145.008 57.3555C144.742 56.5664 144.609 55.7109 144.609 54.7891ZM147.984 54.543V54.7891C147.984 55.3203 148.031 55.8164 148.125 56.2773C148.219 56.7383 148.367 57.1445 148.57 57.4961C148.781 57.8398 149.055 58.1094 149.391 58.3047C149.727 58.5 150.137 58.5977 150.621 58.5977C151.09 58.5977 151.492 58.5 151.828 58.3047C152.164 58.1094 152.434 57.8398 152.637 57.4961C152.84 57.1445 152.988 56.7383 153.082 56.2773C153.184 55.8164 153.234 55.3203 153.234 54.7891V54.543C153.234 54.0273 153.184 53.543 153.082 53.0898C152.988 52.6289 152.836 52.2227 152.625 51.8711C152.422 51.5117 152.152 51.2305 151.816 51.0273C151.48 50.8242 151.074 50.7227 150.598 50.7227C150.121 50.7227 149.715 50.8242 149.379 51.0273C149.051 51.2305 148.781 51.5117 148.57 51.8711C148.367 52.2227 148.219 52.6289 148.125 53.0898C148.031 53.543 147.984 54.0273 147.984 54.543ZM158.156 54.7891V54.543C158.156 53.6133 158.289 52.7578 158.555 51.9766C158.82 51.1875 159.207 50.5039 159.715 49.9258C160.223 49.3477 160.848 48.8984 161.59 48.5781C162.332 48.25 163.184 48.0859 164.145 48.0859C165.105 48.0859 165.961 48.25 166.711 48.5781C167.461 48.8984 168.09 49.3477 168.598 49.9258C169.113 50.5039 169.504 51.1875 169.77 51.9766C170.035 52.7578 170.168 53.6133 170.168 54.543V54.7891C170.168 55.7109 170.035 56.5664 169.77 57.3555C169.504 58.1367 169.113 58.8203 168.598 59.4062C168.09 59.9844 167.465 60.4336 166.723 60.7539C165.98 61.0742 165.129 61.2344 164.168 61.2344C163.207 61.2344 162.352 61.0742 161.602 60.7539C160.859 60.4336 160.23 59.9844 159.715 59.4062C159.207 58.8203 158.82 58.1367 158.555 57.3555C158.289 56.5664 158.156 55.7109 158.156 54.7891ZM161.531 54.543V54.7891C161.531 55.3203 161.578 55.8164 161.672 56.2773C161.766 56.7383 161.914 57.1445 162.117 57.4961C162.328 57.8398 162.602 58.1094 162.938 58.3047C163.273 58.5 163.684 58.5977 164.168 58.5977C164.637 58.5977 165.039 58.5 165.375 58.3047C165.711 58.1094 165.98 57.8398 166.184 57.4961C166.387 57.1445 166.535 56.7383 166.629 56.2773C166.73 55.8164 166.781 55.3203 166.781 54.7891V54.543C166.781 54.0273 166.73 53.543 166.629 53.0898C166.535 52.6289 166.383 52.2227 166.172 51.8711C165.969 51.5117 165.699 51.2305 165.363 51.0273C165.027 50.8242 164.621 50.7227 164.145 50.7227C163.668 50.7227 163.262 50.8242 162.926 51.0273C162.598 51.2305 162.328 51.5117 162.117 51.8711C161.914 52.2227 161.766 52.6289 161.672 53.0898C161.578 53.543 161.531 54.0273 161.531 54.543ZM175.805 43V61H172.418V43H175.805ZM194.672 55.3398H198.176C198.105 56.4883 197.789 57.5078 197.227 58.3984C196.672 59.2891 195.895 59.9844 194.895 60.4844C193.902 60.9844 192.707 61.2344 191.309 61.2344C190.215 61.2344 189.234 61.0469 188.367 60.6719C187.5 60.2891 186.758 59.7422 186.141 59.0312C185.531 58.3203 185.066 57.4609 184.746 56.4531C184.426 55.4453 184.266 54.3164 184.266 53.0664V51.8828C184.266 50.6328 184.43 49.5039 184.758 48.4961C185.094 47.4805 185.57 46.6172 186.188 45.9062C186.812 45.1953 187.559 44.6484 188.426 44.2656C189.293 43.8828 190.262 43.6914 191.332 43.6914C192.754 43.6914 193.953 43.9492 194.93 44.4648C195.914 44.9805 196.676 45.6914 197.215 46.5977C197.762 47.5039 198.09 48.5352 198.199 49.6914H194.684C194.645 49.0039 194.508 48.4219 194.273 47.9453C194.039 47.4609 193.684 47.0977 193.207 46.8555C192.738 46.6055 192.113 46.4805 191.332 46.4805C190.746 46.4805 190.234 46.5898 189.797 46.8086C189.359 47.0273 188.992 47.3594 188.695 47.8047C188.398 48.25 188.176 48.8125 188.027 49.4922C187.887 50.1641 187.816 50.9531 187.816 51.8594V53.0664C187.816 53.9492 187.883 54.7266 188.016 55.3984C188.148 56.0625 188.352 56.625 188.625 57.0859C188.906 57.5391 189.266 57.8828 189.703 58.1172C190.148 58.3438 190.684 58.457 191.309 58.457C192.043 58.457 192.648 58.3398 193.125 58.1055C193.602 57.8711 193.965 57.5234 194.215 57.0625C194.473 56.6016 194.625 56.0273 194.672 55.3398ZM199.734 54.7891V54.543C199.734 53.6133 199.867 52.7578 200.133 51.9766C200.398 51.1875 200.785 50.5039 201.293 49.9258C201.801 49.3477 202.426 48.8984 203.168 48.5781C203.91 48.25 204.762 48.0859 205.723 48.0859C206.684 48.0859 207.539 48.25 208.289 48.5781C209.039 48.8984 209.668 49.3477 210.176 49.9258C210.691 50.5039 211.082 51.1875 211.348 51.9766C211.613 52.7578 211.746 53.6133 211.746 54.543V54.7891C211.746 55.7109 211.613 56.5664 211.348 57.3555C211.082 58.1367 210.691 58.8203 210.176 59.4062C209.668 59.9844 209.043 60.4336 208.301 60.7539C207.559 61.0742 206.707 61.2344 205.746 61.2344C204.785 61.2344 203.93 61.0742 203.18 60.7539C202.438 60.4336 201.809 59.9844 201.293 59.4062C200.785 58.8203 200.398 58.1367 200.133 57.3555C199.867 56.5664 199.734 55.7109 199.734 54.7891ZM203.109 54.543V54.7891C203.109 55.3203 203.156 55.8164 203.25 56.2773C203.344 56.7383 203.492 57.1445 203.695 57.4961C203.906 57.8398 204.18 58.1094 204.516 58.3047C204.852 58.5 205.262 58.5977 205.746 58.5977C206.215 58.5977 206.617 58.5 206.953 58.3047C207.289 58.1094 207.559 57.8398 207.762 57.4961C207.965 57.1445 208.113 56.7383 208.207 56.2773C208.309 55.8164 208.359 55.3203 208.359 54.7891V54.543C208.359 54.0273 208.309 53.543 208.207 53.0898C208.113 52.6289 207.961 52.2227 207.75 51.8711C207.547 51.5117 207.277 51.2305 206.941 51.0273C206.605 50.8242 206.199 50.7227 205.723 50.7227C205.246 50.7227 204.84 50.8242 204.504 51.0273C204.176 51.2305 203.906 51.5117 203.695 51.8711C203.492 52.2227 203.344 52.6289 203.25 53.0898C203.156 53.543 203.109 54.0273 203.109 54.543ZM217.125 51.0273V61H213.75V48.3203H216.914L217.125 51.0273ZM216.633 54.2148H215.719C215.719 53.2773 215.84 52.4336 216.082 51.6836C216.324 50.9258 216.664 50.2812 217.102 49.75C217.539 49.2109 218.059 48.8008 218.66 48.5195C219.27 48.2305 219.949 48.0859 220.699 48.0859C221.293 48.0859 221.836 48.1719 222.328 48.3438C222.82 48.5156 223.242 48.7891 223.594 49.1641C223.953 49.5391 224.227 50.0352 224.414 50.6523C224.609 51.2695 224.707 52.0234 224.707 52.9141V61H221.309V52.9023C221.309 52.3398 221.23 51.9023 221.074 51.5898C220.918 51.2773 220.688 51.0586 220.383 50.9336C220.086 50.8008 219.719 50.7344 219.281 50.7344C218.828 50.7344 218.434 50.8242 218.098 51.0039C217.77 51.1836 217.496 51.4336 217.277 51.7539C217.066 52.0664 216.906 52.4336 216.797 52.8555C216.688 53.2773 216.633 53.7305 216.633 54.2148ZM230.578 51.0273V61H227.203V48.3203H230.367L230.578 51.0273ZM230.086 54.2148H229.172C229.172 53.2773 229.293 52.4336 229.535 51.6836C229.777 50.9258 230.117 50.2812 230.555 49.75C230.992 49.2109 231.512 48.8008 232.113 48.5195C232.723 48.2305 233.402 48.0859 234.152 48.0859C234.746 48.0859 235.289 48.1719 235.781 48.3438C236.273 48.5156 236.695 48.7891 237.047 49.1641C237.406 49.5391 237.68 50.0352 237.867 50.6523C238.062 51.2695 238.16 52.0234 238.16 52.9141V61H234.762V52.9023C234.762 52.3398 234.684 51.9023 234.527 51.5898C234.371 51.2773 234.141 51.0586 233.836 50.9336C233.539 50.8008 233.172 50.7344 232.734 50.7344C232.281 50.7344 231.887 50.8242 231.551 51.0039C231.223 51.1836 230.949 51.4336 230.73 51.7539C230.52 52.0664 230.359 52.4336 230.25 52.8555C230.141 53.2773 230.086 53.7305 230.086 54.2148ZM246.562 61.2344C245.578 61.2344 244.695 61.0781 243.914 60.7656C243.133 60.4453 242.469 60.0039 241.922 59.4414C241.383 58.8789 240.969 58.2266 240.68 57.4844C240.391 56.7344 240.246 55.9375 240.246 55.0938V54.625C240.246 53.6641 240.383 52.7852 240.656 51.9883C240.93 51.1914 241.32 50.5 241.828 49.9141C242.344 49.3281 242.969 48.8789 243.703 48.5664C244.438 48.2461 245.266 48.0859 246.188 48.0859C247.086 48.0859 247.883 48.2344 248.578 48.5312C249.273 48.8281 249.855 49.25 250.324 49.7969C250.801 50.3438 251.16 51 251.402 51.7656C251.645 52.5234 251.766 53.3672 251.766 54.2969V55.7031H241.688V53.4531H248.449V53.1953C248.449 52.7266 248.363 52.3086 248.191 51.9414C248.027 51.5664 247.777 51.2695 247.441 51.0508C247.105 50.832 246.676 50.7227 246.152 50.7227C245.707 50.7227 245.324 50.8203 245.004 51.0156C244.684 51.2109 244.422 51.4844 244.219 51.8359C244.023 52.1875 243.875 52.6016 243.773 53.0781C243.68 53.5469 243.633 54.0625 243.633 54.625V55.0938C243.633 55.6016 243.703 56.0703 243.844 56.5C243.992 56.9297 244.199 57.3008 244.465 57.6133C244.738 57.9258 245.066 58.168 245.449 58.3398C245.84 58.5117 246.281 58.5977 246.773 58.5977C247.383 58.5977 247.949 58.4805 248.473 58.2461C249.004 58.0039 249.461 57.6406 249.844 57.1562L251.484 58.9375C251.219 59.3203 250.855 59.6875 250.395 60.0391C249.941 60.3906 249.395 60.6797 248.754 60.9062C248.113 61.125 247.383 61.2344 246.562 61.2344ZM258.926 58.5977C259.34 58.5977 259.707 58.5195 260.027 58.3633C260.348 58.1992 260.598 57.9727 260.777 57.6836C260.965 57.3867 261.062 57.0391 261.07 56.6406H264.246C264.238 57.5312 264 58.3242 263.531 59.0195C263.062 59.707 262.434 60.25 261.645 60.6484C260.855 61.0391 259.973 61.2344 258.996 61.2344C258.012 61.2344 257.152 61.0703 256.418 60.7422C255.691 60.4141 255.086 59.9609 254.602 59.3828C254.117 58.7969 253.754 58.1172 253.512 57.3438C253.27 56.5625 253.148 55.7266 253.148 54.8359V54.4961C253.148 53.5977 253.27 52.7617 253.512 51.9883C253.754 51.207 254.117 50.5273 254.602 49.9492C255.086 49.3633 255.691 48.9062 256.418 48.5781C257.145 48.25 257.996 48.0859 258.973 48.0859C260.012 48.0859 260.922 48.2852 261.703 48.6836C262.492 49.082 263.109 49.6523 263.555 50.3945C264.008 51.1289 264.238 52 264.246 53.0078H261.07C261.062 52.5859 260.973 52.2031 260.801 51.8594C260.637 51.5156 260.395 51.2422 260.074 51.0391C259.762 50.8281 259.375 50.7227 258.914 50.7227C258.422 50.7227 258.02 50.8281 257.707 51.0391C257.395 51.2422 257.152 51.5234 256.98 51.8828C256.809 52.2344 256.688 52.6367 256.617 53.0898C256.555 53.5352 256.523 54.0039 256.523 54.4961V54.8359C256.523 55.3281 256.555 55.8008 256.617 56.2539C256.68 56.707 256.797 57.1094 256.969 57.4609C257.148 57.8125 257.395 58.0898 257.707 58.293C258.02 58.4961 258.426 58.5977 258.926 58.5977ZM272.414 48.3203V50.7109H265.031V48.3203H272.414ZM266.859 45.1914H270.234V57.1797C270.234 57.5469 270.281 57.8281 270.375 58.0234C270.477 58.2188 270.625 58.3555 270.82 58.4336C271.016 58.5039 271.262 58.5391 271.559 58.5391C271.77 58.5391 271.957 58.5312 272.121 58.5156C272.293 58.4922 272.438 58.4688 272.555 58.4453L272.566 60.9297C272.277 61.0234 271.965 61.0977 271.629 61.1523C271.293 61.207 270.922 61.2344 270.516 61.2344C269.773 61.2344 269.125 61.1133 268.57 60.8711C268.023 60.6211 267.602 60.2227 267.305 59.6758C267.008 59.1289 266.859 58.4102 266.859 57.5195V45.1914Z" fill="#888888"/>
<path d="M114.117 84.875H122.344V107.164C122.344 109.82 121.789 112.07 120.68 113.914C119.57 115.742 118.016 117.125 116.016 118.062C114.016 119 111.664 119.469 108.961 119.469C106.289 119.469 103.938 119 101.906 118.062C99.8906 117.125 98.3125 115.742 97.1719 113.914C96.0469 112.07 95.4844 109.82 95.4844 107.164V84.875H103.734V107.164C103.734 108.57 103.938 109.719 104.344 110.609C104.75 111.484 105.344 112.125 106.125 112.531C106.906 112.938 107.852 113.141 108.961 113.141C110.086 113.141 111.031 112.938 111.797 112.531C112.562 112.125 113.141 111.484 113.531 110.609C113.922 109.719 114.117 108.57 114.117 107.164V84.875ZM136.266 84.875V119H128.062V84.875H136.266ZM172.523 84.875H180.75V107.164C180.75 109.82 180.195 112.07 179.086 113.914C177.977 115.742 176.422 117.125 174.422 118.062C172.422 119 170.07 119.469 167.367 119.469C164.695 119.469 162.344 119 160.312 118.062C158.297 117.125 156.719 115.742 155.578 113.914C154.453 112.07 153.891 109.82 153.891 107.164V84.875H162.141V107.164C162.141 108.57 162.344 109.719 162.75 110.609C163.156 111.484 163.75 112.125 164.531 112.531C165.312 112.938 166.258 113.141 167.367 113.141C168.492 113.141 169.438 112.938 170.203 112.531C170.969 112.125 171.547 111.484 171.938 110.609C172.328 109.719 172.523 108.57 172.523 107.164V84.875ZM193.078 84.875L198.656 96.2188L204.234 84.875H213.609L204.094 101.797L213.867 119H204.398L198.656 107.445L192.914 119H183.422L193.219 101.797L183.68 84.875H193.078Z" fill="black"/>
<path d="M1134 0H1348C1356.28 0 1363 6.71573 1363 15V148C1363 156.284 1356.28 163 1348 163H1134V0Z" fill="#57C492"/>
<path d="M1248.5 111.917C1244.51 111.917 1240.55 111.13 1236.86 109.601C1233.17 108.073 1229.82 105.832 1226.99 103.008C1221.29 97.3036 1218.08 89.567 1218.08 81.5C1218.08 73.433 1221.29 65.6964 1226.99 59.9922C1232.7 54.2879 1240.43 51.0833 1248.5 51.0833C1265.23 51.0833 1278.92 63.25 1278.92 78.4583C1278.92 83.2985 1276.99 87.9405 1273.57 91.363C1270.15 94.7856 1265.51 96.7083 1260.67 96.7083H1255.19C1254.28 96.7083 1253.67 97.3167 1253.67 98.2292C1253.67 98.5333 1253.97 98.8375 1253.97 99.1417C1255.19 100.662 1255.8 102.487 1255.8 104.312C1256.1 108.571 1252.76 111.917 1248.5 111.917ZM1248.5 57.1667C1242.05 57.1667 1235.86 59.7303 1231.29 64.2937C1226.73 68.8571 1224.17 75.0464 1224.17 81.5C1224.17 87.9536 1226.73 94.1429 1231.29 98.7063C1235.86 103.27 1242.05 105.833 1248.5 105.833C1249.41 105.833 1250.02 105.225 1250.02 104.312C1250.02 103.704 1249.72 103.4 1249.72 103.096C1248.5 101.575 1247.89 100.054 1247.89 98.2292C1247.89 93.9708 1251.24 90.625 1255.5 90.625H1260.67C1263.89 90.625 1266.99 89.3432 1269.27 87.0615C1271.55 84.7798 1272.83 81.6851 1272.83 78.4583C1272.83 66.5958 1261.88 57.1667 1248.5 57.1667ZM1231.77 75.4167C1234.2 75.4167 1236.33 77.5458 1236.33 79.9792C1236.33 82.4125 1234.2 84.5417 1231.77 84.5417C1229.34 84.5417 1227.21 82.4125 1227.21 79.9792C1227.21 77.5458 1229.34 75.4167 1231.77 75.4167ZM1240.9 63.25C1243.33 63.25 1245.46 65.3792 1245.46 67.8125C1245.46 70.2458 1243.33 72.375 1240.9 72.375C1238.46 72.375 1236.33 70.2458 1236.33 67.8125C1236.33 65.3792 1238.46 63.25 1240.9 63.25ZM1256.1 63.25C1258.54 63.25 1260.67 65.3792 1260.67 67.8125C1260.67 70.2458 1258.54 72.375 1256.1 72.375C1253.67 72.375 1251.54 70.2458 1251.54 67.8125C1251.54 65.3792 1253.67 63.25 1256.1 63.25ZM1265.23 75.4167C1267.66 75.4167 1269.79 77.5458 1269.79 79.9792C1269.79 82.4125 1267.66 84.5417 1265.23 84.5417C1262.8 84.5417 1260.67 82.4125 1260.67 79.9792C1260.67 77.5458 1262.8 75.4167 1265.23 75.4167Z" fill="white"/>
</svg>
