<svg width="1363" height="163" viewBox="0 0 1363 163" fill="none" xmlns="http://www.w3.org/2000/svg">
<path d="M0 15C0 6.71573 6.71573 0 15 0H37V163H15C6.71573 163 0 156.284 0 148V15Z" fill="#424242"/>
<rect width="1097" height="163" transform="translate(37)" fill="#F0F0F0"/>
<path d="M104.414 55.3398H107.918C107.848 56.4883 107.531 57.5078 106.969 58.3984C106.414 59.2891 105.637 59.9844 104.637 60.4844C103.645 60.9844 102.449 61.2344 101.051 61.2344C99.957 61.2344 98.9766 61.0469 98.1094 60.6719C97.2422 60.2891 96.5 59.7422 95.8828 59.0312C95.2734 58.3203 94.8086 57.4609 94.4883 56.4531C94.168 55.4453 94.0078 54.3164 94.0078 53.0664V51.8828C94.0078 50.6328 94.1719 49.5039 94.5 48.4961C94.8359 47.4805 95.3125 46.6172 95.9297 45.9062C96.5547 45.1953 97.3008 44.6484 98.168 44.2656C99.0352 43.8828 100.004 43.6914 101.074 43.6914C102.496 43.6914 103.695 43.9492 104.672 44.4648C105.656 44.9805 106.418 45.6914 106.957 46.5977C107.504 47.5039 107.832 48.5352 107.941 49.6914H104.426C104.387 49.0039 104.25 48.4219 104.016 47.9453C103.781 47.4609 103.426 47.0977 102.949 46.8555C102.48 46.6055 101.855 46.4805 101.074 46.4805C100.488 46.4805 99.9766 46.5898 99.5391 46.8086C99.1016 47.0273 98.7344 47.3594 98.4375 47.8047C98.1406 48.25 97.918 48.8125 97.7695 49.4922C97.6289 50.1641 97.5586 50.9531 97.5586 51.8594V53.0664C97.5586 53.9492 97.625 54.7266 97.7578 55.3984C97.8906 56.0625 98.0938 56.625 98.3672 57.0859C98.6484 57.5391 99.0078 57.8828 99.4453 58.1172C99.8906 58.3438 100.426 58.457 101.051 58.457C101.785 58.457 102.391 58.3398 102.867 58.1055C103.344 57.8711 103.707 57.5234 103.957 57.0625C104.215 56.6016 104.367 56.0273 104.414 55.3398ZM116.859 58.1406V52.4922C116.859 52.0859 116.793 51.7383 116.66 51.4492C116.527 51.1523 116.32 50.9219 116.039 50.7578C115.766 50.5938 115.41 50.5117 114.973 50.5117C114.598 50.5117 114.273 50.5781 114 50.7109C113.727 50.8359 113.516 51.0195 113.367 51.2617C113.219 51.4961 113.145 51.7734 113.145 52.0938H109.77C109.77 51.5547 109.895 51.043 110.145 50.5586C110.395 50.0742 110.758 49.6484 111.234 49.2812C111.711 48.9062 112.277 48.6133 112.934 48.4023C113.598 48.1914 114.34 48.0859 115.16 48.0859C116.145 48.0859 117.02 48.25 117.785 48.5781C118.551 48.9062 119.152 49.3984 119.59 50.0547C120.035 50.7109 120.258 51.5312 120.258 52.5156V57.9414C120.258 58.6367 120.301 59.207 120.387 59.6523C120.473 60.0898 120.598 60.4727 120.762 60.8008V61H117.352C117.188 60.6562 117.062 60.2266 116.977 59.7109C116.898 59.1875 116.859 58.6641 116.859 58.1406ZM117.305 53.2773L117.328 55.1875H115.441C114.996 55.1875 114.609 55.2383 114.281 55.3398C113.953 55.4414 113.684 55.5859 113.473 55.7734C113.262 55.9531 113.105 56.1641 113.004 56.4062C112.91 56.6484 112.863 56.9141 112.863 57.2031C112.863 57.4922 112.93 57.7539 113.062 57.9883C113.195 58.2148 113.387 58.3945 113.637 58.5273C113.887 58.6523 114.18 58.7148 114.516 58.7148C115.023 58.7148 115.465 58.6133 115.84 58.4102C116.215 58.207 116.504 57.957 116.707 57.6602C116.918 57.3633 117.027 57.082 117.035 56.8164L117.926 58.2461C117.801 58.5664 117.629 58.8984 117.41 59.2422C117.199 59.5859 116.93 59.9102 116.602 60.2148C116.273 60.5117 115.879 60.7578 115.418 60.9531C114.957 61.1406 114.41 61.2344 113.777 61.2344C112.973 61.2344 112.242 61.0742 111.586 60.7539C110.938 60.4258 110.422 59.9766 110.039 59.4062C109.664 58.8281 109.477 58.1719 109.477 57.4375C109.477 56.7734 109.602 56.1836 109.852 55.668C110.102 55.1523 110.469 54.7188 110.953 54.3672C111.445 54.0078 112.059 53.7383 112.793 53.5586C113.527 53.3711 114.379 53.2773 115.348 53.2773H117.305ZM126.234 51.0859V61H122.859V48.3203H126.035L126.234 51.0859ZM130.055 48.2383L129.996 51.3672C129.832 51.3438 129.633 51.3242 129.398 51.3086C129.172 51.2852 128.965 51.2734 128.777 51.2734C128.301 51.2734 127.887 51.3359 127.535 51.4609C127.191 51.5781 126.902 51.7539 126.668 51.9883C126.441 52.2227 126.27 52.5078 126.152 52.8438C126.043 53.1797 125.98 53.5625 125.965 53.9922L125.285 53.7812C125.285 52.9609 125.367 52.207 125.531 51.5195C125.695 50.8242 125.934 50.2188 126.246 49.7031C126.566 49.1875 126.957 48.7891 127.418 48.5078C127.879 48.2266 128.406 48.0859 129 48.0859C129.188 48.0859 129.379 48.1016 129.574 48.1328C129.77 48.1562 129.93 48.1914 130.055 48.2383ZM135.023 50.7578V65.875H131.648V48.3203H134.777L135.023 50.7578ZM143.051 54.5195V54.7656C143.051 55.6875 142.941 56.543 142.723 57.332C142.512 58.1211 142.199 58.8086 141.785 59.3945C141.371 59.9727 140.855 60.4258 140.238 60.7539C139.629 61.0742 138.926 61.2344 138.129 61.2344C137.355 61.2344 136.684 61.0781 136.113 60.7656C135.543 60.4531 135.062 60.0156 134.672 59.4531C134.289 58.8828 133.98 58.2227 133.746 57.4727C133.512 56.7227 133.332 55.918 133.207 55.0586V54.4141C133.332 53.4922 133.512 52.6484 133.746 51.8828C133.98 51.1094 134.289 50.4414 134.672 49.8789C135.062 49.3086 135.539 48.8672 136.102 48.5547C136.672 48.2422 137.34 48.0859 138.105 48.0859C138.91 48.0859 139.617 48.2383 140.227 48.543C140.844 48.8477 141.359 49.2852 141.773 49.8555C142.195 50.4258 142.512 51.1055 142.723 51.8945C142.941 52.6836 143.051 53.5586 143.051 54.5195ZM139.664 54.7656V54.5195C139.664 53.9805 139.617 53.4844 139.523 53.0312C139.438 52.5703 139.297 52.168 139.102 51.8242C138.914 51.4805 138.664 51.2148 138.352 51.0273C138.047 50.832 137.676 50.7344 137.238 50.7344C136.777 50.7344 136.383 50.8086 136.055 50.957C135.734 51.1055 135.473 51.3203 135.27 51.6016C135.066 51.8828 134.914 52.2188 134.812 52.6094C134.711 53 134.648 53.4414 134.625 53.9336V55.5625C134.664 56.1406 134.773 56.6602 134.953 57.1211C135.133 57.5742 135.41 57.9336 135.785 58.1992C136.16 58.4648 136.652 58.5977 137.262 58.5977C137.707 58.5977 138.082 58.5 138.387 58.3047C138.691 58.1016 138.938 57.8242 139.125 57.4727C139.32 57.1211 139.457 56.7148 139.535 56.2539C139.621 55.793 139.664 55.2969 139.664 54.7656ZM144.609 54.7891V54.543C144.609 53.6133 144.742 52.7578 145.008 51.9766C145.273 51.1875 145.66 50.5039 146.168 49.9258C146.676 49.3477 147.301 48.8984 148.043 48.5781C148.785 48.25 149.637 48.0859 150.598 48.0859C151.559 48.0859 152.414 48.25 153.164 48.5781C153.914 48.8984 154.543 49.3477 155.051 49.9258C155.566 50.5039 155.957 51.1875 156.223 51.9766C156.488 52.7578 156.621 53.6133 156.621 54.543V54.7891C156.621 55.7109 156.488 56.5664 156.223 57.3555C155.957 58.1367 155.566 58.8203 155.051 59.4062C154.543 59.9844 153.918 60.4336 153.176 60.7539C152.434 61.0742 151.582 61.2344 150.621 61.2344C149.66 61.2344 148.805 61.0742 148.055 60.7539C147.312 60.4336 146.684 59.9844 146.168 59.4062C145.66 58.8203 145.273 58.1367 145.008 57.3555C144.742 56.5664 144.609 55.7109 144.609 54.7891ZM147.984 54.543V54.7891C147.984 55.3203 148.031 55.8164 148.125 56.2773C148.219 56.7383 148.367 57.1445 148.57 57.4961C148.781 57.8398 149.055 58.1094 149.391 58.3047C149.727 58.5 150.137 58.5977 150.621 58.5977C151.09 58.5977 151.492 58.5 151.828 58.3047C152.164 58.1094 152.434 57.8398 152.637 57.4961C152.84 57.1445 152.988 56.7383 153.082 56.2773C153.184 55.8164 153.234 55.3203 153.234 54.7891V54.543C153.234 54.0273 153.184 53.543 153.082 53.0898C152.988 52.6289 152.836 52.2227 152.625 51.8711C152.422 51.5117 152.152 51.2305 151.816 51.0273C151.48 50.8242 151.074 50.7227 150.598 50.7227C150.121 50.7227 149.715 50.8242 149.379 51.0273C149.051 51.2305 148.781 51.5117 148.57 51.8711C148.367 52.2227 148.219 52.6289 148.125 53.0898C148.031 53.543 147.984 54.0273 147.984 54.543ZM158.156 54.7891V54.543C158.156 53.6133 158.289 52.7578 158.555 51.9766C158.82 51.1875 159.207 50.5039 159.715 49.9258C160.223 49.3477 160.848 48.8984 161.59 48.5781C162.332 48.25 163.184 48.0859 164.145 48.0859C165.105 48.0859 165.961 48.25 166.711 48.5781C167.461 48.8984 168.09 49.3477 168.598 49.9258C169.113 50.5039 169.504 51.1875 169.77 51.9766C170.035 52.7578 170.168 53.6133 170.168 54.543V54.7891C170.168 55.7109 170.035 56.5664 169.77 57.3555C169.504 58.1367 169.113 58.8203 168.598 59.4062C168.09 59.9844 167.465 60.4336 166.723 60.7539C165.98 61.0742 165.129 61.2344 164.168 61.2344C163.207 61.2344 162.352 61.0742 161.602 60.7539C160.859 60.4336 160.23 59.9844 159.715 59.4062C159.207 58.8203 158.82 58.1367 158.555 57.3555C158.289 56.5664 158.156 55.7109 158.156 54.7891ZM161.531 54.543V54.7891C161.531 55.3203 161.578 55.8164 161.672 56.2773C161.766 56.7383 161.914 57.1445 162.117 57.4961C162.328 57.8398 162.602 58.1094 162.938 58.3047C163.273 58.5 163.684 58.5977 164.168 58.5977C164.637 58.5977 165.039 58.5 165.375 58.3047C165.711 58.1094 165.98 57.8398 166.184 57.4961C166.387 57.1445 166.535 56.7383 166.629 56.2773C166.73 55.8164 166.781 55.3203 166.781 54.7891V54.543C166.781 54.0273 166.73 53.543 166.629 53.0898C166.535 52.6289 166.383 52.2227 166.172 51.8711C165.969 51.5117 165.699 51.2305 165.363 51.0273C165.027 50.8242 164.621 50.7227 164.145 50.7227C163.668 50.7227 163.262 50.8242 162.926 51.0273C162.598 51.2305 162.328 51.5117 162.117 51.8711C161.914 52.2227 161.766 52.6289 161.672 53.0898C161.578 53.543 161.531 54.0273 161.531 54.543ZM175.805 43V61H172.418V43H175.805ZM194.672 55.3398H198.176C198.105 56.4883 197.789 57.5078 197.227 58.3984C196.672 59.2891 195.895 59.9844 194.895 60.4844C193.902 60.9844 192.707 61.2344 191.309 61.2344C190.215 61.2344 189.234 61.0469 188.367 60.6719C187.5 60.2891 186.758 59.7422 186.141 59.0312C185.531 58.3203 185.066 57.4609 184.746 56.4531C184.426 55.4453 184.266 54.3164 184.266 53.0664V51.8828C184.266 50.6328 184.43 49.5039 184.758 48.4961C185.094 47.4805 185.57 46.6172 186.188 45.9062C186.812 45.1953 187.559 44.6484 188.426 44.2656C189.293 43.8828 190.262 43.6914 191.332 43.6914C192.754 43.6914 193.953 43.9492 194.93 44.4648C195.914 44.9805 196.676 45.6914 197.215 46.5977C197.762 47.5039 198.09 48.5352 198.199 49.6914H194.684C194.645 49.0039 194.508 48.4219 194.273 47.9453C194.039 47.4609 193.684 47.0977 193.207 46.8555C192.738 46.6055 192.113 46.4805 191.332 46.4805C190.746 46.4805 190.234 46.5898 189.797 46.8086C189.359 47.0273 188.992 47.3594 188.695 47.8047C188.398 48.25 188.176 48.8125 188.027 49.4922C187.887 50.1641 187.816 50.9531 187.816 51.8594V53.0664C187.816 53.9492 187.883 54.7266 188.016 55.3984C188.148 56.0625 188.352 56.625 188.625 57.0859C188.906 57.5391 189.266 57.8828 189.703 58.1172C190.148 58.3438 190.684 58.457 191.309 58.457C192.043 58.457 192.648 58.3398 193.125 58.1055C193.602 57.8711 193.965 57.5234 194.215 57.0625C194.473 56.6016 194.625 56.0273 194.672 55.3398ZM199.734 54.7891V54.543C199.734 53.6133 199.867 52.7578 200.133 51.9766C200.398 51.1875 200.785 50.5039 201.293 49.9258C201.801 49.3477 202.426 48.8984 203.168 48.5781C203.91 48.25 204.762 48.0859 205.723 48.0859C206.684 48.0859 207.539 48.25 208.289 48.5781C209.039 48.8984 209.668 49.3477 210.176 49.9258C210.691 50.5039 211.082 51.1875 211.348 51.9766C211.613 52.7578 211.746 53.6133 211.746 54.543V54.7891C211.746 55.7109 211.613 56.5664 211.348 57.3555C211.082 58.1367 210.691 58.8203 210.176 59.4062C209.668 59.9844 209.043 60.4336 208.301 60.7539C207.559 61.0742 206.707 61.2344 205.746 61.2344C204.785 61.2344 203.93 61.0742 203.18 60.7539C202.438 60.4336 201.809 59.9844 201.293 59.4062C200.785 58.8203 200.398 58.1367 200.133 57.3555C199.867 56.5664 199.734 55.7109 199.734 54.7891ZM203.109 54.543V54.7891C203.109 55.3203 203.156 55.8164 203.25 56.2773C203.344 56.7383 203.492 57.1445 203.695 57.4961C203.906 57.8398 204.18 58.1094 204.516 58.3047C204.852 58.5 205.262 58.5977 205.746 58.5977C206.215 58.5977 206.617 58.5 206.953 58.3047C207.289 58.1094 207.559 57.8398 207.762 57.4961C207.965 57.1445 208.113 56.7383 208.207 56.2773C208.309 55.8164 208.359 55.3203 208.359 54.7891V54.543C208.359 54.0273 208.309 53.543 208.207 53.0898C208.113 52.6289 207.961 52.2227 207.75 51.8711C207.547 51.5117 207.277 51.2305 206.941 51.0273C206.605 50.8242 206.199 50.7227 205.723 50.7227C205.246 50.7227 204.84 50.8242 204.504 51.0273C204.176 51.2305 203.906 51.5117 203.695 51.8711C203.492 52.2227 203.344 52.6289 203.25 53.0898C203.156 53.543 203.109 54.0273 203.109 54.543ZM217.125 51.0273V61H213.75V48.3203H216.914L217.125 51.0273ZM216.633 54.2148H215.719C215.719 53.2773 215.84 52.4336 216.082 51.6836C216.324 50.9258 216.664 50.2812 217.102 49.75C217.539 49.2109 218.059 48.8008 218.66 48.5195C219.27 48.2305 219.949 48.0859 220.699 48.0859C221.293 48.0859 221.836 48.1719 222.328 48.3438C222.82 48.5156 223.242 48.7891 223.594 49.1641C223.953 49.5391 224.227 50.0352 224.414 50.6523C224.609 51.2695 224.707 52.0234 224.707 52.9141V61H221.309V52.9023C221.309 52.3398 221.23 51.9023 221.074 51.5898C220.918 51.2773 220.688 51.0586 220.383 50.9336C220.086 50.8008 219.719 50.7344 219.281 50.7344C218.828 50.7344 218.434 50.8242 218.098 51.0039C217.77 51.1836 217.496 51.4336 217.277 51.7539C217.066 52.0664 216.906 52.4336 216.797 52.8555C216.688 53.2773 216.633 53.7305 216.633 54.2148ZM230.578 51.0273V61H227.203V48.3203H230.367L230.578 51.0273ZM230.086 54.2148H229.172C229.172 53.2773 229.293 52.4336 229.535 51.6836C229.777 50.9258 230.117 50.2812 230.555 49.75C230.992 49.2109 231.512 48.8008 232.113 48.5195C232.723 48.2305 233.402 48.0859 234.152 48.0859C234.746 48.0859 235.289 48.1719 235.781 48.3438C236.273 48.5156 236.695 48.7891 237.047 49.1641C237.406 49.5391 237.68 50.0352 237.867 50.6523C238.062 51.2695 238.16 52.0234 238.16 52.9141V61H234.762V52.9023C234.762 52.3398 234.684 51.9023 234.527 51.5898C234.371 51.2773 234.141 51.0586 233.836 50.9336C233.539 50.8008 233.172 50.7344 232.734 50.7344C232.281 50.7344 231.887 50.8242 231.551 51.0039C231.223 51.1836 230.949 51.4336 230.73 51.7539C230.52 52.0664 230.359 52.4336 230.25 52.8555C230.141 53.2773 230.086 53.7305 230.086 54.2148ZM246.562 61.2344C245.578 61.2344 244.695 61.0781 243.914 60.7656C243.133 60.4453 242.469 60.0039 241.922 59.4414C241.383 58.8789 240.969 58.2266 240.68 57.4844C240.391 56.7344 240.246 55.9375 240.246 55.0938V54.625C240.246 53.6641 240.383 52.7852 240.656 51.9883C240.93 51.1914 241.32 50.5 241.828 49.9141C242.344 49.3281 242.969 48.8789 243.703 48.5664C244.438 48.2461 245.266 48.0859 246.188 48.0859C247.086 48.0859 247.883 48.2344 248.578 48.5312C249.273 48.8281 249.855 49.25 250.324 49.7969C250.801 50.3438 251.16 51 251.402 51.7656C251.645 52.5234 251.766 53.3672 251.766 54.2969V55.7031H241.688V53.4531H248.449V53.1953C248.449 52.7266 248.363 52.3086 248.191 51.9414C248.027 51.5664 247.777 51.2695 247.441 51.0508C247.105 50.832 246.676 50.7227 246.152 50.7227C245.707 50.7227 245.324 50.8203 245.004 51.0156C244.684 51.2109 244.422 51.4844 244.219 51.8359C244.023 52.1875 243.875 52.6016 243.773 53.0781C243.68 53.5469 243.633 54.0625 243.633 54.625V55.0938C243.633 55.6016 243.703 56.0703 243.844 56.5C243.992 56.9297 244.199 57.3008 244.465 57.6133C244.738 57.9258 245.066 58.168 245.449 58.3398C245.84 58.5117 246.281 58.5977 246.773 58.5977C247.383 58.5977 247.949 58.4805 248.473 58.2461C249.004 58.0039 249.461 57.6406 249.844 57.1562L251.484 58.9375C251.219 59.3203 250.855 59.6875 250.395 60.0391C249.941 60.3906 249.395 60.6797 248.754 60.9062C248.113 61.125 247.383 61.2344 246.562 61.2344ZM258.926 58.5977C259.34 58.5977 259.707 58.5195 260.027 58.3633C260.348 58.1992 260.598 57.9727 260.777 57.6836C260.965 57.3867 261.062 57.0391 261.07 56.6406H264.246C264.238 57.5312 264 58.3242 263.531 59.0195C263.062 59.707 262.434 60.25 261.645 60.6484C260.855 61.0391 259.973 61.2344 258.996 61.2344C258.012 61.2344 257.152 61.0703 256.418 60.7422C255.691 60.4141 255.086 59.9609 254.602 59.3828C254.117 58.7969 253.754 58.1172 253.512 57.3438C253.27 56.5625 253.148 55.7266 253.148 54.8359V54.4961C253.148 53.5977 253.27 52.7617 253.512 51.9883C253.754 51.207 254.117 50.5273 254.602 49.9492C255.086 49.3633 255.691 48.9062 256.418 48.5781C257.145 48.25 257.996 48.0859 258.973 48.0859C260.012 48.0859 260.922 48.2852 261.703 48.6836C262.492 49.082 263.109 49.6523 263.555 50.3945C264.008 51.1289 264.238 52 264.246 53.0078H261.07C261.062 52.5859 260.973 52.2031 260.801 51.8594C260.637 51.5156 260.395 51.2422 260.074 51.0391C259.762 50.8281 259.375 50.7227 258.914 50.7227C258.422 50.7227 258.02 50.8281 257.707 51.0391C257.395 51.2422 257.152 51.5234 256.98 51.8828C256.809 52.2344 256.688 52.6367 256.617 53.0898C256.555 53.5352 256.523 54.0039 256.523 54.4961V54.8359C256.523 55.3281 256.555 55.8008 256.617 56.2539C256.68 56.707 256.797 57.1094 256.969 57.4609C257.148 57.8125 257.395 58.0898 257.707 58.293C258.02 58.4961 258.426 58.5977 258.926 58.5977ZM272.414 48.3203V50.7109H265.031V48.3203H272.414ZM266.859 45.1914H270.234V57.1797C270.234 57.5469 270.281 57.8281 270.375 58.0234C270.477 58.2188 270.625 58.3555 270.82 58.4336C271.016 58.5039 271.262 58.5391 271.559 58.5391C271.77 58.5391 271.957 58.5312 272.121 58.5156C272.293 58.4922 272.438 58.4688 272.555 58.4453L272.566 60.9297C272.277 61.0234 271.965 61.0977 271.629 61.1523C271.293 61.207 270.922 61.2344 270.516 61.2344C269.773 61.2344 269.125 61.1133 268.57 60.8711C268.023 60.6211 267.602 60.2227 267.305 59.6758C267.008 59.1289 266.859 58.4102 266.859 57.5195V45.1914Z" fill="#888888"/>
<path d="M104.344 84.875V119H96.1406V84.875H104.344ZM117.727 99.0078V119H109.828V93.6406H117.234L117.727 99.0078ZM116.766 105.453L114.961 105.5C114.961 103.719 115.172 102.078 115.594 100.578C116.016 99.0781 116.641 97.7734 117.469 96.6641C118.297 95.5547 119.312 94.6953 120.516 94.0859C121.734 93.4766 123.141 93.1719 124.734 93.1719C125.844 93.1719 126.852 93.3438 127.758 93.6875C128.664 94.0156 129.445 94.5391 130.102 95.2578C130.758 95.9609 131.258 96.8828 131.602 98.0234C131.961 99.1484 132.141 100.5 132.141 102.078V119H124.242V103.086C124.242 102.008 124.117 101.195 123.867 100.648C123.633 100.102 123.289 99.7344 122.836 99.5469C122.383 99.3594 121.828 99.2656 121.172 99.2656C120.484 99.2656 119.867 99.4219 119.32 99.7344C118.773 100.047 118.305 100.484 117.914 101.047C117.539 101.594 117.25 102.242 117.047 102.992C116.859 103.742 116.766 104.562 116.766 105.453ZM131.25 105.453L129.047 105.5C129.047 103.719 129.242 102.078 129.633 100.578C130.039 99.0781 130.641 97.7734 131.438 96.6641C132.25 95.5547 133.258 94.6953 134.461 94.0859C135.664 93.4766 137.062 93.1719 138.656 93.1719C139.812 93.1719 140.875 93.3438 141.844 93.6875C142.812 94.0312 143.648 94.5859 144.352 95.3516C145.055 96.1172 145.602 97.1328 145.992 98.3984C146.383 99.6484 146.578 101.195 146.578 103.039V119H138.656V103.039C138.656 101.992 138.531 101.203 138.281 100.672C138.047 100.125 137.703 99.7578 137.25 99.5703C136.797 99.3672 136.258 99.2656 135.633 99.2656C134.883 99.2656 134.234 99.4219 133.688 99.7344C133.141 100.047 132.68 100.484 132.305 101.047C131.945 101.594 131.68 102.242 131.508 102.992C131.336 103.742 131.25 104.562 131.25 105.453ZM159.07 98.5156V128.75H151.172V93.6406H158.531L159.07 98.5156ZM174.633 106.016V106.508C174.633 108.352 174.422 110.062 174 111.641C173.578 113.219 172.953 114.594 172.125 115.766C171.297 116.938 170.266 117.852 169.031 118.508C167.812 119.148 166.398 119.469 164.789 119.469C163.273 119.469 161.969 119.133 160.875 118.461C159.781 117.789 158.867 116.859 158.133 115.672C157.398 114.484 156.805 113.125 156.352 111.594C155.898 110.062 155.539 108.445 155.273 106.742V106.109C155.539 104.281 155.898 102.586 156.352 101.023C156.805 99.4453 157.398 98.0703 158.133 96.8984C158.867 95.7266 159.773 94.8125 160.852 94.1562C161.945 93.5 163.25 93.1719 164.766 93.1719C166.375 93.1719 167.789 93.4766 169.008 94.0859C170.242 94.6953 171.273 95.5703 172.102 96.7109C172.945 97.8359 173.578 99.1875 174 100.766C174.422 102.344 174.633 104.094 174.633 106.016ZM166.734 106.508V106.016C166.734 105.031 166.664 104.133 166.523 103.32C166.383 102.492 166.156 101.773 165.844 101.164C165.547 100.555 165.148 100.086 164.648 99.7578C164.148 99.4297 163.531 99.2656 162.797 99.2656C161.953 99.2656 161.242 99.3984 160.664 99.6641C160.102 99.9141 159.648 100.305 159.305 100.836C158.977 101.352 158.742 102 158.602 102.781C158.477 103.547 158.422 104.445 158.438 105.477V107.398C158.406 108.586 158.523 109.633 158.789 110.539C159.055 111.43 159.516 112.125 160.172 112.625C160.828 113.125 161.719 113.375 162.844 113.375C163.594 113.375 164.219 113.203 164.719 112.859C165.219 112.5 165.617 112.008 165.914 111.383C166.211 110.742 166.422 110.008 166.547 109.18C166.672 108.352 166.734 107.461 166.734 106.508ZM186.492 83V119H178.57V83H186.492ZM203.648 119.469C201.586 119.469 199.742 119.148 198.117 118.508C196.492 117.852 195.117 116.953 193.992 115.812C192.883 114.672 192.031 113.359 191.438 111.875C190.859 110.391 190.57 108.82 190.57 107.164V106.273C190.57 104.414 190.828 102.695 191.344 101.117C191.859 99.5234 192.625 98.1328 193.641 96.9453C194.656 95.7578 195.93 94.8359 197.461 94.1797C198.992 93.5078 200.773 93.1719 202.805 93.1719C204.602 93.1719 206.211 93.4609 207.633 94.0391C209.055 94.6172 210.258 95.4453 211.242 96.5234C212.242 97.6016 213 98.9062 213.516 100.438C214.047 101.969 214.312 103.688 214.312 105.594V108.805H193.594V103.859H206.602V103.25C206.617 102.406 206.469 101.688 206.156 101.094C205.859 100.5 205.422 100.047 204.844 99.7344C204.266 99.4219 203.562 99.2656 202.734 99.2656C201.875 99.2656 201.164 99.4531 200.602 99.8281C200.055 100.203 199.625 100.719 199.312 101.375C199.016 102.016 198.805 102.758 198.68 103.602C198.555 104.445 198.492 105.336 198.492 106.273V107.164C198.492 108.102 198.617 108.953 198.867 109.719C199.133 110.484 199.508 111.141 199.992 111.688C200.492 112.219 201.086 112.633 201.773 112.93C202.477 113.227 203.273 113.375 204.164 113.375C205.242 113.375 206.305 113.172 207.352 112.766C208.398 112.359 209.297 111.688 210.047 110.75L213.633 115.016C213.117 115.75 212.383 116.461 211.43 117.148C210.492 117.836 209.367 118.398 208.055 118.836C206.742 119.258 205.273 119.469 203.648 119.469ZM225.492 99.0078V119H217.594V93.6406H225L225.492 99.0078ZM224.531 105.453L222.727 105.5C222.727 103.719 222.938 102.078 223.359 100.578C223.781 99.0781 224.406 97.7734 225.234 96.6641C226.062 95.5547 227.078 94.6953 228.281 94.0859C229.5 93.4766 230.906 93.1719 232.5 93.1719C233.609 93.1719 234.617 93.3438 235.523 93.6875C236.43 94.0156 237.211 94.5391 237.867 95.2578C238.523 95.9609 239.023 96.8828 239.367 98.0234C239.727 99.1484 239.906 100.5 239.906 102.078V119H232.008V103.086C232.008 102.008 231.883 101.195 231.633 100.648C231.398 100.102 231.055 99.7344 230.602 99.5469C230.148 99.3594 229.594 99.2656 228.938 99.2656C228.25 99.2656 227.633 99.4219 227.086 99.7344C226.539 100.047 226.07 100.484 225.68 101.047C225.305 101.594 225.016 102.242 224.812 102.992C224.625 103.742 224.531 104.562 224.531 105.453ZM239.016 105.453L236.812 105.5C236.812 103.719 237.008 102.078 237.398 100.578C237.805 99.0781 238.406 97.7734 239.203 96.6641C240.016 95.5547 241.023 94.6953 242.227 94.0859C243.43 93.4766 244.828 93.1719 246.422 93.1719C247.578 93.1719 248.641 93.3438 249.609 93.6875C250.578 94.0312 251.414 94.5859 252.117 95.3516C252.82 96.1172 253.367 97.1328 253.758 98.3984C254.148 99.6484 254.344 101.195 254.344 103.039V119H246.422V103.039C246.422 101.992 246.297 101.203 246.047 100.672C245.812 100.125 245.469 99.7578 245.016 99.5703C244.562 99.3672 244.023 99.2656 243.398 99.2656C242.648 99.2656 242 99.4219 241.453 99.7344C240.906 100.047 240.445 100.484 240.07 101.047C239.711 101.594 239.445 102.242 239.273 102.992C239.102 103.742 239.016 104.562 239.016 105.453ZM271.148 119.469C269.086 119.469 267.242 119.148 265.617 118.508C263.992 117.852 262.617 116.953 261.492 115.812C260.383 114.672 259.531 113.359 258.938 111.875C258.359 110.391 258.07 108.82 258.07 107.164V106.273C258.07 104.414 258.328 102.695 258.844 101.117C259.359 99.5234 260.125 98.1328 261.141 96.9453C262.156 95.7578 263.43 94.8359 264.961 94.1797C266.492 93.5078 268.273 93.1719 270.305 93.1719C272.102 93.1719 273.711 93.4609 275.133 94.0391C276.555 94.6172 277.758 95.4453 278.742 96.5234C279.742 97.6016 280.5 98.9062 281.016 100.438C281.547 101.969 281.812 103.688 281.812 105.594V108.805H261.094V103.859H274.102V103.25C274.117 102.406 273.969 101.688 273.656 101.094C273.359 100.5 272.922 100.047 272.344 99.7344C271.766 99.4219 271.062 99.2656 270.234 99.2656C269.375 99.2656 268.664 99.4531 268.102 99.8281C267.555 100.203 267.125 100.719 266.812 101.375C266.516 102.016 266.305 102.758 266.18 103.602C266.055 104.445 265.992 105.336 265.992 106.273V107.164C265.992 108.102 266.117 108.953 266.367 109.719C266.633 110.484 267.008 111.141 267.492 111.688C267.992 112.219 268.586 112.633 269.273 112.93C269.977 113.227 270.773 113.375 271.664 113.375C272.742 113.375 273.805 113.172 274.852 112.766C275.898 112.359 276.797 111.688 277.547 110.75L281.133 115.016C280.617 115.75 279.883 116.461 278.93 117.148C277.992 117.836 276.867 118.398 275.555 118.836C274.242 119.258 272.773 119.469 271.148 119.469ZM292.781 99.0547V119H284.883V93.6406H292.289L292.781 99.0547ZM291.844 105.453L289.992 105.5C289.992 103.562 290.227 101.836 290.695 100.32C291.164 98.7891 291.828 97.4922 292.688 96.4297C293.547 95.3672 294.57 94.5625 295.758 94.0156C296.961 93.4531 298.297 93.1719 299.766 93.1719C300.938 93.1719 302.008 93.3438 302.977 93.6875C303.961 94.0312 304.805 94.5859 305.508 95.3516C306.227 96.1172 306.773 97.1328 307.148 98.3984C307.539 99.6484 307.734 101.195 307.734 103.039V119H299.789V103.016C299.789 102 299.648 101.227 299.367 100.695C299.086 100.148 298.68 99.7734 298.148 99.5703C297.617 99.3672 296.969 99.2656 296.203 99.2656C295.391 99.2656 294.703 99.4219 294.141 99.7344C293.578 100.047 293.125 100.484 292.781 101.047C292.453 101.594 292.211 102.242 292.055 102.992C291.914 103.742 291.844 104.562 291.844 105.453ZM325.477 93.6406V99.125H310.195V93.6406H325.477ZM313.406 87.3359H321.305V110.727C321.305 111.398 321.383 111.922 321.539 112.297C321.695 112.656 321.961 112.914 322.336 113.07C322.727 113.211 323.242 113.281 323.883 113.281C324.336 113.281 324.711 113.273 325.008 113.258C325.305 113.227 325.586 113.188 325.852 113.141V118.789C325.18 119.008 324.477 119.172 323.742 119.281C323.008 119.406 322.227 119.469 321.398 119.469C319.711 119.469 318.266 119.203 317.062 118.672C315.875 118.141 314.969 117.305 314.344 116.164C313.719 115.023 313.406 113.539 313.406 111.711V87.3359ZM341.789 112.625V102.172C341.789 101.453 341.688 100.836 341.484 100.32C341.281 99.8047 340.961 99.4062 340.523 99.125C340.086 98.8281 339.5 98.6797 338.766 98.6797C338.172 98.6797 337.664 98.7812 337.242 98.9844C336.82 99.1875 336.5 99.4922 336.281 99.8984C336.062 100.305 335.953 100.82 335.953 101.445H328.055C328.055 100.273 328.312 99.1875 328.828 98.1875C329.359 97.1719 330.109 96.2891 331.078 95.5391C332.062 94.7891 333.234 94.2109 334.594 93.8047C335.969 93.3828 337.5 93.1719 339.188 93.1719C341.203 93.1719 343 93.5078 344.578 94.1797C346.172 94.8516 347.43 95.8594 348.352 97.2031C349.273 98.5312 349.734 100.203 349.734 102.219V112.602C349.734 114.258 349.828 115.516 350.016 116.375C350.203 117.219 350.469 117.961 350.812 118.602V119H342.891C342.516 118.219 342.234 117.266 342.047 116.141C341.875 115 341.789 113.828 341.789 112.625ZM342.75 103.508L342.797 107.727H339.305C338.57 107.727 337.945 107.828 337.43 108.031C336.93 108.234 336.523 108.516 336.211 108.875C335.914 109.219 335.695 109.609 335.555 110.047C335.43 110.484 335.367 110.945 335.367 111.43C335.367 111.898 335.477 112.32 335.695 112.695C335.93 113.055 336.242 113.336 336.633 113.539C337.023 113.742 337.461 113.844 337.945 113.844C338.82 113.844 339.562 113.68 340.172 113.352C340.797 113.008 341.273 112.594 341.602 112.109C341.93 111.625 342.094 111.172 342.094 110.75L343.828 113.984C343.516 114.609 343.156 115.242 342.75 115.883C342.359 116.523 341.867 117.117 341.273 117.664C340.695 118.195 339.984 118.633 339.141 118.977C338.297 119.305 337.273 119.469 336.07 119.469C334.508 119.469 333.07 119.148 331.758 118.508C330.461 117.867 329.422 116.977 328.641 115.836C327.859 114.68 327.469 113.352 327.469 111.852C327.469 110.539 327.703 109.367 328.172 108.336C328.656 107.305 329.383 106.43 330.352 105.711C331.32 104.992 332.555 104.445 334.055 104.07C335.555 103.695 337.32 103.508 339.352 103.508H342.75ZM367.477 93.6406V99.125H352.195V93.6406H367.477ZM355.406 87.3359H363.305V110.727C363.305 111.398 363.383 111.922 363.539 112.297C363.695 112.656 363.961 112.914 364.336 113.07C364.727 113.211 365.242 113.281 365.883 113.281C366.336 113.281 366.711 113.273 367.008 113.258C367.305 113.227 367.586 113.188 367.852 113.141V118.789C367.18 119.008 366.477 119.172 365.742 119.281C365.008 119.406 364.227 119.469 363.398 119.469C361.711 119.469 360.266 119.203 359.062 118.672C357.875 118.141 356.969 117.305 356.344 116.164C355.719 115.023 355.406 113.539 355.406 111.711V87.3359ZM378.961 93.6406V119H371.039V93.6406H378.961ZM370.57 87.1016C370.57 85.9766 370.977 85.0547 371.789 84.3359C372.602 83.6172 373.656 83.2578 374.953 83.2578C376.25 83.2578 377.305 83.6172 378.117 84.3359C378.93 85.0547 379.336 85.9766 379.336 87.1016C379.336 88.2266 378.93 89.1484 378.117 89.8672C377.305 90.5859 376.25 90.9453 374.953 90.9453C373.656 90.9453 372.602 90.5859 371.789 89.8672C370.977 89.1484 370.57 88.2266 370.57 87.1016ZM382.852 106.578V106.086C382.852 104.227 383.117 102.516 383.648 100.953C384.18 99.375 384.961 98.0078 385.992 96.8516C387.023 95.6953 388.297 94.7969 389.812 94.1562C391.328 93.5 393.078 93.1719 395.062 93.1719C397.062 93.1719 398.82 93.5 400.336 94.1562C401.867 94.7969 403.148 95.6953 404.18 96.8516C405.211 98.0078 405.992 99.375 406.523 100.953C407.055 102.516 407.32 104.227 407.32 106.086V106.578C407.32 108.422 407.055 110.133 406.523 111.711C405.992 113.273 405.211 114.641 404.18 115.812C403.148 116.969 401.875 117.867 400.359 118.508C398.844 119.148 397.094 119.469 395.109 119.469C393.125 119.469 391.367 119.148 389.836 118.508C388.305 117.867 387.023 116.969 385.992 115.812C384.961 114.641 384.18 113.273 383.648 111.711C383.117 110.133 382.852 108.422 382.852 106.578ZM390.75 106.086V106.578C390.75 107.531 390.82 108.422 390.961 109.25C391.102 110.078 391.336 110.805 391.664 111.43C391.992 112.039 392.438 112.516 393 112.859C393.562 113.203 394.266 113.375 395.109 113.375C395.938 113.375 396.625 113.203 397.172 112.859C397.734 112.516 398.18 112.039 398.508 111.43C398.836 110.805 399.07 110.078 399.211 109.25C399.352 108.422 399.422 107.531 399.422 106.578V106.086C399.422 105.164 399.352 104.297 399.211 103.484C399.07 102.656 398.836 101.93 398.508 101.305C398.18 100.664 397.734 100.164 397.172 99.8047C396.609 99.4453 395.906 99.2656 395.062 99.2656C394.234 99.2656 393.539 99.4453 392.977 99.8047C392.43 100.164 391.992 100.664 391.664 101.305C391.336 101.93 391.102 102.656 390.961 103.484C390.82 104.297 390.75 105.164 390.75 106.086ZM418.594 99.0547V119H410.695V93.6406H418.102L418.594 99.0547ZM417.656 105.453L415.805 105.5C415.805 103.562 416.039 101.836 416.508 100.32C416.977 98.7891 417.641 97.4922 418.5 96.4297C419.359 95.3672 420.383 94.5625 421.57 94.0156C422.773 93.4531 424.109 93.1719 425.578 93.1719C426.75 93.1719 427.82 93.3438 428.789 93.6875C429.773 94.0312 430.617 94.5859 431.32 95.3516C432.039 96.1172 432.586 97.1328 432.961 98.3984C433.352 99.6484 433.547 101.195 433.547 103.039V119H425.602V103.016C425.602 102 425.461 101.227 425.18 100.695C424.898 100.148 424.492 99.7734 423.961 99.5703C423.43 99.3672 422.781 99.2656 422.016 99.2656C421.203 99.2656 420.516 99.4219 419.953 99.7344C419.391 100.047 418.938 100.484 418.594 101.047C418.266 101.594 418.023 102.242 417.867 102.992C417.727 103.742 417.656 104.562 417.656 105.453Z" fill="black"/>
<path d="M1134 0H1348C1356.28 0 1363 6.71573 1363 15V148C1363 156.284 1356.28 163 1348 163H1134V0Z" fill="#57C492"/>
<path d="M1280.07 47.5H1216.93L1214.5 49.9286V113.071L1216.93 115.5H1280.07L1282.5 113.071V49.9286L1280.07 47.5ZM1277.64 110.643H1233.93V100.929H1245.1C1246.56 103.843 1249.96 105.786 1253.36 105.786C1258.7 105.786 1263.07 101.414 1263.07 96.0714C1263.07 90.7286 1258.7 86.3571 1253.36 86.3571C1248.01 86.3571 1243.64 90.7286 1243.64 96.0714H1229.07V110.643H1219.36V52.3571H1229.07V63.5286C1226.16 64.9857 1224.21 68.3857 1224.21 71.7857C1224.21 77.1286 1228.59 81.5 1233.93 81.5C1239.27 81.5 1243.64 77.1286 1243.64 71.7857H1253.36C1253.36 77.1286 1257.73 81.5 1263.07 81.5C1268.41 81.5 1272.79 77.1286 1272.79 71.7857C1272.79 66.4429 1268.41 62.0714 1263.07 62.0714C1259.67 62.0714 1256.27 64.0143 1254.81 66.9286H1242.19C1240.73 64.0143 1237.33 62.0714 1233.93 62.0714V52.3571H1277.64V110.643ZM1248.5 96.0714C1248.5 93.1571 1250.44 91.2143 1253.36 91.2143C1256.27 91.2143 1258.21 93.1571 1258.21 96.0714C1258.21 98.9857 1256.27 100.929 1253.36 100.929C1250.44 100.929 1248.5 98.9857 1248.5 96.0714ZM1233.93 66.9286C1236.84 66.9286 1238.79 68.8714 1238.79 71.7857C1238.79 74.7 1236.84 76.6429 1233.93 76.6429C1231.01 76.6429 1229.07 74.7 1229.07 71.7857C1229.07 68.8714 1231.01 66.9286 1233.93 66.9286ZM1263.07 66.9286C1265.99 66.9286 1267.93 68.8714 1267.93 71.7857C1267.93 74.7 1265.99 76.6429 1263.07 76.6429C1260.16 76.6429 1258.21 74.7 1258.21 71.7857C1258.21 68.8714 1260.16 66.9286 1263.07 66.9286Z" fill="white"/>
</svg>
