<svg width="1363" height="164" viewBox="0 0 1363 164" fill="none" xmlns="http://www.w3.org/2000/svg">
<g clip-path="url(#clip0_296_2512)">
<path d="M0 15.5C0 7.21573 6.71573 0.5 15 0.5H37V163.5H15C6.71573 163.5 0 156.784 0 148.5V15.5Z" fill="#424242"/>
<path d="M1134 0.5H37V163.5H1134V0.5Z" fill="#F0F0F0"/>
<path d="M104.414 55.8398H107.918C107.848 56.9883 107.531 58.0078 106.969 58.8984C106.414 59.7891 105.637 60.4844 104.637 60.9844C103.645 61.4844 102.449 61.7344 101.051 61.7344C99.957 61.7344 98.9766 61.5469 98.1094 61.1719C97.2422 60.7891 96.5 60.2422 95.8828 59.5312C95.2734 58.8203 94.8086 57.9609 94.4883 56.9531C94.168 55.9453 94.0078 54.8164 94.0078 53.5664V52.3828C94.0078 51.1328 94.1719 50.0039 94.5 48.9961C94.8359 47.9805 95.3125 47.1172 95.9297 46.4062C96.5547 45.6953 97.3008 45.1484 98.168 44.7656C99.0352 44.3828 100.004 44.1914 101.074 44.1914C102.496 44.1914 103.695 44.4492 104.672 44.9648C105.656 45.4805 106.418 46.1914 106.957 47.0977C107.504 48.0039 107.832 49.0352 107.941 50.1914H104.426C104.387 49.5039 104.25 48.9219 104.016 48.4453C103.781 47.9609 103.426 47.5977 102.949 47.3555C102.48 47.1055 101.855 46.9805 101.074 46.9805C100.488 46.9805 99.9766 47.0898 99.5391 47.3086C99.1016 47.5273 98.7344 47.8594 98.4375 48.3047C98.1406 48.75 97.918 49.3125 97.7695 49.9922C97.6289 50.6641 97.5586 51.4531 97.5586 52.3594V53.5664C97.5586 54.4492 97.625 55.2266 97.7578 55.8984C97.8906 56.5625 98.0938 57.125 98.3672 57.5859C98.6484 58.0391 99.0078 58.3828 99.4453 58.6172C99.8906 58.8438 100.426 58.957 101.051 58.957C101.785 58.957 102.391 58.8398 102.867 58.6055C103.344 58.3711 103.707 58.0234 103.957 57.5625C104.215 57.1016 104.367 56.5273 104.414 55.8398ZM116.859 58.6406V52.9922C116.859 52.5859 116.793 52.2383 116.66 51.9492C116.527 51.6523 116.32 51.4219 116.039 51.2578C115.766 51.0938 115.41 51.0117 114.973 51.0117C114.598 51.0117 114.273 51.0781 114 51.2109C113.727 51.3359 113.516 51.5195 113.367 51.7617C113.219 51.9961 113.145 52.2734 113.145 52.5938H109.77C109.77 52.0547 109.895 51.543 110.145 51.0586C110.395 50.5742 110.758 50.1484 111.234 49.7812C111.711 49.4062 112.277 49.1133 112.934 48.9023C113.598 48.6914 114.34 48.5859 115.16 48.5859C116.145 48.5859 117.02 48.75 117.785 49.0781C118.551 49.4062 119.152 49.8984 119.59 50.5547C120.035 51.2109 120.258 52.0312 120.258 53.0156V58.4414C120.258 59.1367 120.301 59.707 120.387 60.1523C120.473 60.5898 120.598 60.9727 120.762 61.3008V61.5H117.352C117.188 61.1562 117.062 60.7266 116.977 60.2109C116.898 59.6875 116.859 59.1641 116.859 58.6406ZM117.305 53.7773L117.328 55.6875H115.441C114.996 55.6875 114.609 55.7383 114.281 55.8398C113.953 55.9414 113.684 56.0859 113.473 56.2734C113.262 56.4531 113.105 56.6641 113.004 56.9062C112.91 57.1484 112.863 57.4141 112.863 57.7031C112.863 57.9922 112.93 58.2539 113.062 58.4883C113.195 58.7148 113.387 58.8945 113.637 59.0273C113.887 59.1523 114.18 59.2148 114.516 59.2148C115.023 59.2148 115.465 59.1133 115.84 58.9102C116.215 58.707 116.504 58.457 116.707 58.1602C116.918 57.8633 117.027 57.582 117.035 57.3164L117.926 58.7461C117.801 59.0664 117.629 59.3984 117.41 59.7422C117.199 60.0859 116.93 60.4102 116.602 60.7148C116.273 61.0117 115.879 61.2578 115.418 61.4531C114.957 61.6406 114.41 61.7344 113.777 61.7344C112.973 61.7344 112.242 61.5742 111.586 61.2539C110.938 60.9258 110.422 60.4766 110.039 59.9062C109.664 59.3281 109.477 58.6719 109.477 57.9375C109.477 57.2734 109.602 56.6836 109.852 56.168C110.102 55.6523 110.469 55.2188 110.953 54.8672C111.445 54.5078 112.059 54.2383 112.793 54.0586C113.527 53.8711 114.379 53.7773 115.348 53.7773H117.305ZM126.234 51.5859V61.5H122.859V48.8203H126.035L126.234 51.5859ZM130.055 48.7383L129.996 51.8672C129.832 51.8438 129.633 51.8242 129.398 51.8086C129.172 51.7852 128.965 51.7734 128.777 51.7734C128.301 51.7734 127.887 51.8359 127.535 51.9609C127.191 52.0781 126.902 52.2539 126.668 52.4883C126.441 52.7227 126.27 53.0078 126.152 53.3438C126.043 53.6797 125.98 54.0625 125.965 54.4922L125.285 54.2812C125.285 53.4609 125.367 52.707 125.531 52.0195C125.695 51.3242 125.934 50.7188 126.246 50.2031C126.566 49.6875 126.957 49.2891 127.418 49.0078C127.879 48.7266 128.406 48.5859 129 48.5859C129.188 48.5859 129.379 48.6016 129.574 48.6328C129.77 48.6562 129.93 48.6914 130.055 48.7383ZM135.023 51.2578V66.375H131.648V48.8203H134.777L135.023 51.2578ZM143.051 55.0195V55.2656C143.051 56.1875 142.941 57.043 142.723 57.832C142.512 58.6211 142.199 59.3086 141.785 59.8945C141.371 60.4727 140.855 60.9258 140.238 61.2539C139.629 61.5742 138.926 61.7344 138.129 61.7344C137.355 61.7344 136.684 61.5781 136.113 61.2656C135.543 60.9531 135.062 60.5156 134.672 59.9531C134.289 59.3828 133.98 58.7227 133.746 57.9727C133.512 57.2227 133.332 56.418 133.207 55.5586V54.9141C133.332 53.9922 133.512 53.1484 133.746 52.3828C133.98 51.6094 134.289 50.9414 134.672 50.3789C135.062 49.8086 135.539 49.3672 136.102 49.0547C136.672 48.7422 137.34 48.5859 138.105 48.5859C138.91 48.5859 139.617 48.7383 140.227 49.043C140.844 49.3477 141.359 49.7852 141.773 50.3555C142.195 50.9258 142.512 51.6055 142.723 52.3945C142.941 53.1836 143.051 54.0586 143.051 55.0195ZM139.664 55.2656V55.0195C139.664 54.4805 139.617 53.9844 139.523 53.5312C139.438 53.0703 139.297 52.668 139.102 52.3242C138.914 51.9805 138.664 51.7148 138.352 51.5273C138.047 51.332 137.676 51.2344 137.238 51.2344C136.777 51.2344 136.383 51.3086 136.055 51.457C135.734 51.6055 135.473 51.8203 135.27 52.1016C135.066 52.3828 134.914 52.7188 134.812 53.1094C134.711 53.5 134.648 53.9414 134.625 54.4336V56.0625C134.664 56.6406 134.773 57.1602 134.953 57.6211C135.133 58.0742 135.41 58.4336 135.785 58.6992C136.16 58.9648 136.652 59.0977 137.262 59.0977C137.707 59.0977 138.082 59 138.387 58.8047C138.691 58.6016 138.938 58.3242 139.125 57.9727C139.32 57.6211 139.457 57.2148 139.535 56.7539C139.621 56.293 139.664 55.7969 139.664 55.2656ZM144.609 55.2891V55.043C144.609 54.1133 144.742 53.2578 145.008 52.4766C145.273 51.6875 145.66 51.0039 146.168 50.4258C146.676 49.8477 147.301 49.3984 148.043 49.0781C148.785 48.75 149.637 48.5859 150.598 48.5859C151.559 48.5859 152.414 48.75 153.164 49.0781C153.914 49.3984 154.543 49.8477 155.051 50.4258C155.566 51.0039 155.957 51.6875 156.223 52.4766C156.488 53.2578 156.621 54.1133 156.621 55.043V55.2891C156.621 56.2109 156.488 57.0664 156.223 57.8555C155.957 58.6367 155.566 59.3203 155.051 59.9062C154.543 60.4844 153.918 60.9336 153.176 61.2539C152.434 61.5742 151.582 61.7344 150.621 61.7344C149.66 61.7344 148.805 61.5742 148.055 61.2539C147.312 60.9336 146.684 60.4844 146.168 59.9062C145.66 59.3203 145.273 58.6367 145.008 57.8555C144.742 57.0664 144.609 56.2109 144.609 55.2891ZM147.984 55.043V55.2891C147.984 55.8203 148.031 56.3164 148.125 56.7773C148.219 57.2383 148.367 57.6445 148.57 57.9961C148.781 58.3398 149.055 58.6094 149.391 58.8047C149.727 59 150.137 59.0977 150.621 59.0977C151.09 59.0977 151.492 59 151.828 58.8047C152.164 58.6094 152.434 58.3398 152.637 57.9961C152.84 57.6445 152.988 57.2383 153.082 56.7773C153.184 56.3164 153.234 55.8203 153.234 55.2891V55.043C153.234 54.5273 153.184 54.043 153.082 53.5898C152.988 53.1289 152.836 52.7227 152.625 52.3711C152.422 52.0117 152.152 51.7305 151.816 51.5273C151.48 51.3242 151.074 51.2227 150.598 51.2227C150.121 51.2227 149.715 51.3242 149.379 51.5273C149.051 51.7305 148.781 52.0117 148.57 52.3711C148.367 52.7227 148.219 53.1289 148.125 53.5898C148.031 54.043 147.984 54.5273 147.984 55.043ZM158.156 55.2891V55.043C158.156 54.1133 158.289 53.2578 158.555 52.4766C158.82 51.6875 159.207 51.0039 159.715 50.4258C160.223 49.8477 160.848 49.3984 161.59 49.0781C162.332 48.75 163.184 48.5859 164.145 48.5859C165.105 48.5859 165.961 48.75 166.711 49.0781C167.461 49.3984 168.09 49.8477 168.598 50.4258C169.113 51.0039 169.504 51.6875 169.77 52.4766C170.035 53.2578 170.168 54.1133 170.168 55.043V55.2891C170.168 56.2109 170.035 57.0664 169.77 57.8555C169.504 58.6367 169.113 59.3203 168.598 59.9062C168.09 60.4844 167.465 60.9336 166.723 61.2539C165.98 61.5742 165.129 61.7344 164.168 61.7344C163.207 61.7344 162.352 61.5742 161.602 61.2539C160.859 60.9336 160.23 60.4844 159.715 59.9062C159.207 59.3203 158.82 58.6367 158.555 57.8555C158.289 57.0664 158.156 56.2109 158.156 55.2891ZM161.531 55.043V55.2891C161.531 55.8203 161.578 56.3164 161.672 56.7773C161.766 57.2383 161.914 57.6445 162.117 57.9961C162.328 58.3398 162.602 58.6094 162.938 58.8047C163.273 59 163.684 59.0977 164.168 59.0977C164.637 59.0977 165.039 59 165.375 58.8047C165.711 58.6094 165.98 58.3398 166.184 57.9961C166.387 57.6445 166.535 57.2383 166.629 56.7773C166.73 56.3164 166.781 55.8203 166.781 55.2891V55.043C166.781 54.5273 166.73 54.043 166.629 53.5898C166.535 53.1289 166.383 52.7227 166.172 52.3711C165.969 52.0117 165.699 51.7305 165.363 51.5273C165.027 51.3242 164.621 51.2227 164.145 51.2227C163.668 51.2227 163.262 51.3242 162.926 51.5273C162.598 51.7305 162.328 52.0117 162.117 52.3711C161.914 52.7227 161.766 53.1289 161.672 53.5898C161.578 54.043 161.531 54.5273 161.531 55.043ZM175.805 43.5V61.5H172.418V43.5H175.805ZM194.672 55.8398H198.176C198.105 56.9883 197.789 58.0078 197.227 58.8984C196.672 59.7891 195.895 60.4844 194.895 60.9844C193.902 61.4844 192.707 61.7344 191.309 61.7344C190.215 61.7344 189.234 61.5469 188.367 61.1719C187.5 60.7891 186.758 60.2422 186.141 59.5312C185.531 58.8203 185.066 57.9609 184.746 56.9531C184.426 55.9453 184.266 54.8164 184.266 53.5664V52.3828C184.266 51.1328 184.43 50.0039 184.758 48.9961C185.094 47.9805 185.57 47.1172 186.188 46.4062C186.812 45.6953 187.559 45.1484 188.426 44.7656C189.293 44.3828 190.262 44.1914 191.332 44.1914C192.754 44.1914 193.953 44.4492 194.93 44.9648C195.914 45.4805 196.676 46.1914 197.215 47.0977C197.762 48.0039 198.09 49.0352 198.199 50.1914H194.684C194.645 49.5039 194.508 48.9219 194.273 48.4453C194.039 47.9609 193.684 47.5977 193.207 47.3555C192.738 47.1055 192.113 46.9805 191.332 46.9805C190.746 46.9805 190.234 47.0898 189.797 47.3086C189.359 47.5273 188.992 47.8594 188.695 48.3047C188.398 48.75 188.176 49.3125 188.027 49.9922C187.887 50.6641 187.816 51.4531 187.816 52.3594V53.5664C187.816 54.4492 187.883 55.2266 188.016 55.8984C188.148 56.5625 188.352 57.125 188.625 57.5859C188.906 58.0391 189.266 58.3828 189.703 58.6172C190.148 58.8438 190.684 58.957 191.309 58.957C192.043 58.957 192.648 58.8398 193.125 58.6055C193.602 58.3711 193.965 58.0234 194.215 57.5625C194.473 57.1016 194.625 56.5273 194.672 55.8398ZM199.734 55.2891V55.043C199.734 54.1133 199.867 53.2578 200.133 52.4766C200.398 51.6875 200.785 51.0039 201.293 50.4258C201.801 49.8477 202.426 49.3984 203.168 49.0781C203.91 48.75 204.762 48.5859 205.723 48.5859C206.684 48.5859 207.539 48.75 208.289 49.0781C209.039 49.3984 209.668 49.8477 210.176 50.4258C210.691 51.0039 211.082 51.6875 211.348 52.4766C211.613 53.2578 211.746 54.1133 211.746 55.043V55.2891C211.746 56.2109 211.613 57.0664 211.348 57.8555C211.082 58.6367 210.691 59.3203 210.176 59.9062C209.668 60.4844 209.043 60.9336 208.301 61.2539C207.559 61.5742 206.707 61.7344 205.746 61.7344C204.785 61.7344 203.93 61.5742 203.18 61.2539C202.438 60.9336 201.809 60.4844 201.293 59.9062C200.785 59.3203 200.398 58.6367 200.133 57.8555C199.867 57.0664 199.734 56.2109 199.734 55.2891ZM203.109 55.043V55.2891C203.109 55.8203 203.156 56.3164 203.25 56.7773C203.344 57.2383 203.492 57.6445 203.695 57.9961C203.906 58.3398 204.18 58.6094 204.516 58.8047C204.852 59 205.262 59.0977 205.746 59.0977C206.215 59.0977 206.617 59 206.953 58.8047C207.289 58.6094 207.559 58.3398 207.762 57.9961C207.965 57.6445 208.113 57.2383 208.207 56.7773C208.309 56.3164 208.359 55.8203 208.359 55.2891V55.043C208.359 54.5273 208.309 54.043 208.207 53.5898C208.113 53.1289 207.961 52.7227 207.75 52.3711C207.547 52.0117 207.277 51.7305 206.941 51.5273C206.605 51.3242 206.199 51.2227 205.723 51.2227C205.246 51.2227 204.84 51.3242 204.504 51.5273C204.176 51.7305 203.906 52.0117 203.695 52.3711C203.492 52.7227 203.344 53.1289 203.25 53.5898C203.156 54.043 203.109 54.5273 203.109 55.043ZM217.125 51.5273V61.5H213.75V48.8203H216.914L217.125 51.5273ZM216.633 54.7148H215.719C215.719 53.7773 215.84 52.9336 216.082 52.1836C216.324 51.4258 216.664 50.7812 217.102 50.25C217.539 49.7109 218.059 49.3008 218.66 49.0195C219.27 48.7305 219.949 48.5859 220.699 48.5859C221.293 48.5859 221.836 48.6719 222.328 48.8438C222.82 49.0156 223.242 49.2891 223.594 49.6641C223.953 50.0391 224.227 50.5352 224.414 51.1523C224.609 51.7695 224.707 52.5234 224.707 53.4141V61.5H221.309V53.4023C221.309 52.8398 221.23 52.4023 221.074 52.0898C220.918 51.7773 220.688 51.5586 220.383 51.4336C220.086 51.3008 219.719 51.2344 219.281 51.2344C218.828 51.2344 218.434 51.3242 218.098 51.5039C217.77 51.6836 217.496 51.9336 217.277 52.2539C217.066 52.5664 216.906 52.9336 216.797 53.3555C216.688 53.7773 216.633 54.2305 216.633 54.7148ZM230.578 51.5273V61.5H227.203V48.8203H230.367L230.578 51.5273ZM230.086 54.7148H229.172C229.172 53.7773 229.293 52.9336 229.535 52.1836C229.777 51.4258 230.117 50.7812 230.555 50.25C230.992 49.7109 231.512 49.3008 232.113 49.0195C232.723 48.7305 233.402 48.5859 234.152 48.5859C234.746 48.5859 235.289 48.6719 235.781 48.8438C236.273 49.0156 236.695 49.2891 237.047 49.6641C237.406 50.0391 237.68 50.5352 237.867 51.1523C238.062 51.7695 238.16 52.5234 238.16 53.4141V61.5H234.762V53.4023C234.762 52.8398 234.684 52.4023 234.527 52.0898C234.371 51.7773 234.141 51.5586 233.836 51.4336C233.539 51.3008 233.172 51.2344 232.734 51.2344C232.281 51.2344 231.887 51.3242 231.551 51.5039C231.223 51.6836 230.949 51.9336 230.73 52.2539C230.52 52.5664 230.359 52.9336 230.25 53.3555C230.141 53.7773 230.086 54.2305 230.086 54.7148ZM246.562 61.7344C245.578 61.7344 244.695 61.5781 243.914 61.2656C243.133 60.9453 242.469 60.5039 241.922 59.9414C241.383 59.3789 240.969 58.7266 240.68 57.9844C240.391 57.2344 240.246 56.4375 240.246 55.5938V55.125C240.246 54.1641 240.383 53.2852 240.656 52.4883C240.93 51.6914 241.32 51 241.828 50.4141C242.344 49.8281 242.969 49.3789 243.703 49.0664C244.438 48.7461 245.266 48.5859 246.188 48.5859C247.086 48.5859 247.883 48.7344 248.578 49.0312C249.273 49.3281 249.855 49.75 250.324 50.2969C250.801 50.8438 251.16 51.5 251.402 52.2656C251.645 53.0234 251.766 53.8672 251.766 54.7969V56.2031H241.688V53.9531H248.449V53.6953C248.449 53.2266 248.363 52.8086 248.191 52.4414C248.027 52.0664 247.777 51.7695 247.441 51.5508C247.105 51.332 246.676 51.2227 246.152 51.2227C245.707 51.2227 245.324 51.3203 245.004 51.5156C244.684 51.7109 244.422 51.9844 244.219 52.3359C244.023 52.6875 243.875 53.1016 243.773 53.5781C243.68 54.0469 243.633 54.5625 243.633 55.125V55.5938C243.633 56.1016 243.703 56.5703 243.844 57C243.992 57.4297 244.199 57.8008 244.465 58.1133C244.738 58.4258 245.066 58.668 245.449 58.8398C245.84 59.0117 246.281 59.0977 246.773 59.0977C247.383 59.0977 247.949 58.9805 248.473 58.7461C249.004 58.5039 249.461 58.1406 249.844 57.6562L251.484 59.4375C251.219 59.8203 250.855 60.1875 250.395 60.5391C249.941 60.8906 249.395 61.1797 248.754 61.4062C248.113 61.625 247.383 61.7344 246.562 61.7344ZM258.926 59.0977C259.34 59.0977 259.707 59.0195 260.027 58.8633C260.348 58.6992 260.598 58.4727 260.777 58.1836C260.965 57.8867 261.062 57.5391 261.07 57.1406H264.246C264.238 58.0312 264 58.8242 263.531 59.5195C263.062 60.207 262.434 60.75 261.645 61.1484C260.855 61.5391 259.973 61.7344 258.996 61.7344C258.012 61.7344 257.152 61.5703 256.418 61.2422C255.691 60.9141 255.086 60.4609 254.602 59.8828C254.117 59.2969 253.754 58.6172 253.512 57.8438C253.27 57.0625 253.148 56.2266 253.148 55.3359V54.9961C253.148 54.0977 253.27 53.2617 253.512 52.4883C253.754 51.707 254.117 51.0273 254.602 50.4492C255.086 49.8633 255.691 49.4062 256.418 49.0781C257.145 48.75 257.996 48.5859 258.973 48.5859C260.012 48.5859 260.922 48.7852 261.703 49.1836C262.492 49.582 263.109 50.1523 263.555 50.8945C264.008 51.6289 264.238 52.5 264.246 53.5078H261.07C261.062 53.0859 260.973 52.7031 260.801 52.3594C260.637 52.0156 260.395 51.7422 260.074 51.5391C259.762 51.3281 259.375 51.2227 258.914 51.2227C258.422 51.2227 258.02 51.3281 257.707 51.5391C257.395 51.7422 257.152 52.0234 256.98 52.3828C256.809 52.7344 256.688 53.1367 256.617 53.5898C256.555 54.0352 256.523 54.5039 256.523 54.9961V55.3359C256.523 55.8281 256.555 56.3008 256.617 56.7539C256.68 57.207 256.797 57.6094 256.969 57.9609C257.148 58.3125 257.395 58.5898 257.707 58.793C258.02 58.9961 258.426 59.0977 258.926 59.0977ZM272.414 48.8203V51.2109H265.031V48.8203H272.414ZM266.859 45.6914H270.234V57.6797C270.234 58.0469 270.281 58.3281 270.375 58.5234C270.477 58.7188 270.625 58.8555 270.82 58.9336C271.016 59.0039 271.262 59.0391 271.559 59.0391C271.77 59.0391 271.957 59.0312 272.121 59.0156C272.293 58.9922 272.438 58.9688 272.555 58.9453L272.566 61.4297C272.277 61.5234 271.965 61.5977 271.629 61.6523C271.293 61.707 270.922 61.7344 270.516 61.7344C269.773 61.7344 269.125 61.6133 268.57 61.3711C268.023 61.1211 267.602 60.7227 267.305 60.1758C267.008 59.6289 266.859 58.9102 266.859 58.0195V45.6914Z" fill="#888888"/>
<path d="M114.117 85.375H122.344V107.664C122.344 110.32 121.789 112.57 120.68 114.414C119.57 116.242 118.016 117.625 116.016 118.562C114.016 119.5 111.664 119.969 108.961 119.969C106.289 119.969 103.938 119.5 101.906 118.562C99.8906 117.625 98.3125 116.242 97.1719 114.414C96.0469 112.57 95.4844 110.32 95.4844 107.664V85.375H103.734V107.664C103.734 109.07 103.938 110.219 104.344 111.109C104.75 111.984 105.344 112.625 106.125 113.031C106.906 113.438 107.852 113.641 108.961 113.641C110.086 113.641 111.031 113.438 111.797 113.031C112.562 112.625 113.141 111.984 113.531 111.109C113.922 110.219 114.117 109.07 114.117 107.664V85.375ZM134.906 99.5547V119.5H127.008V94.1406H134.414L134.906 99.5547ZM133.969 105.953L132.117 106C132.117 104.062 132.352 102.336 132.82 100.82C133.289 99.2891 133.953 97.9922 134.812 96.9297C135.672 95.8672 136.695 95.0625 137.883 94.5156C139.086 93.9531 140.422 93.6719 141.891 93.6719C143.062 93.6719 144.133 93.8438 145.102 94.1875C146.086 94.5312 146.93 95.0859 147.633 95.8516C148.352 96.6172 148.898 97.6328 149.273 98.8984C149.664 100.148 149.859 101.695 149.859 103.539V119.5H141.914V103.516C141.914 102.5 141.773 101.727 141.492 101.195C141.211 100.648 140.805 100.273 140.273 100.07C139.742 99.8672 139.094 99.7656 138.328 99.7656C137.516 99.7656 136.828 99.9219 136.266 100.234C135.703 100.547 135.25 100.984 134.906 101.547C134.578 102.094 134.336 102.742 134.18 103.492C134.039 104.242 133.969 105.062 133.969 105.953ZM162.586 94.1406V119.5H154.664V94.1406H162.586ZM154.195 87.6016C154.195 86.4766 154.602 85.5547 155.414 84.8359C156.227 84.1172 157.281 83.7578 158.578 83.7578C159.875 83.7578 160.93 84.1172 161.742 84.8359C162.555 85.5547 162.961 86.4766 162.961 87.6016C162.961 88.7266 162.555 89.6484 161.742 90.3672C160.93 91.0859 159.875 91.4453 158.578 91.4453C157.281 91.4453 156.227 91.0859 155.414 90.3672C154.602 89.6484 154.195 88.7266 154.195 87.6016ZM180.82 94.1406V99.625H165.539V94.1406H180.82ZM168.75 87.8359H176.648V111.227C176.648 111.898 176.727 112.422 176.883 112.797C177.039 113.156 177.305 113.414 177.68 113.57C178.07 113.711 178.586 113.781 179.227 113.781C179.68 113.781 180.055 113.773 180.352 113.758C180.648 113.727 180.93 113.688 181.195 113.641V119.289C180.523 119.508 179.82 119.672 179.086 119.781C178.352 119.906 177.57 119.969 176.742 119.969C175.055 119.969 173.609 119.703 172.406 119.172C171.219 118.641 170.312 117.805 169.688 116.664C169.062 115.523 168.75 114.039 168.75 112.211V87.8359ZM211.406 85.375V119.5H203.18V85.375H211.406ZM221.672 85.375V91.7266H193.148V85.375H221.672ZM234.961 119.969C232.898 119.969 231.055 119.648 229.43 119.008C227.805 118.352 226.43 117.453 225.305 116.312C224.195 115.172 223.344 113.859 222.75 112.375C222.172 110.891 221.883 109.32 221.883 107.664V106.773C221.883 104.914 222.141 103.195 222.656 101.617C223.172 100.023 223.938 98.6328 224.953 97.4453C225.969 96.2578 227.242 95.3359 228.773 94.6797C230.305 94.0078 232.086 93.6719 234.117 93.6719C235.914 93.6719 237.523 93.9609 238.945 94.5391C240.367 95.1172 241.57 95.9453 242.555 97.0234C243.555 98.1016 244.312 99.4062 244.828 100.938C245.359 102.469 245.625 104.188 245.625 106.094V109.305H224.906V104.359H237.914V103.75C237.93 102.906 237.781 102.188 237.469 101.594C237.172 101 236.734 100.547 236.156 100.234C235.578 99.9219 234.875 99.7656 234.047 99.7656C233.188 99.7656 232.477 99.9531 231.914 100.328C231.367 100.703 230.938 101.219 230.625 101.875C230.328 102.516 230.117 103.258 229.992 104.102C229.867 104.945 229.805 105.836 229.805 106.773V107.664C229.805 108.602 229.93 109.453 230.18 110.219C230.445 110.984 230.82 111.641 231.305 112.188C231.805 112.719 232.398 113.133 233.086 113.43C233.789 113.727 234.586 113.875 235.477 113.875C236.555 113.875 237.617 113.672 238.664 113.266C239.711 112.859 240.609 112.188 241.359 111.25L244.945 115.516C244.43 116.25 243.695 116.961 242.742 117.648C241.805 118.336 240.68 118.898 239.367 119.336C238.055 119.758 236.586 119.969 234.961 119.969ZM262.125 112.375C262.125 111.938 261.977 111.562 261.68 111.25C261.398 110.922 260.898 110.625 260.18 110.359C259.461 110.078 258.453 109.797 257.156 109.516C255.922 109.25 254.758 108.898 253.664 108.461C252.586 108.023 251.641 107.492 250.828 106.867C250.016 106.242 249.375 105.5 248.906 104.641C248.453 103.781 248.227 102.797 248.227 101.688C248.227 100.609 248.453 99.5938 248.906 98.6406C249.375 97.6719 250.055 96.8203 250.945 96.0859C251.852 95.3359 252.953 94.75 254.25 94.3281C255.547 93.8906 257.023 93.6719 258.68 93.6719C260.961 93.6719 262.93 94.0234 264.586 94.7266C266.242 95.4141 267.516 96.3828 268.406 97.6328C269.312 98.8672 269.766 100.297 269.766 101.922H261.867C261.867 101.281 261.758 100.734 261.539 100.281C261.336 99.8281 261 99.4844 260.531 99.25C260.062 99 259.438 98.875 258.656 98.875C258.109 98.875 257.609 98.9766 257.156 99.1797C256.719 99.3828 256.367 99.6641 256.102 100.023C255.836 100.383 255.703 100.805 255.703 101.289C255.703 101.633 255.781 101.945 255.938 102.227C256.109 102.492 256.367 102.742 256.711 102.977C257.055 103.195 257.492 103.398 258.023 103.586C258.555 103.758 259.195 103.914 259.945 104.055C261.648 104.367 263.242 104.812 264.727 105.391C266.211 105.969 267.414 106.789 268.336 107.852C269.273 108.914 269.742 110.344 269.742 112.141C269.742 113.266 269.484 114.305 268.969 115.258C268.453 116.195 267.711 117.023 266.742 117.742C265.773 118.445 264.609 118.992 263.25 119.383C261.891 119.773 260.359 119.969 258.656 119.969C256.234 119.969 254.188 119.539 252.516 118.68C250.844 117.805 249.578 116.711 248.719 115.398C247.875 114.07 247.453 112.727 247.453 111.367H254.812C254.844 112.148 255.031 112.789 255.375 113.289C255.734 113.789 256.211 114.156 256.805 114.391C257.398 114.625 258.086 114.742 258.867 114.742C259.586 114.742 260.18 114.641 260.648 114.438C261.133 114.234 261.5 113.961 261.75 113.617C262 113.258 262.125 112.844 262.125 112.375ZM286.805 94.1406V99.625H271.523V94.1406H286.805ZM274.734 87.8359H282.633V111.227C282.633 111.898 282.711 112.422 282.867 112.797C283.023 113.156 283.289 113.414 283.664 113.57C284.055 113.711 284.57 113.781 285.211 113.781C285.664 113.781 286.039 113.773 286.336 113.758C286.633 113.727 286.914 113.688 287.18 113.641V119.289C286.508 119.508 285.805 119.672 285.07 119.781C284.336 119.906 283.555 119.969 282.727 119.969C281.039 119.969 279.594 119.703 278.391 119.172C277.203 118.641 276.297 117.805 275.672 116.664C275.047 115.523 274.734 114.039 274.734 112.211V87.8359ZM298.289 94.1406V119.5H290.367V94.1406H298.289ZM289.898 87.6016C289.898 86.4766 290.305 85.5547 291.117 84.8359C291.93 84.1172 292.984 83.7578 294.281 83.7578C295.578 83.7578 296.633 84.1172 297.445 84.8359C298.258 85.5547 298.664 86.4766 298.664 87.6016C298.664 88.7266 298.258 89.6484 297.445 90.3672C296.633 91.0859 295.578 91.4453 294.281 91.4453C292.984 91.4453 291.93 91.0859 291.117 90.3672C290.305 89.6484 289.898 88.7266 289.898 87.6016ZM310.922 99.5547V119.5H303.023V94.1406H310.43L310.922 99.5547ZM309.984 105.953L308.133 106C308.133 104.062 308.367 102.336 308.836 100.82C309.305 99.2891 309.969 97.9922 310.828 96.9297C311.688 95.8672 312.711 95.0625 313.898 94.5156C315.102 93.9531 316.438 93.6719 317.906 93.6719C319.078 93.6719 320.148 93.8438 321.117 94.1875C322.102 94.5312 322.945 95.0859 323.648 95.8516C324.367 96.6172 324.914 97.6328 325.289 98.8984C325.68 100.148 325.875 101.695 325.875 103.539V119.5H317.93V103.516C317.93 102.5 317.789 101.727 317.508 101.195C317.227 100.648 316.82 100.273 316.289 100.07C315.758 99.8672 315.109 99.7656 314.344 99.7656C313.531 99.7656 312.844 99.9219 312.281 100.234C311.719 100.547 311.266 100.984 310.922 101.547C310.594 102.094 310.352 102.742 310.195 103.492C310.055 104.242 309.984 105.062 309.984 105.953ZM346.195 94.1406H353.367V118.516C353.367 120.859 352.828 122.844 351.75 124.469C350.672 126.109 349.164 127.352 347.227 128.195C345.305 129.055 343.055 129.484 340.477 129.484C339.336 129.484 338.172 129.336 336.984 129.039C335.797 128.758 334.688 128.336 333.656 127.773C332.625 127.211 331.758 126.516 331.055 125.688L334.359 121.047C335 121.766 335.805 122.375 336.773 122.875C337.742 123.391 338.883 123.648 340.195 123.648C341.336 123.648 342.289 123.445 343.055 123.039C343.836 122.633 344.43 122.039 344.836 121.258C345.242 120.492 345.445 119.562 345.445 118.469V100.141L346.195 94.1406ZM329.344 107.125V106.633C329.344 104.711 329.578 102.961 330.047 101.383C330.531 99.7891 331.219 98.4219 332.109 97.2812C333.016 96.125 334.109 95.2344 335.391 94.6094C336.672 93.9844 338.117 93.6719 339.727 93.6719C341.461 93.6719 342.883 94.0078 343.992 94.6797C345.117 95.3359 346.016 96.2578 346.688 97.4453C347.375 98.6328 347.906 100.023 348.281 101.617C348.672 103.195 349 104.898 349.266 106.727V107.312C349 109.031 348.633 110.656 348.164 112.188C347.711 113.703 347.117 115.047 346.383 116.219C345.648 117.391 344.727 118.312 343.617 118.984C342.523 119.641 341.211 119.969 339.68 119.969C338.086 119.969 336.648 119.648 335.367 119.008C334.102 118.367 333.016 117.469 332.109 116.312C331.219 115.156 330.531 113.797 330.047 112.234C329.578 110.672 329.344 108.969 329.344 107.125ZM337.242 106.633V107.125C337.242 108.078 337.328 108.961 337.5 109.773C337.688 110.586 337.969 111.305 338.344 111.93C338.719 112.539 339.18 113.016 339.727 113.359C340.289 113.703 340.945 113.875 341.695 113.875C342.836 113.875 343.758 113.633 344.461 113.148C345.164 112.664 345.672 111.977 345.984 111.086C346.297 110.195 346.43 109.148 346.383 107.945V106.094C346.414 105.062 346.344 104.156 346.172 103.375C346 102.578 345.727 101.914 345.352 101.383C344.992 100.852 344.508 100.453 343.898 100.188C343.305 99.9062 342.586 99.7656 341.742 99.7656C341.008 99.7656 340.359 99.9375 339.797 100.281C339.234 100.625 338.766 101.109 338.391 101.734C338.016 102.344 337.727 103.07 337.523 103.914C337.336 104.742 337.242 105.648 337.242 106.633Z" fill="black"/>
<path d="M1134 0.5H1348C1356.28 0.5 1363 7.21573 1363 15.5V148.5C1363 156.784 1356.28 163.5 1348 163.5H1134V0.5Z" fill="#40C784"/>
<path d="M1210.62 44.125H1286.38V119.875H1210.62V44.125Z" fill="white" fill-opacity="0.01"/>
<path d="M1276.91 72.5311V105.672C1276.91 108.287 1274.79 110.406 1272.17 110.406H1224.83C1222.21 110.406 1220.09 108.287 1220.09 105.672V58.328C1220.09 55.7133 1222.21 53.5938 1224.83 53.5938H1261.12" stroke="white" stroke-width="7.24" stroke-linecap="round" stroke-linejoin="round"/>
<path d="M1232.72 75.6875L1248.5 88.3125L1276.91 53.5938" stroke="white" stroke-width="7.24" stroke-linecap="round" stroke-linejoin="round"/>
</g>
<defs>
<clipPath id="clip0_296_2512">
<rect width="1363" height="163" fill="white" transform="translate(0 0.5)"/>
</clipPath>
</defs>
</svg>
