<svg width="1363" height="164" viewBox="0 0 1363 164" fill="none" xmlns="http://www.w3.org/2000/svg">
<g clip-path="url(#clip0_296_2502)">
<path d="M0 15.5C0 7.21573 6.71573 0.5 15 0.5H37V163.5H15C6.71573 163.5 0 156.784 0 148.5V15.5Z" fill="#424242"/>
<path d="M1134 0.5H37V163.5H1134V0.5Z" fill="#F0F0F0"/>
<path d="M104.414 55.8398H107.918C107.848 56.9883 107.531 58.0078 106.969 58.8984C106.414 59.7891 105.637 60.4844 104.637 60.9844C103.645 61.4844 102.449 61.7344 101.051 61.7344C99.957 61.7344 98.9766 61.5469 98.1094 61.1719C97.2422 60.7891 96.5 60.2422 95.8828 59.5312C95.2734 58.8203 94.8086 57.9609 94.4883 56.9531C94.168 55.9453 94.0078 54.8164 94.0078 53.5664V52.3828C94.0078 51.1328 94.1719 50.0039 94.5 48.9961C94.8359 47.9805 95.3125 47.1172 95.9297 46.4062C96.5547 45.6953 97.3008 45.1484 98.168 44.7656C99.0352 44.3828 100.004 44.1914 101.074 44.1914C102.496 44.1914 103.695 44.4492 104.672 44.9648C105.656 45.4805 106.418 46.1914 106.957 47.0977C107.504 48.0039 107.832 49.0352 107.941 50.1914H104.426C104.387 49.5039 104.25 48.9219 104.016 48.4453C103.781 47.9609 103.426 47.5977 102.949 47.3555C102.48 47.1055 101.855 46.9805 101.074 46.9805C100.488 46.9805 99.9766 47.0898 99.5391 47.3086C99.1016 47.5273 98.7344 47.8594 98.4375 48.3047C98.1406 48.75 97.918 49.3125 97.7695 49.9922C97.6289 50.6641 97.5586 51.4531 97.5586 52.3594V53.5664C97.5586 54.4492 97.625 55.2266 97.7578 55.8984C97.8906 56.5625 98.0938 57.125 98.3672 57.5859C98.6484 58.0391 99.0078 58.3828 99.4453 58.6172C99.8906 58.8438 100.426 58.957 101.051 58.957C101.785 58.957 102.391 58.8398 102.867 58.6055C103.344 58.3711 103.707 58.0234 103.957 57.5625C104.215 57.1016 104.367 56.5273 104.414 55.8398ZM116.859 58.6406V52.9922C116.859 52.5859 116.793 52.2383 116.66 51.9492C116.527 51.6523 116.32 51.4219 116.039 51.2578C115.766 51.0938 115.41 51.0117 114.973 51.0117C114.598 51.0117 114.273 51.0781 114 51.2109C113.727 51.3359 113.516 51.5195 113.367 51.7617C113.219 51.9961 113.145 52.2734 113.145 52.5938H109.77C109.77 52.0547 109.895 51.543 110.145 51.0586C110.395 50.5742 110.758 50.1484 111.234 49.7812C111.711 49.4062 112.277 49.1133 112.934 48.9023C113.598 48.6914 114.34 48.5859 115.16 48.5859C116.145 48.5859 117.02 48.75 117.785 49.0781C118.551 49.4062 119.152 49.8984 119.59 50.5547C120.035 51.2109 120.258 52.0312 120.258 53.0156V58.4414C120.258 59.1367 120.301 59.707 120.387 60.1523C120.473 60.5898 120.598 60.9727 120.762 61.3008V61.5H117.352C117.188 61.1562 117.062 60.7266 116.977 60.2109C116.898 59.6875 116.859 59.1641 116.859 58.6406ZM117.305 53.7773L117.328 55.6875H115.441C114.996 55.6875 114.609 55.7383 114.281 55.8398C113.953 55.9414 113.684 56.0859 113.473 56.2734C113.262 56.4531 113.105 56.6641 113.004 56.9062C112.91 57.1484 112.863 57.4141 112.863 57.7031C112.863 57.9922 112.93 58.2539 113.062 58.4883C113.195 58.7148 113.387 58.8945 113.637 59.0273C113.887 59.1523 114.18 59.2148 114.516 59.2148C115.023 59.2148 115.465 59.1133 115.84 58.9102C116.215 58.707 116.504 58.457 116.707 58.1602C116.918 57.8633 117.027 57.582 117.035 57.3164L117.926 58.7461C117.801 59.0664 117.629 59.3984 117.41 59.7422C117.199 60.0859 116.93 60.4102 116.602 60.7148C116.273 61.0117 115.879 61.2578 115.418 61.4531C114.957 61.6406 114.41 61.7344 113.777 61.7344C112.973 61.7344 112.242 61.5742 111.586 61.2539C110.938 60.9258 110.422 60.4766 110.039 59.9062C109.664 59.3281 109.477 58.6719 109.477 57.9375C109.477 57.2734 109.602 56.6836 109.852 56.168C110.102 55.6523 110.469 55.2188 110.953 54.8672C111.445 54.5078 112.059 54.2383 112.793 54.0586C113.527 53.8711 114.379 53.7773 115.348 53.7773H117.305ZM126.234 51.5859V61.5H122.859V48.8203H126.035L126.234 51.5859ZM130.055 48.7383L129.996 51.8672C129.832 51.8438 129.633 51.8242 129.398 51.8086C129.172 51.7852 128.965 51.7734 128.777 51.7734C128.301 51.7734 127.887 51.8359 127.535 51.9609C127.191 52.0781 126.902 52.2539 126.668 52.4883C126.441 52.7227 126.27 53.0078 126.152 53.3438C126.043 53.6797 125.98 54.0625 125.965 54.4922L125.285 54.2812C125.285 53.4609 125.367 52.707 125.531 52.0195C125.695 51.3242 125.934 50.7188 126.246 50.2031C126.566 49.6875 126.957 49.2891 127.418 49.0078C127.879 48.7266 128.406 48.5859 129 48.5859C129.188 48.5859 129.379 48.6016 129.574 48.6328C129.77 48.6562 129.93 48.6914 130.055 48.7383ZM135.023 51.2578V66.375H131.648V48.8203H134.777L135.023 51.2578ZM143.051 55.0195V55.2656C143.051 56.1875 142.941 57.043 142.723 57.832C142.512 58.6211 142.199 59.3086 141.785 59.8945C141.371 60.4727 140.855 60.9258 140.238 61.2539C139.629 61.5742 138.926 61.7344 138.129 61.7344C137.355 61.7344 136.684 61.5781 136.113 61.2656C135.543 60.9531 135.062 60.5156 134.672 59.9531C134.289 59.3828 133.98 58.7227 133.746 57.9727C133.512 57.2227 133.332 56.418 133.207 55.5586V54.9141C133.332 53.9922 133.512 53.1484 133.746 52.3828C133.98 51.6094 134.289 50.9414 134.672 50.3789C135.062 49.8086 135.539 49.3672 136.102 49.0547C136.672 48.7422 137.34 48.5859 138.105 48.5859C138.91 48.5859 139.617 48.7383 140.227 49.043C140.844 49.3477 141.359 49.7852 141.773 50.3555C142.195 50.9258 142.512 51.6055 142.723 52.3945C142.941 53.1836 143.051 54.0586 143.051 55.0195ZM139.664 55.2656V55.0195C139.664 54.4805 139.617 53.9844 139.523 53.5312C139.438 53.0703 139.297 52.668 139.102 52.3242C138.914 51.9805 138.664 51.7148 138.352 51.5273C138.047 51.332 137.676 51.2344 137.238 51.2344C136.777 51.2344 136.383 51.3086 136.055 51.457C135.734 51.6055 135.473 51.8203 135.27 52.1016C135.066 52.3828 134.914 52.7188 134.812 53.1094C134.711 53.5 134.648 53.9414 134.625 54.4336V56.0625C134.664 56.6406 134.773 57.1602 134.953 57.6211C135.133 58.0742 135.41 58.4336 135.785 58.6992C136.16 58.9648 136.652 59.0977 137.262 59.0977C137.707 59.0977 138.082 59 138.387 58.8047C138.691 58.6016 138.938 58.3242 139.125 57.9727C139.32 57.6211 139.457 57.2148 139.535 56.7539C139.621 56.293 139.664 55.7969 139.664 55.2656ZM144.609 55.2891V55.043C144.609 54.1133 144.742 53.2578 145.008 52.4766C145.273 51.6875 145.66 51.0039 146.168 50.4258C146.676 49.8477 147.301 49.3984 148.043 49.0781C148.785 48.75 149.637 48.5859 150.598 48.5859C151.559 48.5859 152.414 48.75 153.164 49.0781C153.914 49.3984 154.543 49.8477 155.051 50.4258C155.566 51.0039 155.957 51.6875 156.223 52.4766C156.488 53.2578 156.621 54.1133 156.621 55.043V55.2891C156.621 56.2109 156.488 57.0664 156.223 57.8555C155.957 58.6367 155.566 59.3203 155.051 59.9062C154.543 60.4844 153.918 60.9336 153.176 61.2539C152.434 61.5742 151.582 61.7344 150.621 61.7344C149.66 61.7344 148.805 61.5742 148.055 61.2539C147.312 60.9336 146.684 60.4844 146.168 59.9062C145.66 59.3203 145.273 58.6367 145.008 57.8555C144.742 57.0664 144.609 56.2109 144.609 55.2891ZM147.984 55.043V55.2891C147.984 55.8203 148.031 56.3164 148.125 56.7773C148.219 57.2383 148.367 57.6445 148.57 57.9961C148.781 58.3398 149.055 58.6094 149.391 58.8047C149.727 59 150.137 59.0977 150.621 59.0977C151.09 59.0977 151.492 59 151.828 58.8047C152.164 58.6094 152.434 58.3398 152.637 57.9961C152.84 57.6445 152.988 57.2383 153.082 56.7773C153.184 56.3164 153.234 55.8203 153.234 55.2891V55.043C153.234 54.5273 153.184 54.043 153.082 53.5898C152.988 53.1289 152.836 52.7227 152.625 52.3711C152.422 52.0117 152.152 51.7305 151.816 51.5273C151.48 51.3242 151.074 51.2227 150.598 51.2227C150.121 51.2227 149.715 51.3242 149.379 51.5273C149.051 51.7305 148.781 52.0117 148.57 52.3711C148.367 52.7227 148.219 53.1289 148.125 53.5898C148.031 54.043 147.984 54.5273 147.984 55.043ZM158.156 55.2891V55.043C158.156 54.1133 158.289 53.2578 158.555 52.4766C158.82 51.6875 159.207 51.0039 159.715 50.4258C160.223 49.8477 160.848 49.3984 161.59 49.0781C162.332 48.75 163.184 48.5859 164.145 48.5859C165.105 48.5859 165.961 48.75 166.711 49.0781C167.461 49.3984 168.09 49.8477 168.598 50.4258C169.113 51.0039 169.504 51.6875 169.77 52.4766C170.035 53.2578 170.168 54.1133 170.168 55.043V55.2891C170.168 56.2109 170.035 57.0664 169.77 57.8555C169.504 58.6367 169.113 59.3203 168.598 59.9062C168.09 60.4844 167.465 60.9336 166.723 61.2539C165.98 61.5742 165.129 61.7344 164.168 61.7344C163.207 61.7344 162.352 61.5742 161.602 61.2539C160.859 60.9336 160.23 60.4844 159.715 59.9062C159.207 59.3203 158.82 58.6367 158.555 57.8555C158.289 57.0664 158.156 56.2109 158.156 55.2891ZM161.531 55.043V55.2891C161.531 55.8203 161.578 56.3164 161.672 56.7773C161.766 57.2383 161.914 57.6445 162.117 57.9961C162.328 58.3398 162.602 58.6094 162.938 58.8047C163.273 59 163.684 59.0977 164.168 59.0977C164.637 59.0977 165.039 59 165.375 58.8047C165.711 58.6094 165.98 58.3398 166.184 57.9961C166.387 57.6445 166.535 57.2383 166.629 56.7773C166.73 56.3164 166.781 55.8203 166.781 55.2891V55.043C166.781 54.5273 166.73 54.043 166.629 53.5898C166.535 53.1289 166.383 52.7227 166.172 52.3711C165.969 52.0117 165.699 51.7305 165.363 51.5273C165.027 51.3242 164.621 51.2227 164.145 51.2227C163.668 51.2227 163.262 51.3242 162.926 51.5273C162.598 51.7305 162.328 52.0117 162.117 52.3711C161.914 52.7227 161.766 53.1289 161.672 53.5898C161.578 54.043 161.531 54.5273 161.531 55.043ZM175.805 43.5V61.5H172.418V43.5H175.805ZM194.672 55.8398H198.176C198.105 56.9883 197.789 58.0078 197.227 58.8984C196.672 59.7891 195.895 60.4844 194.895 60.9844C193.902 61.4844 192.707 61.7344 191.309 61.7344C190.215 61.7344 189.234 61.5469 188.367 61.1719C187.5 60.7891 186.758 60.2422 186.141 59.5312C185.531 58.8203 185.066 57.9609 184.746 56.9531C184.426 55.9453 184.266 54.8164 184.266 53.5664V52.3828C184.266 51.1328 184.43 50.0039 184.758 48.9961C185.094 47.9805 185.57 47.1172 186.188 46.4062C186.812 45.6953 187.559 45.1484 188.426 44.7656C189.293 44.3828 190.262 44.1914 191.332 44.1914C192.754 44.1914 193.953 44.4492 194.93 44.9648C195.914 45.4805 196.676 46.1914 197.215 47.0977C197.762 48.0039 198.09 49.0352 198.199 50.1914H194.684C194.645 49.5039 194.508 48.9219 194.273 48.4453C194.039 47.9609 193.684 47.5977 193.207 47.3555C192.738 47.1055 192.113 46.9805 191.332 46.9805C190.746 46.9805 190.234 47.0898 189.797 47.3086C189.359 47.5273 188.992 47.8594 188.695 48.3047C188.398 48.75 188.176 49.3125 188.027 49.9922C187.887 50.6641 187.816 51.4531 187.816 52.3594V53.5664C187.816 54.4492 187.883 55.2266 188.016 55.8984C188.148 56.5625 188.352 57.125 188.625 57.5859C188.906 58.0391 189.266 58.3828 189.703 58.6172C190.148 58.8438 190.684 58.957 191.309 58.957C192.043 58.957 192.648 58.8398 193.125 58.6055C193.602 58.3711 193.965 58.0234 194.215 57.5625C194.473 57.1016 194.625 56.5273 194.672 55.8398ZM199.734 55.2891V55.043C199.734 54.1133 199.867 53.2578 200.133 52.4766C200.398 51.6875 200.785 51.0039 201.293 50.4258C201.801 49.8477 202.426 49.3984 203.168 49.0781C203.91 48.75 204.762 48.5859 205.723 48.5859C206.684 48.5859 207.539 48.75 208.289 49.0781C209.039 49.3984 209.668 49.8477 210.176 50.4258C210.691 51.0039 211.082 51.6875 211.348 52.4766C211.613 53.2578 211.746 54.1133 211.746 55.043V55.2891C211.746 56.2109 211.613 57.0664 211.348 57.8555C211.082 58.6367 210.691 59.3203 210.176 59.9062C209.668 60.4844 209.043 60.9336 208.301 61.2539C207.559 61.5742 206.707 61.7344 205.746 61.7344C204.785 61.7344 203.93 61.5742 203.18 61.2539C202.438 60.9336 201.809 60.4844 201.293 59.9062C200.785 59.3203 200.398 58.6367 200.133 57.8555C199.867 57.0664 199.734 56.2109 199.734 55.2891ZM203.109 55.043V55.2891C203.109 55.8203 203.156 56.3164 203.25 56.7773C203.344 57.2383 203.492 57.6445 203.695 57.9961C203.906 58.3398 204.18 58.6094 204.516 58.8047C204.852 59 205.262 59.0977 205.746 59.0977C206.215 59.0977 206.617 59 206.953 58.8047C207.289 58.6094 207.559 58.3398 207.762 57.9961C207.965 57.6445 208.113 57.2383 208.207 56.7773C208.309 56.3164 208.359 55.8203 208.359 55.2891V55.043C208.359 54.5273 208.309 54.043 208.207 53.5898C208.113 53.1289 207.961 52.7227 207.75 52.3711C207.547 52.0117 207.277 51.7305 206.941 51.5273C206.605 51.3242 206.199 51.2227 205.723 51.2227C205.246 51.2227 204.84 51.3242 204.504 51.5273C204.176 51.7305 203.906 52.0117 203.695 52.3711C203.492 52.7227 203.344 53.1289 203.25 53.5898C203.156 54.043 203.109 54.5273 203.109 55.043ZM217.125 51.5273V61.5H213.75V48.8203H216.914L217.125 51.5273ZM216.633 54.7148H215.719C215.719 53.7773 215.84 52.9336 216.082 52.1836C216.324 51.4258 216.664 50.7812 217.102 50.25C217.539 49.7109 218.059 49.3008 218.66 49.0195C219.27 48.7305 219.949 48.5859 220.699 48.5859C221.293 48.5859 221.836 48.6719 222.328 48.8438C222.82 49.0156 223.242 49.2891 223.594 49.6641C223.953 50.0391 224.227 50.5352 224.414 51.1523C224.609 51.7695 224.707 52.5234 224.707 53.4141V61.5H221.309V53.4023C221.309 52.8398 221.23 52.4023 221.074 52.0898C220.918 51.7773 220.688 51.5586 220.383 51.4336C220.086 51.3008 219.719 51.2344 219.281 51.2344C218.828 51.2344 218.434 51.3242 218.098 51.5039C217.77 51.6836 217.496 51.9336 217.277 52.2539C217.066 52.5664 216.906 52.9336 216.797 53.3555C216.688 53.7773 216.633 54.2305 216.633 54.7148ZM230.578 51.5273V61.5H227.203V48.8203H230.367L230.578 51.5273ZM230.086 54.7148H229.172C229.172 53.7773 229.293 52.9336 229.535 52.1836C229.777 51.4258 230.117 50.7812 230.555 50.25C230.992 49.7109 231.512 49.3008 232.113 49.0195C232.723 48.7305 233.402 48.5859 234.152 48.5859C234.746 48.5859 235.289 48.6719 235.781 48.8438C236.273 49.0156 236.695 49.2891 237.047 49.6641C237.406 50.0391 237.68 50.5352 237.867 51.1523C238.062 51.7695 238.16 52.5234 238.16 53.4141V61.5H234.762V53.4023C234.762 52.8398 234.684 52.4023 234.527 52.0898C234.371 51.7773 234.141 51.5586 233.836 51.4336C233.539 51.3008 233.172 51.2344 232.734 51.2344C232.281 51.2344 231.887 51.3242 231.551 51.5039C231.223 51.6836 230.949 51.9336 230.73 52.2539C230.52 52.5664 230.359 52.9336 230.25 53.3555C230.141 53.7773 230.086 54.2305 230.086 54.7148ZM246.562 61.7344C245.578 61.7344 244.695 61.5781 243.914 61.2656C243.133 60.9453 242.469 60.5039 241.922 59.9414C241.383 59.3789 240.969 58.7266 240.68 57.9844C240.391 57.2344 240.246 56.4375 240.246 55.5938V55.125C240.246 54.1641 240.383 53.2852 240.656 52.4883C240.93 51.6914 241.32 51 241.828 50.4141C242.344 49.8281 242.969 49.3789 243.703 49.0664C244.438 48.7461 245.266 48.5859 246.188 48.5859C247.086 48.5859 247.883 48.7344 248.578 49.0312C249.273 49.3281 249.855 49.75 250.324 50.2969C250.801 50.8438 251.16 51.5 251.402 52.2656C251.645 53.0234 251.766 53.8672 251.766 54.7969V56.2031H241.688V53.9531H248.449V53.6953C248.449 53.2266 248.363 52.8086 248.191 52.4414C248.027 52.0664 247.777 51.7695 247.441 51.5508C247.105 51.332 246.676 51.2227 246.152 51.2227C245.707 51.2227 245.324 51.3203 245.004 51.5156C244.684 51.7109 244.422 51.9844 244.219 52.3359C244.023 52.6875 243.875 53.1016 243.773 53.5781C243.68 54.0469 243.633 54.5625 243.633 55.125V55.5938C243.633 56.1016 243.703 56.5703 243.844 57C243.992 57.4297 244.199 57.8008 244.465 58.1133C244.738 58.4258 245.066 58.668 245.449 58.8398C245.84 59.0117 246.281 59.0977 246.773 59.0977C247.383 59.0977 247.949 58.9805 248.473 58.7461C249.004 58.5039 249.461 58.1406 249.844 57.6562L251.484 59.4375C251.219 59.8203 250.855 60.1875 250.395 60.5391C249.941 60.8906 249.395 61.1797 248.754 61.4062C248.113 61.625 247.383 61.7344 246.562 61.7344ZM258.926 59.0977C259.34 59.0977 259.707 59.0195 260.027 58.8633C260.348 58.6992 260.598 58.4727 260.777 58.1836C260.965 57.8867 261.062 57.5391 261.07 57.1406H264.246C264.238 58.0312 264 58.8242 263.531 59.5195C263.062 60.207 262.434 60.75 261.645 61.1484C260.855 61.5391 259.973 61.7344 258.996 61.7344C258.012 61.7344 257.152 61.5703 256.418 61.2422C255.691 60.9141 255.086 60.4609 254.602 59.8828C254.117 59.2969 253.754 58.6172 253.512 57.8438C253.27 57.0625 253.148 56.2266 253.148 55.3359V54.9961C253.148 54.0977 253.27 53.2617 253.512 52.4883C253.754 51.707 254.117 51.0273 254.602 50.4492C255.086 49.8633 255.691 49.4062 256.418 49.0781C257.145 48.75 257.996 48.5859 258.973 48.5859C260.012 48.5859 260.922 48.7852 261.703 49.1836C262.492 49.582 263.109 50.1523 263.555 50.8945C264.008 51.6289 264.238 52.5 264.246 53.5078H261.07C261.062 53.0859 260.973 52.7031 260.801 52.3594C260.637 52.0156 260.395 51.7422 260.074 51.5391C259.762 51.3281 259.375 51.2227 258.914 51.2227C258.422 51.2227 258.02 51.3281 257.707 51.5391C257.395 51.7422 257.152 52.0234 256.98 52.3828C256.809 52.7344 256.688 53.1367 256.617 53.5898C256.555 54.0352 256.523 54.5039 256.523 54.9961V55.3359C256.523 55.8281 256.555 56.3008 256.617 56.7539C256.68 57.207 256.797 57.6094 256.969 57.9609C257.148 58.3125 257.395 58.5898 257.707 58.793C258.02 58.9961 258.426 59.0977 258.926 59.0977ZM272.414 48.8203V51.2109H265.031V48.8203H272.414ZM266.859 45.6914H270.234V57.6797C270.234 58.0469 270.281 58.3281 270.375 58.5234C270.477 58.7188 270.625 58.8555 270.82 58.9336C271.016 59.0039 271.262 59.0391 271.559 59.0391C271.77 59.0391 271.957 59.0312 272.121 59.0156C272.293 58.9922 272.438 58.9688 272.555 58.9453L272.566 61.4297C272.277 61.5234 271.965 61.5977 271.629 61.6523C271.293 61.707 270.922 61.7344 270.516 61.7344C269.773 61.7344 269.125 61.6133 268.57 61.3711C268.023 61.1211 267.602 60.7227 267.305 60.1758C267.008 59.6289 266.859 58.9102 266.859 58.0195V45.6914Z" fill="#888888"/>
<path d="M110.062 92.5469L101.742 119.5H92.9062L105.445 85.375H111.047L110.062 92.5469ZM116.953 119.5L108.609 92.5469L107.531 85.375H113.203L125.812 119.5H116.953ZM116.625 106.773V113.125H99.1173V106.773H116.625ZM135.258 116.406L142.055 85.375H146.109L148.312 88.0234L141.07 119.5H136.594L135.258 116.406ZM133.453 85.375L139.195 116.641L137.719 119.5H132.539L125.297 85.375H133.453ZM152.039 116.477L157.734 85.375H165.867L158.625 119.5H153.469L152.039 116.477ZM149.039 85.375L156 116.594L154.594 119.5H150.117L142.711 87.9766L145.008 85.375H149.039ZM186.68 110.43C186.68 109.898 186.602 109.422 186.445 109C186.289 108.562 186 108.156 185.578 107.781C185.156 107.406 184.547 107.031 183.75 106.656C182.969 106.266 181.938 105.859 180.656 105.438C179.156 104.938 177.711 104.375 176.32 103.75C174.93 103.109 173.688 102.367 172.594 101.523C171.5 100.664 170.633 99.6641 169.992 98.5234C169.352 97.3672 169.031 96.0234 169.031 94.4922C169.031 93.0234 169.359 91.7031 170.016 90.5312C170.672 89.3438 171.586 88.3359 172.758 87.5078C173.945 86.6641 175.336 86.0234 176.93 85.5859C178.523 85.1328 180.266 84.9062 182.156 84.9062C184.656 84.9062 186.859 85.3438 188.766 86.2188C190.688 87.0781 192.188 88.3047 193.266 89.8984C194.359 91.4766 194.906 93.3438 194.906 95.5H186.727C186.727 94.6406 186.547 93.8828 186.188 93.2266C185.844 92.5703 185.32 92.0547 184.617 91.6797C183.914 91.3047 183.031 91.1172 181.969 91.1172C180.938 91.1172 180.07 91.2734 179.367 91.5859C178.664 91.8984 178.133 92.3203 177.773 92.8516C177.414 93.3672 177.234 93.9375 177.234 94.5625C177.234 95.0781 177.375 95.5469 177.656 95.9688C177.953 96.375 178.367 96.7578 178.898 97.1172C179.445 97.4766 180.102 97.8203 180.867 98.1484C181.648 98.4766 182.523 98.7969 183.492 99.1094C185.305 99.6875 186.914 100.336 188.32 101.055C189.742 101.758 190.938 102.562 191.906 103.469C192.891 104.359 193.633 105.375 194.133 106.516C194.648 107.656 194.906 108.945 194.906 110.383C194.906 111.914 194.609 113.273 194.016 114.461C193.422 115.648 192.57 116.656 191.461 117.484C190.352 118.297 189.023 118.914 187.477 119.336C185.93 119.758 184.203 119.969 182.297 119.969C180.547 119.969 178.82 119.75 177.117 119.312C175.43 118.859 173.898 118.172 172.523 117.25C171.148 116.312 170.047 115.117 169.219 113.664C168.406 112.195 168 110.453 168 108.438H176.25C176.25 109.438 176.383 110.281 176.648 110.969C176.914 111.656 177.305 112.211 177.82 112.633C178.336 113.039 178.969 113.336 179.719 113.523C180.469 113.695 181.328 113.781 182.297 113.781C183.344 113.781 184.188 113.633 184.828 113.336C185.469 113.023 185.938 112.617 186.234 112.117C186.531 111.602 186.68 111.039 186.68 110.43ZM222.188 119.5H214.617L214.664 113.172H222.188C223.75 113.172 225.07 112.797 226.148 112.047C227.242 111.297 228.07 110.18 228.633 108.695C229.211 107.195 229.5 105.352 229.5 103.164V101.688C229.5 100.047 229.336 98.6094 229.008 97.375C228.695 96.125 228.227 95.0859 227.602 94.2578C226.977 93.4141 226.195 92.7812 225.258 92.3594C224.336 91.9375 223.273 91.7266 222.07 91.7266H214.477V85.375H222.07C224.383 85.375 226.5 85.7734 228.422 86.5703C230.359 87.3516 232.031 88.4766 233.438 89.9453C234.859 91.3984 235.953 93.125 236.719 95.125C237.5 97.1094 237.891 99.3125 237.891 101.734V103.164C237.891 105.57 237.5 107.773 236.719 109.773C235.953 111.773 234.867 113.5 233.461 114.953C232.055 116.406 230.391 117.531 228.469 118.328C226.562 119.109 224.469 119.5 222.188 119.5ZM219.328 85.375V119.5H211.102V85.375H219.328ZM254.086 119.969C252.023 119.969 250.18 119.648 248.555 119.008C246.93 118.352 245.555 117.453 244.43 116.312C243.32 115.172 242.469 113.859 241.875 112.375C241.297 110.891 241.008 109.32 241.008 107.664V106.773C241.008 104.914 241.266 103.195 241.781 101.617C242.297 100.023 243.062 98.6328 244.078 97.4453C245.094 96.2578 246.367 95.3359 247.898 94.6797C249.43 94.0078 251.211 93.6719 253.242 93.6719C255.039 93.6719 256.648 93.9609 258.07 94.5391C259.492 95.1172 260.695 95.9453 261.68 97.0234C262.68 98.1016 263.438 99.4062 263.953 100.938C264.484 102.469 264.75 104.188 264.75 106.094V109.305H244.031V104.359H257.039V103.75C257.055 102.906 256.906 102.188 256.594 101.594C256.297 101 255.859 100.547 255.281 100.234C254.703 99.9219 254 99.7656 253.172 99.7656C252.312 99.7656 251.602 99.9531 251.039 100.328C250.492 100.703 250.062 101.219 249.75 101.875C249.453 102.516 249.242 103.258 249.117 104.102C248.992 104.945 248.93 105.836 248.93 106.773V107.664C248.93 108.602 249.055 109.453 249.305 110.219C249.57 110.984 249.945 111.641 250.43 112.188C250.93 112.719 251.523 113.133 252.211 113.43C252.914 113.727 253.711 113.875 254.602 113.875C255.68 113.875 256.742 113.672 257.789 113.266C258.836 112.859 259.734 112.188 260.484 111.25L264.07 115.516C263.555 116.25 262.82 116.961 261.867 117.648C260.93 118.336 259.805 118.898 258.492 119.336C257.18 119.758 255.711 119.969 254.086 119.969ZM275.93 99.0156V129.25H268.031V94.1406H275.391L275.93 99.0156ZM291.492 106.516V107.008C291.492 108.852 291.281 110.562 290.859 112.141C290.438 113.719 289.812 115.094 288.984 116.266C288.156 117.438 287.125 118.352 285.891 119.008C284.672 119.648 283.258 119.969 281.648 119.969C280.133 119.969 278.828 119.633 277.734 118.961C276.641 118.289 275.727 117.359 274.992 116.172C274.258 114.984 273.664 113.625 273.211 112.094C272.758 110.562 272.398 108.945 272.133 107.242V106.609C272.398 104.781 272.758 103.086 273.211 101.523C273.664 99.9453 274.258 98.5703 274.992 97.3984C275.727 96.2266 276.633 95.3125 277.711 94.6562C278.805 94 280.109 93.6719 281.625 93.6719C283.234 93.6719 284.648 93.9766 285.867 94.5859C287.102 95.1953 288.133 96.0703 288.961 97.2109C289.805 98.3359 290.438 99.6875 290.859 101.266C291.281 102.844 291.492 104.594 291.492 106.516ZM283.594 107.008V106.516C283.594 105.531 283.523 104.633 283.383 103.82C283.242 102.992 283.016 102.273 282.703 101.664C282.406 101.055 282.008 100.586 281.508 100.258C281.008 99.9297 280.391 99.7656 279.656 99.7656C278.812 99.7656 278.102 99.8984 277.523 100.164C276.961 100.414 276.508 100.805 276.164 101.336C275.836 101.852 275.602 102.5 275.461 103.281C275.336 104.047 275.281 104.945 275.297 105.977V107.898C275.266 109.086 275.383 110.133 275.648 111.039C275.914 111.93 276.375 112.625 277.031 113.125C277.688 113.625 278.578 113.875 279.703 113.875C280.453 113.875 281.078 113.703 281.578 113.359C282.078 113 282.477 112.508 282.773 111.883C283.07 111.242 283.281 110.508 283.406 109.68C283.531 108.852 283.594 107.961 283.594 107.008ZM303.352 83.5V119.5H295.43V83.5H303.352ZM307.242 107.078V106.586C307.242 104.727 307.508 103.016 308.039 101.453C308.57 99.875 309.352 98.5078 310.383 97.3516C311.414 96.1953 312.688 95.2969 314.203 94.6562C315.719 94 317.469 93.6719 319.453 93.6719C321.453 93.6719 323.211 94 324.727 94.6562C326.258 95.2969 327.539 96.1953 328.57 97.3516C329.602 98.5078 330.383 99.875 330.914 101.453C331.445 103.016 331.711 104.727 331.711 106.586V107.078C331.711 108.922 331.445 110.633 330.914 112.211C330.383 113.773 329.602 115.141 328.57 116.312C327.539 117.469 326.266 118.367 324.75 119.008C323.234 119.648 321.484 119.969 319.5 119.969C317.516 119.969 315.758 119.648 314.227 119.008C312.695 118.367 311.414 117.469 310.383 116.312C309.352 115.141 308.57 113.773 308.039 112.211C307.508 110.633 307.242 108.922 307.242 107.078ZM315.141 106.586V107.078C315.141 108.031 315.211 108.922 315.352 109.75C315.492 110.578 315.727 111.305 316.055 111.93C316.383 112.539 316.828 113.016 317.391 113.359C317.953 113.703 318.656 113.875 319.5 113.875C320.328 113.875 321.016 113.703 321.562 113.359C322.125 113.016 322.57 112.539 322.898 111.93C323.227 111.305 323.461 110.578 323.602 109.75C323.742 108.922 323.812 108.031 323.812 107.078V106.586C323.812 105.664 323.742 104.797 323.602 103.984C323.461 103.156 323.227 102.43 322.898 101.805C322.57 101.164 322.125 100.664 321.562 100.305C321 99.9453 320.297 99.7656 319.453 99.7656C318.625 99.7656 317.93 99.9453 317.367 100.305C316.82 100.664 316.383 101.164 316.055 101.805C315.727 102.43 315.492 103.156 315.352 103.984C315.211 104.797 315.141 105.664 315.141 106.586ZM342.633 116.523L349.195 94.1406H357.68L347.484 123.273C347.266 123.914 346.977 124.602 346.617 125.336C346.258 126.086 345.766 126.797 345.141 127.469C344.516 128.141 343.711 128.688 342.727 129.109C341.758 129.531 340.555 129.742 339.117 129.742C338.352 129.742 337.789 129.703 337.43 129.625C337.086 129.562 336.555 129.445 335.836 129.273V123.625C336.039 123.625 336.211 123.625 336.352 123.625C336.508 123.625 336.68 123.625 336.867 123.625C337.711 123.625 338.383 123.539 338.883 123.367C339.398 123.195 339.789 122.945 340.055 122.617C340.336 122.289 340.555 121.891 340.711 121.422L342.633 116.523ZM340.969 94.1406L345.961 111.883L346.828 120.25H341.531L332.508 94.1406H340.969ZM367.711 99.5078V119.5H359.812V94.1406H367.219L367.711 99.5078ZM366.75 105.953L364.945 106C364.945 104.219 365.156 102.578 365.578 101.078C366 99.5781 366.625 98.2734 367.453 97.1641C368.281 96.0547 369.297 95.1953 370.5 94.5859C371.719 93.9766 373.125 93.6719 374.719 93.6719C375.828 93.6719 376.836 93.8438 377.742 94.1875C378.648 94.5156 379.43 95.0391 380.086 95.7578C380.742 96.4609 381.242 97.3828 381.586 98.5234C381.945 99.6484 382.125 101 382.125 102.578V119.5H374.227V103.586C374.227 102.508 374.102 101.695 373.852 101.148C373.617 100.602 373.273 100.234 372.82 100.047C372.367 99.8594 371.812 99.7656 371.156 99.7656C370.469 99.7656 369.852 99.9219 369.305 100.234C368.758 100.547 368.289 100.984 367.898 101.547C367.523 102.094 367.234 102.742 367.031 103.492C366.844 104.242 366.75 105.062 366.75 105.953ZM381.234 105.953L379.031 106C379.031 104.219 379.227 102.578 379.617 101.078C380.023 99.5781 380.625 98.2734 381.422 97.1641C382.234 96.0547 383.242 95.1953 384.445 94.5859C385.648 93.9766 387.047 93.6719 388.641 93.6719C389.797 93.6719 390.859 93.8438 391.828 94.1875C392.797 94.5312 393.633 95.0859 394.336 95.8516C395.039 96.6172 395.586 97.6328 395.977 98.8984C396.367 100.148 396.562 101.695 396.562 103.539V119.5H388.641V103.539C388.641 102.492 388.516 101.703 388.266 101.172C388.031 100.625 387.688 100.258 387.234 100.07C386.781 99.8672 386.242 99.7656 385.617 99.7656C384.867 99.7656 384.219 99.9219 383.672 100.234C383.125 100.547 382.664 100.984 382.289 101.547C381.93 102.094 381.664 102.742 381.492 103.492C381.32 104.242 381.234 105.062 381.234 105.953ZM413.367 119.969C411.305 119.969 409.461 119.648 407.836 119.008C406.211 118.352 404.836 117.453 403.711 116.312C402.602 115.172 401.75 113.859 401.156 112.375C400.578 110.891 400.289 109.32 400.289 107.664V106.773C400.289 104.914 400.547 103.195 401.062 101.617C401.578 100.023 402.344 98.6328 403.359 97.4453C404.375 96.2578 405.648 95.3359 407.18 94.6797C408.711 94.0078 410.492 93.6719 412.523 93.6719C414.32 93.6719 415.93 93.9609 417.352 94.5391C418.773 95.1172 419.977 95.9453 420.961 97.0234C421.961 98.1016 422.719 99.4062 423.234 100.938C423.766 102.469 424.031 104.188 424.031 106.094V109.305H403.312V104.359H416.32V103.75C416.336 102.906 416.188 102.188 415.875 101.594C415.578 101 415.141 100.547 414.562 100.234C413.984 99.9219 413.281 99.7656 412.453 99.7656C411.594 99.7656 410.883 99.9531 410.32 100.328C409.773 100.703 409.344 101.219 409.031 101.875C408.734 102.516 408.523 103.258 408.398 104.102C408.273 104.945 408.211 105.836 408.211 106.773V107.664C408.211 108.602 408.336 109.453 408.586 110.219C408.852 110.984 409.227 111.641 409.711 112.188C410.211 112.719 410.805 113.133 411.492 113.43C412.195 113.727 412.992 113.875 413.883 113.875C414.961 113.875 416.023 113.672 417.07 113.266C418.117 112.859 419.016 112.188 419.766 111.25L423.352 115.516C422.836 116.25 422.102 116.961 421.148 117.648C420.211 118.336 419.086 118.898 417.773 119.336C416.461 119.758 414.992 119.969 413.367 119.969ZM435 99.5547V119.5H427.102V94.1406H434.508L435 99.5547ZM434.062 105.953L432.211 106C432.211 104.062 432.445 102.336 432.914 100.82C433.383 99.2891 434.047 97.9922 434.906 96.9297C435.766 95.8672 436.789 95.0625 437.977 94.5156C439.18 93.9531 440.516 93.6719 441.984 93.6719C443.156 93.6719 444.227 93.8438 445.195 94.1875C446.18 94.5312 447.023 95.0859 447.727 95.8516C448.445 96.6172 448.992 97.6328 449.367 98.8984C449.758 100.148 449.953 101.695 449.953 103.539V119.5H442.008V103.516C442.008 102.5 441.867 101.727 441.586 101.195C441.305 100.648 440.898 100.273 440.367 100.07C439.836 99.8672 439.188 99.7656 438.422 99.7656C437.609 99.7656 436.922 99.9219 436.359 100.234C435.797 100.547 435.344 100.984 435 101.547C434.672 102.094 434.43 102.742 434.273 103.492C434.133 104.242 434.062 105.062 434.062 105.953ZM467.695 94.1406V99.625H452.414V94.1406H467.695ZM455.625 87.8359H463.523V111.227C463.523 111.898 463.602 112.422 463.758 112.797C463.914 113.156 464.18 113.414 464.555 113.57C464.945 113.711 465.461 113.781 466.102 113.781C466.555 113.781 466.93 113.773 467.227 113.758C467.523 113.727 467.805 113.688 468.07 113.641V119.289C467.398 119.508 466.695 119.672 465.961 119.781C465.227 119.906 464.445 119.969 463.617 119.969C461.93 119.969 460.484 119.703 459.281 119.172C458.094 118.641 457.188 117.805 456.562 116.664C455.938 115.523 455.625 114.039 455.625 112.211V87.8359Z" fill="black"/>
<path d="M1134 0.5H1348C1356.28 0.5 1363 7.21573 1363 15.5V148.5C1363 156.784 1356.28 163.5 1348 163.5H1134V0.5Z" fill="#40C784"/>
<path d="M1212.5 118V46H1284.5V118H1212.5Z" fill="white" fill-opacity="0.01"/>
<path d="M1221.5 82.0125V109H1275.5V82" stroke="white" stroke-width="7.24" stroke-linecap="round" stroke-linejoin="round"/>
<path d="M1262 68.5L1248.5 55L1235 68.5" stroke="white" stroke-width="7.24" stroke-linecap="round" stroke-linejoin="round"/>
<path d="M1248.49 94V55" stroke="white" stroke-width="7.24" stroke-linecap="round" stroke-linejoin="round"/>
</g>
<defs>
<clipPath id="clip0_296_2502">
<rect width="1363" height="163" fill="white" transform="translate(0 0.5)"/>
</clipPath>
</defs>
</svg>
