<svg width="1363" height="297" viewBox="0 0 1363 297" fill="none" xmlns="http://www.w3.org/2000/svg">
<path d="M0 15C0 6.71573 6.71573 0 15 0H37V297H15C6.71573 297 0 290.284 0 282V15Z" fill="#40C784"/>
<path d="M37 0H1066V297H37V0Z" fill="#F0F0F0"/>
<path d="M112.354 59.8301V63.9434H98.9941V59.8301H112.354ZM100.559 49.4062V75H95.2852V49.4062H100.559ZM116.115 49.4062V75H110.859V49.4062H116.115ZM130.652 70.7109V62.2383C130.652 61.6289 130.553 61.1074 130.354 60.6738C130.154 60.2285 129.844 59.8828 129.422 59.6367C129.012 59.3906 128.479 59.2676 127.822 59.2676C127.26 59.2676 126.773 59.3672 126.363 59.5664C125.953 59.7539 125.637 60.0293 125.414 60.3926C125.191 60.7441 125.08 61.1602 125.08 61.6406H120.018C120.018 60.832 120.205 60.0645 120.58 59.3379C120.955 58.6113 121.5 57.9727 122.215 57.4219C122.93 56.8594 123.779 56.4199 124.764 56.1035C125.76 55.7871 126.873 55.6289 128.104 55.6289C129.58 55.6289 130.893 55.875 132.041 56.3672C133.189 56.8594 134.092 57.5977 134.748 58.582C135.416 59.5664 135.75 60.7969 135.75 62.2734V70.4121C135.75 71.4551 135.814 72.3105 135.943 72.9785C136.072 73.6348 136.26 74.209 136.506 74.7012V75H131.391C131.145 74.4844 130.957 73.8398 130.828 73.0664C130.711 72.2812 130.652 71.4961 130.652 70.7109ZM131.32 63.416L131.355 66.2812H128.525C127.857 66.2812 127.277 66.3574 126.785 66.5098C126.293 66.6621 125.889 66.8789 125.572 67.1602C125.256 67.4297 125.021 67.7461 124.869 68.1094C124.729 68.4727 124.658 68.8711 124.658 69.3047C124.658 69.7383 124.758 70.1309 124.957 70.4824C125.156 70.8223 125.443 71.0918 125.818 71.291C126.193 71.4785 126.633 71.5723 127.137 71.5723C127.898 71.5723 128.561 71.4199 129.123 71.1152C129.686 70.8105 130.119 70.4355 130.424 69.9902C130.74 69.5449 130.904 69.123 130.916 68.7246L132.252 70.8691C132.064 71.3496 131.807 71.8477 131.479 72.3633C131.162 72.8789 130.758 73.3652 130.266 73.8223C129.773 74.2676 129.182 74.6367 128.49 74.9297C127.799 75.2109 126.979 75.3516 126.029 75.3516C124.822 75.3516 123.727 75.1113 122.742 74.6309C121.77 74.1387 120.996 73.4648 120.422 72.6094C119.859 71.7422 119.578 70.7578 119.578 69.6562C119.578 68.6602 119.766 67.7754 120.141 67.002C120.516 66.2285 121.066 65.5781 121.793 65.0508C122.531 64.5117 123.451 64.1074 124.553 63.8379C125.654 63.5566 126.932 63.416 128.385 63.416H131.32ZM150.885 70.8516V48H155.982V75H151.395L150.885 70.8516ZM138.861 65.7188V65.3496C138.861 63.8965 139.025 62.5781 139.354 61.3945C139.682 60.1992 140.162 59.1738 140.795 58.3184C141.428 57.4629 142.207 56.8008 143.133 56.332C144.059 55.8633 145.113 55.6289 146.297 55.6289C147.41 55.6289 148.383 55.8633 149.215 56.332C150.059 56.8008 150.773 57.4688 151.359 58.3359C151.957 59.1914 152.438 60.2051 152.801 61.377C153.164 62.5371 153.428 63.8086 153.592 65.1914V66C153.428 67.3242 153.164 68.5547 152.801 69.6914C152.438 70.8281 151.957 71.8242 151.359 72.6797C150.773 73.5234 150.059 74.1797 149.215 74.6484C148.371 75.1172 147.387 75.3516 146.262 75.3516C145.078 75.3516 144.023 75.1113 143.098 74.6309C142.184 74.1504 141.41 73.4766 140.777 72.6094C140.156 71.7422 139.682 70.7227 139.354 69.5508C139.025 68.3789 138.861 67.1016 138.861 65.7188ZM143.924 65.3496V65.7188C143.924 66.5039 143.982 67.2363 144.1 67.916C144.229 68.5957 144.434 69.1992 144.715 69.7266C145.008 70.2422 145.383 70.6465 145.84 70.9395C146.309 71.2207 146.877 71.3613 147.545 71.3613C148.412 71.3613 149.127 71.168 149.689 70.7812C150.252 70.3828 150.68 69.8379 150.973 69.1465C151.277 68.4551 151.453 67.6582 151.5 66.7559V64.4531C151.465 63.7148 151.359 63.0527 151.184 62.4668C151.02 61.8691 150.773 61.3594 150.445 60.9375C150.129 60.5156 149.73 60.1875 149.25 59.9531C148.781 59.7188 148.225 59.6016 147.58 59.6016C146.924 59.6016 146.361 59.7539 145.893 60.0586C145.424 60.3516 145.043 60.7559 144.75 61.2715C144.469 61.7871 144.258 62.3965 144.117 63.0996C143.988 63.791 143.924 64.541 143.924 65.3496ZM165.58 72.8555L170.625 55.9805H176.057L168.41 77.8652C168.246 78.3457 168.023 78.8613 167.742 79.4121C167.473 79.9629 167.104 80.4844 166.635 80.9766C166.178 81.4805 165.598 81.8906 164.895 82.207C164.203 82.5234 163.354 82.6816 162.346 82.6816C161.865 82.6816 161.473 82.6523 161.168 82.5938C160.863 82.5352 160.5 82.4531 160.078 82.3477V78.6387C160.207 78.6387 160.342 78.6387 160.482 78.6387C160.623 78.6504 160.758 78.6562 160.887 78.6562C161.555 78.6562 162.1 78.5801 162.521 78.4277C162.943 78.2754 163.283 78.041 163.541 77.7246C163.799 77.4199 164.004 77.0215 164.156 76.5293L165.58 72.8555ZM163.471 55.9805L167.602 69.7617L168.322 75.123L164.877 75.4922L158.039 55.9805H163.471ZM197.766 53.7832L190.805 75H185.197L194.707 49.4062H198.275L197.766 53.7832ZM203.549 75L196.57 53.7832L196.008 49.4062H199.611L209.174 75H203.549ZM203.232 65.4727V69.6035H189.715V65.4727H203.232ZM216.064 70.0781L220.02 55.9805H223.236L222.199 61.5176L218.244 75H215.555L216.064 70.0781ZM214.061 55.9805L216.891 70.0605L217.154 75H213.99L209.174 55.9805H214.061ZM226.857 69.832L229.617 55.9805H234.521L229.705 75H226.559L226.857 69.832ZM223.676 55.9805L227.613 69.9727L228.158 75H225.451L221.496 61.5352L220.494 55.9805H223.676ZM247.336 70.7109V62.2383C247.336 61.6289 247.236 61.1074 247.037 60.6738C246.838 60.2285 246.527 59.8828 246.105 59.6367C245.695 59.3906 245.162 59.2676 244.506 59.2676C243.943 59.2676 243.457 59.3672 243.047 59.5664C242.637 59.7539 242.32 60.0293 242.098 60.3926C241.875 60.7441 241.764 61.1602 241.764 61.6406H236.701C236.701 60.832 236.889 60.0645 237.264 59.3379C237.639 58.6113 238.184 57.9727 238.898 57.4219C239.613 56.8594 240.463 56.4199 241.447 56.1035C242.443 55.7871 243.557 55.6289 244.787 55.6289C246.264 55.6289 247.576 55.875 248.725 56.3672C249.873 56.8594 250.775 57.5977 251.432 58.582C252.1 59.5664 252.434 60.7969 252.434 62.2734V70.4121C252.434 71.4551 252.498 72.3105 252.627 72.9785C252.756 73.6348 252.943 74.209 253.189 74.7012V75H248.074C247.828 74.4844 247.641 73.8398 247.512 73.0664C247.395 72.2812 247.336 71.4961 247.336 70.7109ZM248.004 63.416L248.039 66.2812H245.209C244.541 66.2812 243.961 66.3574 243.469 66.5098C242.977 66.6621 242.572 66.8789 242.256 67.1602C241.939 67.4297 241.705 67.7461 241.553 68.1094C241.412 68.4727 241.342 68.8711 241.342 69.3047C241.342 69.7383 241.441 70.1309 241.641 70.4824C241.84 70.8223 242.127 71.0918 242.502 71.291C242.877 71.4785 243.316 71.5723 243.82 71.5723C244.582 71.5723 245.244 71.4199 245.807 71.1152C246.369 70.8105 246.803 70.4355 247.107 69.9902C247.424 69.5449 247.588 69.123 247.6 68.7246L248.936 70.8691C248.748 71.3496 248.49 71.8477 248.162 72.3633C247.846 72.8789 247.441 73.3652 246.949 73.8223C246.457 74.2676 245.865 74.6367 245.174 74.9297C244.482 75.2109 243.662 75.3516 242.713 75.3516C241.506 75.3516 240.41 75.1113 239.426 74.6309C238.453 74.1387 237.68 73.4648 237.105 72.6094C236.543 71.7422 236.262 70.7578 236.262 69.6562C236.262 68.6602 236.449 67.7754 236.824 67.002C237.199 66.2285 237.75 65.5781 238.477 65.0508C239.215 64.5117 240.135 64.1074 241.236 63.8379C242.338 63.5566 243.615 63.416 245.068 63.416H248.004ZM261.697 72.8555L266.742 55.9805H272.174L264.527 77.8652C264.363 78.3457 264.141 78.8613 263.859 79.4121C263.59 79.9629 263.221 80.4844 262.752 80.9766C262.295 81.4805 261.715 81.8906 261.012 82.207C260.32 82.5234 259.471 82.6816 258.463 82.6816C257.982 82.6816 257.59 82.6523 257.285 82.5938C256.98 82.5352 256.617 82.4531 256.195 82.3477V78.6387C256.324 78.6387 256.459 78.6387 256.6 78.6387C256.74 78.6504 256.875 78.6562 257.004 78.6562C257.672 78.6562 258.217 78.5801 258.639 78.4277C259.061 78.2754 259.4 78.041 259.658 77.7246C259.916 77.4199 260.121 77.0215 260.273 76.5293L261.697 72.8555ZM259.588 55.9805L263.719 69.7617L264.439 75.123L260.994 75.4922L254.156 55.9805H259.588ZM285.182 70.8516V48H290.279V75H285.691L285.182 70.8516ZM273.158 65.7188V65.3496C273.158 63.8965 273.322 62.5781 273.65 61.3945C273.979 60.1992 274.459 59.1738 275.092 58.3184C275.725 57.4629 276.504 56.8008 277.43 56.332C278.355 55.8633 279.41 55.6289 280.594 55.6289C281.707 55.6289 282.68 55.8633 283.512 56.332C284.355 56.8008 285.07 57.4688 285.656 58.3359C286.254 59.1914 286.734 60.2051 287.098 61.377C287.461 62.5371 287.725 63.8086 287.889 65.1914V66C287.725 67.3242 287.461 68.5547 287.098 69.6914C286.734 70.8281 286.254 71.8242 285.656 72.6797C285.07 73.5234 284.355 74.1797 283.512 74.6484C282.668 75.1172 281.684 75.3516 280.559 75.3516C279.375 75.3516 278.32 75.1113 277.395 74.6309C276.48 74.1504 275.707 73.4766 275.074 72.6094C274.453 71.7422 273.979 70.7227 273.65 69.5508C273.322 68.3789 273.158 67.1016 273.158 65.7188ZM278.221 65.3496V65.7188C278.221 66.5039 278.279 67.2363 278.396 67.916C278.525 68.5957 278.73 69.1992 279.012 69.7266C279.305 70.2422 279.68 70.6465 280.137 70.9395C280.605 71.2207 281.174 71.3613 281.842 71.3613C282.709 71.3613 283.424 71.168 283.986 70.7812C284.549 70.3828 284.977 69.8379 285.27 69.1465C285.574 68.4551 285.75 67.6582 285.797 66.7559V64.4531C285.762 63.7148 285.656 63.0527 285.48 62.4668C285.316 61.8691 285.07 61.3594 284.742 60.9375C284.426 60.5156 284.027 60.1875 283.547 59.9531C283.078 59.7188 282.521 59.6016 281.877 59.6016C281.221 59.6016 280.658 59.7539 280.189 60.0586C279.721 60.3516 279.34 60.7559 279.047 61.2715C278.766 61.7871 278.555 62.3965 278.414 63.0996C278.285 63.791 278.221 64.541 278.221 65.3496ZM304.5 70.7109V62.2383C304.5 61.6289 304.4 61.1074 304.201 60.6738C304.002 60.2285 303.691 59.8828 303.27 59.6367C302.859 59.3906 302.326 59.2676 301.67 59.2676C301.107 59.2676 300.621 59.3672 300.211 59.5664C299.801 59.7539 299.484 60.0293 299.262 60.3926C299.039 60.7441 298.928 61.1602 298.928 61.6406H293.865C293.865 60.832 294.053 60.0645 294.428 59.3379C294.803 58.6113 295.348 57.9727 296.062 57.4219C296.777 56.8594 297.627 56.4199 298.611 56.1035C299.607 55.7871 300.721 55.6289 301.951 55.6289C303.428 55.6289 304.74 55.875 305.889 56.3672C307.037 56.8594 307.939 57.5977 308.596 58.582C309.264 59.5664 309.598 60.7969 309.598 62.2734V70.4121C309.598 71.4551 309.662 72.3105 309.791 72.9785C309.92 73.6348 310.107 74.209 310.354 74.7012V75H305.238C304.992 74.4844 304.805 73.8398 304.676 73.0664C304.559 72.2812 304.5 71.4961 304.5 70.7109ZM305.168 63.416L305.203 66.2812H302.373C301.705 66.2812 301.125 66.3574 300.633 66.5098C300.141 66.6621 299.736 66.8789 299.42 67.1602C299.104 67.4297 298.869 67.7461 298.717 68.1094C298.576 68.4727 298.506 68.8711 298.506 69.3047C298.506 69.7383 298.605 70.1309 298.805 70.4824C299.004 70.8223 299.291 71.0918 299.666 71.291C300.041 71.4785 300.48 71.5723 300.984 71.5723C301.746 71.5723 302.408 71.4199 302.971 71.1152C303.533 70.8105 303.967 70.4355 304.271 69.9902C304.588 69.5449 304.752 69.123 304.764 68.7246L306.1 70.8691C305.912 71.3496 305.654 71.8477 305.326 72.3633C305.01 72.8789 304.605 73.3652 304.113 73.8223C303.621 74.2676 303.029 74.6367 302.338 74.9297C301.646 75.2109 300.826 75.3516 299.877 75.3516C298.67 75.3516 297.574 75.1113 296.59 74.6309C295.617 74.1387 294.844 73.4648 294.27 72.6094C293.707 71.7422 293.426 70.7578 293.426 69.6562C293.426 68.6602 293.613 67.7754 293.988 67.002C294.363 66.2285 294.914 65.5781 295.641 65.0508C296.379 64.5117 297.299 64.1074 298.4 63.8379C299.502 63.5566 300.779 63.416 302.232 63.416H305.168Z" fill="#888888"/>
<path d="M118.676 126.52H128.246C128.118 129.29 127.371 131.733 126.004 133.848C124.637 135.962 122.741 137.612 120.316 138.797C117.91 139.964 115.066 140.547 111.785 140.547C109.124 140.547 106.745 140.1 104.648 139.207C102.57 138.314 100.802 137.029 99.3438 135.352C97.9036 133.674 96.8008 131.642 96.0352 129.254C95.2878 126.866 94.9141 124.177 94.9141 121.188V119.027C94.9141 116.038 95.306 113.349 96.0898 110.961C96.8919 108.555 98.0221 106.513 99.4805 104.836C100.957 103.141 102.725 101.846 104.785 100.953C106.845 100.06 109.133 99.6133 111.648 99.6133C115.112 99.6133 118.038 100.233 120.426 101.473C122.814 102.712 124.664 104.417 125.977 106.586C127.289 108.737 128.064 111.189 128.301 113.941H118.73C118.694 112.447 118.439 111.198 117.965 110.195C117.491 109.174 116.743 108.409 115.723 107.898C114.702 107.388 113.344 107.133 111.648 107.133C110.464 107.133 109.434 107.352 108.559 107.789C107.684 108.227 106.954 108.919 106.371 109.867C105.788 110.815 105.35 112.046 105.059 113.559C104.785 115.053 104.648 116.858 104.648 118.973V121.188C104.648 123.302 104.776 125.107 105.031 126.602C105.286 128.096 105.697 129.318 106.262 130.266C106.827 131.214 107.556 131.915 108.449 132.371C109.361 132.809 110.473 133.027 111.785 133.027C113.243 133.027 114.474 132.799 115.477 132.344C116.479 131.87 117.254 131.159 117.801 130.211C118.348 129.245 118.639 128.014 118.676 126.52ZM147.715 132.562V120.367C147.715 119.529 147.596 118.809 147.359 118.207C147.122 117.605 146.749 117.141 146.238 116.812C145.728 116.466 145.044 116.293 144.188 116.293C143.495 116.293 142.902 116.411 142.41 116.648C141.918 116.885 141.544 117.241 141.289 117.715C141.034 118.189 140.906 118.79 140.906 119.52H131.691C131.691 118.152 131.992 116.885 132.594 115.719C133.214 114.534 134.089 113.504 135.219 112.629C136.367 111.754 137.734 111.079 139.32 110.605C140.924 110.113 142.711 109.867 144.68 109.867C147.031 109.867 149.128 110.259 150.969 111.043C152.828 111.827 154.296 113.003 155.371 114.57C156.447 116.12 156.984 118.07 156.984 120.422V132.535C156.984 134.467 157.094 135.935 157.312 136.938C157.531 137.922 157.841 138.788 158.242 139.535V140H149C148.562 139.089 148.234 137.977 148.016 136.664C147.815 135.333 147.715 133.966 147.715 132.562ZM148.836 121.926L148.891 126.848H144.816C143.96 126.848 143.23 126.966 142.629 127.203C142.046 127.44 141.572 127.768 141.207 128.188C140.861 128.589 140.605 129.044 140.441 129.555C140.296 130.065 140.223 130.603 140.223 131.168C140.223 131.715 140.35 132.207 140.605 132.645C140.879 133.064 141.243 133.392 141.699 133.629C142.155 133.866 142.665 133.984 143.23 133.984C144.251 133.984 145.117 133.793 145.828 133.41C146.557 133.009 147.113 132.526 147.496 131.961C147.879 131.396 148.07 130.867 148.07 130.375L150.094 134.148C149.729 134.878 149.31 135.616 148.836 136.363C148.38 137.111 147.806 137.803 147.113 138.441C146.439 139.061 145.609 139.572 144.625 139.973C143.641 140.355 142.447 140.547 141.043 140.547C139.22 140.547 137.543 140.173 136.012 139.426C134.499 138.678 133.286 137.639 132.375 136.309C131.464 134.96 131.008 133.41 131.008 131.66C131.008 130.129 131.281 128.762 131.828 127.559C132.393 126.355 133.241 125.335 134.371 124.496C135.501 123.658 136.941 123.02 138.691 122.582C140.441 122.145 142.501 121.926 144.871 121.926H148.836ZM171.395 117.742V140H162.18V110.414H170.793L171.395 117.742ZM180.145 110.195L179.98 118.754C179.616 118.717 179.124 118.672 178.504 118.617C177.884 118.562 177.365 118.535 176.945 118.535C175.87 118.535 174.94 118.663 174.156 118.918C173.391 119.155 172.753 119.52 172.242 120.012C171.75 120.486 171.385 121.087 171.148 121.816C170.93 122.546 170.829 123.393 170.848 124.359L169.18 123.266C169.18 121.279 169.371 119.474 169.754 117.852C170.155 116.211 170.72 114.798 171.449 113.613C172.178 112.41 173.062 111.49 174.102 110.852C175.141 110.195 176.307 109.867 177.602 109.867C178.057 109.867 178.504 109.895 178.941 109.949C179.397 110.004 179.798 110.086 180.145 110.195ZM192.613 116.102V151.375H183.398V110.414H191.984L192.613 116.102ZM210.77 124.852V125.426C210.77 127.577 210.523 129.573 210.031 131.414C209.539 133.255 208.81 134.859 207.844 136.227C206.878 137.594 205.674 138.66 204.234 139.426C202.812 140.173 201.163 140.547 199.285 140.547C197.517 140.547 195.995 140.155 194.719 139.371C193.443 138.587 192.376 137.503 191.52 136.117C190.663 134.732 189.97 133.146 189.441 131.359C188.913 129.573 188.493 127.686 188.184 125.699V124.961C188.493 122.828 188.913 120.85 189.441 119.027C189.97 117.186 190.663 115.582 191.52 114.215C192.376 112.848 193.434 111.781 194.691 111.016C195.967 110.25 197.49 109.867 199.258 109.867C201.135 109.867 202.785 110.223 204.207 110.934C205.647 111.645 206.85 112.665 207.816 113.996C208.801 115.309 209.539 116.885 210.031 118.727C210.523 120.568 210.77 122.609 210.77 124.852ZM201.555 125.426V124.852C201.555 123.703 201.473 122.655 201.309 121.707C201.145 120.741 200.88 119.902 200.516 119.191C200.169 118.48 199.704 117.934 199.121 117.551C198.538 117.168 197.818 116.977 196.961 116.977C195.977 116.977 195.147 117.132 194.473 117.441C193.816 117.733 193.288 118.189 192.887 118.809C192.504 119.41 192.23 120.167 192.066 121.078C191.921 121.971 191.857 123.02 191.875 124.223V126.465C191.839 127.85 191.975 129.072 192.285 130.129C192.595 131.168 193.133 131.979 193.898 132.562C194.664 133.146 195.703 133.438 197.016 133.438C197.891 133.438 198.62 133.237 199.203 132.836C199.786 132.417 200.251 131.842 200.598 131.113C200.944 130.366 201.19 129.509 201.336 128.543C201.482 127.577 201.555 126.538 201.555 125.426ZM213.723 125.508V124.934C213.723 122.764 214.033 120.768 214.652 118.945C215.272 117.104 216.184 115.509 217.387 114.16C218.59 112.811 220.076 111.763 221.844 111.016C223.612 110.25 225.654 109.867 227.969 109.867C230.302 109.867 232.353 110.25 234.121 111.016C235.908 111.763 237.402 112.811 238.605 114.16C239.809 115.509 240.72 117.104 241.34 118.945C241.96 120.768 242.27 122.764 242.27 124.934V125.508C242.27 127.659 241.96 129.655 241.34 131.496C240.72 133.319 239.809 134.914 238.605 136.281C237.402 137.63 235.917 138.678 234.148 139.426C232.38 140.173 230.339 140.547 228.023 140.547C225.708 140.547 223.658 140.173 221.871 139.426C220.085 138.678 218.59 137.63 217.387 136.281C216.184 134.914 215.272 133.319 214.652 131.496C214.033 129.655 213.723 127.659 213.723 125.508ZM222.938 124.934V125.508C222.938 126.62 223.02 127.659 223.184 128.625C223.348 129.591 223.621 130.439 224.004 131.168C224.387 131.879 224.906 132.435 225.562 132.836C226.219 133.237 227.039 133.438 228.023 133.438C228.99 133.438 229.792 133.237 230.43 132.836C231.086 132.435 231.605 131.879 231.988 131.168C232.371 130.439 232.645 129.591 232.809 128.625C232.973 127.659 233.055 126.62 233.055 125.508V124.934C233.055 123.858 232.973 122.846 232.809 121.898C232.645 120.932 232.371 120.085 231.988 119.355C231.605 118.608 231.086 118.025 230.43 117.605C229.773 117.186 228.953 116.977 227.969 116.977C227.003 116.977 226.191 117.186 225.535 117.605C224.897 118.025 224.387 118.608 224.004 119.355C223.621 120.085 223.348 120.932 223.184 121.898C223.02 122.846 222.938 123.858 222.938 124.934ZM245.223 125.508V124.934C245.223 122.764 245.533 120.768 246.152 118.945C246.772 117.104 247.684 115.509 248.887 114.16C250.09 112.811 251.576 111.763 253.344 111.016C255.112 110.25 257.154 109.867 259.469 109.867C261.802 109.867 263.853 110.25 265.621 111.016C267.408 111.763 268.902 112.811 270.105 114.16C271.309 115.509 272.22 117.104 272.84 118.945C273.46 120.768 273.77 122.764 273.77 124.934V125.508C273.77 127.659 273.46 129.655 272.84 131.496C272.22 133.319 271.309 134.914 270.105 136.281C268.902 137.63 267.417 138.678 265.648 139.426C263.88 140.173 261.839 140.547 259.523 140.547C257.208 140.547 255.158 140.173 253.371 139.426C251.585 138.678 250.09 137.63 248.887 136.281C247.684 134.914 246.772 133.319 246.152 131.496C245.533 129.655 245.223 127.659 245.223 125.508ZM254.438 124.934V125.508C254.438 126.62 254.52 127.659 254.684 128.625C254.848 129.591 255.121 130.439 255.504 131.168C255.887 131.879 256.406 132.435 257.062 132.836C257.719 133.237 258.539 133.438 259.523 133.438C260.49 133.438 261.292 133.237 261.93 132.836C262.586 132.435 263.105 131.879 263.488 131.168C263.871 130.439 264.145 129.591 264.309 128.625C264.473 127.659 264.555 126.62 264.555 125.508V124.934C264.555 123.858 264.473 122.846 264.309 121.898C264.145 120.932 263.871 120.085 263.488 119.355C263.105 118.608 262.586 118.025 261.93 117.605C261.273 117.186 260.453 116.977 259.469 116.977C258.503 116.977 257.691 117.186 257.035 117.605C256.397 118.025 255.887 118.608 255.504 119.355C255.121 120.085 254.848 120.932 254.684 121.898C254.52 122.846 254.438 123.858 254.438 124.934ZM287.605 98V140H278.363V98H287.605ZM330.316 126.52H339.887C339.759 129.29 339.012 131.733 337.645 133.848C336.277 135.962 334.382 137.612 331.957 138.797C329.551 139.964 326.707 140.547 323.426 140.547C320.764 140.547 318.385 140.1 316.289 139.207C314.211 138.314 312.443 137.029 310.984 135.352C309.544 133.674 308.441 131.642 307.676 129.254C306.928 126.866 306.555 124.177 306.555 121.188V119.027C306.555 116.038 306.947 113.349 307.73 110.961C308.533 108.555 309.663 106.513 311.121 104.836C312.598 103.141 314.366 101.846 316.426 100.953C318.486 100.06 320.773 99.6133 323.289 99.6133C326.753 99.6133 329.678 100.233 332.066 101.473C334.454 102.712 336.305 104.417 337.617 106.586C338.93 108.737 339.704 111.189 339.941 113.941H330.371C330.335 112.447 330.079 111.198 329.605 110.195C329.132 109.174 328.384 108.409 327.363 107.898C326.342 107.388 324.984 107.133 323.289 107.133C322.104 107.133 321.074 107.352 320.199 107.789C319.324 108.227 318.595 108.919 318.012 109.867C317.428 110.815 316.991 112.046 316.699 113.559C316.426 115.053 316.289 116.858 316.289 118.973V121.188C316.289 123.302 316.417 125.107 316.672 126.602C316.927 128.096 317.337 129.318 317.902 130.266C318.467 131.214 319.197 131.915 320.09 132.371C321.001 132.809 322.113 133.027 323.426 133.027C324.884 133.027 326.115 132.799 327.117 132.344C328.12 131.87 328.895 131.159 329.441 130.211C329.988 129.245 330.28 128.014 330.316 126.52ZM342.84 125.508V124.934C342.84 122.764 343.15 120.768 343.77 118.945C344.389 117.104 345.301 115.509 346.504 114.16C347.707 112.811 349.193 111.763 350.961 111.016C352.729 110.25 354.771 109.867 357.086 109.867C359.419 109.867 361.47 110.25 363.238 111.016C365.025 111.763 366.52 112.811 367.723 114.16C368.926 115.509 369.837 117.104 370.457 118.945C371.077 120.768 371.387 122.764 371.387 124.934V125.508C371.387 127.659 371.077 129.655 370.457 131.496C369.837 133.319 368.926 134.914 367.723 136.281C366.52 137.63 365.034 138.678 363.266 139.426C361.497 140.173 359.456 140.547 357.141 140.547C354.826 140.547 352.775 140.173 350.988 139.426C349.202 138.678 347.707 137.63 346.504 136.281C345.301 134.914 344.389 133.319 343.77 131.496C343.15 129.655 342.84 127.659 342.84 125.508ZM352.055 124.934V125.508C352.055 126.62 352.137 127.659 352.301 128.625C352.465 129.591 352.738 130.439 353.121 131.168C353.504 131.879 354.023 132.435 354.68 132.836C355.336 133.237 356.156 133.438 357.141 133.438C358.107 133.438 358.909 133.237 359.547 132.836C360.203 132.435 360.723 131.879 361.105 131.168C361.488 130.439 361.762 129.591 361.926 128.625C362.09 127.659 362.172 126.62 362.172 125.508V124.934C362.172 123.858 362.09 122.846 361.926 121.898C361.762 120.932 361.488 120.085 361.105 119.355C360.723 118.608 360.203 118.025 359.547 117.605C358.891 117.186 358.07 116.977 357.086 116.977C356.12 116.977 355.309 117.186 354.652 117.605C354.014 118.025 353.504 118.608 353.121 119.355C352.738 120.085 352.465 120.932 352.301 121.898C352.137 122.846 352.055 123.858 352.055 124.934ZM384.539 116.73V140H375.324V110.414H383.965L384.539 116.73ZM383.445 124.195L381.285 124.25C381.285 121.99 381.559 119.975 382.105 118.207C382.652 116.421 383.427 114.908 384.43 113.668C385.432 112.428 386.626 111.49 388.012 110.852C389.415 110.195 390.974 109.867 392.688 109.867C394.055 109.867 395.303 110.068 396.434 110.469C397.582 110.87 398.566 111.517 399.387 112.41C400.225 113.303 400.863 114.488 401.301 115.965C401.757 117.423 401.984 119.228 401.984 121.379V140H392.715V121.352C392.715 120.167 392.551 119.264 392.223 118.645C391.895 118.007 391.421 117.569 390.801 117.332C390.181 117.095 389.424 116.977 388.531 116.977C387.583 116.977 386.781 117.159 386.125 117.523C385.469 117.888 384.94 118.398 384.539 119.055C384.156 119.693 383.874 120.449 383.691 121.324C383.527 122.199 383.445 123.156 383.445 124.195ZM416.148 116.73V140H406.934V110.414H415.574L416.148 116.73ZM415.055 124.195L412.895 124.25C412.895 121.99 413.168 119.975 413.715 118.207C414.262 116.421 415.036 114.908 416.039 113.668C417.042 112.428 418.236 111.49 419.621 110.852C421.025 110.195 422.583 109.867 424.297 109.867C425.664 109.867 426.913 110.068 428.043 110.469C429.191 110.87 430.176 111.517 430.996 112.41C431.835 113.303 432.473 114.488 432.91 115.965C433.366 117.423 433.594 119.228 433.594 121.379V140H424.324V121.352C424.324 120.167 424.16 119.264 423.832 118.645C423.504 118.007 423.03 117.569 422.41 117.332C421.79 117.095 421.034 116.977 420.141 116.977C419.193 116.977 418.391 117.159 417.734 117.523C417.078 117.888 416.549 118.398 416.148 119.055C415.766 119.693 415.483 120.449 415.301 121.324C415.137 122.199 415.055 123.156 415.055 124.195ZM453.035 140.547C450.629 140.547 448.478 140.173 446.582 139.426C444.686 138.66 443.082 137.612 441.77 136.281C440.475 134.951 439.482 133.419 438.789 131.688C438.115 129.956 437.777 128.124 437.777 126.191V125.152C437.777 122.983 438.078 120.978 438.68 119.137C439.281 117.277 440.174 115.655 441.359 114.27C442.544 112.884 444.03 111.809 445.816 111.043C447.603 110.259 449.681 109.867 452.051 109.867C454.147 109.867 456.025 110.204 457.684 110.879C459.342 111.553 460.746 112.52 461.895 113.777C463.061 115.035 463.945 116.557 464.547 118.344C465.167 120.13 465.477 122.135 465.477 124.359V128.105H441.305V122.336H456.48V121.625C456.499 120.641 456.326 119.802 455.961 119.109C455.615 118.417 455.104 117.888 454.43 117.523C453.755 117.159 452.935 116.977 451.969 116.977C450.966 116.977 450.137 117.195 449.48 117.633C448.842 118.07 448.341 118.672 447.977 119.438C447.63 120.185 447.384 121.051 447.238 122.035C447.092 123.02 447.02 124.059 447.02 125.152V126.191C447.02 127.285 447.165 128.279 447.457 129.172C447.767 130.065 448.204 130.831 448.77 131.469C449.353 132.089 450.046 132.572 450.848 132.918C451.668 133.264 452.598 133.438 453.637 133.438C454.895 133.438 456.134 133.201 457.355 132.727C458.577 132.253 459.625 131.469 460.5 130.375L464.684 135.352C464.082 136.208 463.225 137.038 462.113 137.84C461.02 138.642 459.707 139.298 458.176 139.809C456.645 140.301 454.931 140.547 453.035 140.547ZM481.719 133.438C482.576 133.438 483.305 133.283 483.906 132.973C484.526 132.645 484.991 132.189 485.301 131.605C485.629 131.004 485.784 130.284 485.766 129.445H494.434C494.452 131.669 493.905 133.62 492.793 135.297C491.699 136.956 490.204 138.25 488.309 139.18C486.431 140.091 484.307 140.547 481.938 140.547C479.622 140.547 477.599 140.173 475.867 139.426C474.135 138.66 472.686 137.603 471.52 136.254C470.371 134.887 469.505 133.292 468.922 131.469C468.357 129.646 468.074 127.668 468.074 125.535V124.906C468.074 122.773 468.357 120.796 468.922 118.973C469.505 117.132 470.371 115.536 471.52 114.188C472.686 112.82 474.126 111.763 475.84 111.016C477.572 110.25 479.586 109.867 481.883 109.867C484.344 109.867 486.513 110.332 488.391 111.262C490.286 112.191 491.772 113.54 492.848 115.309C493.923 117.077 494.452 119.219 494.434 121.734H485.766C485.784 120.841 485.647 120.039 485.355 119.328C485.064 118.617 484.608 118.052 483.988 117.633C483.387 117.195 482.612 116.977 481.664 116.977C480.716 116.977 479.951 117.186 479.367 117.605C478.784 118.025 478.337 118.608 478.027 119.355C477.736 120.085 477.535 120.923 477.426 121.871C477.335 122.819 477.289 123.831 477.289 124.906V125.535C477.289 126.629 477.335 127.659 477.426 128.625C477.535 129.573 477.745 130.411 478.055 131.141C478.365 131.852 478.811 132.417 479.395 132.836C479.978 133.237 480.753 133.438 481.719 133.438ZM513.957 110.414V116.812H496.129V110.414H513.957ZM499.875 103.059H509.09V130.348C509.09 131.132 509.181 131.742 509.363 132.18C509.546 132.599 509.855 132.9 510.293 133.082C510.749 133.246 511.35 133.328 512.098 133.328C512.626 133.328 513.064 133.319 513.41 133.301C513.757 133.264 514.085 133.219 514.395 133.164V139.754C513.611 140.009 512.79 140.201 511.934 140.328C511.077 140.474 510.165 140.547 509.199 140.547C507.23 140.547 505.544 140.237 504.141 139.617C502.755 138.997 501.698 138.022 500.969 136.691C500.24 135.361 499.875 133.629 499.875 131.496V103.059Z" fill="black"/>
<rect x="93" y="178" width="917" height="77" rx="10" fill="#D3D3D3"/>
<rect x="111" y="196" width="148" height="41" rx="3" fill="#424242"/>
<rect x="111" y="196" width="148" height="41" rx="3" stroke="#424242" stroke-width="4"/>
<path d="M134.234 210.203H139.271C140.255 210.203 141.11 210.35 141.837 210.643C142.563 210.936 143.123 211.369 143.516 211.943C143.914 212.518 144.113 213.227 144.113 214.07C144.113 214.803 143.999 215.415 143.771 215.907C143.542 216.399 143.223 216.807 142.812 217.129C142.408 217.445 141.937 217.706 141.397 217.911L140.387 218.482H136.159L136.142 216.101H139.271C139.663 216.101 139.988 216.03 140.246 215.89C140.504 215.749 140.697 215.55 140.826 215.292C140.961 215.028 141.028 214.715 141.028 214.352C141.028 213.982 140.961 213.666 140.826 213.402C140.691 213.139 140.492 212.937 140.229 212.796C139.971 212.655 139.651 212.585 139.271 212.585H137.319V223H134.234V210.203ZM141.239 223L138.409 217.34L141.679 217.322L144.544 222.868V223H141.239ZM150.441 223.176C149.668 223.176 148.977 223.056 148.367 222.815C147.758 222.569 147.242 222.232 146.82 221.805C146.404 221.377 146.085 220.885 145.862 220.328C145.646 219.771 145.537 219.183 145.537 218.562V218.228C145.537 217.53 145.634 216.886 145.827 216.294C146.021 215.696 146.308 215.175 146.688 214.729C147.069 214.284 147.547 213.938 148.121 213.692C148.695 213.44 149.363 213.314 150.125 213.314C150.799 213.314 151.402 213.423 151.936 213.64C152.469 213.856 152.92 214.167 153.289 214.571C153.664 214.976 153.948 215.465 154.142 216.039C154.341 216.613 154.44 217.258 154.44 217.973V219.177H146.671V217.322H151.549V217.094C151.555 216.777 151.499 216.508 151.382 216.285C151.271 216.062 151.106 215.893 150.89 215.775C150.673 215.658 150.409 215.6 150.099 215.6C149.776 215.6 149.51 215.67 149.299 215.811C149.094 215.951 148.933 216.145 148.815 216.391C148.704 216.631 148.625 216.909 148.578 217.226C148.531 217.542 148.508 217.876 148.508 218.228V218.562C148.508 218.913 148.555 219.232 148.648 219.52C148.748 219.807 148.889 220.053 149.07 220.258C149.258 220.457 149.48 220.612 149.738 220.724C150.002 220.835 150.301 220.891 150.635 220.891C151.039 220.891 151.438 220.814 151.83 220.662C152.223 220.51 152.56 220.258 152.841 219.906L154.186 221.506C153.992 221.781 153.717 222.048 153.359 222.306C153.008 222.563 152.586 222.774 152.094 222.938C151.602 223.097 151.051 223.176 150.441 223.176ZM160.584 220.609V216.689C160.584 216.42 160.546 216.188 160.47 215.995C160.394 215.802 160.273 215.652 160.109 215.547C159.945 215.436 159.726 215.38 159.45 215.38C159.228 215.38 159.037 215.418 158.879 215.494C158.721 215.57 158.601 215.685 158.519 215.837C158.437 215.989 158.396 216.183 158.396 216.417H155.434C155.434 215.978 155.53 215.57 155.724 215.195C155.923 214.814 156.204 214.483 156.567 214.202C156.937 213.921 157.376 213.704 157.886 213.552C158.401 213.394 158.976 213.314 159.608 213.314C160.364 213.314 161.038 213.44 161.63 213.692C162.228 213.944 162.699 214.322 163.045 214.826C163.391 215.324 163.563 215.951 163.563 216.707V220.601C163.563 221.222 163.599 221.693 163.669 222.016C163.739 222.332 163.839 222.61 163.968 222.851V223H160.997C160.856 222.707 160.751 222.35 160.681 221.928C160.616 221.5 160.584 221.061 160.584 220.609ZM160.944 217.19L160.962 218.772H159.652C159.377 218.772 159.143 218.811 158.949 218.887C158.762 218.963 158.609 219.068 158.492 219.203C158.381 219.332 158.299 219.479 158.246 219.643C158.199 219.807 158.176 219.979 158.176 220.161C158.176 220.337 158.217 220.495 158.299 220.636C158.387 220.771 158.504 220.876 158.65 220.952C158.797 221.028 158.961 221.066 159.143 221.066C159.471 221.066 159.749 221.005 159.978 220.882C160.212 220.753 160.391 220.598 160.514 220.416C160.637 220.234 160.698 220.064 160.698 219.906L161.349 221.119C161.231 221.354 161.097 221.591 160.944 221.831C160.798 222.071 160.613 222.294 160.391 222.499C160.174 222.698 159.907 222.862 159.591 222.991C159.274 223.114 158.891 223.176 158.439 223.176C157.854 223.176 157.314 223.056 156.822 222.815C156.336 222.575 155.946 222.241 155.653 221.813C155.36 221.38 155.214 220.882 155.214 220.319C155.214 219.827 155.302 219.388 155.478 219.001C155.659 218.614 155.932 218.286 156.295 218.017C156.658 217.747 157.121 217.542 157.684 217.401C158.246 217.261 158.908 217.19 159.67 217.19H160.944ZM169.224 220.891C169.499 220.891 169.733 220.841 169.927 220.741C170.126 220.636 170.275 220.489 170.375 220.302C170.48 220.108 170.53 219.877 170.524 219.607H173.311C173.316 220.322 173.141 220.949 172.783 221.488C172.432 222.021 171.951 222.438 171.342 222.736C170.738 223.029 170.056 223.176 169.294 223.176C168.55 223.176 167.899 223.056 167.343 222.815C166.786 222.569 166.32 222.229 165.945 221.796C165.576 221.356 165.298 220.844 165.11 220.258C164.929 219.672 164.838 219.036 164.838 218.351V218.148C164.838 217.463 164.929 216.827 165.11 216.241C165.298 215.649 165.576 215.137 165.945 214.703C166.32 214.264 166.783 213.924 167.334 213.684C167.891 213.438 168.538 213.314 169.276 213.314C170.067 213.314 170.765 213.464 171.368 213.763C171.978 214.062 172.455 214.495 172.801 215.063C173.146 215.632 173.316 216.32 173.311 217.129H170.524C170.53 216.842 170.486 216.584 170.393 216.355C170.299 216.127 170.152 215.945 169.953 215.811C169.76 215.67 169.511 215.6 169.206 215.6C168.901 215.6 168.655 215.667 168.468 215.802C168.28 215.937 168.137 216.124 168.037 216.364C167.943 216.599 167.879 216.868 167.844 217.173C167.814 217.478 167.8 217.803 167.8 218.148V218.351C167.8 218.702 167.814 219.033 167.844 219.344C167.879 219.648 167.946 219.918 168.046 220.152C168.146 220.381 168.289 220.562 168.477 220.697C168.664 220.826 168.913 220.891 169.224 220.891ZM179.586 213.49V215.547H173.855V213.49H179.586ZM175.06 211.126H178.021V219.897C178.021 220.149 178.051 220.346 178.109 220.486C178.168 220.621 178.268 220.718 178.408 220.776C178.555 220.829 178.748 220.855 178.988 220.855C179.158 220.855 179.299 220.853 179.41 220.847C179.521 220.835 179.627 220.82 179.727 220.803V222.921C179.475 223.003 179.211 223.064 178.936 223.105C178.66 223.152 178.367 223.176 178.057 223.176C177.424 223.176 176.882 223.076 176.431 222.877C175.985 222.678 175.646 222.364 175.411 221.937C175.177 221.509 175.06 220.952 175.06 220.267V211.126ZM196.074 210.203V223H192.998L188.472 215.037V223H185.387V210.203H188.472L192.998 218.166V210.203H196.074ZM202.824 220.609V216.689C202.824 216.42 202.786 216.188 202.71 215.995C202.634 215.802 202.514 215.652 202.35 215.547C202.186 215.436 201.966 215.38 201.69 215.38C201.468 215.38 201.277 215.418 201.119 215.494C200.961 215.57 200.841 215.685 200.759 215.837C200.677 215.989 200.636 216.183 200.636 216.417H197.674C197.674 215.978 197.771 215.57 197.964 215.195C198.163 214.814 198.444 214.483 198.808 214.202C199.177 213.921 199.616 213.704 200.126 213.552C200.642 213.394 201.216 213.314 201.849 213.314C202.604 213.314 203.278 213.44 203.87 213.692C204.468 213.944 204.939 214.322 205.285 214.826C205.631 215.324 205.804 215.951 205.804 216.707V220.601C205.804 221.222 205.839 221.693 205.909 222.016C205.979 222.332 206.079 222.61 206.208 222.851V223H203.237C203.097 222.707 202.991 222.35 202.921 221.928C202.856 221.5 202.824 221.061 202.824 220.609ZM203.185 217.19L203.202 218.772H201.893C201.617 218.772 201.383 218.811 201.189 218.887C201.002 218.963 200.85 219.068 200.732 219.203C200.621 219.332 200.539 219.479 200.486 219.643C200.439 219.807 200.416 219.979 200.416 220.161C200.416 220.337 200.457 220.495 200.539 220.636C200.627 220.771 200.744 220.876 200.891 220.952C201.037 221.028 201.201 221.066 201.383 221.066C201.711 221.066 201.989 221.005 202.218 220.882C202.452 220.753 202.631 220.598 202.754 220.416C202.877 220.234 202.938 220.064 202.938 219.906L203.589 221.119C203.472 221.354 203.337 221.591 203.185 221.831C203.038 222.071 202.854 222.294 202.631 222.499C202.414 222.698 202.147 222.862 201.831 222.991C201.515 223.114 201.131 223.176 200.68 223.176C200.094 223.176 199.555 223.056 199.062 222.815C198.576 222.575 198.187 222.241 197.894 221.813C197.601 221.38 197.454 220.882 197.454 220.319C197.454 219.827 197.542 219.388 197.718 219.001C197.899 218.614 198.172 218.286 198.535 218.017C198.898 217.747 199.361 217.542 199.924 217.401C200.486 217.261 201.148 217.19 201.91 217.19H203.185ZM212.457 213.49V215.547H206.727V213.49H212.457ZM207.931 211.126H210.893V219.897C210.893 220.149 210.922 220.346 210.98 220.486C211.039 220.621 211.139 220.718 211.279 220.776C211.426 220.829 211.619 220.855 211.859 220.855C212.029 220.855 212.17 220.853 212.281 220.847C212.393 220.835 212.498 220.82 212.598 220.803V222.921C212.346 223.003 212.082 223.064 211.807 223.105C211.531 223.152 211.238 223.176 210.928 223.176C210.295 223.176 209.753 223.076 209.302 222.877C208.856 222.678 208.517 222.364 208.282 221.937C208.048 221.509 207.931 220.952 207.931 220.267V211.126ZM216.764 213.49V223H213.793V213.49H216.764ZM213.617 211.038C213.617 210.616 213.77 210.271 214.074 210.001C214.379 209.731 214.774 209.597 215.261 209.597C215.747 209.597 216.143 209.731 216.447 210.001C216.752 210.271 216.904 210.616 216.904 211.038C216.904 211.46 216.752 211.806 216.447 212.075C216.143 212.345 215.747 212.479 215.261 212.479C214.774 212.479 214.379 212.345 214.074 212.075C213.77 211.806 213.617 211.46 213.617 211.038ZM222.02 220.97L223.892 213.49H227.012L223.9 223H222.055L222.02 220.97ZM220.912 213.49L222.758 220.97L222.74 223H220.886L217.783 213.49H220.912ZM232.373 223.176C231.6 223.176 230.908 223.056 230.299 222.815C229.689 222.569 229.174 222.232 228.752 221.805C228.336 221.377 228.017 220.885 227.794 220.328C227.577 219.771 227.469 219.183 227.469 218.562V218.228C227.469 217.53 227.565 216.886 227.759 216.294C227.952 215.696 228.239 215.175 228.62 214.729C229.001 214.284 229.479 213.938 230.053 213.692C230.627 213.44 231.295 213.314 232.057 213.314C232.73 213.314 233.334 213.423 233.867 213.64C234.4 213.856 234.852 214.167 235.221 214.571C235.596 214.976 235.88 215.465 236.073 216.039C236.272 216.613 236.372 217.258 236.372 217.973V219.177H228.603V217.322H233.48V217.094C233.486 216.777 233.431 216.508 233.313 216.285C233.202 216.062 233.038 215.893 232.821 215.775C232.604 215.658 232.341 215.6 232.03 215.6C231.708 215.6 231.441 215.67 231.23 215.811C231.025 215.951 230.864 216.145 230.747 216.391C230.636 216.631 230.557 216.909 230.51 217.226C230.463 217.542 230.439 217.876 230.439 218.228V218.562C230.439 218.913 230.486 219.232 230.58 219.52C230.68 219.807 230.82 220.053 231.002 220.258C231.189 220.457 231.412 220.612 231.67 220.724C231.934 220.835 232.232 220.891 232.566 220.891C232.971 220.891 233.369 220.814 233.762 220.662C234.154 220.51 234.491 220.258 234.772 219.906L236.117 221.506C235.924 221.781 235.648 222.048 235.291 222.306C234.939 222.563 234.518 222.774 234.025 222.938C233.533 223.097 232.982 223.176 232.373 223.176Z" fill="white"/>
<rect x="279" y="196" width="131" height="41" rx="3" fill="#424242"/>
<rect x="279" y="196" width="131" height="41" rx="3" stroke="#424242" stroke-width="4"/>
<path d="M308.359 210.203V223H305.274V210.203H308.359ZM312.209 210.203V212.585H301.513V210.203H312.209ZM315.575 221.884L318.036 213.49H321.218L317.395 224.415C317.312 224.655 317.204 224.913 317.069 225.188C316.935 225.47 316.75 225.736 316.516 225.988C316.281 226.24 315.979 226.445 315.61 226.604C315.247 226.762 314.796 226.841 314.257 226.841C313.97 226.841 313.759 226.826 313.624 226.797C313.495 226.773 313.296 226.729 313.026 226.665V224.547C313.103 224.547 313.167 224.547 313.22 224.547C313.278 224.547 313.343 224.547 313.413 224.547C313.729 224.547 313.981 224.515 314.169 224.45C314.362 224.386 314.509 224.292 314.608 224.169C314.714 224.046 314.796 223.896 314.854 223.721L315.575 221.884ZM314.951 213.49L316.823 220.144L317.148 223.281H315.162L311.778 213.49H314.951ZM324.979 215.318V226.656H322.018V213.49H324.777L324.979 215.318ZM330.815 218.131V218.315C330.815 219.007 330.736 219.648 330.578 220.24C330.42 220.832 330.186 221.348 329.875 221.787C329.564 222.227 329.178 222.569 328.715 222.815C328.258 223.056 327.728 223.176 327.124 223.176C326.556 223.176 326.066 223.05 325.656 222.798C325.246 222.546 324.903 222.197 324.628 221.752C324.353 221.307 324.13 220.797 323.96 220.223C323.79 219.648 323.655 219.042 323.556 218.403V218.166C323.655 217.48 323.79 216.845 323.96 216.259C324.13 215.667 324.353 215.151 324.628 214.712C324.903 214.272 325.243 213.93 325.647 213.684C326.058 213.438 326.547 213.314 327.115 213.314C327.719 213.314 328.249 213.429 328.706 213.657C329.169 213.886 329.556 214.214 329.866 214.642C330.183 215.063 330.42 215.57 330.578 216.162C330.736 216.754 330.815 217.41 330.815 218.131ZM327.854 218.315V218.131C327.854 217.762 327.827 217.425 327.774 217.12C327.722 216.81 327.637 216.54 327.52 216.312C327.408 216.083 327.259 215.907 327.071 215.784C326.884 215.661 326.652 215.6 326.377 215.6C326.061 215.6 325.794 215.649 325.577 215.749C325.366 215.843 325.196 215.989 325.067 216.188C324.944 216.382 324.856 216.625 324.804 216.918C324.757 217.205 324.736 217.542 324.742 217.929V218.649C324.73 219.095 324.774 219.487 324.874 219.827C324.974 220.161 325.146 220.422 325.393 220.609C325.639 220.797 325.973 220.891 326.395 220.891C326.676 220.891 326.91 220.826 327.098 220.697C327.285 220.562 327.435 220.378 327.546 220.144C327.657 219.903 327.736 219.628 327.783 219.317C327.83 219.007 327.854 218.673 327.854 218.315ZM336.739 223.176C335.966 223.176 335.274 223.056 334.665 222.815C334.056 222.569 333.54 222.232 333.118 221.805C332.702 221.377 332.383 220.885 332.16 220.328C331.943 219.771 331.835 219.183 331.835 218.562V218.228C331.835 217.53 331.932 216.886 332.125 216.294C332.318 215.696 332.605 215.175 332.986 214.729C333.367 214.284 333.845 213.938 334.419 213.692C334.993 213.44 335.661 213.314 336.423 213.314C337.097 213.314 337.7 213.423 338.233 213.64C338.767 213.856 339.218 214.167 339.587 214.571C339.962 214.976 340.246 215.465 340.439 216.039C340.639 216.613 340.738 217.258 340.738 217.973V219.177H332.969V217.322H337.847V217.094C337.853 216.777 337.797 216.508 337.68 216.285C337.568 216.062 337.404 215.893 337.188 215.775C336.971 215.658 336.707 215.6 336.396 215.6C336.074 215.6 335.808 215.67 335.597 215.811C335.392 215.951 335.23 216.145 335.113 216.391C335.002 216.631 334.923 216.909 334.876 217.226C334.829 217.542 334.806 217.876 334.806 218.228V218.562C334.806 218.913 334.853 219.232 334.946 219.52C335.046 219.807 335.187 220.053 335.368 220.258C335.556 220.457 335.778 220.612 336.036 220.724C336.3 220.835 336.599 220.891 336.933 220.891C337.337 220.891 337.735 220.814 338.128 220.662C338.521 220.51 338.857 220.258 339.139 219.906L340.483 221.506C340.29 221.781 340.015 222.048 339.657 222.306C339.306 222.563 338.884 222.774 338.392 222.938C337.899 223.097 337.349 223.176 336.739 223.176ZM346.926 220.328C346.926 220.164 346.87 220.023 346.759 219.906C346.653 219.783 346.466 219.672 346.196 219.572C345.927 219.467 345.549 219.361 345.062 219.256C344.6 219.156 344.163 219.024 343.753 218.86C343.349 218.696 342.994 218.497 342.689 218.263C342.385 218.028 342.145 217.75 341.969 217.428C341.799 217.105 341.714 216.736 341.714 216.32C341.714 215.916 341.799 215.535 341.969 215.178C342.145 214.814 342.399 214.495 342.733 214.22C343.073 213.938 343.486 213.719 343.973 213.561C344.459 213.396 345.013 213.314 345.634 213.314C346.489 213.314 347.228 213.446 347.849 213.71C348.47 213.968 348.947 214.331 349.281 214.8C349.621 215.263 349.791 215.799 349.791 216.408H346.829C346.829 216.168 346.788 215.963 346.706 215.793C346.63 215.623 346.504 215.494 346.328 215.406C346.152 215.312 345.918 215.266 345.625 215.266C345.42 215.266 345.232 215.304 345.062 215.38C344.898 215.456 344.767 215.562 344.667 215.696C344.567 215.831 344.518 215.989 344.518 216.171C344.518 216.3 344.547 216.417 344.605 216.522C344.67 216.622 344.767 216.716 344.896 216.804C345.024 216.886 345.188 216.962 345.388 217.032C345.587 217.097 345.827 217.155 346.108 217.208C346.747 217.325 347.345 217.492 347.901 217.709C348.458 217.926 348.909 218.233 349.255 218.632C349.606 219.03 349.782 219.566 349.782 220.24C349.782 220.662 349.686 221.052 349.492 221.409C349.299 221.761 349.021 222.071 348.657 222.341C348.294 222.604 347.857 222.81 347.348 222.956C346.838 223.103 346.264 223.176 345.625 223.176C344.717 223.176 343.949 223.015 343.322 222.692C342.695 222.364 342.221 221.954 341.898 221.462C341.582 220.964 341.424 220.46 341.424 219.95H344.184C344.195 220.243 344.266 220.483 344.395 220.671C344.529 220.858 344.708 220.996 344.931 221.084C345.153 221.172 345.411 221.216 345.704 221.216C345.974 221.216 346.196 221.178 346.372 221.102C346.554 221.025 346.691 220.923 346.785 220.794C346.879 220.659 346.926 220.504 346.926 220.328ZM355.188 220.891C355.463 220.891 355.697 220.841 355.891 220.741C356.09 220.636 356.239 220.489 356.339 220.302C356.444 220.108 356.494 219.877 356.488 219.607H359.274C359.28 220.322 359.104 220.949 358.747 221.488C358.396 222.021 357.915 222.438 357.306 222.736C356.702 223.029 356.02 223.176 355.258 223.176C354.514 223.176 353.863 223.056 353.307 222.815C352.75 222.569 352.284 222.229 351.909 221.796C351.54 221.356 351.262 220.844 351.074 220.258C350.893 219.672 350.802 219.036 350.802 218.351V218.148C350.802 217.463 350.893 216.827 351.074 216.241C351.262 215.649 351.54 215.137 351.909 214.703C352.284 214.264 352.747 213.924 353.298 213.684C353.854 213.438 354.502 213.314 355.24 213.314C356.031 213.314 356.729 213.464 357.332 213.763C357.941 214.062 358.419 214.495 358.765 215.063C359.11 215.632 359.28 216.32 359.274 217.129H356.488C356.494 216.842 356.45 216.584 356.356 216.355C356.263 216.127 356.116 215.945 355.917 215.811C355.724 215.67 355.475 215.6 355.17 215.6C354.865 215.6 354.619 215.667 354.432 215.802C354.244 215.937 354.101 216.124 354.001 216.364C353.907 216.599 353.843 216.868 353.808 217.173C353.778 217.478 353.764 217.803 353.764 218.148V218.351C353.764 218.702 353.778 219.033 353.808 219.344C353.843 219.648 353.91 219.918 354.01 220.152C354.109 220.381 354.253 220.562 354.44 220.697C354.628 220.826 354.877 220.891 355.188 220.891ZM363.528 215.846V223H360.566V213.49H363.335L363.528 215.846ZM366.341 213.42L366.288 216.171C366.171 216.159 366.013 216.145 365.813 216.127C365.614 216.109 365.447 216.101 365.312 216.101C364.967 216.101 364.668 216.142 364.416 216.224C364.17 216.3 363.965 216.417 363.801 216.575C363.643 216.728 363.525 216.921 363.449 217.155C363.379 217.39 363.347 217.662 363.353 217.973L362.816 217.621C362.816 216.982 362.878 216.402 363.001 215.881C363.13 215.354 363.312 214.899 363.546 214.519C363.78 214.132 364.064 213.836 364.398 213.631C364.732 213.42 365.107 213.314 365.523 213.314C365.67 213.314 365.813 213.323 365.954 213.341C366.101 213.358 366.229 213.385 366.341 213.42ZM370.489 213.49V223H367.519V213.49H370.489ZM367.343 211.038C367.343 210.616 367.495 210.271 367.8 210.001C368.104 209.731 368.5 209.597 368.986 209.597C369.473 209.597 369.868 209.731 370.173 210.001C370.478 210.271 370.63 210.616 370.63 211.038C370.63 211.46 370.478 211.806 370.173 212.075C369.868 212.345 369.473 212.479 368.986 212.479C368.5 212.479 368.104 212.345 367.8 212.075C367.495 211.806 367.343 211.46 367.343 211.038ZM375.306 215.318V226.656H372.344V213.49H375.104L375.306 215.318ZM381.142 218.131V218.315C381.142 219.007 381.062 219.648 380.904 220.24C380.746 220.832 380.512 221.348 380.201 221.787C379.891 222.227 379.504 222.569 379.041 222.815C378.584 223.056 378.054 223.176 377.45 223.176C376.882 223.176 376.393 223.05 375.982 222.798C375.572 222.546 375.229 222.197 374.954 221.752C374.679 221.307 374.456 220.797 374.286 220.223C374.116 219.648 373.981 219.042 373.882 218.403V218.166C373.981 217.48 374.116 216.845 374.286 216.259C374.456 215.667 374.679 215.151 374.954 214.712C375.229 214.272 375.569 213.93 375.974 213.684C376.384 213.438 376.873 213.314 377.441 213.314C378.045 213.314 378.575 213.429 379.032 213.657C379.495 213.886 379.882 214.214 380.192 214.642C380.509 215.063 380.746 215.57 380.904 216.162C381.062 216.754 381.142 217.41 381.142 218.131ZM378.18 218.315V218.131C378.18 217.762 378.153 217.425 378.101 217.12C378.048 216.81 377.963 216.54 377.846 216.312C377.734 216.083 377.585 215.907 377.397 215.784C377.21 215.661 376.979 215.6 376.703 215.6C376.387 215.6 376.12 215.649 375.903 215.749C375.692 215.843 375.522 215.989 375.394 216.188C375.271 216.382 375.183 216.625 375.13 216.918C375.083 217.205 375.062 217.542 375.068 217.929V218.649C375.057 219.095 375.101 219.487 375.2 219.827C375.3 220.161 375.473 220.422 375.719 220.609C375.965 220.797 376.299 220.891 376.721 220.891C377.002 220.891 377.236 220.826 377.424 220.697C377.611 220.562 377.761 220.378 377.872 220.144C377.983 219.903 378.062 219.628 378.109 219.317C378.156 219.007 378.18 218.673 378.18 218.315ZM387.47 213.49V215.547H381.739V213.49H387.47ZM382.943 211.126H385.905V219.897C385.905 220.149 385.935 220.346 385.993 220.486C386.052 220.621 386.151 220.718 386.292 220.776C386.438 220.829 386.632 220.855 386.872 220.855C387.042 220.855 387.183 220.853 387.294 220.847C387.405 220.835 387.511 220.82 387.61 220.803V222.921C387.358 223.003 387.095 223.064 386.819 223.105C386.544 223.152 386.251 223.176 385.94 223.176C385.308 223.176 384.766 223.076 384.314 222.877C383.869 222.678 383.529 222.364 383.295 221.937C383.061 221.509 382.943 220.952 382.943 220.267V211.126Z" fill="white"/>
<rect x="430" y="196" width="109" height="41" rx="3" fill="#424242"/>
<rect x="430" y="196" width="109" height="41" rx="3" stroke="#424242" stroke-width="4"/>
<path d="M464.118 210.203V223H461.042L456.516 215.037V223H453.431V210.203H456.516L461.042 218.166V210.203H464.118ZM465.56 218.342V218.157C465.56 217.46 465.659 216.818 465.858 216.232C466.058 215.641 466.351 215.128 466.737 214.694C467.124 214.261 467.602 213.924 468.17 213.684C468.738 213.438 469.395 213.314 470.139 213.314C470.889 213.314 471.548 213.438 472.116 213.684C472.69 213.924 473.171 214.261 473.558 214.694C473.944 215.128 474.237 215.641 474.437 216.232C474.636 216.818 474.735 217.46 474.735 218.157V218.342C474.735 219.033 474.636 219.675 474.437 220.267C474.237 220.853 473.944 221.365 473.558 221.805C473.171 222.238 472.693 222.575 472.125 222.815C471.557 223.056 470.9 223.176 470.156 223.176C469.412 223.176 468.753 223.056 468.179 222.815C467.604 222.575 467.124 222.238 466.737 221.805C466.351 221.365 466.058 220.853 465.858 220.267C465.659 219.675 465.56 219.033 465.56 218.342ZM468.521 218.157V218.342C468.521 218.699 468.548 219.033 468.601 219.344C468.653 219.654 468.741 219.927 468.864 220.161C468.987 220.39 469.154 220.568 469.365 220.697C469.576 220.826 469.84 220.891 470.156 220.891C470.467 220.891 470.725 220.826 470.93 220.697C471.141 220.568 471.308 220.39 471.431 220.161C471.554 219.927 471.642 219.654 471.694 219.344C471.747 219.033 471.773 218.699 471.773 218.342V218.157C471.773 217.812 471.747 217.486 471.694 217.182C471.642 216.871 471.554 216.599 471.431 216.364C471.308 216.124 471.141 215.937 470.93 215.802C470.719 215.667 470.455 215.6 470.139 215.6C469.828 215.6 469.567 215.667 469.356 215.802C469.151 215.937 468.987 216.124 468.864 216.364C468.741 216.599 468.653 216.871 468.601 217.182C468.548 217.486 468.521 217.812 468.521 218.157ZM481.521 220.82V209.5H484.5V223H481.828L481.521 220.82ZM475.685 218.359V218.175C475.685 217.454 475.764 216.798 475.922 216.206C476.08 215.608 476.314 215.096 476.625 214.668C476.936 214.234 477.322 213.9 477.785 213.666C478.248 213.432 478.781 213.314 479.385 213.314C479.924 213.314 480.396 213.44 480.8 213.692C481.204 213.938 481.55 214.284 481.837 214.729C482.124 215.175 482.358 215.696 482.54 216.294C482.722 216.886 482.859 217.524 482.953 218.21V218.43C482.859 219.074 482.722 219.684 482.54 220.258C482.358 220.826 482.124 221.33 481.837 221.77C481.55 222.209 481.201 222.555 480.791 222.807C480.387 223.053 479.912 223.176 479.367 223.176C478.764 223.176 478.23 223.056 477.768 222.815C477.311 222.575 476.927 222.238 476.616 221.805C476.312 221.371 476.08 220.861 475.922 220.275C475.764 219.689 475.685 219.051 475.685 218.359ZM478.646 218.175V218.359C478.646 218.717 478.67 219.048 478.717 219.353C478.764 219.657 478.843 219.927 478.954 220.161C479.071 220.39 479.224 220.568 479.411 220.697C479.604 220.826 479.842 220.891 480.123 220.891C480.504 220.891 480.817 220.8 481.063 220.618C481.315 220.437 481.5 220.179 481.617 219.845C481.74 219.511 481.793 219.118 481.775 218.667V217.973C481.787 217.586 481.761 217.246 481.696 216.953C481.632 216.654 481.529 216.405 481.389 216.206C481.254 216.007 481.081 215.857 480.87 215.758C480.665 215.652 480.422 215.6 480.141 215.6C479.865 215.6 479.631 215.664 479.438 215.793C479.25 215.922 479.098 216.104 478.98 216.338C478.863 216.566 478.778 216.839 478.726 217.155C478.673 217.466 478.646 217.806 478.646 218.175ZM490.784 223.176C490.011 223.176 489.319 223.056 488.71 222.815C488.101 222.569 487.585 222.232 487.163 221.805C486.747 221.377 486.428 220.885 486.205 220.328C485.988 219.771 485.88 219.183 485.88 218.562V218.228C485.88 217.53 485.977 216.886 486.17 216.294C486.363 215.696 486.65 215.175 487.031 214.729C487.412 214.284 487.89 213.938 488.464 213.692C489.038 213.44 489.706 213.314 490.468 213.314C491.142 213.314 491.745 213.423 492.278 213.64C492.812 213.856 493.263 214.167 493.632 214.571C494.007 214.976 494.291 215.465 494.484 216.039C494.684 216.613 494.783 217.258 494.783 217.973V219.177H487.014V217.322H491.892V217.094C491.897 216.777 491.842 216.508 491.725 216.285C491.613 216.062 491.449 215.893 491.232 215.775C491.016 215.658 490.752 215.6 490.441 215.6C490.119 215.6 489.853 215.67 489.642 215.811C489.437 215.951 489.275 216.145 489.158 216.391C489.047 216.631 488.968 216.909 488.921 217.226C488.874 217.542 488.851 217.876 488.851 218.228V218.562C488.851 218.913 488.897 219.232 488.991 219.52C489.091 219.807 489.231 220.053 489.413 220.258C489.601 220.457 489.823 220.612 490.081 220.724C490.345 220.835 490.644 220.891 490.978 220.891C491.382 220.891 491.78 220.814 492.173 220.662C492.565 220.51 492.902 220.258 493.184 219.906L494.528 221.506C494.335 221.781 494.06 222.048 493.702 222.306C493.351 222.563 492.929 222.774 492.437 222.938C491.944 223.097 491.394 223.176 490.784 223.176ZM501.217 218.983V210.203H504.293V218.983C504.293 219.839 504.097 220.58 503.704 221.207C503.317 221.834 502.79 222.32 502.122 222.666C501.46 223.006 500.716 223.176 499.89 223.176C499.034 223.176 498.272 223.032 497.604 222.745C496.942 222.458 496.421 222.016 496.04 221.418C495.665 220.82 495.478 220.059 495.478 219.133H498.571C498.571 219.566 498.621 219.906 498.721 220.152C498.82 220.393 498.967 220.562 499.16 220.662C499.359 220.756 499.603 220.803 499.89 220.803C500.171 220.803 500.408 220.732 500.602 220.592C500.801 220.445 500.953 220.237 501.059 219.968C501.164 219.692 501.217 219.364 501.217 218.983ZM512.845 219.599C512.845 219.399 512.815 219.221 512.757 219.062C512.698 218.898 512.59 218.746 512.432 218.605C512.273 218.465 512.045 218.324 511.746 218.184C511.453 218.037 511.066 217.885 510.586 217.727C510.023 217.539 509.481 217.328 508.96 217.094C508.438 216.854 507.973 216.575 507.562 216.259C507.152 215.937 506.827 215.562 506.587 215.134C506.347 214.7 506.227 214.196 506.227 213.622C506.227 213.071 506.35 212.576 506.596 212.137C506.842 211.691 507.185 211.313 507.624 211.003C508.069 210.687 508.591 210.446 509.188 210.282C509.786 210.112 510.439 210.027 511.148 210.027C512.086 210.027 512.912 210.191 513.627 210.52C514.348 210.842 514.91 211.302 515.314 211.899C515.725 212.491 515.93 213.191 515.93 214H512.862C512.862 213.678 512.795 213.394 512.66 213.147C512.531 212.901 512.335 212.708 512.071 212.567C511.808 212.427 511.477 212.356 511.078 212.356C510.691 212.356 510.366 212.415 510.103 212.532C509.839 212.649 509.64 212.808 509.505 213.007C509.37 213.2 509.303 213.414 509.303 213.648C509.303 213.842 509.355 214.018 509.461 214.176C509.572 214.328 509.728 214.472 509.927 214.606C510.132 214.741 510.378 214.87 510.665 214.993C510.958 215.116 511.286 215.236 511.649 215.354C512.329 215.57 512.933 215.813 513.46 216.083C513.993 216.347 514.441 216.648 514.805 216.988C515.174 217.322 515.452 217.703 515.64 218.131C515.833 218.559 515.93 219.042 515.93 219.581C515.93 220.155 515.818 220.665 515.596 221.11C515.373 221.556 515.054 221.934 514.638 222.244C514.222 222.549 513.724 222.78 513.144 222.938C512.563 223.097 511.916 223.176 511.201 223.176C510.545 223.176 509.897 223.094 509.259 222.93C508.626 222.76 508.052 222.502 507.536 222.156C507.021 221.805 506.607 221.356 506.297 220.812C505.992 220.261 505.84 219.607 505.84 218.852H508.934C508.934 219.227 508.983 219.543 509.083 219.801C509.183 220.059 509.329 220.267 509.522 220.425C509.716 220.577 509.953 220.688 510.234 220.759C510.516 220.823 510.838 220.855 511.201 220.855C511.594 220.855 511.91 220.8 512.15 220.688C512.391 220.571 512.566 220.419 512.678 220.231C512.789 220.038 512.845 219.827 512.845 219.599Z" fill="white"/>
<rect x="559" y="196" width="128" height="41" rx="3" fill="#424242"/>
<rect x="559" y="196" width="128" height="41" rx="3" stroke="#424242" stroke-width="4"/>
<path d="M590.902 220.627V223H584.082V220.627H590.902ZM585.181 210.203V223H582.096V210.203H585.181ZM590.023 215.283V217.577H584.082V215.283H590.023ZM590.929 210.203V212.585H584.082V210.203H590.929ZM594.541 213.49L595.877 216.109L597.257 213.49H600.333L597.837 218.122L600.465 223H597.362L595.877 220.188L594.4 223H591.298L593.926 218.122L591.438 213.49H594.541ZM604.297 215.318V226.656H601.335V213.49H604.095L604.297 215.318ZM610.133 218.131V218.315C610.133 219.007 610.054 219.648 609.896 220.24C609.737 220.832 609.503 221.348 609.192 221.787C608.882 222.227 608.495 222.569 608.032 222.815C607.575 223.056 607.045 223.176 606.441 223.176C605.873 223.176 605.384 223.05 604.974 222.798C604.563 222.546 604.221 222.197 603.945 221.752C603.67 221.307 603.447 220.797 603.277 220.223C603.107 219.648 602.973 219.042 602.873 218.403V218.166C602.973 217.48 603.107 216.845 603.277 216.259C603.447 215.667 603.67 215.151 603.945 214.712C604.221 214.272 604.561 213.93 604.965 213.684C605.375 213.438 605.864 213.314 606.433 213.314C607.036 213.314 607.566 213.429 608.023 213.657C608.486 213.886 608.873 214.214 609.184 214.642C609.5 215.063 609.737 215.57 609.896 216.162C610.054 216.754 610.133 217.41 610.133 218.131ZM607.171 218.315V218.131C607.171 217.762 607.145 217.425 607.092 217.12C607.039 216.81 606.954 216.54 606.837 216.312C606.726 216.083 606.576 215.907 606.389 215.784C606.201 215.661 605.97 215.6 605.694 215.6C605.378 215.6 605.111 215.649 604.895 215.749C604.684 215.843 604.514 215.989 604.385 216.188C604.262 216.382 604.174 216.625 604.121 216.918C604.074 217.205 604.054 217.542 604.06 217.929V218.649C604.048 219.095 604.092 219.487 604.191 219.827C604.291 220.161 604.464 220.422 604.71 220.609C604.956 220.797 605.29 220.891 605.712 220.891C605.993 220.891 606.228 220.826 606.415 220.697C606.603 220.562 606.752 220.378 606.863 220.144C606.975 219.903 607.054 219.628 607.101 219.317C607.147 219.007 607.171 218.673 607.171 218.315ZM614.439 215.846V223H611.478V213.49H614.246L614.439 215.846ZM617.252 213.42L617.199 216.171C617.082 216.159 616.924 216.145 616.725 216.127C616.525 216.109 616.358 216.101 616.224 216.101C615.878 216.101 615.579 216.142 615.327 216.224C615.081 216.3 614.876 216.417 614.712 216.575C614.554 216.728 614.437 216.921 614.36 217.155C614.29 217.39 614.258 217.662 614.264 217.973L613.728 217.621C613.728 216.982 613.789 216.402 613.912 215.881C614.041 215.354 614.223 214.899 614.457 214.519C614.691 214.132 614.976 213.836 615.31 213.631C615.644 213.42 616.019 213.314 616.435 213.314C616.581 213.314 616.725 213.323 616.865 213.341C617.012 213.358 617.141 213.385 617.252 213.42ZM622.701 223.176C621.928 223.176 621.236 223.056 620.627 222.815C620.018 222.569 619.502 222.232 619.08 221.805C618.664 221.377 618.345 220.885 618.122 220.328C617.905 219.771 617.797 219.183 617.797 218.562V218.228C617.797 217.53 617.894 216.886 618.087 216.294C618.28 215.696 618.567 215.175 618.948 214.729C619.329 214.284 619.807 213.938 620.381 213.692C620.955 213.44 621.623 213.314 622.385 213.314C623.059 213.314 623.662 213.423 624.195 213.64C624.729 213.856 625.18 214.167 625.549 214.571C625.924 214.976 626.208 215.465 626.401 216.039C626.601 216.613 626.7 217.258 626.7 217.973V219.177H618.931V217.322H623.809V217.094C623.814 216.777 623.759 216.508 623.642 216.285C623.53 216.062 623.366 215.893 623.149 215.775C622.933 215.658 622.669 215.6 622.358 215.6C622.036 215.6 621.77 215.67 621.559 215.811C621.354 215.951 621.192 216.145 621.075 216.391C620.964 216.631 620.885 216.909 620.838 217.226C620.791 217.542 620.768 217.876 620.768 218.228V218.562C620.768 218.913 620.814 219.232 620.908 219.52C621.008 219.807 621.148 220.053 621.33 220.258C621.518 220.457 621.74 220.612 621.998 220.724C622.262 220.835 622.561 220.891 622.895 220.891C623.299 220.891 623.697 220.814 624.09 220.662C624.482 220.51 624.819 220.258 625.101 219.906L626.445 221.506C626.252 221.781 625.977 222.048 625.619 222.306C625.268 222.563 624.846 222.774 624.354 222.938C623.861 223.097 623.311 223.176 622.701 223.176ZM632.888 220.328C632.888 220.164 632.832 220.023 632.721 219.906C632.615 219.783 632.428 219.672 632.158 219.572C631.889 219.467 631.511 219.361 631.024 219.256C630.562 219.156 630.125 219.024 629.715 218.86C629.311 218.696 628.956 218.497 628.651 218.263C628.347 218.028 628.106 217.75 627.931 217.428C627.761 217.105 627.676 216.736 627.676 216.32C627.676 215.916 627.761 215.535 627.931 215.178C628.106 214.814 628.361 214.495 628.695 214.22C629.035 213.938 629.448 213.719 629.935 213.561C630.421 213.396 630.975 213.314 631.596 213.314C632.451 213.314 633.189 213.446 633.811 213.71C634.432 213.968 634.909 214.331 635.243 214.8C635.583 215.263 635.753 215.799 635.753 216.408H632.791C632.791 216.168 632.75 215.963 632.668 215.793C632.592 215.623 632.466 215.494 632.29 215.406C632.114 215.312 631.88 215.266 631.587 215.266C631.382 215.266 631.194 215.304 631.024 215.38C630.86 215.456 630.729 215.562 630.629 215.696C630.529 215.831 630.479 215.989 630.479 216.171C630.479 216.3 630.509 216.417 630.567 216.522C630.632 216.622 630.729 216.716 630.857 216.804C630.986 216.886 631.15 216.962 631.35 217.032C631.549 217.097 631.789 217.155 632.07 217.208C632.709 217.325 633.307 217.492 633.863 217.709C634.42 217.926 634.871 218.233 635.217 218.632C635.568 219.03 635.744 219.566 635.744 220.24C635.744 220.662 635.647 221.052 635.454 221.409C635.261 221.761 634.982 222.071 634.619 222.341C634.256 222.604 633.819 222.81 633.31 222.956C632.8 223.103 632.226 223.176 631.587 223.176C630.679 223.176 629.911 223.015 629.284 222.692C628.657 222.364 628.183 221.954 627.86 221.462C627.544 220.964 627.386 220.46 627.386 219.95H630.146C630.157 220.243 630.228 220.483 630.356 220.671C630.491 220.858 630.67 220.996 630.893 221.084C631.115 221.172 631.373 221.216 631.666 221.216C631.936 221.216 632.158 221.178 632.334 221.102C632.516 221.025 632.653 220.923 632.747 220.794C632.841 220.659 632.888 220.504 632.888 220.328ZM642.116 220.328C642.116 220.164 642.061 220.023 641.949 219.906C641.844 219.783 641.656 219.672 641.387 219.572C641.117 219.467 640.739 219.361 640.253 219.256C639.79 219.156 639.354 219.024 638.943 218.86C638.539 218.696 638.185 218.497 637.88 218.263C637.575 218.028 637.335 217.75 637.159 217.428C636.989 217.105 636.904 216.736 636.904 216.32C636.904 215.916 636.989 215.535 637.159 215.178C637.335 214.814 637.59 214.495 637.924 214.22C638.264 213.938 638.677 213.719 639.163 213.561C639.649 213.396 640.203 213.314 640.824 213.314C641.68 213.314 642.418 213.446 643.039 213.71C643.66 213.968 644.138 214.331 644.472 214.8C644.812 215.263 644.981 215.799 644.981 216.408H642.02C642.02 216.168 641.979 215.963 641.896 215.793C641.82 215.623 641.694 215.494 641.519 215.406C641.343 215.312 641.108 215.266 640.815 215.266C640.61 215.266 640.423 215.304 640.253 215.38C640.089 215.456 639.957 215.562 639.857 215.696C639.758 215.831 639.708 215.989 639.708 216.171C639.708 216.3 639.737 216.417 639.796 216.522C639.86 216.622 639.957 216.716 640.086 216.804C640.215 216.886 640.379 216.962 640.578 217.032C640.777 217.097 641.018 217.155 641.299 217.208C641.938 217.325 642.535 217.492 643.092 217.709C643.648 217.926 644.1 218.233 644.445 218.632C644.797 219.03 644.973 219.566 644.973 220.24C644.973 220.662 644.876 221.052 644.683 221.409C644.489 221.761 644.211 222.071 643.848 222.341C643.484 222.604 643.048 222.81 642.538 222.956C642.028 223.103 641.454 223.176 640.815 223.176C639.907 223.176 639.14 223.015 638.513 222.692C637.886 222.364 637.411 221.954 637.089 221.462C636.772 220.964 636.614 220.46 636.614 219.95H639.374C639.386 220.243 639.456 220.483 639.585 220.671C639.72 220.858 639.898 220.996 640.121 221.084C640.344 221.172 640.602 221.216 640.895 221.216C641.164 221.216 641.387 221.178 641.562 221.102C641.744 221.025 641.882 220.923 641.976 220.794C642.069 220.659 642.116 220.504 642.116 220.328ZM651.591 218.983V210.203H654.667V218.983C654.667 219.839 654.471 220.58 654.078 221.207C653.691 221.834 653.164 222.32 652.496 222.666C651.834 223.006 651.09 223.176 650.264 223.176C649.408 223.176 648.646 223.032 647.979 222.745C647.316 222.458 646.795 222.016 646.414 221.418C646.039 220.82 645.852 220.059 645.852 219.133H648.945C648.945 219.566 648.995 219.906 649.095 220.152C649.194 220.393 649.341 220.562 649.534 220.662C649.733 220.756 649.977 220.803 650.264 220.803C650.545 220.803 650.782 220.732 650.976 220.592C651.175 220.445 651.327 220.237 651.433 219.968C651.538 219.692 651.591 219.364 651.591 218.983ZM661.47 220.328C661.47 220.164 661.414 220.023 661.303 219.906C661.197 219.783 661.01 219.672 660.74 219.572C660.471 219.467 660.093 219.361 659.606 219.256C659.144 219.156 658.707 219.024 658.297 218.86C657.893 218.696 657.538 218.497 657.233 218.263C656.929 218.028 656.688 217.75 656.513 217.428C656.343 217.105 656.258 216.736 656.258 216.32C656.258 215.916 656.343 215.535 656.513 215.178C656.688 214.814 656.943 214.495 657.277 214.22C657.617 213.938 658.03 213.719 658.517 213.561C659.003 213.396 659.557 213.314 660.178 213.314C661.033 213.314 661.771 213.446 662.393 213.71C663.014 213.968 663.491 214.331 663.825 214.8C664.165 215.263 664.335 215.799 664.335 216.408H661.373C661.373 216.168 661.332 215.963 661.25 215.793C661.174 215.623 661.048 215.494 660.872 215.406C660.696 215.312 660.462 215.266 660.169 215.266C659.964 215.266 659.776 215.304 659.606 215.38C659.442 215.456 659.311 215.562 659.211 215.696C659.111 215.831 659.062 215.989 659.062 216.171C659.062 216.3 659.091 216.417 659.149 216.522C659.214 216.622 659.311 216.716 659.439 216.804C659.568 216.886 659.732 216.962 659.932 217.032C660.131 217.097 660.371 217.155 660.652 217.208C661.291 217.325 661.889 217.492 662.445 217.709C663.002 217.926 663.453 218.233 663.799 218.632C664.15 219.03 664.326 219.566 664.326 220.24C664.326 220.662 664.229 221.052 664.036 221.409C663.843 221.761 663.564 222.071 663.201 222.341C662.838 222.604 662.401 222.81 661.892 222.956C661.382 223.103 660.808 223.176 660.169 223.176C659.261 223.176 658.493 223.015 657.866 222.692C657.239 222.364 656.765 221.954 656.442 221.462C656.126 220.964 655.968 220.46 655.968 219.95H658.728C658.739 220.243 658.81 220.483 658.938 220.671C659.073 220.858 659.252 220.996 659.475 221.084C659.697 221.172 659.955 221.216 660.248 221.216C660.518 221.216 660.74 221.178 660.916 221.102C661.098 221.025 661.235 220.923 661.329 220.794C661.423 220.659 661.47 220.504 661.47 220.328Z" fill="white"/>
<rect x="707" y="196" width="83" height="41" rx="3" fill="#424242"/>
<rect x="707" y="196" width="83" height="41" rx="3" stroke="#424242" stroke-width="4"/>
<path d="M735.483 212.893L732.363 223H729.05L733.752 210.203H735.853L735.483 212.893ZM738.067 223L734.938 212.893L734.534 210.203H736.661L741.39 223H738.067ZM737.944 218.228V220.609H731.379V218.228H737.944ZM744.932 221.84L747.48 210.203H749.001L749.827 211.196L747.111 223H745.433L744.932 221.84ZM744.255 210.203L746.408 221.928L745.854 223H743.912L741.196 210.203H744.255ZM751.225 221.866L753.36 210.203H756.41L753.694 223H751.761L751.225 221.866ZM750.1 210.203L752.71 221.91L752.183 223H750.504L747.727 211.179L748.588 210.203H750.1ZM764.215 219.599C764.215 219.399 764.186 219.221 764.127 219.062C764.068 218.898 763.96 218.746 763.802 218.605C763.644 218.465 763.415 218.324 763.116 218.184C762.823 218.037 762.437 217.885 761.956 217.727C761.394 217.539 760.852 217.328 760.33 217.094C759.809 216.854 759.343 216.575 758.933 216.259C758.522 215.937 758.197 215.562 757.957 215.134C757.717 214.7 757.597 214.196 757.597 213.622C757.597 213.071 757.72 212.576 757.966 212.137C758.212 211.691 758.555 211.313 758.994 211.003C759.439 210.687 759.961 210.446 760.559 210.282C761.156 210.112 761.81 210.027 762.519 210.027C763.456 210.027 764.282 210.191 764.997 210.52C765.718 210.842 766.28 211.302 766.685 211.899C767.095 212.491 767.3 213.191 767.3 214H764.232C764.232 213.678 764.165 213.394 764.03 213.147C763.901 212.901 763.705 212.708 763.441 212.567C763.178 212.427 762.847 212.356 762.448 212.356C762.062 212.356 761.736 212.415 761.473 212.532C761.209 212.649 761.01 212.808 760.875 213.007C760.74 213.2 760.673 213.414 760.673 213.648C760.673 213.842 760.726 214.018 760.831 214.176C760.942 214.328 761.098 214.472 761.297 214.606C761.502 214.741 761.748 214.87 762.035 214.993C762.328 215.116 762.656 215.236 763.02 215.354C763.699 215.57 764.303 215.813 764.83 216.083C765.363 216.347 765.812 216.648 766.175 216.988C766.544 217.322 766.822 217.703 767.01 218.131C767.203 218.559 767.3 219.042 767.3 219.581C767.3 220.155 767.188 220.665 766.966 221.11C766.743 221.556 766.424 221.934 766.008 222.244C765.592 222.549 765.094 222.78 764.514 222.938C763.934 223.097 763.286 223.176 762.571 223.176C761.915 223.176 761.268 223.094 760.629 222.93C759.996 222.76 759.422 222.502 758.906 222.156C758.391 221.805 757.978 221.356 757.667 220.812C757.362 220.261 757.21 219.607 757.21 218.852H760.304C760.304 219.227 760.354 219.543 760.453 219.801C760.553 220.059 760.699 220.267 760.893 220.425C761.086 220.577 761.323 220.688 761.604 220.759C761.886 220.823 762.208 220.855 762.571 220.855C762.964 220.855 763.28 220.8 763.521 220.688C763.761 220.571 763.937 220.419 764.048 220.231C764.159 220.038 764.215 219.827 764.215 219.599Z" fill="white"/>
<g clip-path="url(#clip0_3_61)">
<path d="M1066 0H1348C1356.28 0 1363 6.71573 1363 15V282C1363 290.284 1356.28 297 1348 297H1066V0Z" fill="white"/>
<mask id="mask0_3_61" style="mask-type:luminance" maskUnits="userSpaceOnUse" x="1117" y="224" width="195" height="28">
<path d="M1117.71 224.639H1311.3V251.957H1117.71V224.639Z" fill="white"/>
</mask>
<g mask="url(#mask0_3_61)">
<mask id="mask1_3_61" style="mask-type:luminance" maskUnits="userSpaceOnUse" x="1117" y="224" width="195" height="28">
<path d="M1214.5 224.639C1161.05 224.639 1117.71 230.754 1117.71 238.296C1117.71 245.841 1161.05 251.957 1214.5 251.957C1267.95 251.957 1311.29 245.841 1311.29 238.296C1311.29 230.754 1267.95 224.639 1214.5 224.639Z" fill="white"/>
</mask>
<g mask="url(#mask1_3_61)">
<path d="M1117.71 224.639H1311.3V251.957H1117.71V224.639Z" fill="#DBE7F8"/>
</g>
</g>
<mask id="mask2_3_61" style="mask-type:luminance" maskUnits="userSpaceOnUse" x="1158" y="58" width="113" height="109">
<path d="M1158.25 58.7041H1270.76V166.983H1158.25V58.7041Z" fill="white"/>
</mask>
<g mask="url(#mask2_3_61)">
<mask id="mask3_3_61" style="mask-type:luminance" maskUnits="userSpaceOnUse" x="1158" y="58" width="113" height="109">
<path d="M1214.5 58.7041C1183.43 58.7041 1158.25 82.9413 1158.25 112.844C1158.25 142.742 1183.43 166.983 1214.5 166.983C1245.57 166.983 1270.75 142.742 1270.75 112.844C1270.75 82.9413 1245.57 58.7041 1214.5 58.7041Z" fill="white"/>
</mask>
<g mask="url(#mask3_3_61)">
<path d="M1158.25 58.7041H1270.76V166.983H1158.25V58.7041Z" fill="#E2FFF1"/>
</g>
</g>
<mask id="mask4_3_61" style="mask-type:luminance" maskUnits="userSpaceOnUse" x="1158" y="77" width="113" height="113">
<path d="M1158.25 77.0588H1270.75V189.561H1158.25V77.0588Z" fill="white"/>
</mask>
<g mask="url(#mask4_3_61)">
<mask id="mask5_3_61" style="mask-type:luminance" maskUnits="userSpaceOnUse" x="1158" y="77" width="113" height="113">
<path d="M1214.5 77.0588C1183.43 77.0588 1158.25 102.244 1158.25 133.308C1158.25 164.376 1183.43 189.561 1214.5 189.561C1245.57 189.561 1270.75 164.376 1270.75 133.308C1270.75 102.244 1245.57 77.0588 1214.5 77.0588Z" fill="white"/>
</mask>
<g mask="url(#mask5_3_61)">
<path d="M1158.25 77.0588H1270.75V189.561H1158.25V77.0588Z" fill="#90FFCA"/>
</g>
</g>
<mask id="mask6_3_61" style="mask-type:luminance" maskUnits="userSpaceOnUse" x="1158" y="95" width="113" height="114">
<path d="M1158.25 95.6661H1270.75V208.168H1158.25V95.6661Z" fill="white"/>
</mask>
<g mask="url(#mask6_3_61)">
<mask id="mask7_3_61" style="mask-type:luminance" maskUnits="userSpaceOnUse" x="1158" y="95" width="113" height="114">
<path d="M1214.5 95.6661C1183.43 95.6661 1158.25 120.851 1158.25 151.919C1158.25 182.983 1183.43 208.168 1214.5 208.168C1245.57 208.168 1270.75 182.983 1270.75 151.919C1270.75 120.851 1245.57 95.6661 1214.5 95.6661Z" fill="white"/>
</mask>
<g mask="url(#mask7_3_61)">
<path d="M1158.25 95.6661H1270.75V208.168H1158.25V95.6661Z" fill="white"/>
</g>
</g>
<mask id="mask8_3_61" style="mask-type:luminance" maskUnits="userSpaceOnUse" x="1158" y="95" width="114" height="144">
<path d="M1158.25 95.6661H1271.19V238.02H1158.25V95.6661Z" fill="white"/>
</mask>
<g mask="url(#mask8_3_61)">
<path d="M1214.72 196.951C1189.63 196.951 1169.3 176.731 1169.3 151.791C1169.3 126.858 1189.63 106.639 1214.72 106.639C1239.8 106.639 1260.13 126.858 1260.13 151.791C1260.13 176.731 1239.8 196.951 1214.72 196.951ZM1214.72 95.67C1183.54 95.67 1158.26 120.793 1158.26 151.791C1158.26 201.524 1214.72 238.024 1214.72 238.024C1214.72 238.024 1271.17 201.524 1271.17 151.791C1271.17 120.793 1245.89 95.67 1214.72 95.67Z" fill="#40C784"/>
</g>
<path d="M1233.97 159.896C1232.08 159.896 1228.18 159.896 1228.18 156.741C1228.18 154.048 1231.25 150.979 1233.97 150.979C1236.67 150.979 1238.88 153.174 1238.88 155.871C1238.88 158.353 1237 159.896 1233.97 159.896ZM1224.43 163.762C1224.43 164.069 1224.19 164.329 1223.87 164.329H1205.56C1205.25 164.329 1205 164.069 1205 163.762V159.286C1205 158.979 1205.25 158.73 1205.56 158.73H1223.87C1224.19 158.73 1224.43 158.979 1224.43 159.286V163.762ZM1195.47 159.896C1192.44 159.896 1190.55 158.353 1190.55 155.871C1190.55 153.174 1192.76 150.979 1195.47 150.979C1198.17 150.979 1201.26 154.048 1201.26 156.741C1201.26 159.896 1197.35 159.896 1195.47 159.896ZM1199.34 137.916C1200.06 136.21 1202.25 134.773 1204.11 134.773H1225.33C1227.19 134.773 1229.37 136.21 1230.1 137.916L1233.03 144.871C1228.39 143.771 1222.29 143.216 1214.72 143.216C1207.14 143.216 1201.04 143.771 1196.41 144.871L1199.34 137.916ZM1243.87 153.959C1243.87 150.649 1241.76 148.108 1237.57 146.316L1240.67 146.006C1240.99 145.978 1241.27 145.823 1241.48 145.586C1241.69 145.337 1241.78 145.026 1241.75 144.712L1241.59 142.998C1241.53 142.357 1240.97 141.875 1240.31 141.922L1233.79 141.852L1231.83 137.197C1230.81 134.788 1227.96 132.9 1225.33 132.9H1204.11C1201.48 132.9 1198.62 134.788 1197.61 137.197L1195.64 141.852L1189.12 141.922C1188.46 141.875 1187.9 142.357 1187.85 142.998L1187.69 144.712C1187.66 145.026 1187.74 145.337 1187.95 145.586C1188.16 145.823 1188.44 145.978 1188.76 146.006L1191.86 146.316C1187.67 148.108 1185.56 150.649 1185.56 153.959V154.53C1185.55 157.502 1185.54 160.564 1187.95 162.973C1188.22 163.245 1188.53 163.505 1188.87 163.754V169.617C1188.87 170.573 1189.65 171.354 1190.61 171.354H1198.59C1199.55 171.354 1200.33 170.573 1200.33 169.617V167.29C1204.22 167.772 1208.97 167.997 1214.72 167.997C1220.46 167.997 1225.22 167.772 1229.1 167.29V169.617C1229.1 170.573 1229.88 171.354 1230.84 171.354H1238.82C1239.78 171.354 1240.56 170.573 1240.56 169.617V163.754C1240.9 163.505 1241.21 163.245 1241.48 162.973C1243.89 160.564 1243.89 157.502 1243.87 154.53V153.959Z" fill="#40C784"/>
</g>
<defs>
<clipPath id="clip0_3_61">
<path d="M1066 0H1348C1356.28 0 1363 6.71573 1363 15V282C1363 290.284 1356.28 297 1348 297H1066V0Z" fill="white"/>
</clipPath>
</defs>
</svg>
