<svg width="1363" height="164" viewBox="0 0 1363 164" fill="none" xmlns="http://www.w3.org/2000/svg">
<g clip-path="url(#clip0_296_2533)">
<path d="M0 15.5C0 7.21573 6.71573 0.5 15 0.5H37V163.5H15C6.71573 163.5 0 156.784 0 148.5V15.5Z" fill="#424242"/>
<path d="M1134 0.5H37V163.5H1134V0.5Z" fill="#F0F0F0"/>
<path d="M104.414 55.8398H107.918C107.848 56.9883 107.531 58.0078 106.969 58.8984C106.414 59.7891 105.637 60.4844 104.637 60.9844C103.645 61.4844 102.449 61.7344 101.051 61.7344C99.957 61.7344 98.9766 61.5469 98.1094 61.1719C97.2422 60.7891 96.5 60.2422 95.8828 59.5312C95.2734 58.8203 94.8086 57.9609 94.4883 56.9531C94.168 55.9453 94.0078 54.8164 94.0078 53.5664V52.3828C94.0078 51.1328 94.1719 50.0039 94.5 48.9961C94.8359 47.9805 95.3125 47.1172 95.9297 46.4062C96.5547 45.6953 97.3008 45.1484 98.168 44.7656C99.0352 44.3828 100.004 44.1914 101.074 44.1914C102.496 44.1914 103.695 44.4492 104.672 44.9648C105.656 45.4805 106.418 46.1914 106.957 47.0977C107.504 48.0039 107.832 49.0352 107.941 50.1914H104.426C104.387 49.5039 104.25 48.9219 104.016 48.4453C103.781 47.9609 103.426 47.5977 102.949 47.3555C102.48 47.1055 101.855 46.9805 101.074 46.9805C100.488 46.9805 99.9766 47.0898 99.5391 47.3086C99.1016 47.5273 98.7344 47.8594 98.4375 48.3047C98.1406 48.75 97.918 49.3125 97.7695 49.9922C97.6289 50.6641 97.5586 51.4531 97.5586 52.3594V53.5664C97.5586 54.4492 97.625 55.2266 97.7578 55.8984C97.8906 56.5625 98.0938 57.125 98.3672 57.5859C98.6484 58.0391 99.0078 58.3828 99.4453 58.6172C99.8906 58.8438 100.426 58.957 101.051 58.957C101.785 58.957 102.391 58.8398 102.867 58.6055C103.344 58.3711 103.707 58.0234 103.957 57.5625C104.215 57.1016 104.367 56.5273 104.414 55.8398ZM116.859 58.6406V52.9922C116.859 52.5859 116.793 52.2383 116.66 51.9492C116.527 51.6523 116.32 51.4219 116.039 51.2578C115.766 51.0938 115.41 51.0117 114.973 51.0117C114.598 51.0117 114.273 51.0781 114 51.2109C113.727 51.3359 113.516 51.5195 113.367 51.7617C113.219 51.9961 113.145 52.2734 113.145 52.5938H109.77C109.77 52.0547 109.895 51.543 110.145 51.0586C110.395 50.5742 110.758 50.1484 111.234 49.7812C111.711 49.4062 112.277 49.1133 112.934 48.9023C113.598 48.6914 114.34 48.5859 115.16 48.5859C116.145 48.5859 117.02 48.75 117.785 49.0781C118.551 49.4062 119.152 49.8984 119.59 50.5547C120.035 51.2109 120.258 52.0312 120.258 53.0156V58.4414C120.258 59.1367 120.301 59.707 120.387 60.1523C120.473 60.5898 120.598 60.9727 120.762 61.3008V61.5H117.352C117.188 61.1562 117.062 60.7266 116.977 60.2109C116.898 59.6875 116.859 59.1641 116.859 58.6406ZM117.305 53.7773L117.328 55.6875H115.441C114.996 55.6875 114.609 55.7383 114.281 55.8398C113.953 55.9414 113.684 56.0859 113.473 56.2734C113.262 56.4531 113.105 56.6641 113.004 56.9062C112.91 57.1484 112.863 57.4141 112.863 57.7031C112.863 57.9922 112.93 58.2539 113.062 58.4883C113.195 58.7148 113.387 58.8945 113.637 59.0273C113.887 59.1523 114.18 59.2148 114.516 59.2148C115.023 59.2148 115.465 59.1133 115.84 58.9102C116.215 58.707 116.504 58.457 116.707 58.1602C116.918 57.8633 117.027 57.582 117.035 57.3164L117.926 58.7461C117.801 59.0664 117.629 59.3984 117.41 59.7422C117.199 60.0859 116.93 60.4102 116.602 60.7148C116.273 61.0117 115.879 61.2578 115.418 61.4531C114.957 61.6406 114.41 61.7344 113.777 61.7344C112.973 61.7344 112.242 61.5742 111.586 61.2539C110.938 60.9258 110.422 60.4766 110.039 59.9062C109.664 59.3281 109.477 58.6719 109.477 57.9375C109.477 57.2734 109.602 56.6836 109.852 56.168C110.102 55.6523 110.469 55.2188 110.953 54.8672C111.445 54.5078 112.059 54.2383 112.793 54.0586C113.527 53.8711 114.379 53.7773 115.348 53.7773H117.305ZM126.234 51.5859V61.5H122.859V48.8203H126.035L126.234 51.5859ZM130.055 48.7383L129.996 51.8672C129.832 51.8438 129.633 51.8242 129.398 51.8086C129.172 51.7852 128.965 51.7734 128.777 51.7734C128.301 51.7734 127.887 51.8359 127.535 51.9609C127.191 52.0781 126.902 52.2539 126.668 52.4883C126.441 52.7227 126.27 53.0078 126.152 53.3438C126.043 53.6797 125.98 54.0625 125.965 54.4922L125.285 54.2812C125.285 53.4609 125.367 52.707 125.531 52.0195C125.695 51.3242 125.934 50.7188 126.246 50.2031C126.566 49.6875 126.957 49.2891 127.418 49.0078C127.879 48.7266 128.406 48.5859 129 48.5859C129.188 48.5859 129.379 48.6016 129.574 48.6328C129.77 48.6562 129.93 48.6914 130.055 48.7383ZM135.023 51.2578V66.375H131.648V48.8203H134.777L135.023 51.2578ZM143.051 55.0195V55.2656C143.051 56.1875 142.941 57.043 142.723 57.832C142.512 58.6211 142.199 59.3086 141.785 59.8945C141.371 60.4727 140.855 60.9258 140.238 61.2539C139.629 61.5742 138.926 61.7344 138.129 61.7344C137.355 61.7344 136.684 61.5781 136.113 61.2656C135.543 60.9531 135.062 60.5156 134.672 59.9531C134.289 59.3828 133.98 58.7227 133.746 57.9727C133.512 57.2227 133.332 56.418 133.207 55.5586V54.9141C133.332 53.9922 133.512 53.1484 133.746 52.3828C133.98 51.6094 134.289 50.9414 134.672 50.3789C135.062 49.8086 135.539 49.3672 136.102 49.0547C136.672 48.7422 137.34 48.5859 138.105 48.5859C138.91 48.5859 139.617 48.7383 140.227 49.043C140.844 49.3477 141.359 49.7852 141.773 50.3555C142.195 50.9258 142.512 51.6055 142.723 52.3945C142.941 53.1836 143.051 54.0586 143.051 55.0195ZM139.664 55.2656V55.0195C139.664 54.4805 139.617 53.9844 139.523 53.5312C139.438 53.0703 139.297 52.668 139.102 52.3242C138.914 51.9805 138.664 51.7148 138.352 51.5273C138.047 51.332 137.676 51.2344 137.238 51.2344C136.777 51.2344 136.383 51.3086 136.055 51.457C135.734 51.6055 135.473 51.8203 135.27 52.1016C135.066 52.3828 134.914 52.7188 134.812 53.1094C134.711 53.5 134.648 53.9414 134.625 54.4336V56.0625C134.664 56.6406 134.773 57.1602 134.953 57.6211C135.133 58.0742 135.41 58.4336 135.785 58.6992C136.16 58.9648 136.652 59.0977 137.262 59.0977C137.707 59.0977 138.082 59 138.387 58.8047C138.691 58.6016 138.938 58.3242 139.125 57.9727C139.32 57.6211 139.457 57.2148 139.535 56.7539C139.621 56.293 139.664 55.7969 139.664 55.2656ZM144.609 55.2891V55.043C144.609 54.1133 144.742 53.2578 145.008 52.4766C145.273 51.6875 145.66 51.0039 146.168 50.4258C146.676 49.8477 147.301 49.3984 148.043 49.0781C148.785 48.75 149.637 48.5859 150.598 48.5859C151.559 48.5859 152.414 48.75 153.164 49.0781C153.914 49.3984 154.543 49.8477 155.051 50.4258C155.566 51.0039 155.957 51.6875 156.223 52.4766C156.488 53.2578 156.621 54.1133 156.621 55.043V55.2891C156.621 56.2109 156.488 57.0664 156.223 57.8555C155.957 58.6367 155.566 59.3203 155.051 59.9062C154.543 60.4844 153.918 60.9336 153.176 61.2539C152.434 61.5742 151.582 61.7344 150.621 61.7344C149.66 61.7344 148.805 61.5742 148.055 61.2539C147.312 60.9336 146.684 60.4844 146.168 59.9062C145.66 59.3203 145.273 58.6367 145.008 57.8555C144.742 57.0664 144.609 56.2109 144.609 55.2891ZM147.984 55.043V55.2891C147.984 55.8203 148.031 56.3164 148.125 56.7773C148.219 57.2383 148.367 57.6445 148.57 57.9961C148.781 58.3398 149.055 58.6094 149.391 58.8047C149.727 59 150.137 59.0977 150.621 59.0977C151.09 59.0977 151.492 59 151.828 58.8047C152.164 58.6094 152.434 58.3398 152.637 57.9961C152.84 57.6445 152.988 57.2383 153.082 56.7773C153.184 56.3164 153.234 55.8203 153.234 55.2891V55.043C153.234 54.5273 153.184 54.043 153.082 53.5898C152.988 53.1289 152.836 52.7227 152.625 52.3711C152.422 52.0117 152.152 51.7305 151.816 51.5273C151.48 51.3242 151.074 51.2227 150.598 51.2227C150.121 51.2227 149.715 51.3242 149.379 51.5273C149.051 51.7305 148.781 52.0117 148.57 52.3711C148.367 52.7227 148.219 53.1289 148.125 53.5898C148.031 54.043 147.984 54.5273 147.984 55.043ZM158.156 55.2891V55.043C158.156 54.1133 158.289 53.2578 158.555 52.4766C158.82 51.6875 159.207 51.0039 159.715 50.4258C160.223 49.8477 160.848 49.3984 161.59 49.0781C162.332 48.75 163.184 48.5859 164.145 48.5859C165.105 48.5859 165.961 48.75 166.711 49.0781C167.461 49.3984 168.09 49.8477 168.598 50.4258C169.113 51.0039 169.504 51.6875 169.77 52.4766C170.035 53.2578 170.168 54.1133 170.168 55.043V55.2891C170.168 56.2109 170.035 57.0664 169.77 57.8555C169.504 58.6367 169.113 59.3203 168.598 59.9062C168.09 60.4844 167.465 60.9336 166.723 61.2539C165.98 61.5742 165.129 61.7344 164.168 61.7344C163.207 61.7344 162.352 61.5742 161.602 61.2539C160.859 60.9336 160.23 60.4844 159.715 59.9062C159.207 59.3203 158.82 58.6367 158.555 57.8555C158.289 57.0664 158.156 56.2109 158.156 55.2891ZM161.531 55.043V55.2891C161.531 55.8203 161.578 56.3164 161.672 56.7773C161.766 57.2383 161.914 57.6445 162.117 57.9961C162.328 58.3398 162.602 58.6094 162.938 58.8047C163.273 59 163.684 59.0977 164.168 59.0977C164.637 59.0977 165.039 59 165.375 58.8047C165.711 58.6094 165.98 58.3398 166.184 57.9961C166.387 57.6445 166.535 57.2383 166.629 56.7773C166.73 56.3164 166.781 55.8203 166.781 55.2891V55.043C166.781 54.5273 166.73 54.043 166.629 53.5898C166.535 53.1289 166.383 52.7227 166.172 52.3711C165.969 52.0117 165.699 51.7305 165.363 51.5273C165.027 51.3242 164.621 51.2227 164.145 51.2227C163.668 51.2227 163.262 51.3242 162.926 51.5273C162.598 51.7305 162.328 52.0117 162.117 52.3711C161.914 52.7227 161.766 53.1289 161.672 53.5898C161.578 54.043 161.531 54.5273 161.531 55.043ZM175.805 43.5V61.5H172.418V43.5H175.805ZM194.672 55.8398H198.176C198.105 56.9883 197.789 58.0078 197.227 58.8984C196.672 59.7891 195.895 60.4844 194.895 60.9844C193.902 61.4844 192.707 61.7344 191.309 61.7344C190.215 61.7344 189.234 61.5469 188.367 61.1719C187.5 60.7891 186.758 60.2422 186.141 59.5312C185.531 58.8203 185.066 57.9609 184.746 56.9531C184.426 55.9453 184.266 54.8164 184.266 53.5664V52.3828C184.266 51.1328 184.43 50.0039 184.758 48.9961C185.094 47.9805 185.57 47.1172 186.188 46.4062C186.812 45.6953 187.559 45.1484 188.426 44.7656C189.293 44.3828 190.262 44.1914 191.332 44.1914C192.754 44.1914 193.953 44.4492 194.93 44.9648C195.914 45.4805 196.676 46.1914 197.215 47.0977C197.762 48.0039 198.09 49.0352 198.199 50.1914H194.684C194.645 49.5039 194.508 48.9219 194.273 48.4453C194.039 47.9609 193.684 47.5977 193.207 47.3555C192.738 47.1055 192.113 46.9805 191.332 46.9805C190.746 46.9805 190.234 47.0898 189.797 47.3086C189.359 47.5273 188.992 47.8594 188.695 48.3047C188.398 48.75 188.176 49.3125 188.027 49.9922C187.887 50.6641 187.816 51.4531 187.816 52.3594V53.5664C187.816 54.4492 187.883 55.2266 188.016 55.8984C188.148 56.5625 188.352 57.125 188.625 57.5859C188.906 58.0391 189.266 58.3828 189.703 58.6172C190.148 58.8438 190.684 58.957 191.309 58.957C192.043 58.957 192.648 58.8398 193.125 58.6055C193.602 58.3711 193.965 58.0234 194.215 57.5625C194.473 57.1016 194.625 56.5273 194.672 55.8398ZM199.734 55.2891V55.043C199.734 54.1133 199.867 53.2578 200.133 52.4766C200.398 51.6875 200.785 51.0039 201.293 50.4258C201.801 49.8477 202.426 49.3984 203.168 49.0781C203.91 48.75 204.762 48.5859 205.723 48.5859C206.684 48.5859 207.539 48.75 208.289 49.0781C209.039 49.3984 209.668 49.8477 210.176 50.4258C210.691 51.0039 211.082 51.6875 211.348 52.4766C211.613 53.2578 211.746 54.1133 211.746 55.043V55.2891C211.746 56.2109 211.613 57.0664 211.348 57.8555C211.082 58.6367 210.691 59.3203 210.176 59.9062C209.668 60.4844 209.043 60.9336 208.301 61.2539C207.559 61.5742 206.707 61.7344 205.746 61.7344C204.785 61.7344 203.93 61.5742 203.18 61.2539C202.438 60.9336 201.809 60.4844 201.293 59.9062C200.785 59.3203 200.398 58.6367 200.133 57.8555C199.867 57.0664 199.734 56.2109 199.734 55.2891ZM203.109 55.043V55.2891C203.109 55.8203 203.156 56.3164 203.25 56.7773C203.344 57.2383 203.492 57.6445 203.695 57.9961C203.906 58.3398 204.18 58.6094 204.516 58.8047C204.852 59 205.262 59.0977 205.746 59.0977C206.215 59.0977 206.617 59 206.953 58.8047C207.289 58.6094 207.559 58.3398 207.762 57.9961C207.965 57.6445 208.113 57.2383 208.207 56.7773C208.309 56.3164 208.359 55.8203 208.359 55.2891V55.043C208.359 54.5273 208.309 54.043 208.207 53.5898C208.113 53.1289 207.961 52.7227 207.75 52.3711C207.547 52.0117 207.277 51.7305 206.941 51.5273C206.605 51.3242 206.199 51.2227 205.723 51.2227C205.246 51.2227 204.84 51.3242 204.504 51.5273C204.176 51.7305 203.906 52.0117 203.695 52.3711C203.492 52.7227 203.344 53.1289 203.25 53.5898C203.156 54.043 203.109 54.5273 203.109 55.043ZM217.125 51.5273V61.5H213.75V48.8203H216.914L217.125 51.5273ZM216.633 54.7148H215.719C215.719 53.7773 215.84 52.9336 216.082 52.1836C216.324 51.4258 216.664 50.7812 217.102 50.25C217.539 49.7109 218.059 49.3008 218.66 49.0195C219.27 48.7305 219.949 48.5859 220.699 48.5859C221.293 48.5859 221.836 48.6719 222.328 48.8438C222.82 49.0156 223.242 49.2891 223.594 49.6641C223.953 50.0391 224.227 50.5352 224.414 51.1523C224.609 51.7695 224.707 52.5234 224.707 53.4141V61.5H221.309V53.4023C221.309 52.8398 221.23 52.4023 221.074 52.0898C220.918 51.7773 220.688 51.5586 220.383 51.4336C220.086 51.3008 219.719 51.2344 219.281 51.2344C218.828 51.2344 218.434 51.3242 218.098 51.5039C217.77 51.6836 217.496 51.9336 217.277 52.2539C217.066 52.5664 216.906 52.9336 216.797 53.3555C216.688 53.7773 216.633 54.2305 216.633 54.7148ZM230.578 51.5273V61.5H227.203V48.8203H230.367L230.578 51.5273ZM230.086 54.7148H229.172C229.172 53.7773 229.293 52.9336 229.535 52.1836C229.777 51.4258 230.117 50.7812 230.555 50.25C230.992 49.7109 231.512 49.3008 232.113 49.0195C232.723 48.7305 233.402 48.5859 234.152 48.5859C234.746 48.5859 235.289 48.6719 235.781 48.8438C236.273 49.0156 236.695 49.2891 237.047 49.6641C237.406 50.0391 237.68 50.5352 237.867 51.1523C238.062 51.7695 238.16 52.5234 238.16 53.4141V61.5H234.762V53.4023C234.762 52.8398 234.684 52.4023 234.527 52.0898C234.371 51.7773 234.141 51.5586 233.836 51.4336C233.539 51.3008 233.172 51.2344 232.734 51.2344C232.281 51.2344 231.887 51.3242 231.551 51.5039C231.223 51.6836 230.949 51.9336 230.73 52.2539C230.52 52.5664 230.359 52.9336 230.25 53.3555C230.141 53.7773 230.086 54.2305 230.086 54.7148ZM246.562 61.7344C245.578 61.7344 244.695 61.5781 243.914 61.2656C243.133 60.9453 242.469 60.5039 241.922 59.9414C241.383 59.3789 240.969 58.7266 240.68 57.9844C240.391 57.2344 240.246 56.4375 240.246 55.5938V55.125C240.246 54.1641 240.383 53.2852 240.656 52.4883C240.93 51.6914 241.32 51 241.828 50.4141C242.344 49.8281 242.969 49.3789 243.703 49.0664C244.438 48.7461 245.266 48.5859 246.188 48.5859C247.086 48.5859 247.883 48.7344 248.578 49.0312C249.273 49.3281 249.855 49.75 250.324 50.2969C250.801 50.8438 251.16 51.5 251.402 52.2656C251.645 53.0234 251.766 53.8672 251.766 54.7969V56.2031H241.688V53.9531H248.449V53.6953C248.449 53.2266 248.363 52.8086 248.191 52.4414C248.027 52.0664 247.777 51.7695 247.441 51.5508C247.105 51.332 246.676 51.2227 246.152 51.2227C245.707 51.2227 245.324 51.3203 245.004 51.5156C244.684 51.7109 244.422 51.9844 244.219 52.3359C244.023 52.6875 243.875 53.1016 243.773 53.5781C243.68 54.0469 243.633 54.5625 243.633 55.125V55.5938C243.633 56.1016 243.703 56.5703 243.844 57C243.992 57.4297 244.199 57.8008 244.465 58.1133C244.738 58.4258 245.066 58.668 245.449 58.8398C245.84 59.0117 246.281 59.0977 246.773 59.0977C247.383 59.0977 247.949 58.9805 248.473 58.7461C249.004 58.5039 249.461 58.1406 249.844 57.6562L251.484 59.4375C251.219 59.8203 250.855 60.1875 250.395 60.5391C249.941 60.8906 249.395 61.1797 248.754 61.4062C248.113 61.625 247.383 61.7344 246.562 61.7344ZM258.926 59.0977C259.34 59.0977 259.707 59.0195 260.027 58.8633C260.348 58.6992 260.598 58.4727 260.777 58.1836C260.965 57.8867 261.062 57.5391 261.07 57.1406H264.246C264.238 58.0312 264 58.8242 263.531 59.5195C263.062 60.207 262.434 60.75 261.645 61.1484C260.855 61.5391 259.973 61.7344 258.996 61.7344C258.012 61.7344 257.152 61.5703 256.418 61.2422C255.691 60.9141 255.086 60.4609 254.602 59.8828C254.117 59.2969 253.754 58.6172 253.512 57.8438C253.27 57.0625 253.148 56.2266 253.148 55.3359V54.9961C253.148 54.0977 253.27 53.2617 253.512 52.4883C253.754 51.707 254.117 51.0273 254.602 50.4492C255.086 49.8633 255.691 49.4062 256.418 49.0781C257.145 48.75 257.996 48.5859 258.973 48.5859C260.012 48.5859 260.922 48.7852 261.703 49.1836C262.492 49.582 263.109 50.1523 263.555 50.8945C264.008 51.6289 264.238 52.5 264.246 53.5078H261.07C261.062 53.0859 260.973 52.7031 260.801 52.3594C260.637 52.0156 260.395 51.7422 260.074 51.5391C259.762 51.3281 259.375 51.2227 258.914 51.2227C258.422 51.2227 258.02 51.3281 257.707 51.5391C257.395 51.7422 257.152 52.0234 256.98 52.3828C256.809 52.7344 256.688 53.1367 256.617 53.5898C256.555 54.0352 256.523 54.5039 256.523 54.9961V55.3359C256.523 55.8281 256.555 56.3008 256.617 56.7539C256.68 57.207 256.797 57.6094 256.969 57.9609C257.148 58.3125 257.395 58.5898 257.707 58.793C258.02 58.9961 258.426 59.0977 258.926 59.0977ZM272.414 48.8203V51.2109H265.031V48.8203H272.414ZM266.859 45.6914H270.234V57.6797C270.234 58.0469 270.281 58.3281 270.375 58.5234C270.477 58.7188 270.625 58.8555 270.82 58.9336C271.016 59.0039 271.262 59.0391 271.559 59.0391C271.77 59.0391 271.957 59.0312 272.121 59.0156C272.293 58.9922 272.438 58.9688 272.555 58.9453L272.566 61.4297C272.277 61.5234 271.965 61.5977 271.629 61.6523C271.293 61.707 270.922 61.7344 270.516 61.7344C269.773 61.7344 269.125 61.6133 268.57 61.3711C268.023 61.1211 267.602 60.7227 267.305 60.1758C267.008 59.6289 266.859 58.9102 266.859 58.0195V45.6914Z" fill="#888888"/>
<path d="M104.344 85.375V119.5H96.1406V85.375H104.344ZM117.727 99.5078V119.5H109.828V94.1406H117.234L117.727 99.5078ZM116.766 105.953L114.961 106C114.961 104.219 115.172 102.578 115.594 101.078C116.016 99.5781 116.641 98.2734 117.469 97.1641C118.297 96.0547 119.312 95.1953 120.516 94.5859C121.734 93.9766 123.141 93.6719 124.734 93.6719C125.844 93.6719 126.852 93.8438 127.758 94.1875C128.664 94.5156 129.445 95.0391 130.102 95.7578C130.758 96.4609 131.258 97.3828 131.602 98.5234C131.961 99.6484 132.141 101 132.141 102.578V119.5H124.242V103.586C124.242 102.508 124.117 101.695 123.867 101.148C123.633 100.602 123.289 100.234 122.836 100.047C122.383 99.8594 121.828 99.7656 121.172 99.7656C120.484 99.7656 119.867 99.9219 119.32 100.234C118.773 100.547 118.305 100.984 117.914 101.547C117.539 102.094 117.25 102.742 117.047 103.492C116.859 104.242 116.766 105.062 116.766 105.953ZM131.25 105.953L129.047 106C129.047 104.219 129.242 102.578 129.633 101.078C130.039 99.5781 130.641 98.2734 131.438 97.1641C132.25 96.0547 133.258 95.1953 134.461 94.5859C135.664 93.9766 137.062 93.6719 138.656 93.6719C139.812 93.6719 140.875 93.8438 141.844 94.1875C142.812 94.5312 143.648 95.0859 144.352 95.8516C145.055 96.6172 145.602 97.6328 145.992 98.8984C146.383 100.148 146.578 101.695 146.578 103.539V119.5H138.656V103.539C138.656 102.492 138.531 101.703 138.281 101.172C138.047 100.625 137.703 100.258 137.25 100.07C136.797 99.8672 136.258 99.7656 135.633 99.7656C134.883 99.7656 134.234 99.9219 133.688 100.234C133.141 100.547 132.68 100.984 132.305 101.547C131.945 102.094 131.68 102.742 131.508 103.492C131.336 104.242 131.25 105.062 131.25 105.953ZM159.07 99.0156V129.25H151.172V94.1406H158.531L159.07 99.0156ZM174.633 106.516V107.008C174.633 108.852 174.422 110.562 174 112.141C173.578 113.719 172.953 115.094 172.125 116.266C171.297 117.438 170.266 118.352 169.031 119.008C167.812 119.648 166.398 119.969 164.789 119.969C163.273 119.969 161.969 119.633 160.875 118.961C159.781 118.289 158.867 117.359 158.133 116.172C157.398 114.984 156.805 113.625 156.352 112.094C155.898 110.562 155.539 108.945 155.273 107.242V106.609C155.539 104.781 155.898 103.086 156.352 101.523C156.805 99.9453 157.398 98.5703 158.133 97.3984C158.867 96.2266 159.773 95.3125 160.852 94.6562C161.945 94 163.25 93.6719 164.766 93.6719C166.375 93.6719 167.789 93.9766 169.008 94.5859C170.242 95.1953 171.273 96.0703 172.102 97.2109C172.945 98.3359 173.578 99.6875 174 101.266C174.422 102.844 174.633 104.594 174.633 106.516ZM166.734 107.008V106.516C166.734 105.531 166.664 104.633 166.523 103.82C166.383 102.992 166.156 102.273 165.844 101.664C165.547 101.055 165.148 100.586 164.648 100.258C164.148 99.9297 163.531 99.7656 162.797 99.7656C161.953 99.7656 161.242 99.8984 160.664 100.164C160.102 100.414 159.648 100.805 159.305 101.336C158.977 101.852 158.742 102.5 158.602 103.281C158.477 104.047 158.422 104.945 158.438 105.977V107.898C158.406 109.086 158.523 110.133 158.789 111.039C159.055 111.93 159.516 112.625 160.172 113.125C160.828 113.625 161.719 113.875 162.844 113.875C163.594 113.875 164.219 113.703 164.719 113.359C165.219 113 165.617 112.508 165.914 111.883C166.211 111.242 166.422 110.508 166.547 109.68C166.672 108.852 166.734 107.961 166.734 107.008ZM186.492 83.5V119.5H178.57V83.5H186.492ZM203.648 119.969C201.586 119.969 199.742 119.648 198.117 119.008C196.492 118.352 195.117 117.453 193.992 116.312C192.883 115.172 192.031 113.859 191.438 112.375C190.859 110.891 190.57 109.32 190.57 107.664V106.773C190.57 104.914 190.828 103.195 191.344 101.617C191.859 100.023 192.625 98.6328 193.641 97.4453C194.656 96.2578 195.93 95.3359 197.461 94.6797C198.992 94.0078 200.773 93.6719 202.805 93.6719C204.602 93.6719 206.211 93.9609 207.633 94.5391C209.055 95.1172 210.258 95.9453 211.242 97.0234C212.242 98.1016 213 99.4062 213.516 100.938C214.047 102.469 214.312 104.188 214.312 106.094V109.305H193.594V104.359H206.602V103.75C206.617 102.906 206.469 102.188 206.156 101.594C205.859 101 205.422 100.547 204.844 100.234C204.266 99.9219 203.562 99.7656 202.734 99.7656C201.875 99.7656 201.164 99.9531 200.602 100.328C200.055 100.703 199.625 101.219 199.312 101.875C199.016 102.516 198.805 103.258 198.68 104.102C198.555 104.945 198.492 105.836 198.492 106.773V107.664C198.492 108.602 198.617 109.453 198.867 110.219C199.133 110.984 199.508 111.641 199.992 112.188C200.492 112.719 201.086 113.133 201.773 113.43C202.477 113.727 203.273 113.875 204.164 113.875C205.242 113.875 206.305 113.672 207.352 113.266C208.398 112.859 209.297 112.188 210.047 111.25L213.633 115.516C213.117 116.25 212.383 116.961 211.43 117.648C210.492 118.336 209.367 118.898 208.055 119.336C206.742 119.758 205.273 119.969 203.648 119.969ZM225.492 99.5078V119.5H217.594V94.1406H225L225.492 99.5078ZM224.531 105.953L222.727 106C222.727 104.219 222.938 102.578 223.359 101.078C223.781 99.5781 224.406 98.2734 225.234 97.1641C226.062 96.0547 227.078 95.1953 228.281 94.5859C229.5 93.9766 230.906 93.6719 232.5 93.6719C233.609 93.6719 234.617 93.8438 235.523 94.1875C236.43 94.5156 237.211 95.0391 237.867 95.7578C238.523 96.4609 239.023 97.3828 239.367 98.5234C239.727 99.6484 239.906 101 239.906 102.578V119.5H232.008V103.586C232.008 102.508 231.883 101.695 231.633 101.148C231.398 100.602 231.055 100.234 230.602 100.047C230.148 99.8594 229.594 99.7656 228.938 99.7656C228.25 99.7656 227.633 99.9219 227.086 100.234C226.539 100.547 226.07 100.984 225.68 101.547C225.305 102.094 225.016 102.742 224.812 103.492C224.625 104.242 224.531 105.062 224.531 105.953ZM239.016 105.953L236.812 106C236.812 104.219 237.008 102.578 237.398 101.078C237.805 99.5781 238.406 98.2734 239.203 97.1641C240.016 96.0547 241.023 95.1953 242.227 94.5859C243.43 93.9766 244.828 93.6719 246.422 93.6719C247.578 93.6719 248.641 93.8438 249.609 94.1875C250.578 94.5312 251.414 95.0859 252.117 95.8516C252.82 96.6172 253.367 97.6328 253.758 98.8984C254.148 100.148 254.344 101.695 254.344 103.539V119.5H246.422V103.539C246.422 102.492 246.297 101.703 246.047 101.172C245.812 100.625 245.469 100.258 245.016 100.07C244.562 99.8672 244.023 99.7656 243.398 99.7656C242.648 99.7656 242 99.9219 241.453 100.234C240.906 100.547 240.445 100.984 240.07 101.547C239.711 102.094 239.445 102.742 239.273 103.492C239.102 104.242 239.016 105.062 239.016 105.953ZM271.148 119.969C269.086 119.969 267.242 119.648 265.617 119.008C263.992 118.352 262.617 117.453 261.492 116.312C260.383 115.172 259.531 113.859 258.938 112.375C258.359 110.891 258.07 109.32 258.07 107.664V106.773C258.07 104.914 258.328 103.195 258.844 101.617C259.359 100.023 260.125 98.6328 261.141 97.4453C262.156 96.2578 263.43 95.3359 264.961 94.6797C266.492 94.0078 268.273 93.6719 270.305 93.6719C272.102 93.6719 273.711 93.9609 275.133 94.5391C276.555 95.1172 277.758 95.9453 278.742 97.0234C279.742 98.1016 280.5 99.4062 281.016 100.938C281.547 102.469 281.812 104.188 281.812 106.094V109.305H261.094V104.359H274.102V103.75C274.117 102.906 273.969 102.188 273.656 101.594C273.359 101 272.922 100.547 272.344 100.234C271.766 99.9219 271.062 99.7656 270.234 99.7656C269.375 99.7656 268.664 99.9531 268.102 100.328C267.555 100.703 267.125 101.219 266.812 101.875C266.516 102.516 266.305 103.258 266.18 104.102C266.055 104.945 265.992 105.836 265.992 106.773V107.664C265.992 108.602 266.117 109.453 266.367 110.219C266.633 110.984 267.008 111.641 267.492 112.188C267.992 112.719 268.586 113.133 269.273 113.43C269.977 113.727 270.773 113.875 271.664 113.875C272.742 113.875 273.805 113.672 274.852 113.266C275.898 112.859 276.797 112.188 277.547 111.25L281.133 115.516C280.617 116.25 279.883 116.961 278.93 117.648C277.992 118.336 276.867 118.898 275.555 119.336C274.242 119.758 272.773 119.969 271.148 119.969ZM292.781 99.5547V119.5H284.883V94.1406H292.289L292.781 99.5547ZM291.844 105.953L289.992 106C289.992 104.062 290.227 102.336 290.695 100.82C291.164 99.2891 291.828 97.9922 292.688 96.9297C293.547 95.8672 294.57 95.0625 295.758 94.5156C296.961 93.9531 298.297 93.6719 299.766 93.6719C300.938 93.6719 302.008 93.8438 302.977 94.1875C303.961 94.5312 304.805 95.0859 305.508 95.8516C306.227 96.6172 306.773 97.6328 307.148 98.8984C307.539 100.148 307.734 101.695 307.734 103.539V119.5H299.789V103.516C299.789 102.5 299.648 101.727 299.367 101.195C299.086 100.648 298.68 100.273 298.148 100.07C297.617 99.8672 296.969 99.7656 296.203 99.7656C295.391 99.7656 294.703 99.9219 294.141 100.234C293.578 100.547 293.125 100.984 292.781 101.547C292.453 102.094 292.211 102.742 292.055 103.492C291.914 104.242 291.844 105.062 291.844 105.953ZM325.477 94.1406V99.625H310.195V94.1406H325.477ZM313.406 87.8359H321.305V111.227C321.305 111.898 321.383 112.422 321.539 112.797C321.695 113.156 321.961 113.414 322.336 113.57C322.727 113.711 323.242 113.781 323.883 113.781C324.336 113.781 324.711 113.773 325.008 113.758C325.305 113.727 325.586 113.688 325.852 113.641V119.289C325.18 119.508 324.477 119.672 323.742 119.781C323.008 119.906 322.227 119.969 321.398 119.969C319.711 119.969 318.266 119.703 317.062 119.172C315.875 118.641 314.969 117.805 314.344 116.664C313.719 115.523 313.406 114.039 313.406 112.211V87.8359ZM341.789 113.125V102.672C341.789 101.953 341.688 101.336 341.484 100.82C341.281 100.305 340.961 99.9062 340.523 99.625C340.086 99.3281 339.5 99.1797 338.766 99.1797C338.172 99.1797 337.664 99.2812 337.242 99.4844C336.82 99.6875 336.5 99.9922 336.281 100.398C336.062 100.805 335.953 101.32 335.953 101.945H328.055C328.055 100.773 328.312 99.6875 328.828 98.6875C329.359 97.6719 330.109 96.7891 331.078 96.0391C332.062 95.2891 333.234 94.7109 334.594 94.3047C335.969 93.8828 337.5 93.6719 339.188 93.6719C341.203 93.6719 343 94.0078 344.578 94.6797C346.172 95.3516 347.43 96.3594 348.352 97.7031C349.273 99.0312 349.734 100.703 349.734 102.719V113.102C349.734 114.758 349.828 116.016 350.016 116.875C350.203 117.719 350.469 118.461 350.812 119.102V119.5H342.891C342.516 118.719 342.234 117.766 342.047 116.641C341.875 115.5 341.789 114.328 341.789 113.125ZM342.75 104.008L342.797 108.227H339.305C338.57 108.227 337.945 108.328 337.43 108.531C336.93 108.734 336.523 109.016 336.211 109.375C335.914 109.719 335.695 110.109 335.555 110.547C335.43 110.984 335.367 111.445 335.367 111.93C335.367 112.398 335.477 112.82 335.695 113.195C335.93 113.555 336.242 113.836 336.633 114.039C337.023 114.242 337.461 114.344 337.945 114.344C338.82 114.344 339.562 114.18 340.172 113.852C340.797 113.508 341.273 113.094 341.602 112.609C341.93 112.125 342.094 111.672 342.094 111.25L343.828 114.484C343.516 115.109 343.156 115.742 342.75 116.383C342.359 117.023 341.867 117.617 341.273 118.164C340.695 118.695 339.984 119.133 339.141 119.477C338.297 119.805 337.273 119.969 336.07 119.969C334.508 119.969 333.07 119.648 331.758 119.008C330.461 118.367 329.422 117.477 328.641 116.336C327.859 115.18 327.469 113.852 327.469 112.352C327.469 111.039 327.703 109.867 328.172 108.836C328.656 107.805 329.383 106.93 330.352 106.211C331.32 105.492 332.555 104.945 334.055 104.57C335.555 104.195 337.32 104.008 339.352 104.008H342.75ZM367.477 94.1406V99.625H352.195V94.1406H367.477ZM355.406 87.8359H363.305V111.227C363.305 111.898 363.383 112.422 363.539 112.797C363.695 113.156 363.961 113.414 364.336 113.57C364.727 113.711 365.242 113.781 365.883 113.781C366.336 113.781 366.711 113.773 367.008 113.758C367.305 113.727 367.586 113.688 367.852 113.641V119.289C367.18 119.508 366.477 119.672 365.742 119.781C365.008 119.906 364.227 119.969 363.398 119.969C361.711 119.969 360.266 119.703 359.062 119.172C357.875 118.641 356.969 117.805 356.344 116.664C355.719 115.523 355.406 114.039 355.406 112.211V87.8359ZM378.961 94.1406V119.5H371.039V94.1406H378.961ZM370.57 87.6016C370.57 86.4766 370.977 85.5547 371.789 84.8359C372.602 84.1172 373.656 83.7578 374.953 83.7578C376.25 83.7578 377.305 84.1172 378.117 84.8359C378.93 85.5547 379.336 86.4766 379.336 87.6016C379.336 88.7266 378.93 89.6484 378.117 90.3672C377.305 91.0859 376.25 91.4453 374.953 91.4453C373.656 91.4453 372.602 91.0859 371.789 90.3672C370.977 89.6484 370.57 88.7266 370.57 87.6016ZM382.852 107.078V106.586C382.852 104.727 383.117 103.016 383.648 101.453C384.18 99.875 384.961 98.5078 385.992 97.3516C387.023 96.1953 388.297 95.2969 389.812 94.6562C391.328 94 393.078 93.6719 395.062 93.6719C397.062 93.6719 398.82 94 400.336 94.6562C401.867 95.2969 403.148 96.1953 404.18 97.3516C405.211 98.5078 405.992 99.875 406.523 101.453C407.055 103.016 407.32 104.727 407.32 106.586V107.078C407.32 108.922 407.055 110.633 406.523 112.211C405.992 113.773 405.211 115.141 404.18 116.312C403.148 117.469 401.875 118.367 400.359 119.008C398.844 119.648 397.094 119.969 395.109 119.969C393.125 119.969 391.367 119.648 389.836 119.008C388.305 118.367 387.023 117.469 385.992 116.312C384.961 115.141 384.18 113.773 383.648 112.211C383.117 110.633 382.852 108.922 382.852 107.078ZM390.75 106.586V107.078C390.75 108.031 390.82 108.922 390.961 109.75C391.102 110.578 391.336 111.305 391.664 111.93C391.992 112.539 392.438 113.016 393 113.359C393.562 113.703 394.266 113.875 395.109 113.875C395.938 113.875 396.625 113.703 397.172 113.359C397.734 113.016 398.18 112.539 398.508 111.93C398.836 111.305 399.07 110.578 399.211 109.75C399.352 108.922 399.422 108.031 399.422 107.078V106.586C399.422 105.664 399.352 104.797 399.211 103.984C399.07 103.156 398.836 102.43 398.508 101.805C398.18 101.164 397.734 100.664 397.172 100.305C396.609 99.9453 395.906 99.7656 395.062 99.7656C394.234 99.7656 393.539 99.9453 392.977 100.305C392.43 100.664 391.992 101.164 391.664 101.805C391.336 102.43 391.102 103.156 390.961 103.984C390.82 104.797 390.75 105.664 390.75 106.586ZM418.594 99.5547V119.5H410.695V94.1406H418.102L418.594 99.5547ZM417.656 105.953L415.805 106C415.805 104.062 416.039 102.336 416.508 100.82C416.977 99.2891 417.641 97.9922 418.5 96.9297C419.359 95.8672 420.383 95.0625 421.57 94.5156C422.773 93.9531 424.109 93.6719 425.578 93.6719C426.75 93.6719 427.82 93.8438 428.789 94.1875C429.773 94.5312 430.617 95.0859 431.32 95.8516C432.039 96.6172 432.586 97.6328 432.961 98.8984C433.352 100.148 433.547 101.695 433.547 103.539V119.5H425.602V103.516C425.602 102.5 425.461 101.727 425.18 101.195C424.898 100.648 424.492 100.273 423.961 100.07C423.43 99.8672 422.781 99.7656 422.016 99.7656C421.203 99.7656 420.516 99.9219 419.953 100.234C419.391 100.547 418.938 100.984 418.594 101.547C418.266 102.094 418.023 102.742 417.867 103.492C417.727 104.242 417.656 105.062 417.656 105.953Z" fill="black"/>
<path d="M1134 0.5H1348C1356.28 0.5 1363 7.21573 1363 15.5V148.5C1363 156.784 1356.28 163.5 1348 163.5H1134V0.5Z" fill="#40C784"/>
<path d="M1280.07 48H1216.93L1214.5 50.4286V113.571L1216.93 116H1280.07L1282.5 113.571V50.4286L1280.07 48ZM1277.64 111.143H1233.93V101.429H1245.1C1246.56 104.343 1249.96 106.286 1253.36 106.286C1258.7 106.286 1263.07 101.914 1263.07 96.5714C1263.07 91.2286 1258.7 86.8571 1253.36 86.8571C1248.01 86.8571 1243.64 91.2286 1243.64 96.5714H1229.07V111.143H1219.36V52.8571H1229.07V64.0286C1226.16 65.4857 1224.21 68.8857 1224.21 72.2857C1224.21 77.6286 1228.59 82 1233.93 82C1239.27 82 1243.64 77.6286 1243.64 72.2857H1253.36C1253.36 77.6286 1257.73 82 1263.07 82C1268.41 82 1272.79 77.6286 1272.79 72.2857C1272.79 66.9429 1268.41 62.5714 1263.07 62.5714C1259.67 62.5714 1256.27 64.5143 1254.81 67.4286H1242.19C1240.73 64.5143 1237.33 62.5714 1233.93 62.5714V52.8571H1277.64V111.143ZM1248.5 96.5714C1248.5 93.6571 1250.44 91.7143 1253.36 91.7143C1256.27 91.7143 1258.21 93.6571 1258.21 96.5714C1258.21 99.4857 1256.27 101.429 1253.36 101.429C1250.44 101.429 1248.5 99.4857 1248.5 96.5714ZM1233.93 67.4286C1236.84 67.4286 1238.79 69.3714 1238.79 72.2857C1238.79 75.2 1236.84 77.1429 1233.93 77.1429C1231.01 77.1429 1229.07 75.2 1229.07 72.2857C1229.07 69.3714 1231.01 67.4286 1233.93 67.4286ZM1263.07 67.4286C1265.99 67.4286 1267.93 69.3714 1267.93 72.2857C1267.93 75.2 1265.99 77.1429 1263.07 77.1429C1260.16 77.1429 1258.21 75.2 1258.21 72.2857C1258.21 69.3714 1260.16 67.4286 1263.07 67.4286Z" fill="white"/>
</g>
<defs>
<clipPath id="clip0_296_2533">
<rect width="1363" height="163" fill="white" transform="translate(0 0.5)"/>
</clipPath>
</defs>
</svg>
