<svg width="1363" height="164" viewBox="0 0 1363 164" fill="none" xmlns="http://www.w3.org/2000/svg">
<g clip-path="url(#clip0_296_2476)">
<path d="M0 15.5C0 7.21573 6.71573 0.5 15 0.5H37V163.5H15C6.71573 163.5 0 156.784 0 148.5V15.5Z" fill="#424242"/>
<path d="M1134 0.5H37V163.5H1134V0.5Z" fill="#F0F0F0"/>
<path d="M104.414 55.8398H107.918C107.848 56.9883 107.531 58.0078 106.969 58.8984C106.414 59.7891 105.637 60.4844 104.637 60.9844C103.645 61.4844 102.449 61.7344 101.051 61.7344C99.957 61.7344 98.9766 61.5469 98.1094 61.1719C97.2422 60.7891 96.5 60.2422 95.8828 59.5312C95.2734 58.8203 94.8086 57.9609 94.4883 56.9531C94.168 55.9453 94.0078 54.8164 94.0078 53.5664V52.3828C94.0078 51.1328 94.1719 50.0039 94.5 48.9961C94.8359 47.9805 95.3125 47.1172 95.9297 46.4062C96.5547 45.6953 97.3008 45.1484 98.168 44.7656C99.0352 44.3828 100.004 44.1914 101.074 44.1914C102.496 44.1914 103.695 44.4492 104.672 44.9648C105.656 45.4805 106.418 46.1914 106.957 47.0977C107.504 48.0039 107.832 49.0352 107.941 50.1914H104.426C104.387 49.5039 104.25 48.9219 104.016 48.4453C103.781 47.9609 103.426 47.5977 102.949 47.3555C102.48 47.1055 101.855 46.9805 101.074 46.9805C100.488 46.9805 99.9766 47.0898 99.5391 47.3086C99.1016 47.5273 98.7344 47.8594 98.4375 48.3047C98.1406 48.75 97.918 49.3125 97.7695 49.9922C97.6289 50.6641 97.5586 51.4531 97.5586 52.3594V53.5664C97.5586 54.4492 97.625 55.2266 97.7578 55.8984C97.8906 56.5625 98.0938 57.125 98.3672 57.5859C98.6484 58.0391 99.0078 58.3828 99.4453 58.6172C99.8906 58.8438 100.426 58.957 101.051 58.957C101.785 58.957 102.391 58.8398 102.867 58.6055C103.344 58.3711 103.707 58.0234 103.957 57.5625C104.215 57.1016 104.367 56.5273 104.414 55.8398ZM116.859 58.6406V52.9922C116.859 52.5859 116.793 52.2383 116.66 51.9492C116.527 51.6523 116.32 51.4219 116.039 51.2578C115.766 51.0938 115.41 51.0117 114.973 51.0117C114.598 51.0117 114.273 51.0781 114 51.2109C113.727 51.3359 113.516 51.5195 113.367 51.7617C113.219 51.9961 113.145 52.2734 113.145 52.5938H109.77C109.77 52.0547 109.895 51.543 110.145 51.0586C110.395 50.5742 110.758 50.1484 111.234 49.7812C111.711 49.4062 112.277 49.1133 112.934 48.9023C113.598 48.6914 114.34 48.5859 115.16 48.5859C116.145 48.5859 117.02 48.75 117.785 49.0781C118.551 49.4062 119.152 49.8984 119.59 50.5547C120.035 51.2109 120.258 52.0312 120.258 53.0156V58.4414C120.258 59.1367 120.301 59.707 120.387 60.1523C120.473 60.5898 120.598 60.9727 120.762 61.3008V61.5H117.352C117.188 61.1562 117.062 60.7266 116.977 60.2109C116.898 59.6875 116.859 59.1641 116.859 58.6406ZM117.305 53.7773L117.328 55.6875H115.441C114.996 55.6875 114.609 55.7383 114.281 55.8398C113.953 55.9414 113.684 56.0859 113.473 56.2734C113.262 56.4531 113.105 56.6641 113.004 56.9062C112.91 57.1484 112.863 57.4141 112.863 57.7031C112.863 57.9922 112.93 58.2539 113.062 58.4883C113.195 58.7148 113.387 58.8945 113.637 59.0273C113.887 59.1523 114.18 59.2148 114.516 59.2148C115.023 59.2148 115.465 59.1133 115.84 58.9102C116.215 58.707 116.504 58.457 116.707 58.1602C116.918 57.8633 117.027 57.582 117.035 57.3164L117.926 58.7461C117.801 59.0664 117.629 59.3984 117.41 59.7422C117.199 60.0859 116.93 60.4102 116.602 60.7148C116.273 61.0117 115.879 61.2578 115.418 61.4531C114.957 61.6406 114.41 61.7344 113.777 61.7344C112.973 61.7344 112.242 61.5742 111.586 61.2539C110.938 60.9258 110.422 60.4766 110.039 59.9062C109.664 59.3281 109.477 58.6719 109.477 57.9375C109.477 57.2734 109.602 56.6836 109.852 56.168C110.102 55.6523 110.469 55.2188 110.953 54.8672C111.445 54.5078 112.059 54.2383 112.793 54.0586C113.527 53.8711 114.379 53.7773 115.348 53.7773H117.305ZM126.234 51.5859V61.5H122.859V48.8203H126.035L126.234 51.5859ZM130.055 48.7383L129.996 51.8672C129.832 51.8438 129.633 51.8242 129.398 51.8086C129.172 51.7852 128.965 51.7734 128.777 51.7734C128.301 51.7734 127.887 51.8359 127.535 51.9609C127.191 52.0781 126.902 52.2539 126.668 52.4883C126.441 52.7227 126.27 53.0078 126.152 53.3438C126.043 53.6797 125.98 54.0625 125.965 54.4922L125.285 54.2812C125.285 53.4609 125.367 52.707 125.531 52.0195C125.695 51.3242 125.934 50.7188 126.246 50.2031C126.566 49.6875 126.957 49.2891 127.418 49.0078C127.879 48.7266 128.406 48.5859 129 48.5859C129.188 48.5859 129.379 48.6016 129.574 48.6328C129.77 48.6562 129.93 48.6914 130.055 48.7383ZM135.023 51.2578V66.375H131.648V48.8203H134.777L135.023 51.2578ZM143.051 55.0195V55.2656C143.051 56.1875 142.941 57.043 142.723 57.832C142.512 58.6211 142.199 59.3086 141.785 59.8945C141.371 60.4727 140.855 60.9258 140.238 61.2539C139.629 61.5742 138.926 61.7344 138.129 61.7344C137.355 61.7344 136.684 61.5781 136.113 61.2656C135.543 60.9531 135.062 60.5156 134.672 59.9531C134.289 59.3828 133.98 58.7227 133.746 57.9727C133.512 57.2227 133.332 56.418 133.207 55.5586V54.9141C133.332 53.9922 133.512 53.1484 133.746 52.3828C133.98 51.6094 134.289 50.9414 134.672 50.3789C135.062 49.8086 135.539 49.3672 136.102 49.0547C136.672 48.7422 137.34 48.5859 138.105 48.5859C138.91 48.5859 139.617 48.7383 140.227 49.043C140.844 49.3477 141.359 49.7852 141.773 50.3555C142.195 50.9258 142.512 51.6055 142.723 52.3945C142.941 53.1836 143.051 54.0586 143.051 55.0195ZM139.664 55.2656V55.0195C139.664 54.4805 139.617 53.9844 139.523 53.5312C139.438 53.0703 139.297 52.668 139.102 52.3242C138.914 51.9805 138.664 51.7148 138.352 51.5273C138.047 51.332 137.676 51.2344 137.238 51.2344C136.777 51.2344 136.383 51.3086 136.055 51.457C135.734 51.6055 135.473 51.8203 135.27 52.1016C135.066 52.3828 134.914 52.7188 134.812 53.1094C134.711 53.5 134.648 53.9414 134.625 54.4336V56.0625C134.664 56.6406 134.773 57.1602 134.953 57.6211C135.133 58.0742 135.41 58.4336 135.785 58.6992C136.16 58.9648 136.652 59.0977 137.262 59.0977C137.707 59.0977 138.082 59 138.387 58.8047C138.691 58.6016 138.938 58.3242 139.125 57.9727C139.32 57.6211 139.457 57.2148 139.535 56.7539C139.621 56.293 139.664 55.7969 139.664 55.2656ZM144.609 55.2891V55.043C144.609 54.1133 144.742 53.2578 145.008 52.4766C145.273 51.6875 145.66 51.0039 146.168 50.4258C146.676 49.8477 147.301 49.3984 148.043 49.0781C148.785 48.75 149.637 48.5859 150.598 48.5859C151.559 48.5859 152.414 48.75 153.164 49.0781C153.914 49.3984 154.543 49.8477 155.051 50.4258C155.566 51.0039 155.957 51.6875 156.223 52.4766C156.488 53.2578 156.621 54.1133 156.621 55.043V55.2891C156.621 56.2109 156.488 57.0664 156.223 57.8555C155.957 58.6367 155.566 59.3203 155.051 59.9062C154.543 60.4844 153.918 60.9336 153.176 61.2539C152.434 61.5742 151.582 61.7344 150.621 61.7344C149.66 61.7344 148.805 61.5742 148.055 61.2539C147.312 60.9336 146.684 60.4844 146.168 59.9062C145.66 59.3203 145.273 58.6367 145.008 57.8555C144.742 57.0664 144.609 56.2109 144.609 55.2891ZM147.984 55.043V55.2891C147.984 55.8203 148.031 56.3164 148.125 56.7773C148.219 57.2383 148.367 57.6445 148.57 57.9961C148.781 58.3398 149.055 58.6094 149.391 58.8047C149.727 59 150.137 59.0977 150.621 59.0977C151.09 59.0977 151.492 59 151.828 58.8047C152.164 58.6094 152.434 58.3398 152.637 57.9961C152.84 57.6445 152.988 57.2383 153.082 56.7773C153.184 56.3164 153.234 55.8203 153.234 55.2891V55.043C153.234 54.5273 153.184 54.043 153.082 53.5898C152.988 53.1289 152.836 52.7227 152.625 52.3711C152.422 52.0117 152.152 51.7305 151.816 51.5273C151.48 51.3242 151.074 51.2227 150.598 51.2227C150.121 51.2227 149.715 51.3242 149.379 51.5273C149.051 51.7305 148.781 52.0117 148.57 52.3711C148.367 52.7227 148.219 53.1289 148.125 53.5898C148.031 54.043 147.984 54.5273 147.984 55.043ZM158.156 55.2891V55.043C158.156 54.1133 158.289 53.2578 158.555 52.4766C158.82 51.6875 159.207 51.0039 159.715 50.4258C160.223 49.8477 160.848 49.3984 161.59 49.0781C162.332 48.75 163.184 48.5859 164.145 48.5859C165.105 48.5859 165.961 48.75 166.711 49.0781C167.461 49.3984 168.09 49.8477 168.598 50.4258C169.113 51.0039 169.504 51.6875 169.77 52.4766C170.035 53.2578 170.168 54.1133 170.168 55.043V55.2891C170.168 56.2109 170.035 57.0664 169.77 57.8555C169.504 58.6367 169.113 59.3203 168.598 59.9062C168.09 60.4844 167.465 60.9336 166.723 61.2539C165.98 61.5742 165.129 61.7344 164.168 61.7344C163.207 61.7344 162.352 61.5742 161.602 61.2539C160.859 60.9336 160.23 60.4844 159.715 59.9062C159.207 59.3203 158.82 58.6367 158.555 57.8555C158.289 57.0664 158.156 56.2109 158.156 55.2891ZM161.531 55.043V55.2891C161.531 55.8203 161.578 56.3164 161.672 56.7773C161.766 57.2383 161.914 57.6445 162.117 57.9961C162.328 58.3398 162.602 58.6094 162.938 58.8047C163.273 59 163.684 59.0977 164.168 59.0977C164.637 59.0977 165.039 59 165.375 58.8047C165.711 58.6094 165.98 58.3398 166.184 57.9961C166.387 57.6445 166.535 57.2383 166.629 56.7773C166.73 56.3164 166.781 55.8203 166.781 55.2891V55.043C166.781 54.5273 166.73 54.043 166.629 53.5898C166.535 53.1289 166.383 52.7227 166.172 52.3711C165.969 52.0117 165.699 51.7305 165.363 51.5273C165.027 51.3242 164.621 51.2227 164.145 51.2227C163.668 51.2227 163.262 51.3242 162.926 51.5273C162.598 51.7305 162.328 52.0117 162.117 52.3711C161.914 52.7227 161.766 53.1289 161.672 53.5898C161.578 54.043 161.531 54.5273 161.531 55.043ZM175.805 43.5V61.5H172.418V43.5H175.805ZM194.672 55.8398H198.176C198.105 56.9883 197.789 58.0078 197.227 58.8984C196.672 59.7891 195.895 60.4844 194.895 60.9844C193.902 61.4844 192.707 61.7344 191.309 61.7344C190.215 61.7344 189.234 61.5469 188.367 61.1719C187.5 60.7891 186.758 60.2422 186.141 59.5312C185.531 58.8203 185.066 57.9609 184.746 56.9531C184.426 55.9453 184.266 54.8164 184.266 53.5664V52.3828C184.266 51.1328 184.43 50.0039 184.758 48.9961C185.094 47.9805 185.57 47.1172 186.188 46.4062C186.812 45.6953 187.559 45.1484 188.426 44.7656C189.293 44.3828 190.262 44.1914 191.332 44.1914C192.754 44.1914 193.953 44.4492 194.93 44.9648C195.914 45.4805 196.676 46.1914 197.215 47.0977C197.762 48.0039 198.09 49.0352 198.199 50.1914H194.684C194.645 49.5039 194.508 48.9219 194.273 48.4453C194.039 47.9609 193.684 47.5977 193.207 47.3555C192.738 47.1055 192.113 46.9805 191.332 46.9805C190.746 46.9805 190.234 47.0898 189.797 47.3086C189.359 47.5273 188.992 47.8594 188.695 48.3047C188.398 48.75 188.176 49.3125 188.027 49.9922C187.887 50.6641 187.816 51.4531 187.816 52.3594V53.5664C187.816 54.4492 187.883 55.2266 188.016 55.8984C188.148 56.5625 188.352 57.125 188.625 57.5859C188.906 58.0391 189.266 58.3828 189.703 58.6172C190.148 58.8438 190.684 58.957 191.309 58.957C192.043 58.957 192.648 58.8398 193.125 58.6055C193.602 58.3711 193.965 58.0234 194.215 57.5625C194.473 57.1016 194.625 56.5273 194.672 55.8398ZM199.734 55.2891V55.043C199.734 54.1133 199.867 53.2578 200.133 52.4766C200.398 51.6875 200.785 51.0039 201.293 50.4258C201.801 49.8477 202.426 49.3984 203.168 49.0781C203.91 48.75 204.762 48.5859 205.723 48.5859C206.684 48.5859 207.539 48.75 208.289 49.0781C209.039 49.3984 209.668 49.8477 210.176 50.4258C210.691 51.0039 211.082 51.6875 211.348 52.4766C211.613 53.2578 211.746 54.1133 211.746 55.043V55.2891C211.746 56.2109 211.613 57.0664 211.348 57.8555C211.082 58.6367 210.691 59.3203 210.176 59.9062C209.668 60.4844 209.043 60.9336 208.301 61.2539C207.559 61.5742 206.707 61.7344 205.746 61.7344C204.785 61.7344 203.93 61.5742 203.18 61.2539C202.438 60.9336 201.809 60.4844 201.293 59.9062C200.785 59.3203 200.398 58.6367 200.133 57.8555C199.867 57.0664 199.734 56.2109 199.734 55.2891ZM203.109 55.043V55.2891C203.109 55.8203 203.156 56.3164 203.25 56.7773C203.344 57.2383 203.492 57.6445 203.695 57.9961C203.906 58.3398 204.18 58.6094 204.516 58.8047C204.852 59 205.262 59.0977 205.746 59.0977C206.215 59.0977 206.617 59 206.953 58.8047C207.289 58.6094 207.559 58.3398 207.762 57.9961C207.965 57.6445 208.113 57.2383 208.207 56.7773C208.309 56.3164 208.359 55.8203 208.359 55.2891V55.043C208.359 54.5273 208.309 54.043 208.207 53.5898C208.113 53.1289 207.961 52.7227 207.75 52.3711C207.547 52.0117 207.277 51.7305 206.941 51.5273C206.605 51.3242 206.199 51.2227 205.723 51.2227C205.246 51.2227 204.84 51.3242 204.504 51.5273C204.176 51.7305 203.906 52.0117 203.695 52.3711C203.492 52.7227 203.344 53.1289 203.25 53.5898C203.156 54.043 203.109 54.5273 203.109 55.043ZM217.125 51.5273V61.5H213.75V48.8203H216.914L217.125 51.5273ZM216.633 54.7148H215.719C215.719 53.7773 215.84 52.9336 216.082 52.1836C216.324 51.4258 216.664 50.7812 217.102 50.25C217.539 49.7109 218.059 49.3008 218.66 49.0195C219.27 48.7305 219.949 48.5859 220.699 48.5859C221.293 48.5859 221.836 48.6719 222.328 48.8438C222.82 49.0156 223.242 49.2891 223.594 49.6641C223.953 50.0391 224.227 50.5352 224.414 51.1523C224.609 51.7695 224.707 52.5234 224.707 53.4141V61.5H221.309V53.4023C221.309 52.8398 221.23 52.4023 221.074 52.0898C220.918 51.7773 220.688 51.5586 220.383 51.4336C220.086 51.3008 219.719 51.2344 219.281 51.2344C218.828 51.2344 218.434 51.3242 218.098 51.5039C217.77 51.6836 217.496 51.9336 217.277 52.2539C217.066 52.5664 216.906 52.9336 216.797 53.3555C216.688 53.7773 216.633 54.2305 216.633 54.7148ZM230.578 51.5273V61.5H227.203V48.8203H230.367L230.578 51.5273ZM230.086 54.7148H229.172C229.172 53.7773 229.293 52.9336 229.535 52.1836C229.777 51.4258 230.117 50.7812 230.555 50.25C230.992 49.7109 231.512 49.3008 232.113 49.0195C232.723 48.7305 233.402 48.5859 234.152 48.5859C234.746 48.5859 235.289 48.6719 235.781 48.8438C236.273 49.0156 236.695 49.2891 237.047 49.6641C237.406 50.0391 237.68 50.5352 237.867 51.1523C238.062 51.7695 238.16 52.5234 238.16 53.4141V61.5H234.762V53.4023C234.762 52.8398 234.684 52.4023 234.527 52.0898C234.371 51.7773 234.141 51.5586 233.836 51.4336C233.539 51.3008 233.172 51.2344 232.734 51.2344C232.281 51.2344 231.887 51.3242 231.551 51.5039C231.223 51.6836 230.949 51.9336 230.73 52.2539C230.52 52.5664 230.359 52.9336 230.25 53.3555C230.141 53.7773 230.086 54.2305 230.086 54.7148ZM246.562 61.7344C245.578 61.7344 244.695 61.5781 243.914 61.2656C243.133 60.9453 242.469 60.5039 241.922 59.9414C241.383 59.3789 240.969 58.7266 240.68 57.9844C240.391 57.2344 240.246 56.4375 240.246 55.5938V55.125C240.246 54.1641 240.383 53.2852 240.656 52.4883C240.93 51.6914 241.32 51 241.828 50.4141C242.344 49.8281 242.969 49.3789 243.703 49.0664C244.438 48.7461 245.266 48.5859 246.188 48.5859C247.086 48.5859 247.883 48.7344 248.578 49.0312C249.273 49.3281 249.855 49.75 250.324 50.2969C250.801 50.8438 251.16 51.5 251.402 52.2656C251.645 53.0234 251.766 53.8672 251.766 54.7969V56.2031H241.688V53.9531H248.449V53.6953C248.449 53.2266 248.363 52.8086 248.191 52.4414C248.027 52.0664 247.777 51.7695 247.441 51.5508C247.105 51.332 246.676 51.2227 246.152 51.2227C245.707 51.2227 245.324 51.3203 245.004 51.5156C244.684 51.7109 244.422 51.9844 244.219 52.3359C244.023 52.6875 243.875 53.1016 243.773 53.5781C243.68 54.0469 243.633 54.5625 243.633 55.125V55.5938C243.633 56.1016 243.703 56.5703 243.844 57C243.992 57.4297 244.199 57.8008 244.465 58.1133C244.738 58.4258 245.066 58.668 245.449 58.8398C245.84 59.0117 246.281 59.0977 246.773 59.0977C247.383 59.0977 247.949 58.9805 248.473 58.7461C249.004 58.5039 249.461 58.1406 249.844 57.6562L251.484 59.4375C251.219 59.8203 250.855 60.1875 250.395 60.5391C249.941 60.8906 249.395 61.1797 248.754 61.4062C248.113 61.625 247.383 61.7344 246.562 61.7344ZM258.926 59.0977C259.34 59.0977 259.707 59.0195 260.027 58.8633C260.348 58.6992 260.598 58.4727 260.777 58.1836C260.965 57.8867 261.062 57.5391 261.07 57.1406H264.246C264.238 58.0312 264 58.8242 263.531 59.5195C263.062 60.207 262.434 60.75 261.645 61.1484C260.855 61.5391 259.973 61.7344 258.996 61.7344C258.012 61.7344 257.152 61.5703 256.418 61.2422C255.691 60.9141 255.086 60.4609 254.602 59.8828C254.117 59.2969 253.754 58.6172 253.512 57.8438C253.27 57.0625 253.148 56.2266 253.148 55.3359V54.9961C253.148 54.0977 253.27 53.2617 253.512 52.4883C253.754 51.707 254.117 51.0273 254.602 50.4492C255.086 49.8633 255.691 49.4062 256.418 49.0781C257.145 48.75 257.996 48.5859 258.973 48.5859C260.012 48.5859 260.922 48.7852 261.703 49.1836C262.492 49.582 263.109 50.1523 263.555 50.8945C264.008 51.6289 264.238 52.5 264.246 53.5078H261.07C261.062 53.0859 260.973 52.7031 260.801 52.3594C260.637 52.0156 260.395 51.7422 260.074 51.5391C259.762 51.3281 259.375 51.2227 258.914 51.2227C258.422 51.2227 258.02 51.3281 257.707 51.5391C257.395 51.7422 257.152 52.0234 256.98 52.3828C256.809 52.7344 256.688 53.1367 256.617 53.5898C256.555 54.0352 256.523 54.5039 256.523 54.9961V55.3359C256.523 55.8281 256.555 56.3008 256.617 56.7539C256.68 57.207 256.797 57.6094 256.969 57.9609C257.148 58.3125 257.395 58.5898 257.707 58.793C258.02 58.9961 258.426 59.0977 258.926 59.0977ZM272.414 48.8203V51.2109H265.031V48.8203H272.414ZM266.859 45.6914H270.234V57.6797C270.234 58.0469 270.281 58.3281 270.375 58.5234C270.477 58.7188 270.625 58.8555 270.82 58.9336C271.016 59.0039 271.262 59.0391 271.559 59.0391C271.77 59.0391 271.957 59.0312 272.121 59.0156C272.293 58.9922 272.438 58.9688 272.555 58.9453L272.566 61.4297C272.277 61.5234 271.965 61.5977 271.629 61.6523C271.293 61.707 270.922 61.7344 270.516 61.7344C269.773 61.7344 269.125 61.6133 268.57 61.3711C268.023 61.1211 267.602 60.7227 267.305 60.1758C267.008 59.6289 266.859 58.9102 266.859 58.0195V45.6914Z" fill="#888888"/>
<path d="M109.219 107.922H100.734V101.57H109.219C110.375 101.57 111.312 101.375 112.031 100.984C112.75 100.594 113.273 100.055 113.602 99.3672C113.945 98.6641 114.117 97.875 114.117 97C114.117 96.0625 113.945 95.1953 113.602 94.3984C113.273 93.6016 112.75 92.9609 112.031 92.4766C111.312 91.9766 110.375 91.7266 109.219 91.7266H103.828V119.5H95.6016V85.375H109.219C111.953 85.375 114.305 85.875 116.273 86.875C118.258 87.875 119.781 89.25 120.844 91C121.906 92.7344 122.438 94.7188 122.438 96.9531C122.438 99.1562 121.906 101.078 120.844 102.719C119.781 104.359 118.258 105.641 116.273 106.562C114.305 107.469 111.953 107.922 109.219 107.922ZM134.461 100.422V119.5H126.562V94.1406H133.945L134.461 100.422ZM141.961 93.9531L141.82 101.289C141.508 101.258 141.086 101.219 140.555 101.172C140.023 101.125 139.578 101.102 139.219 101.102C138.297 101.102 137.5 101.211 136.828 101.43C136.172 101.633 135.625 101.945 135.188 102.367C134.766 102.773 134.453 103.289 134.25 103.914C134.062 104.539 133.977 105.266 133.992 106.094L132.562 105.156C132.562 103.453 132.727 101.906 133.055 100.516C133.398 99.1094 133.883 97.8984 134.508 96.8828C135.133 95.8516 135.891 95.0625 136.781 94.5156C137.672 93.9531 138.672 93.6719 139.781 93.6719C140.172 93.6719 140.555 93.6953 140.93 93.7422C141.32 93.7891 141.664 93.8594 141.961 93.9531ZM142.852 107.078V106.586C142.852 104.727 143.117 103.016 143.648 101.453C144.18 99.875 144.961 98.5078 145.992 97.3516C147.023 96.1953 148.297 95.2969 149.812 94.6562C151.328 94 153.078 93.6719 155.062 93.6719C157.062 93.6719 158.82 94 160.336 94.6562C161.867 95.2969 163.148 96.1953 164.18 97.3516C165.211 98.5078 165.992 99.875 166.523 101.453C167.055 103.016 167.32 104.727 167.32 106.586V107.078C167.32 108.922 167.055 110.633 166.523 112.211C165.992 113.773 165.211 115.141 164.18 116.312C163.148 117.469 161.875 118.367 160.359 119.008C158.844 119.648 157.094 119.969 155.109 119.969C153.125 119.969 151.367 119.648 149.836 119.008C148.305 118.367 147.023 117.469 145.992 116.312C144.961 115.141 144.18 113.773 143.648 112.211C143.117 110.633 142.852 108.922 142.852 107.078ZM150.75 106.586V107.078C150.75 108.031 150.82 108.922 150.961 109.75C151.102 110.578 151.336 111.305 151.664 111.93C151.992 112.539 152.438 113.016 153 113.359C153.562 113.703 154.266 113.875 155.109 113.875C155.938 113.875 156.625 113.703 157.172 113.359C157.734 113.016 158.18 112.539 158.508 111.93C158.836 111.305 159.07 110.578 159.211 109.75C159.352 108.922 159.422 108.031 159.422 107.078V106.586C159.422 105.664 159.352 104.797 159.211 103.984C159.07 103.156 158.836 102.43 158.508 101.805C158.18 101.164 157.734 100.664 157.172 100.305C156.609 99.9453 155.906 99.7656 155.062 99.7656C154.234 99.7656 153.539 99.9453 152.977 100.305C152.43 100.664 151.992 101.164 151.664 101.805C151.336 102.43 151.102 103.156 150.961 103.984C150.82 104.797 150.75 105.664 150.75 106.586ZM171.422 94.1406H179.344V120.32C179.344 122.352 178.953 124.062 178.172 125.453C177.391 126.859 176.273 127.922 174.82 128.641C173.367 129.375 171.633 129.742 169.617 129.742C168.945 129.742 168.328 129.711 167.766 129.648C167.188 129.602 166.555 129.5 165.867 129.344V123.367C166.273 123.43 166.648 123.477 166.992 123.508C167.336 123.555 167.711 123.578 168.117 123.578C168.836 123.578 169.438 123.461 169.922 123.227C170.406 122.992 170.773 122.633 171.023 122.148C171.289 121.664 171.422 121.055 171.422 120.32V94.1406ZM170.836 87.6016C170.836 86.4766 171.242 85.5547 172.055 84.8359C172.867 84.1172 173.922 83.7578 175.219 83.7578C176.516 83.7578 177.57 84.1172 178.383 84.8359C179.195 85.5547 179.602 86.4766 179.602 87.6016C179.602 88.7266 179.195 89.6484 178.383 90.3672C177.57 91.0859 176.516 91.4453 175.219 91.4453C173.922 91.4453 172.867 91.0859 172.055 90.3672C171.242 89.6484 170.836 88.7266 170.836 87.6016ZM196.102 119.969C194.039 119.969 192.195 119.648 190.57 119.008C188.945 118.352 187.57 117.453 186.445 116.312C185.336 115.172 184.484 113.859 183.891 112.375C183.312 110.891 183.023 109.32 183.023 107.664V106.773C183.023 104.914 183.281 103.195 183.797 101.617C184.312 100.023 185.078 98.6328 186.094 97.4453C187.109 96.2578 188.383 95.3359 189.914 94.6797C191.445 94.0078 193.227 93.6719 195.258 93.6719C197.055 93.6719 198.664 93.9609 200.086 94.5391C201.508 95.1172 202.711 95.9453 203.695 97.0234C204.695 98.1016 205.453 99.4062 205.969 100.938C206.5 102.469 206.766 104.188 206.766 106.094V109.305H186.047V104.359H199.055V103.75C199.07 102.906 198.922 102.188 198.609 101.594C198.312 101 197.875 100.547 197.297 100.234C196.719 99.9219 196.016 99.7656 195.188 99.7656C194.328 99.7656 193.617 99.9531 193.055 100.328C192.508 100.703 192.078 101.219 191.766 101.875C191.469 102.516 191.258 103.258 191.133 104.102C191.008 104.945 190.945 105.836 190.945 106.773V107.664C190.945 108.602 191.07 109.453 191.32 110.219C191.586 110.984 191.961 111.641 192.445 112.188C192.945 112.719 193.539 113.133 194.227 113.43C194.93 113.727 195.727 113.875 196.617 113.875C197.695 113.875 198.758 113.672 199.805 113.266C200.852 112.859 201.75 112.188 202.5 111.25L206.086 115.516C205.57 116.25 204.836 116.961 203.883 117.648C202.945 118.336 201.82 118.898 200.508 119.336C199.195 119.758 197.727 119.969 196.102 119.969ZM220.688 113.875C221.422 113.875 222.047 113.742 222.562 113.477C223.094 113.195 223.492 112.805 223.758 112.305C224.039 111.789 224.172 111.172 224.156 110.453H231.586C231.602 112.359 231.133 114.031 230.18 115.469C229.242 116.891 227.961 118 226.336 118.797C224.727 119.578 222.906 119.969 220.875 119.969C218.891 119.969 217.156 119.648 215.672 119.008C214.188 118.352 212.945 117.445 211.945 116.289C210.961 115.117 210.219 113.75 209.719 112.188C209.234 110.625 208.992 108.93 208.992 107.102V106.562C208.992 104.734 209.234 103.039 209.719 101.477C210.219 99.8984 210.961 98.5312 211.945 97.375C212.945 96.2031 214.18 95.2969 215.648 94.6562C217.133 94 218.859 93.6719 220.828 93.6719C222.938 93.6719 224.797 94.0703 226.406 94.8672C228.031 95.6641 229.305 96.8203 230.227 98.3359C231.148 99.8516 231.602 101.688 231.586 103.844H224.156C224.172 103.078 224.055 102.391 223.805 101.781C223.555 101.172 223.164 100.688 222.633 100.328C222.117 99.9531 221.453 99.7656 220.641 99.7656C219.828 99.7656 219.172 99.9453 218.672 100.305C218.172 100.664 217.789 101.164 217.523 101.805C217.273 102.43 217.102 103.148 217.008 103.961C216.93 104.773 216.891 105.641 216.891 106.562V107.102C216.891 108.039 216.93 108.922 217.008 109.75C217.102 110.562 217.281 111.281 217.547 111.906C217.812 112.516 218.195 113 218.695 113.359C219.195 113.703 219.859 113.875 220.688 113.875ZM248.32 94.1406V99.625H233.039V94.1406H248.32ZM236.25 87.8359H244.148V111.227C244.148 111.898 244.227 112.422 244.383 112.797C244.539 113.156 244.805 113.414 245.18 113.57C245.57 113.711 246.086 113.781 246.727 113.781C247.18 113.781 247.555 113.773 247.852 113.758C248.148 113.727 248.43 113.688 248.695 113.641V119.289C248.023 119.508 247.32 119.672 246.586 119.781C245.852 119.906 245.07 119.969 244.242 119.969C242.555 119.969 241.109 119.703 239.906 119.172C238.719 118.641 237.812 117.805 237.188 116.664C236.562 115.523 236.25 114.039 236.25 112.211V87.8359ZM277.406 107.922H268.922V101.57H277.406C278.562 101.57 279.5 101.375 280.219 100.984C280.938 100.594 281.461 100.055 281.789 99.3672C282.133 98.6641 282.305 97.875 282.305 97C282.305 96.0625 282.133 95.1953 281.789 94.3984C281.461 93.6016 280.938 92.9609 280.219 92.4766C279.5 91.9766 278.562 91.7266 277.406 91.7266H272.016V119.5H263.789V85.375H277.406C280.141 85.375 282.492 85.875 284.461 86.875C286.445 87.875 287.969 89.25 289.031 91C290.094 92.7344 290.625 94.7188 290.625 96.9531C290.625 99.1562 290.094 101.078 289.031 102.719C287.969 104.359 286.445 105.641 284.461 106.562C282.492 107.469 280.141 107.922 277.406 107.922ZM302.414 83.5V119.5H294.516V83.5H302.414ZM301.477 105.953L299.625 106C299.625 104.219 299.844 102.578 300.281 101.078C300.719 99.5781 301.344 98.2734 302.156 97.1641C302.969 96.0547 303.945 95.1953 305.086 94.5859C306.227 93.9766 307.492 93.6719 308.883 93.6719C310.133 93.6719 311.273 93.8516 312.305 94.2109C313.352 94.5703 314.25 95.1484 315 95.9453C315.766 96.7422 316.352 97.7812 316.758 99.0625C317.18 100.344 317.391 101.906 317.391 103.75V119.5H309.445V103.703C309.445 102.672 309.297 101.875 309 101.312C308.719 100.734 308.312 100.336 307.781 100.117C307.25 99.8828 306.602 99.7656 305.836 99.7656C304.914 99.7656 304.164 99.9219 303.586 100.234C303.008 100.547 302.562 100.984 302.25 101.547C301.953 102.094 301.75 102.742 301.641 103.492C301.531 104.242 301.477 105.062 301.477 105.953ZM330.117 94.1406V119.5H322.195V94.1406H330.117ZM321.727 87.6016C321.727 86.4766 322.133 85.5547 322.945 84.8359C323.758 84.1172 324.812 83.7578 326.109 83.7578C327.406 83.7578 328.461 84.1172 329.273 84.8359C330.086 85.5547 330.492 86.4766 330.492 87.6016C330.492 88.7266 330.086 89.6484 329.273 90.3672C328.461 91.0859 327.406 91.4453 326.109 91.4453C324.812 91.4453 323.758 91.0859 322.945 90.3672C322.133 89.6484 321.727 88.7266 321.727 87.6016ZM343.336 83.5V119.5H335.414V83.5H343.336ZM347.227 107.078V106.586C347.227 104.727 347.492 103.016 348.023 101.453C348.555 99.875 349.336 98.5078 350.367 97.3516C351.398 96.1953 352.672 95.2969 354.188 94.6562C355.703 94 357.453 93.6719 359.438 93.6719C361.438 93.6719 363.195 94 364.711 94.6562C366.242 95.2969 367.523 96.1953 368.555 97.3516C369.586 98.5078 370.367 99.875 370.898 101.453C371.43 103.016 371.695 104.727 371.695 106.586V107.078C371.695 108.922 371.43 110.633 370.898 112.211C370.367 113.773 369.586 115.141 368.555 116.312C367.523 117.469 366.25 118.367 364.734 119.008C363.219 119.648 361.469 119.969 359.484 119.969C357.5 119.969 355.742 119.648 354.211 119.008C352.68 118.367 351.398 117.469 350.367 116.312C349.336 115.141 348.555 113.773 348.023 112.211C347.492 110.633 347.227 108.922 347.227 107.078ZM355.125 106.586V107.078C355.125 108.031 355.195 108.922 355.336 109.75C355.477 110.578 355.711 111.305 356.039 111.93C356.367 112.539 356.812 113.016 357.375 113.359C357.938 113.703 358.641 113.875 359.484 113.875C360.312 113.875 361 113.703 361.547 113.359C362.109 113.016 362.555 112.539 362.883 111.93C363.211 111.305 363.445 110.578 363.586 109.75C363.727 108.922 363.797 108.031 363.797 107.078V106.586C363.797 105.664 363.727 104.797 363.586 103.984C363.445 103.156 363.211 102.43 362.883 101.805C362.555 101.164 362.109 100.664 361.547 100.305C360.984 99.9453 360.281 99.7656 359.438 99.7656C358.609 99.7656 357.914 99.9453 357.352 100.305C356.805 100.664 356.367 101.164 356.039 101.805C355.711 102.43 355.477 103.156 355.336 103.984C355.195 104.797 355.125 105.664 355.125 106.586ZM388.5 112.375C388.5 111.938 388.352 111.562 388.055 111.25C387.773 110.922 387.273 110.625 386.555 110.359C385.836 110.078 384.828 109.797 383.531 109.516C382.297 109.25 381.133 108.898 380.039 108.461C378.961 108.023 378.016 107.492 377.203 106.867C376.391 106.242 375.75 105.5 375.281 104.641C374.828 103.781 374.602 102.797 374.602 101.688C374.602 100.609 374.828 99.5938 375.281 98.6406C375.75 97.6719 376.43 96.8203 377.32 96.0859C378.227 95.3359 379.328 94.75 380.625 94.3281C381.922 93.8906 383.398 93.6719 385.055 93.6719C387.336 93.6719 389.305 94.0234 390.961 94.7266C392.617 95.4141 393.891 96.3828 394.781 97.6328C395.688 98.8672 396.141 100.297 396.141 101.922H388.242C388.242 101.281 388.133 100.734 387.914 100.281C387.711 99.8281 387.375 99.4844 386.906 99.25C386.438 99 385.812 98.875 385.031 98.875C384.484 98.875 383.984 98.9766 383.531 99.1797C383.094 99.3828 382.742 99.6641 382.477 100.023C382.211 100.383 382.078 100.805 382.078 101.289C382.078 101.633 382.156 101.945 382.312 102.227C382.484 102.492 382.742 102.742 383.086 102.977C383.43 103.195 383.867 103.398 384.398 103.586C384.93 103.758 385.57 103.914 386.32 104.055C388.023 104.367 389.617 104.812 391.102 105.391C392.586 105.969 393.789 106.789 394.711 107.852C395.648 108.914 396.117 110.344 396.117 112.141C396.117 113.266 395.859 114.305 395.344 115.258C394.828 116.195 394.086 117.023 393.117 117.742C392.148 118.445 390.984 118.992 389.625 119.383C388.266 119.773 386.734 119.969 385.031 119.969C382.609 119.969 380.562 119.539 378.891 118.68C377.219 117.805 375.953 116.711 375.094 115.398C374.25 114.07 373.828 112.727 373.828 111.367H381.188C381.219 112.148 381.406 112.789 381.75 113.289C382.109 113.789 382.586 114.156 383.18 114.391C383.773 114.625 384.461 114.742 385.242 114.742C385.961 114.742 386.555 114.641 387.023 114.438C387.508 114.234 387.875 113.961 388.125 113.617C388.375 113.258 388.5 112.844 388.5 112.375ZM398.836 107.078V106.586C398.836 104.727 399.102 103.016 399.633 101.453C400.164 99.875 400.945 98.5078 401.977 97.3516C403.008 96.1953 404.281 95.2969 405.797 94.6562C407.312 94 409.062 93.6719 411.047 93.6719C413.047 93.6719 414.805 94 416.32 94.6562C417.852 95.2969 419.133 96.1953 420.164 97.3516C421.195 98.5078 421.977 99.875 422.508 101.453C423.039 103.016 423.305 104.727 423.305 106.586V107.078C423.305 108.922 423.039 110.633 422.508 112.211C421.977 113.773 421.195 115.141 420.164 116.312C419.133 117.469 417.859 118.367 416.344 119.008C414.828 119.648 413.078 119.969 411.094 119.969C409.109 119.969 407.352 119.648 405.82 119.008C404.289 118.367 403.008 117.469 401.977 116.312C400.945 115.141 400.164 113.773 399.633 112.211C399.102 110.633 398.836 108.922 398.836 107.078ZM406.734 106.586V107.078C406.734 108.031 406.805 108.922 406.945 109.75C407.086 110.578 407.32 111.305 407.648 111.93C407.977 112.539 408.422 113.016 408.984 113.359C409.547 113.703 410.25 113.875 411.094 113.875C411.922 113.875 412.609 113.703 413.156 113.359C413.719 113.016 414.164 112.539 414.492 111.93C414.82 111.305 415.055 110.578 415.195 109.75C415.336 108.922 415.406 108.031 415.406 107.078V106.586C415.406 105.664 415.336 104.797 415.195 103.984C415.055 103.156 414.82 102.43 414.492 101.805C414.164 101.164 413.719 100.664 413.156 100.305C412.594 99.9453 411.891 99.7656 411.047 99.7656C410.219 99.7656 409.523 99.9453 408.961 100.305C408.414 100.664 407.977 101.164 407.648 101.805C407.32 102.43 407.086 103.156 406.945 103.984C406.805 104.797 406.734 105.664 406.734 106.586ZM434.789 99.0156V129.25H426.891V94.1406H434.25L434.789 99.0156ZM450.352 106.516V107.008C450.352 108.852 450.141 110.562 449.719 112.141C449.297 113.719 448.672 115.094 447.844 116.266C447.016 117.438 445.984 118.352 444.75 119.008C443.531 119.648 442.117 119.969 440.508 119.969C438.992 119.969 437.688 119.633 436.594 118.961C435.5 118.289 434.586 117.359 433.852 116.172C433.117 114.984 432.523 113.625 432.07 112.094C431.617 110.562 431.258 108.945 430.992 107.242V106.609C431.258 104.781 431.617 103.086 432.07 101.523C432.523 99.9453 433.117 98.5703 433.852 97.3984C434.586 96.2266 435.492 95.3125 436.57 94.6562C437.664 94 438.969 93.6719 440.484 93.6719C442.094 93.6719 443.508 93.9766 444.727 94.5859C445.961 95.1953 446.992 96.0703 447.82 97.2109C448.664 98.3359 449.297 99.6875 449.719 101.266C450.141 102.844 450.352 104.594 450.352 106.516ZM442.453 107.008V106.516C442.453 105.531 442.383 104.633 442.242 103.82C442.102 102.992 441.875 102.273 441.562 101.664C441.266 101.055 440.867 100.586 440.367 100.258C439.867 99.9297 439.25 99.7656 438.516 99.7656C437.672 99.7656 436.961 99.8984 436.383 100.164C435.82 100.414 435.367 100.805 435.023 101.336C434.695 101.852 434.461 102.5 434.32 103.281C434.195 104.047 434.141 104.945 434.156 105.977V107.898C434.125 109.086 434.242 110.133 434.508 111.039C434.773 111.93 435.234 112.625 435.891 113.125C436.547 113.625 437.438 113.875 438.562 113.875C439.312 113.875 439.938 113.703 440.438 113.359C440.938 113 441.336 112.508 441.633 111.883C441.93 111.242 442.141 110.508 442.266 109.68C442.391 108.852 442.453 107.961 442.453 107.008ZM461.602 83.5V119.5H453.703V83.5H461.602ZM460.664 105.953L458.812 106C458.812 104.219 459.031 102.578 459.469 101.078C459.906 99.5781 460.531 98.2734 461.344 97.1641C462.156 96.0547 463.133 95.1953 464.273 94.5859C465.414 93.9766 466.68 93.6719 468.07 93.6719C469.32 93.6719 470.461 93.8516 471.492 94.2109C472.539 94.5703 473.438 95.1484 474.188 95.9453C474.953 96.7422 475.539 97.7812 475.945 99.0625C476.367 100.344 476.578 101.906 476.578 103.75V119.5H468.633V103.703C468.633 102.672 468.484 101.875 468.188 101.312C467.906 100.734 467.5 100.336 466.969 100.117C466.438 99.8828 465.789 99.7656 465.023 99.7656C464.102 99.7656 463.352 99.9219 462.773 100.234C462.195 100.547 461.75 100.984 461.438 101.547C461.141 102.094 460.938 102.742 460.828 103.492C460.719 104.242 460.664 105.062 460.664 105.953ZM488.742 116.523L495.305 94.1406H503.789L493.594 123.273C493.375 123.914 493.086 124.602 492.727 125.336C492.367 126.086 491.875 126.797 491.25 127.469C490.625 128.141 489.82 128.688 488.836 129.109C487.867 129.531 486.664 129.742 485.227 129.742C484.461 129.742 483.898 129.703 483.539 129.625C483.195 129.562 482.664 129.445 481.945 129.273V123.625C482.148 123.625 482.32 123.625 482.461 123.625C482.617 123.625 482.789 123.625 482.977 123.625C483.82 123.625 484.492 123.539 484.992 123.367C485.508 123.195 485.898 122.945 486.164 122.617C486.445 122.289 486.664 121.891 486.82 121.422L488.742 116.523ZM487.078 94.1406L492.07 111.883L492.938 120.25H487.641L478.617 94.1406H487.078Z" fill="black"/>
<path d="M1134 0.5H1348C1356.28 0.5 1363 7.21573 1363 15.5V148.5C1363 156.784 1356.28 163.5 1348 163.5H1134V0.5Z" fill="#40C784"/>
<path d="M1234.26 104.286H1262.74V109.857H1234.26V104.286ZM1239.96 115.429H1257.04V121H1239.96V115.429ZM1248.5 43C1240.95 43 1233.71 45.9349 1228.37 51.1592C1223.03 56.3834 1220.03 63.469 1220.03 70.8571C1219.84 74.9057 1220.63 78.9412 1222.34 82.6315C1224.05 86.3219 1226.64 89.5616 1229.88 92.0843C1232.73 94.675 1234.26 96.1514 1234.26 98.7143H1239.96C1239.96 93.5886 1236.8 90.7193 1233.72 87.9614C1231.06 85.9676 1228.94 83.3658 1227.55 80.3838C1226.15 77.4019 1225.53 74.1308 1225.72 70.8571C1225.72 64.9466 1228.12 59.2781 1232.39 55.0988C1236.67 50.9194 1242.46 48.5714 1248.5 48.5714C1254.54 48.5714 1260.33 50.9194 1264.61 55.0988C1268.88 59.2781 1271.28 64.9466 1271.28 70.8571C1271.47 74.1333 1270.84 77.4059 1269.44 80.388C1268.04 83.3701 1265.92 85.9706 1263.25 87.9614C1260.2 90.7471 1257.04 93.5329 1257.04 98.7143H1262.74C1262.74 96.1514 1264.25 94.675 1267.12 92.0564C1270.36 89.5381 1272.94 86.3031 1274.66 82.6176C1276.37 78.9321 1277.16 74.9014 1276.97 70.8571C1276.97 67.1989 1276.24 63.5765 1274.81 60.1967C1273.37 56.8169 1271.28 53.7459 1268.63 51.1592C1265.99 48.5724 1262.85 46.5205 1259.4 45.1205C1255.94 43.7205 1252.24 43 1248.5 43Z" fill="white"/>
</g>
<defs>
<clipPath id="clip0_296_2476">
<rect width="1363" height="163" fill="white" transform="translate(0 0.5)"/>
</clipPath>
</defs>
</svg>
