<svg width="1363" height="164" viewBox="0 0 1363 164" fill="none" xmlns="http://www.w3.org/2000/svg">
<g clip-path="url(#clip0_296_2483)">
<path d="M0 15.5C0 7.21573 6.71573 0.5 15 0.5H37V163.5H15C6.71573 163.5 0 156.784 0 148.5V15.5Z" fill="#424242"/>
<path d="M1134 0.5H37V163.5H1134V0.5Z" fill="#F0F0F0"/>
<path d="M104.414 55.8398H107.918C107.848 56.9883 107.531 58.0078 106.969 58.8984C106.414 59.7891 105.637 60.4844 104.637 60.9844C103.645 61.4844 102.449 61.7344 101.051 61.7344C99.957 61.7344 98.9766 61.5469 98.1094 61.1719C97.2422 60.7891 96.5 60.2422 95.8828 59.5312C95.2734 58.8203 94.8086 57.9609 94.4883 56.9531C94.168 55.9453 94.0078 54.8164 94.0078 53.5664V52.3828C94.0078 51.1328 94.1719 50.0039 94.5 48.9961C94.8359 47.9805 95.3125 47.1172 95.9297 46.4062C96.5547 45.6953 97.3008 45.1484 98.168 44.7656C99.0352 44.3828 100.004 44.1914 101.074 44.1914C102.496 44.1914 103.695 44.4492 104.672 44.9648C105.656 45.4805 106.418 46.1914 106.957 47.0977C107.504 48.0039 107.832 49.0352 107.941 50.1914H104.426C104.387 49.5039 104.25 48.9219 104.016 48.4453C103.781 47.9609 103.426 47.5977 102.949 47.3555C102.48 47.1055 101.855 46.9805 101.074 46.9805C100.488 46.9805 99.9766 47.0898 99.5391 47.3086C99.1016 47.5273 98.7344 47.8594 98.4375 48.3047C98.1406 48.75 97.918 49.3125 97.7695 49.9922C97.6289 50.6641 97.5586 51.4531 97.5586 52.3594V53.5664C97.5586 54.4492 97.625 55.2266 97.7578 55.8984C97.8906 56.5625 98.0938 57.125 98.3672 57.5859C98.6484 58.0391 99.0078 58.3828 99.4453 58.6172C99.8906 58.8438 100.426 58.957 101.051 58.957C101.785 58.957 102.391 58.8398 102.867 58.6055C103.344 58.3711 103.707 58.0234 103.957 57.5625C104.215 57.1016 104.367 56.5273 104.414 55.8398ZM116.859 58.6406V52.9922C116.859 52.5859 116.793 52.2383 116.66 51.9492C116.527 51.6523 116.32 51.4219 116.039 51.2578C115.766 51.0938 115.41 51.0117 114.973 51.0117C114.598 51.0117 114.273 51.0781 114 51.2109C113.727 51.3359 113.516 51.5195 113.367 51.7617C113.219 51.9961 113.145 52.2734 113.145 52.5938H109.77C109.77 52.0547 109.895 51.543 110.145 51.0586C110.395 50.5742 110.758 50.1484 111.234 49.7812C111.711 49.4062 112.277 49.1133 112.934 48.9023C113.598 48.6914 114.34 48.5859 115.16 48.5859C116.145 48.5859 117.02 48.75 117.785 49.0781C118.551 49.4062 119.152 49.8984 119.59 50.5547C120.035 51.2109 120.258 52.0312 120.258 53.0156V58.4414C120.258 59.1367 120.301 59.707 120.387 60.1523C120.473 60.5898 120.598 60.9727 120.762 61.3008V61.5H117.352C117.188 61.1562 117.062 60.7266 116.977 60.2109C116.898 59.6875 116.859 59.1641 116.859 58.6406ZM117.305 53.7773L117.328 55.6875H115.441C114.996 55.6875 114.609 55.7383 114.281 55.8398C113.953 55.9414 113.684 56.0859 113.473 56.2734C113.262 56.4531 113.105 56.6641 113.004 56.9062C112.91 57.1484 112.863 57.4141 112.863 57.7031C112.863 57.9922 112.93 58.2539 113.062 58.4883C113.195 58.7148 113.387 58.8945 113.637 59.0273C113.887 59.1523 114.18 59.2148 114.516 59.2148C115.023 59.2148 115.465 59.1133 115.84 58.9102C116.215 58.707 116.504 58.457 116.707 58.1602C116.918 57.8633 117.027 57.582 117.035 57.3164L117.926 58.7461C117.801 59.0664 117.629 59.3984 117.41 59.7422C117.199 60.0859 116.93 60.4102 116.602 60.7148C116.273 61.0117 115.879 61.2578 115.418 61.4531C114.957 61.6406 114.41 61.7344 113.777 61.7344C112.973 61.7344 112.242 61.5742 111.586 61.2539C110.938 60.9258 110.422 60.4766 110.039 59.9062C109.664 59.3281 109.477 58.6719 109.477 57.9375C109.477 57.2734 109.602 56.6836 109.852 56.168C110.102 55.6523 110.469 55.2188 110.953 54.8672C111.445 54.5078 112.059 54.2383 112.793 54.0586C113.527 53.8711 114.379 53.7773 115.348 53.7773H117.305ZM126.234 51.5859V61.5H122.859V48.8203H126.035L126.234 51.5859ZM130.055 48.7383L129.996 51.8672C129.832 51.8438 129.633 51.8242 129.398 51.8086C129.172 51.7852 128.965 51.7734 128.777 51.7734C128.301 51.7734 127.887 51.8359 127.535 51.9609C127.191 52.0781 126.902 52.2539 126.668 52.4883C126.441 52.7227 126.27 53.0078 126.152 53.3438C126.043 53.6797 125.98 54.0625 125.965 54.4922L125.285 54.2812C125.285 53.4609 125.367 52.707 125.531 52.0195C125.695 51.3242 125.934 50.7188 126.246 50.2031C126.566 49.6875 126.957 49.2891 127.418 49.0078C127.879 48.7266 128.406 48.5859 129 48.5859C129.188 48.5859 129.379 48.6016 129.574 48.6328C129.77 48.6562 129.93 48.6914 130.055 48.7383ZM135.023 51.2578V66.375H131.648V48.8203H134.777L135.023 51.2578ZM143.051 55.0195V55.2656C143.051 56.1875 142.941 57.043 142.723 57.832C142.512 58.6211 142.199 59.3086 141.785 59.8945C141.371 60.4727 140.855 60.9258 140.238 61.2539C139.629 61.5742 138.926 61.7344 138.129 61.7344C137.355 61.7344 136.684 61.5781 136.113 61.2656C135.543 60.9531 135.062 60.5156 134.672 59.9531C134.289 59.3828 133.98 58.7227 133.746 57.9727C133.512 57.2227 133.332 56.418 133.207 55.5586V54.9141C133.332 53.9922 133.512 53.1484 133.746 52.3828C133.98 51.6094 134.289 50.9414 134.672 50.3789C135.062 49.8086 135.539 49.3672 136.102 49.0547C136.672 48.7422 137.34 48.5859 138.105 48.5859C138.91 48.5859 139.617 48.7383 140.227 49.043C140.844 49.3477 141.359 49.7852 141.773 50.3555C142.195 50.9258 142.512 51.6055 142.723 52.3945C142.941 53.1836 143.051 54.0586 143.051 55.0195ZM139.664 55.2656V55.0195C139.664 54.4805 139.617 53.9844 139.523 53.5312C139.438 53.0703 139.297 52.668 139.102 52.3242C138.914 51.9805 138.664 51.7148 138.352 51.5273C138.047 51.332 137.676 51.2344 137.238 51.2344C136.777 51.2344 136.383 51.3086 136.055 51.457C135.734 51.6055 135.473 51.8203 135.27 52.1016C135.066 52.3828 134.914 52.7188 134.812 53.1094C134.711 53.5 134.648 53.9414 134.625 54.4336V56.0625C134.664 56.6406 134.773 57.1602 134.953 57.6211C135.133 58.0742 135.41 58.4336 135.785 58.6992C136.16 58.9648 136.652 59.0977 137.262 59.0977C137.707 59.0977 138.082 59 138.387 58.8047C138.691 58.6016 138.938 58.3242 139.125 57.9727C139.32 57.6211 139.457 57.2148 139.535 56.7539C139.621 56.293 139.664 55.7969 139.664 55.2656ZM144.609 55.2891V55.043C144.609 54.1133 144.742 53.2578 145.008 52.4766C145.273 51.6875 145.66 51.0039 146.168 50.4258C146.676 49.8477 147.301 49.3984 148.043 49.0781C148.785 48.75 149.637 48.5859 150.598 48.5859C151.559 48.5859 152.414 48.75 153.164 49.0781C153.914 49.3984 154.543 49.8477 155.051 50.4258C155.566 51.0039 155.957 51.6875 156.223 52.4766C156.488 53.2578 156.621 54.1133 156.621 55.043V55.2891C156.621 56.2109 156.488 57.0664 156.223 57.8555C155.957 58.6367 155.566 59.3203 155.051 59.9062C154.543 60.4844 153.918 60.9336 153.176 61.2539C152.434 61.5742 151.582 61.7344 150.621 61.7344C149.66 61.7344 148.805 61.5742 148.055 61.2539C147.312 60.9336 146.684 60.4844 146.168 59.9062C145.66 59.3203 145.273 58.6367 145.008 57.8555C144.742 57.0664 144.609 56.2109 144.609 55.2891ZM147.984 55.043V55.2891C147.984 55.8203 148.031 56.3164 148.125 56.7773C148.219 57.2383 148.367 57.6445 148.57 57.9961C148.781 58.3398 149.055 58.6094 149.391 58.8047C149.727 59 150.137 59.0977 150.621 59.0977C151.09 59.0977 151.492 59 151.828 58.8047C152.164 58.6094 152.434 58.3398 152.637 57.9961C152.84 57.6445 152.988 57.2383 153.082 56.7773C153.184 56.3164 153.234 55.8203 153.234 55.2891V55.043C153.234 54.5273 153.184 54.043 153.082 53.5898C152.988 53.1289 152.836 52.7227 152.625 52.3711C152.422 52.0117 152.152 51.7305 151.816 51.5273C151.48 51.3242 151.074 51.2227 150.598 51.2227C150.121 51.2227 149.715 51.3242 149.379 51.5273C149.051 51.7305 148.781 52.0117 148.57 52.3711C148.367 52.7227 148.219 53.1289 148.125 53.5898C148.031 54.043 147.984 54.5273 147.984 55.043ZM158.156 55.2891V55.043C158.156 54.1133 158.289 53.2578 158.555 52.4766C158.82 51.6875 159.207 51.0039 159.715 50.4258C160.223 49.8477 160.848 49.3984 161.59 49.0781C162.332 48.75 163.184 48.5859 164.145 48.5859C165.105 48.5859 165.961 48.75 166.711 49.0781C167.461 49.3984 168.09 49.8477 168.598 50.4258C169.113 51.0039 169.504 51.6875 169.77 52.4766C170.035 53.2578 170.168 54.1133 170.168 55.043V55.2891C170.168 56.2109 170.035 57.0664 169.77 57.8555C169.504 58.6367 169.113 59.3203 168.598 59.9062C168.09 60.4844 167.465 60.9336 166.723 61.2539C165.98 61.5742 165.129 61.7344 164.168 61.7344C163.207 61.7344 162.352 61.5742 161.602 61.2539C160.859 60.9336 160.23 60.4844 159.715 59.9062C159.207 59.3203 158.82 58.6367 158.555 57.8555C158.289 57.0664 158.156 56.2109 158.156 55.2891ZM161.531 55.043V55.2891C161.531 55.8203 161.578 56.3164 161.672 56.7773C161.766 57.2383 161.914 57.6445 162.117 57.9961C162.328 58.3398 162.602 58.6094 162.938 58.8047C163.273 59 163.684 59.0977 164.168 59.0977C164.637 59.0977 165.039 59 165.375 58.8047C165.711 58.6094 165.98 58.3398 166.184 57.9961C166.387 57.6445 166.535 57.2383 166.629 56.7773C166.73 56.3164 166.781 55.8203 166.781 55.2891V55.043C166.781 54.5273 166.73 54.043 166.629 53.5898C166.535 53.1289 166.383 52.7227 166.172 52.3711C165.969 52.0117 165.699 51.7305 165.363 51.5273C165.027 51.3242 164.621 51.2227 164.145 51.2227C163.668 51.2227 163.262 51.3242 162.926 51.5273C162.598 51.7305 162.328 52.0117 162.117 52.3711C161.914 52.7227 161.766 53.1289 161.672 53.5898C161.578 54.043 161.531 54.5273 161.531 55.043ZM175.805 43.5V61.5H172.418V43.5H175.805ZM194.672 55.8398H198.176C198.105 56.9883 197.789 58.0078 197.227 58.8984C196.672 59.7891 195.895 60.4844 194.895 60.9844C193.902 61.4844 192.707 61.7344 191.309 61.7344C190.215 61.7344 189.234 61.5469 188.367 61.1719C187.5 60.7891 186.758 60.2422 186.141 59.5312C185.531 58.8203 185.066 57.9609 184.746 56.9531C184.426 55.9453 184.266 54.8164 184.266 53.5664V52.3828C184.266 51.1328 184.43 50.0039 184.758 48.9961C185.094 47.9805 185.57 47.1172 186.188 46.4062C186.812 45.6953 187.559 45.1484 188.426 44.7656C189.293 44.3828 190.262 44.1914 191.332 44.1914C192.754 44.1914 193.953 44.4492 194.93 44.9648C195.914 45.4805 196.676 46.1914 197.215 47.0977C197.762 48.0039 198.09 49.0352 198.199 50.1914H194.684C194.645 49.5039 194.508 48.9219 194.273 48.4453C194.039 47.9609 193.684 47.5977 193.207 47.3555C192.738 47.1055 192.113 46.9805 191.332 46.9805C190.746 46.9805 190.234 47.0898 189.797 47.3086C189.359 47.5273 188.992 47.8594 188.695 48.3047C188.398 48.75 188.176 49.3125 188.027 49.9922C187.887 50.6641 187.816 51.4531 187.816 52.3594V53.5664C187.816 54.4492 187.883 55.2266 188.016 55.8984C188.148 56.5625 188.352 57.125 188.625 57.5859C188.906 58.0391 189.266 58.3828 189.703 58.6172C190.148 58.8438 190.684 58.957 191.309 58.957C192.043 58.957 192.648 58.8398 193.125 58.6055C193.602 58.3711 193.965 58.0234 194.215 57.5625C194.473 57.1016 194.625 56.5273 194.672 55.8398ZM199.734 55.2891V55.043C199.734 54.1133 199.867 53.2578 200.133 52.4766C200.398 51.6875 200.785 51.0039 201.293 50.4258C201.801 49.8477 202.426 49.3984 203.168 49.0781C203.91 48.75 204.762 48.5859 205.723 48.5859C206.684 48.5859 207.539 48.75 208.289 49.0781C209.039 49.3984 209.668 49.8477 210.176 50.4258C210.691 51.0039 211.082 51.6875 211.348 52.4766C211.613 53.2578 211.746 54.1133 211.746 55.043V55.2891C211.746 56.2109 211.613 57.0664 211.348 57.8555C211.082 58.6367 210.691 59.3203 210.176 59.9062C209.668 60.4844 209.043 60.9336 208.301 61.2539C207.559 61.5742 206.707 61.7344 205.746 61.7344C204.785 61.7344 203.93 61.5742 203.18 61.2539C202.438 60.9336 201.809 60.4844 201.293 59.9062C200.785 59.3203 200.398 58.6367 200.133 57.8555C199.867 57.0664 199.734 56.2109 199.734 55.2891ZM203.109 55.043V55.2891C203.109 55.8203 203.156 56.3164 203.25 56.7773C203.344 57.2383 203.492 57.6445 203.695 57.9961C203.906 58.3398 204.18 58.6094 204.516 58.8047C204.852 59 205.262 59.0977 205.746 59.0977C206.215 59.0977 206.617 59 206.953 58.8047C207.289 58.6094 207.559 58.3398 207.762 57.9961C207.965 57.6445 208.113 57.2383 208.207 56.7773C208.309 56.3164 208.359 55.8203 208.359 55.2891V55.043C208.359 54.5273 208.309 54.043 208.207 53.5898C208.113 53.1289 207.961 52.7227 207.75 52.3711C207.547 52.0117 207.277 51.7305 206.941 51.5273C206.605 51.3242 206.199 51.2227 205.723 51.2227C205.246 51.2227 204.84 51.3242 204.504 51.5273C204.176 51.7305 203.906 52.0117 203.695 52.3711C203.492 52.7227 203.344 53.1289 203.25 53.5898C203.156 54.043 203.109 54.5273 203.109 55.043ZM217.125 51.5273V61.5H213.75V48.8203H216.914L217.125 51.5273ZM216.633 54.7148H215.719C215.719 53.7773 215.84 52.9336 216.082 52.1836C216.324 51.4258 216.664 50.7812 217.102 50.25C217.539 49.7109 218.059 49.3008 218.66 49.0195C219.27 48.7305 219.949 48.5859 220.699 48.5859C221.293 48.5859 221.836 48.6719 222.328 48.8438C222.82 49.0156 223.242 49.2891 223.594 49.6641C223.953 50.0391 224.227 50.5352 224.414 51.1523C224.609 51.7695 224.707 52.5234 224.707 53.4141V61.5H221.309V53.4023C221.309 52.8398 221.23 52.4023 221.074 52.0898C220.918 51.7773 220.688 51.5586 220.383 51.4336C220.086 51.3008 219.719 51.2344 219.281 51.2344C218.828 51.2344 218.434 51.3242 218.098 51.5039C217.77 51.6836 217.496 51.9336 217.277 52.2539C217.066 52.5664 216.906 52.9336 216.797 53.3555C216.688 53.7773 216.633 54.2305 216.633 54.7148ZM230.578 51.5273V61.5H227.203V48.8203H230.367L230.578 51.5273ZM230.086 54.7148H229.172C229.172 53.7773 229.293 52.9336 229.535 52.1836C229.777 51.4258 230.117 50.7812 230.555 50.25C230.992 49.7109 231.512 49.3008 232.113 49.0195C232.723 48.7305 233.402 48.5859 234.152 48.5859C234.746 48.5859 235.289 48.6719 235.781 48.8438C236.273 49.0156 236.695 49.2891 237.047 49.6641C237.406 50.0391 237.68 50.5352 237.867 51.1523C238.062 51.7695 238.16 52.5234 238.16 53.4141V61.5H234.762V53.4023C234.762 52.8398 234.684 52.4023 234.527 52.0898C234.371 51.7773 234.141 51.5586 233.836 51.4336C233.539 51.3008 233.172 51.2344 232.734 51.2344C232.281 51.2344 231.887 51.3242 231.551 51.5039C231.223 51.6836 230.949 51.9336 230.73 52.2539C230.52 52.5664 230.359 52.9336 230.25 53.3555C230.141 53.7773 230.086 54.2305 230.086 54.7148ZM246.562 61.7344C245.578 61.7344 244.695 61.5781 243.914 61.2656C243.133 60.9453 242.469 60.5039 241.922 59.9414C241.383 59.3789 240.969 58.7266 240.68 57.9844C240.391 57.2344 240.246 56.4375 240.246 55.5938V55.125C240.246 54.1641 240.383 53.2852 240.656 52.4883C240.93 51.6914 241.32 51 241.828 50.4141C242.344 49.8281 242.969 49.3789 243.703 49.0664C244.438 48.7461 245.266 48.5859 246.188 48.5859C247.086 48.5859 247.883 48.7344 248.578 49.0312C249.273 49.3281 249.855 49.75 250.324 50.2969C250.801 50.8438 251.16 51.5 251.402 52.2656C251.645 53.0234 251.766 53.8672 251.766 54.7969V56.2031H241.688V53.9531H248.449V53.6953C248.449 53.2266 248.363 52.8086 248.191 52.4414C248.027 52.0664 247.777 51.7695 247.441 51.5508C247.105 51.332 246.676 51.2227 246.152 51.2227C245.707 51.2227 245.324 51.3203 245.004 51.5156C244.684 51.7109 244.422 51.9844 244.219 52.3359C244.023 52.6875 243.875 53.1016 243.773 53.5781C243.68 54.0469 243.633 54.5625 243.633 55.125V55.5938C243.633 56.1016 243.703 56.5703 243.844 57C243.992 57.4297 244.199 57.8008 244.465 58.1133C244.738 58.4258 245.066 58.668 245.449 58.8398C245.84 59.0117 246.281 59.0977 246.773 59.0977C247.383 59.0977 247.949 58.9805 248.473 58.7461C249.004 58.5039 249.461 58.1406 249.844 57.6562L251.484 59.4375C251.219 59.8203 250.855 60.1875 250.395 60.5391C249.941 60.8906 249.395 61.1797 248.754 61.4062C248.113 61.625 247.383 61.7344 246.562 61.7344ZM258.926 59.0977C259.34 59.0977 259.707 59.0195 260.027 58.8633C260.348 58.6992 260.598 58.4727 260.777 58.1836C260.965 57.8867 261.062 57.5391 261.07 57.1406H264.246C264.238 58.0312 264 58.8242 263.531 59.5195C263.062 60.207 262.434 60.75 261.645 61.1484C260.855 61.5391 259.973 61.7344 258.996 61.7344C258.012 61.7344 257.152 61.5703 256.418 61.2422C255.691 60.9141 255.086 60.4609 254.602 59.8828C254.117 59.2969 253.754 58.6172 253.512 57.8438C253.27 57.0625 253.148 56.2266 253.148 55.3359V54.9961C253.148 54.0977 253.27 53.2617 253.512 52.4883C253.754 51.707 254.117 51.0273 254.602 50.4492C255.086 49.8633 255.691 49.4062 256.418 49.0781C257.145 48.75 257.996 48.5859 258.973 48.5859C260.012 48.5859 260.922 48.7852 261.703 49.1836C262.492 49.582 263.109 50.1523 263.555 50.8945C264.008 51.6289 264.238 52.5 264.246 53.5078H261.07C261.062 53.0859 260.973 52.7031 260.801 52.3594C260.637 52.0156 260.395 51.7422 260.074 51.5391C259.762 51.3281 259.375 51.2227 258.914 51.2227C258.422 51.2227 258.02 51.3281 257.707 51.5391C257.395 51.7422 257.152 52.0234 256.98 52.3828C256.809 52.7344 256.688 53.1367 256.617 53.5898C256.555 54.0352 256.523 54.5039 256.523 54.9961V55.3359C256.523 55.8281 256.555 56.3008 256.617 56.7539C256.68 57.207 256.797 57.6094 256.969 57.9609C257.148 58.3125 257.395 58.5898 257.707 58.793C258.02 58.9961 258.426 59.0977 258.926 59.0977ZM272.414 48.8203V51.2109H265.031V48.8203H272.414ZM266.859 45.6914H270.234V57.6797C270.234 58.0469 270.281 58.3281 270.375 58.5234C270.477 58.7188 270.625 58.8555 270.82 58.9336C271.016 59.0039 271.262 59.0391 271.559 59.0391C271.77 59.0391 271.957 59.0312 272.121 59.0156C272.293 58.9922 272.438 58.9688 272.555 58.9453L272.566 61.4297C272.277 61.5234 271.965 61.5977 271.629 61.6523C271.293 61.707 270.922 61.7344 270.516 61.7344C269.773 61.7344 269.125 61.6133 268.57 61.3711C268.023 61.1211 267.602 60.7227 267.305 60.1758C267.008 59.6289 266.859 58.9102 266.859 58.0195V45.6914Z" fill="#888888"/>
<path d="M112.125 85.375V119.5H103.898V85.375H112.125ZM122.391 85.375V91.7266H93.8672V85.375H122.391ZM135.68 119.969C133.617 119.969 131.773 119.648 130.148 119.008C128.523 118.352 127.148 117.453 126.023 116.312C124.914 115.172 124.062 113.859 123.469 112.375C122.891 110.891 122.602 109.32 122.602 107.664V106.773C122.602 104.914 122.859 103.195 123.375 101.617C123.891 100.023 124.656 98.6328 125.672 97.4453C126.688 96.2578 127.961 95.3359 129.492 94.6797C131.023 94.0078 132.805 93.6719 134.836 93.6719C136.633 93.6719 138.242 93.9609 139.664 94.5391C141.086 95.1172 142.289 95.9453 143.273 97.0234C144.273 98.1016 145.031 99.4062 145.547 100.938C146.078 102.469 146.344 104.188 146.344 106.094V109.305H125.625V104.359H138.633V103.75C138.648 102.906 138.5 102.188 138.188 101.594C137.891 101 137.453 100.547 136.875 100.234C136.297 99.9219 135.594 99.7656 134.766 99.7656C133.906 99.7656 133.195 99.9531 132.633 100.328C132.086 100.703 131.656 101.219 131.344 101.875C131.047 102.516 130.836 103.258 130.711 104.102C130.586 104.945 130.523 105.836 130.523 106.773V107.664C130.523 108.602 130.648 109.453 130.898 110.219C131.164 110.984 131.539 111.641 132.023 112.188C132.523 112.719 133.117 113.133 133.805 113.43C134.508 113.727 135.305 113.875 136.195 113.875C137.273 113.875 138.336 113.672 139.383 113.266C140.43 112.859 141.328 112.188 142.078 111.25L145.664 115.516C145.148 116.25 144.414 116.961 143.461 117.648C142.523 118.336 141.398 118.898 140.086 119.336C138.773 119.758 137.305 119.969 135.68 119.969ZM160.266 113.875C161 113.875 161.625 113.742 162.141 113.477C162.672 113.195 163.07 112.805 163.336 112.305C163.617 111.789 163.75 111.172 163.734 110.453H171.164C171.18 112.359 170.711 114.031 169.758 115.469C168.82 116.891 167.539 118 165.914 118.797C164.305 119.578 162.484 119.969 160.453 119.969C158.469 119.969 156.734 119.648 155.25 119.008C153.766 118.352 152.523 117.445 151.523 116.289C150.539 115.117 149.797 113.75 149.297 112.188C148.812 110.625 148.57 108.93 148.57 107.102V106.562C148.57 104.734 148.812 103.039 149.297 101.477C149.797 99.8984 150.539 98.5312 151.523 97.375C152.523 96.2031 153.758 95.2969 155.227 94.6562C156.711 94 158.438 93.6719 160.406 93.6719C162.516 93.6719 164.375 94.0703 165.984 94.8672C167.609 95.6641 168.883 96.8203 169.805 98.3359C170.727 99.8516 171.18 101.688 171.164 103.844H163.734C163.75 103.078 163.633 102.391 163.383 101.781C163.133 101.172 162.742 100.688 162.211 100.328C161.695 99.9531 161.031 99.7656 160.219 99.7656C159.406 99.7656 158.75 99.9453 158.25 100.305C157.75 100.664 157.367 101.164 157.102 101.805C156.852 102.43 156.68 103.148 156.586 103.961C156.508 104.773 156.469 105.641 156.469 106.562V107.102C156.469 108.039 156.508 108.922 156.586 109.75C156.68 110.562 156.859 111.281 157.125 111.906C157.391 112.516 157.773 113 158.273 113.359C158.773 113.703 159.438 113.875 160.266 113.875ZM182.273 83.5V119.5H174.375V83.5H182.273ZM181.336 105.953L179.484 106C179.484 104.219 179.703 102.578 180.141 101.078C180.578 99.5781 181.203 98.2734 182.016 97.1641C182.828 96.0547 183.805 95.1953 184.945 94.5859C186.086 93.9766 187.352 93.6719 188.742 93.6719C189.992 93.6719 191.133 93.8516 192.164 94.2109C193.211 94.5703 194.109 95.1484 194.859 95.9453C195.625 96.7422 196.211 97.7812 196.617 99.0625C197.039 100.344 197.25 101.906 197.25 103.75V119.5H189.305V103.703C189.305 102.672 189.156 101.875 188.859 101.312C188.578 100.734 188.172 100.336 187.641 100.117C187.109 99.8828 186.461 99.7656 185.695 99.7656C184.773 99.7656 184.023 99.9219 183.445 100.234C182.867 100.547 182.422 100.984 182.109 101.547C181.812 102.094 181.609 102.742 181.5 103.492C181.391 104.242 181.336 105.062 181.336 105.953ZM231.539 110.43C231.539 109.898 231.461 109.422 231.305 109C231.148 108.562 230.859 108.156 230.438 107.781C230.016 107.406 229.406 107.031 228.609 106.656C227.828 106.266 226.797 105.859 225.516 105.438C224.016 104.938 222.57 104.375 221.18 103.75C219.789 103.109 218.547 102.367 217.453 101.523C216.359 100.664 215.492 99.6641 214.852 98.5234C214.211 97.3672 213.891 96.0234 213.891 94.4922C213.891 93.0234 214.219 91.7031 214.875 90.5312C215.531 89.3438 216.445 88.3359 217.617 87.5078C218.805 86.6641 220.195 86.0234 221.789 85.5859C223.383 85.1328 225.125 84.9062 227.016 84.9062C229.516 84.9062 231.719 85.3438 233.625 86.2188C235.547 87.0781 237.047 88.3047 238.125 89.8984C239.219 91.4766 239.766 93.3438 239.766 95.5H231.586C231.586 94.6406 231.406 93.8828 231.047 93.2266C230.703 92.5703 230.18 92.0547 229.477 91.6797C228.773 91.3047 227.891 91.1172 226.828 91.1172C225.797 91.1172 224.93 91.2734 224.227 91.5859C223.523 91.8984 222.992 92.3203 222.633 92.8516C222.273 93.3672 222.094 93.9375 222.094 94.5625C222.094 95.0781 222.234 95.5469 222.516 95.9688C222.812 96.375 223.227 96.7578 223.758 97.1172C224.305 97.4766 224.961 97.8203 225.727 98.1484C226.508 98.4766 227.383 98.7969 228.352 99.1094C230.164 99.6875 231.773 100.336 233.18 101.055C234.602 101.758 235.797 102.562 236.766 103.469C237.75 104.359 238.492 105.375 238.992 106.516C239.508 107.656 239.766 108.945 239.766 110.383C239.766 111.914 239.469 113.273 238.875 114.461C238.281 115.648 237.43 116.656 236.32 117.484C235.211 118.297 233.883 118.914 232.336 119.336C230.789 119.758 229.062 119.969 227.156 119.969C225.406 119.969 223.68 119.75 221.977 119.312C220.289 118.859 218.758 118.172 217.383 117.25C216.008 116.312 214.906 115.117 214.078 113.664C213.266 112.195 212.859 110.453 212.859 108.438H221.109C221.109 109.438 221.242 110.281 221.508 110.969C221.773 111.656 222.164 112.211 222.68 112.633C223.195 113.039 223.828 113.336 224.578 113.523C225.328 113.695 226.188 113.781 227.156 113.781C228.203 113.781 229.047 113.633 229.688 113.336C230.328 113.023 230.797 112.617 231.094 112.117C231.391 111.602 231.539 111.039 231.539 110.43ZM256.992 94.1406V99.625H241.711V94.1406H256.992ZM244.922 87.8359H252.82V111.227C252.82 111.898 252.898 112.422 253.055 112.797C253.211 113.156 253.477 113.414 253.852 113.57C254.242 113.711 254.758 113.781 255.398 113.781C255.852 113.781 256.227 113.773 256.523 113.758C256.82 113.727 257.102 113.688 257.367 113.641V119.289C256.695 119.508 255.992 119.672 255.258 119.781C254.523 119.906 253.742 119.969 252.914 119.969C251.227 119.969 249.781 119.703 248.578 119.172C247.391 118.641 246.484 117.805 245.859 116.664C245.234 115.523 244.922 114.039 244.922 112.211V87.8359ZM273.305 113.125V102.672C273.305 101.953 273.203 101.336 273 100.82C272.797 100.305 272.477 99.9062 272.039 99.625C271.602 99.3281 271.016 99.1797 270.281 99.1797C269.688 99.1797 269.18 99.2812 268.758 99.4844C268.336 99.6875 268.016 99.9922 267.797 100.398C267.578 100.805 267.469 101.32 267.469 101.945H259.57C259.57 100.773 259.828 99.6875 260.344 98.6875C260.875 97.6719 261.625 96.7891 262.594 96.0391C263.578 95.2891 264.75 94.7109 266.109 94.3047C267.484 93.8828 269.016 93.6719 270.703 93.6719C272.719 93.6719 274.516 94.0078 276.094 94.6797C277.688 95.3516 278.945 96.3594 279.867 97.7031C280.789 99.0312 281.25 100.703 281.25 102.719V113.102C281.25 114.758 281.344 116.016 281.531 116.875C281.719 117.719 281.984 118.461 282.328 119.102V119.5H274.406C274.031 118.719 273.75 117.766 273.562 116.641C273.391 115.5 273.305 114.328 273.305 113.125ZM274.266 104.008L274.312 108.227H270.82C270.086 108.227 269.461 108.328 268.945 108.531C268.445 108.734 268.039 109.016 267.727 109.375C267.43 109.719 267.211 110.109 267.07 110.547C266.945 110.984 266.883 111.445 266.883 111.93C266.883 112.398 266.992 112.82 267.211 113.195C267.445 113.555 267.758 113.836 268.148 114.039C268.539 114.242 268.977 114.344 269.461 114.344C270.336 114.344 271.078 114.18 271.688 113.852C272.312 113.508 272.789 113.094 273.117 112.609C273.445 112.125 273.609 111.672 273.609 111.25L275.344 114.484C275.031 115.109 274.672 115.742 274.266 116.383C273.875 117.023 273.383 117.617 272.789 118.164C272.211 118.695 271.5 119.133 270.656 119.477C269.812 119.805 268.789 119.969 267.586 119.969C266.023 119.969 264.586 119.648 263.273 119.008C261.977 118.367 260.938 117.477 260.156 116.336C259.375 115.18 258.984 113.852 258.984 112.352C258.984 111.039 259.219 109.867 259.688 108.836C260.172 107.805 260.898 106.93 261.867 106.211C262.836 105.492 264.07 104.945 265.57 104.57C267.07 104.195 268.836 104.008 270.867 104.008H274.266ZM296.344 113.875C297.078 113.875 297.703 113.742 298.219 113.477C298.75 113.195 299.148 112.805 299.414 112.305C299.695 111.789 299.828 111.172 299.812 110.453H307.242C307.258 112.359 306.789 114.031 305.836 115.469C304.898 116.891 303.617 118 301.992 118.797C300.383 119.578 298.562 119.969 296.531 119.969C294.547 119.969 292.812 119.648 291.328 119.008C289.844 118.352 288.602 117.445 287.602 116.289C286.617 115.117 285.875 113.75 285.375 112.188C284.891 110.625 284.648 108.93 284.648 107.102V106.562C284.648 104.734 284.891 103.039 285.375 101.477C285.875 99.8984 286.617 98.5312 287.602 97.375C288.602 96.2031 289.836 95.2969 291.305 94.6562C292.789 94 294.516 93.6719 296.484 93.6719C298.594 93.6719 300.453 94.0703 302.062 94.8672C303.688 95.6641 304.961 96.8203 305.883 98.3359C306.805 99.8516 307.258 101.688 307.242 103.844H299.812C299.828 103.078 299.711 102.391 299.461 101.781C299.211 101.172 298.82 100.688 298.289 100.328C297.773 99.9531 297.109 99.7656 296.297 99.7656C295.484 99.7656 294.828 99.9453 294.328 100.305C293.828 100.664 293.445 101.164 293.18 101.805C292.93 102.43 292.758 103.148 292.664 103.961C292.586 104.773 292.547 105.641 292.547 106.562V107.102C292.547 108.039 292.586 108.922 292.664 109.75C292.758 110.562 292.938 111.281 293.203 111.906C293.469 112.516 293.852 113 294.352 113.359C294.852 113.703 295.516 113.875 296.344 113.875ZM318.586 83.4766V119.5H310.688V83.4766H318.586ZM334.805 94.1406L323.789 107.055L318.023 112.82L314.578 107.805L319.383 101.547L325.336 94.1406H334.805ZM326.344 119.5L319.57 107.945L325.406 103.797L335.391 119.5H326.344ZM350.156 112.375C350.156 111.938 350.008 111.562 349.711 111.25C349.43 110.922 348.93 110.625 348.211 110.359C347.492 110.078 346.484 109.797 345.188 109.516C343.953 109.25 342.789 108.898 341.695 108.461C340.617 108.023 339.672 107.492 338.859 106.867C338.047 106.242 337.406 105.5 336.938 104.641C336.484 103.781 336.258 102.797 336.258 101.688C336.258 100.609 336.484 99.5938 336.938 98.6406C337.406 97.6719 338.086 96.8203 338.977 96.0859C339.883 95.3359 340.984 94.75 342.281 94.3281C343.578 93.8906 345.055 93.6719 346.711 93.6719C348.992 93.6719 350.961 94.0234 352.617 94.7266C354.273 95.4141 355.547 96.3828 356.438 97.6328C357.344 98.8672 357.797 100.297 357.797 101.922H349.898C349.898 101.281 349.789 100.734 349.57 100.281C349.367 99.8281 349.031 99.4844 348.562 99.25C348.094 99 347.469 98.875 346.688 98.875C346.141 98.875 345.641 98.9766 345.188 99.1797C344.75 99.3828 344.398 99.6641 344.133 100.023C343.867 100.383 343.734 100.805 343.734 101.289C343.734 101.633 343.812 101.945 343.969 102.227C344.141 102.492 344.398 102.742 344.742 102.977C345.086 103.195 345.523 103.398 346.055 103.586C346.586 103.758 347.227 103.914 347.977 104.055C349.68 104.367 351.273 104.812 352.758 105.391C354.242 105.969 355.445 106.789 356.367 107.852C357.305 108.914 357.773 110.344 357.773 112.141C357.773 113.266 357.516 114.305 357 115.258C356.484 116.195 355.742 117.023 354.773 117.742C353.805 118.445 352.641 118.992 351.281 119.383C349.922 119.773 348.391 119.969 346.688 119.969C344.266 119.969 342.219 119.539 340.547 118.68C338.875 117.805 337.609 116.711 336.75 115.398C335.906 114.07 335.484 112.727 335.484 111.367H342.844C342.875 112.148 343.062 112.789 343.406 113.289C343.766 113.789 344.242 114.156 344.836 114.391C345.43 114.625 346.117 114.742 346.898 114.742C347.617 114.742 348.211 114.641 348.68 114.438C349.164 114.234 349.531 113.961 349.781 113.617C350.031 113.258 350.156 112.844 350.156 112.375Z" fill="black"/>
<path d="M1134 0.5H1348C1356.28 0.5 1363 7.21573 1363 15.5V148.5C1363 156.784 1356.28 163.5 1348 163.5H1134V0.5Z" fill="#40C784"/>
<path fill-rule="evenodd" clip-rule="evenodd" d="M1219.98 53.5C1219.85 53.5 1219.73 53.5527 1219.64 53.6464C1219.55 53.7402 1219.5 53.8674 1219.5 54V110C1219.5 110.133 1219.55 110.26 1219.64 110.354C1219.73 110.447 1219.85 110.5 1219.98 110.5H1277.02C1277.15 110.5 1277.27 110.447 1277.36 110.354C1277.45 110.26 1277.5 110.133 1277.5 110V64.5C1277.5 64.3674 1277.45 64.2402 1277.36 64.1464C1277.27 64.0527 1277.15 64 1277.02 64H1248.5C1247.65 64 1246.84 63.6045 1246.29 62.9206L1238.77 53.5H1219.98ZM1215.58 49.4038C1216.74 48.1848 1218.33 47.5 1219.98 47.5H1240.11C1240.97 47.5 1241.77 47.8955 1242.32 48.5794L1249.85 58H1277.02C1278.67 58 1280.26 58.6848 1281.42 59.9038C1282.59 61.1228 1283.25 62.7761 1283.25 64.5V110C1283.25 111.724 1282.59 113.377 1281.42 114.596C1280.26 115.815 1278.67 116.5 1277.02 116.5H1219.98C1218.33 116.5 1216.74 115.815 1215.58 114.596C1214.41 113.377 1213.75 111.724 1213.75 110V54C1213.75 52.2761 1214.41 50.6228 1215.58 49.4038Z" fill="white"/>
<path fill-rule="evenodd" clip-rule="evenodd" d="M1244.16 76.0251C1245.47 77.392 1245.47 79.608 1244.16 80.9749L1238.15 87.25L1244.16 93.5251C1245.47 94.892 1245.47 97.108 1244.16 98.4749C1242.85 99.8417 1240.73 99.8417 1239.42 98.4749L1231.03 89.7249C1229.72 88.358 1229.72 86.142 1231.03 84.7751L1239.42 76.0251C1240.73 74.6583 1242.85 74.6583 1244.16 76.0251Z" fill="white"/>
<path fill-rule="evenodd" clip-rule="evenodd" d="M1252.12 98.4749C1250.81 97.108 1250.81 94.892 1252.12 93.5251L1258.13 87.25L1252.12 80.9749C1250.81 79.608 1250.81 77.392 1252.12 76.0251C1253.43 74.6583 1255.55 74.6583 1256.86 76.0251L1265.25 84.7751C1266.56 86.142 1266.56 88.358 1265.25 89.7249L1256.86 98.4749C1255.55 99.8417 1253.43 99.8417 1252.12 98.4749Z" fill="white"/>
</g>
<defs>
<clipPath id="clip0_296_2483">
<rect width="1363" height="163" fill="white" transform="translate(0 0.5)"/>
</clipPath>
</defs>
</svg>
