<svg width="1363" height="164" viewBox="0 0 1363 164" fill="none" xmlns="http://www.w3.org/2000/svg">
<g clip-path="url(#clip0_296_2467)">
<path d="M0 15.5C0 7.21573 6.71573 0.5 15 0.5H37V163.5H15C6.71573 163.5 0 156.784 0 148.5V15.5Z" fill="#424242"/>
<path d="M1134 0.5H37V163.5H1134V0.5Z" fill="#F0F0F0"/>
<path d="M104.414 55.8398H107.918C107.848 56.9883 107.531 58.0078 106.969 58.8984C106.414 59.7891 105.637 60.4844 104.637 60.9844C103.645 61.4844 102.449 61.7344 101.051 61.7344C99.957 61.7344 98.9766 61.5469 98.1094 61.1719C97.2422 60.7891 96.5 60.2422 95.8828 59.5312C95.2734 58.8203 94.8086 57.9609 94.4883 56.9531C94.168 55.9453 94.0078 54.8164 94.0078 53.5664V52.3828C94.0078 51.1328 94.1719 50.0039 94.5 48.9961C94.8359 47.9805 95.3125 47.1172 95.9297 46.4062C96.5547 45.6953 97.3008 45.1484 98.168 44.7656C99.0352 44.3828 100.004 44.1914 101.074 44.1914C102.496 44.1914 103.695 44.4492 104.672 44.9648C105.656 45.4805 106.418 46.1914 106.957 47.0977C107.504 48.0039 107.832 49.0352 107.941 50.1914H104.426C104.387 49.5039 104.25 48.9219 104.016 48.4453C103.781 47.9609 103.426 47.5977 102.949 47.3555C102.48 47.1055 101.855 46.9805 101.074 46.9805C100.488 46.9805 99.9766 47.0898 99.5391 47.3086C99.1016 47.5273 98.7344 47.8594 98.4375 48.3047C98.1406 48.75 97.918 49.3125 97.7695 49.9922C97.6289 50.6641 97.5586 51.4531 97.5586 52.3594V53.5664C97.5586 54.4492 97.625 55.2266 97.7578 55.8984C97.8906 56.5625 98.0938 57.125 98.3672 57.5859C98.6484 58.0391 99.0078 58.3828 99.4453 58.6172C99.8906 58.8438 100.426 58.957 101.051 58.957C101.785 58.957 102.391 58.8398 102.867 58.6055C103.344 58.3711 103.707 58.0234 103.957 57.5625C104.215 57.1016 104.367 56.5273 104.414 55.8398ZM116.859 58.6406V52.9922C116.859 52.5859 116.793 52.2383 116.66 51.9492C116.527 51.6523 116.32 51.4219 116.039 51.2578C115.766 51.0938 115.41 51.0117 114.973 51.0117C114.598 51.0117 114.273 51.0781 114 51.2109C113.727 51.3359 113.516 51.5195 113.367 51.7617C113.219 51.9961 113.145 52.2734 113.145 52.5938H109.77C109.77 52.0547 109.895 51.543 110.145 51.0586C110.395 50.5742 110.758 50.1484 111.234 49.7812C111.711 49.4062 112.277 49.1133 112.934 48.9023C113.598 48.6914 114.34 48.5859 115.16 48.5859C116.145 48.5859 117.02 48.75 117.785 49.0781C118.551 49.4062 119.152 49.8984 119.59 50.5547C120.035 51.2109 120.258 52.0312 120.258 53.0156V58.4414C120.258 59.1367 120.301 59.707 120.387 60.1523C120.473 60.5898 120.598 60.9727 120.762 61.3008V61.5H117.352C117.188 61.1562 117.062 60.7266 116.977 60.2109C116.898 59.6875 116.859 59.1641 116.859 58.6406ZM117.305 53.7773L117.328 55.6875H115.441C114.996 55.6875 114.609 55.7383 114.281 55.8398C113.953 55.9414 113.684 56.0859 113.473 56.2734C113.262 56.4531 113.105 56.6641 113.004 56.9062C112.91 57.1484 112.863 57.4141 112.863 57.7031C112.863 57.9922 112.93 58.2539 113.062 58.4883C113.195 58.7148 113.387 58.8945 113.637 59.0273C113.887 59.1523 114.18 59.2148 114.516 59.2148C115.023 59.2148 115.465 59.1133 115.84 58.9102C116.215 58.707 116.504 58.457 116.707 58.1602C116.918 57.8633 117.027 57.582 117.035 57.3164L117.926 58.7461C117.801 59.0664 117.629 59.3984 117.41 59.7422C117.199 60.0859 116.93 60.4102 116.602 60.7148C116.273 61.0117 115.879 61.2578 115.418 61.4531C114.957 61.6406 114.41 61.7344 113.777 61.7344C112.973 61.7344 112.242 61.5742 111.586 61.2539C110.938 60.9258 110.422 60.4766 110.039 59.9062C109.664 59.3281 109.477 58.6719 109.477 57.9375C109.477 57.2734 109.602 56.6836 109.852 56.168C110.102 55.6523 110.469 55.2188 110.953 54.8672C111.445 54.5078 112.059 54.2383 112.793 54.0586C113.527 53.8711 114.379 53.7773 115.348 53.7773H117.305ZM126.234 51.5859V61.5H122.859V48.8203H126.035L126.234 51.5859ZM130.055 48.7383L129.996 51.8672C129.832 51.8438 129.633 51.8242 129.398 51.8086C129.172 51.7852 128.965 51.7734 128.777 51.7734C128.301 51.7734 127.887 51.8359 127.535 51.9609C127.191 52.0781 126.902 52.2539 126.668 52.4883C126.441 52.7227 126.27 53.0078 126.152 53.3438C126.043 53.6797 125.98 54.0625 125.965 54.4922L125.285 54.2812C125.285 53.4609 125.367 52.707 125.531 52.0195C125.695 51.3242 125.934 50.7188 126.246 50.2031C126.566 49.6875 126.957 49.2891 127.418 49.0078C127.879 48.7266 128.406 48.5859 129 48.5859C129.188 48.5859 129.379 48.6016 129.574 48.6328C129.77 48.6562 129.93 48.6914 130.055 48.7383ZM135.023 51.2578V66.375H131.648V48.8203H134.777L135.023 51.2578ZM143.051 55.0195V55.2656C143.051 56.1875 142.941 57.043 142.723 57.832C142.512 58.6211 142.199 59.3086 141.785 59.8945C141.371 60.4727 140.855 60.9258 140.238 61.2539C139.629 61.5742 138.926 61.7344 138.129 61.7344C137.355 61.7344 136.684 61.5781 136.113 61.2656C135.543 60.9531 135.062 60.5156 134.672 59.9531C134.289 59.3828 133.98 58.7227 133.746 57.9727C133.512 57.2227 133.332 56.418 133.207 55.5586V54.9141C133.332 53.9922 133.512 53.1484 133.746 52.3828C133.98 51.6094 134.289 50.9414 134.672 50.3789C135.062 49.8086 135.539 49.3672 136.102 49.0547C136.672 48.7422 137.34 48.5859 138.105 48.5859C138.91 48.5859 139.617 48.7383 140.227 49.043C140.844 49.3477 141.359 49.7852 141.773 50.3555C142.195 50.9258 142.512 51.6055 142.723 52.3945C142.941 53.1836 143.051 54.0586 143.051 55.0195ZM139.664 55.2656V55.0195C139.664 54.4805 139.617 53.9844 139.523 53.5312C139.438 53.0703 139.297 52.668 139.102 52.3242C138.914 51.9805 138.664 51.7148 138.352 51.5273C138.047 51.332 137.676 51.2344 137.238 51.2344C136.777 51.2344 136.383 51.3086 136.055 51.457C135.734 51.6055 135.473 51.8203 135.27 52.1016C135.066 52.3828 134.914 52.7188 134.812 53.1094C134.711 53.5 134.648 53.9414 134.625 54.4336V56.0625C134.664 56.6406 134.773 57.1602 134.953 57.6211C135.133 58.0742 135.41 58.4336 135.785 58.6992C136.16 58.9648 136.652 59.0977 137.262 59.0977C137.707 59.0977 138.082 59 138.387 58.8047C138.691 58.6016 138.938 58.3242 139.125 57.9727C139.32 57.6211 139.457 57.2148 139.535 56.7539C139.621 56.293 139.664 55.7969 139.664 55.2656ZM144.609 55.2891V55.043C144.609 54.1133 144.742 53.2578 145.008 52.4766C145.273 51.6875 145.66 51.0039 146.168 50.4258C146.676 49.8477 147.301 49.3984 148.043 49.0781C148.785 48.75 149.637 48.5859 150.598 48.5859C151.559 48.5859 152.414 48.75 153.164 49.0781C153.914 49.3984 154.543 49.8477 155.051 50.4258C155.566 51.0039 155.957 51.6875 156.223 52.4766C156.488 53.2578 156.621 54.1133 156.621 55.043V55.2891C156.621 56.2109 156.488 57.0664 156.223 57.8555C155.957 58.6367 155.566 59.3203 155.051 59.9062C154.543 60.4844 153.918 60.9336 153.176 61.2539C152.434 61.5742 151.582 61.7344 150.621 61.7344C149.66 61.7344 148.805 61.5742 148.055 61.2539C147.312 60.9336 146.684 60.4844 146.168 59.9062C145.66 59.3203 145.273 58.6367 145.008 57.8555C144.742 57.0664 144.609 56.2109 144.609 55.2891ZM147.984 55.043V55.2891C147.984 55.8203 148.031 56.3164 148.125 56.7773C148.219 57.2383 148.367 57.6445 148.57 57.9961C148.781 58.3398 149.055 58.6094 149.391 58.8047C149.727 59 150.137 59.0977 150.621 59.0977C151.09 59.0977 151.492 59 151.828 58.8047C152.164 58.6094 152.434 58.3398 152.637 57.9961C152.84 57.6445 152.988 57.2383 153.082 56.7773C153.184 56.3164 153.234 55.8203 153.234 55.2891V55.043C153.234 54.5273 153.184 54.043 153.082 53.5898C152.988 53.1289 152.836 52.7227 152.625 52.3711C152.422 52.0117 152.152 51.7305 151.816 51.5273C151.48 51.3242 151.074 51.2227 150.598 51.2227C150.121 51.2227 149.715 51.3242 149.379 51.5273C149.051 51.7305 148.781 52.0117 148.57 52.3711C148.367 52.7227 148.219 53.1289 148.125 53.5898C148.031 54.043 147.984 54.5273 147.984 55.043ZM158.156 55.2891V55.043C158.156 54.1133 158.289 53.2578 158.555 52.4766C158.82 51.6875 159.207 51.0039 159.715 50.4258C160.223 49.8477 160.848 49.3984 161.59 49.0781C162.332 48.75 163.184 48.5859 164.145 48.5859C165.105 48.5859 165.961 48.75 166.711 49.0781C167.461 49.3984 168.09 49.8477 168.598 50.4258C169.113 51.0039 169.504 51.6875 169.77 52.4766C170.035 53.2578 170.168 54.1133 170.168 55.043V55.2891C170.168 56.2109 170.035 57.0664 169.77 57.8555C169.504 58.6367 169.113 59.3203 168.598 59.9062C168.09 60.4844 167.465 60.9336 166.723 61.2539C165.98 61.5742 165.129 61.7344 164.168 61.7344C163.207 61.7344 162.352 61.5742 161.602 61.2539C160.859 60.9336 160.23 60.4844 159.715 59.9062C159.207 59.3203 158.82 58.6367 158.555 57.8555C158.289 57.0664 158.156 56.2109 158.156 55.2891ZM161.531 55.043V55.2891C161.531 55.8203 161.578 56.3164 161.672 56.7773C161.766 57.2383 161.914 57.6445 162.117 57.9961C162.328 58.3398 162.602 58.6094 162.938 58.8047C163.273 59 163.684 59.0977 164.168 59.0977C164.637 59.0977 165.039 59 165.375 58.8047C165.711 58.6094 165.98 58.3398 166.184 57.9961C166.387 57.6445 166.535 57.2383 166.629 56.7773C166.73 56.3164 166.781 55.8203 166.781 55.2891V55.043C166.781 54.5273 166.73 54.043 166.629 53.5898C166.535 53.1289 166.383 52.7227 166.172 52.3711C165.969 52.0117 165.699 51.7305 165.363 51.5273C165.027 51.3242 164.621 51.2227 164.145 51.2227C163.668 51.2227 163.262 51.3242 162.926 51.5273C162.598 51.7305 162.328 52.0117 162.117 52.3711C161.914 52.7227 161.766 53.1289 161.672 53.5898C161.578 54.043 161.531 54.5273 161.531 55.043ZM175.805 43.5V61.5H172.418V43.5H175.805ZM194.672 55.8398H198.176C198.105 56.9883 197.789 58.0078 197.227 58.8984C196.672 59.7891 195.895 60.4844 194.895 60.9844C193.902 61.4844 192.707 61.7344 191.309 61.7344C190.215 61.7344 189.234 61.5469 188.367 61.1719C187.5 60.7891 186.758 60.2422 186.141 59.5312C185.531 58.8203 185.066 57.9609 184.746 56.9531C184.426 55.9453 184.266 54.8164 184.266 53.5664V52.3828C184.266 51.1328 184.43 50.0039 184.758 48.9961C185.094 47.9805 185.57 47.1172 186.188 46.4062C186.812 45.6953 187.559 45.1484 188.426 44.7656C189.293 44.3828 190.262 44.1914 191.332 44.1914C192.754 44.1914 193.953 44.4492 194.93 44.9648C195.914 45.4805 196.676 46.1914 197.215 47.0977C197.762 48.0039 198.09 49.0352 198.199 50.1914H194.684C194.645 49.5039 194.508 48.9219 194.273 48.4453C194.039 47.9609 193.684 47.5977 193.207 47.3555C192.738 47.1055 192.113 46.9805 191.332 46.9805C190.746 46.9805 190.234 47.0898 189.797 47.3086C189.359 47.5273 188.992 47.8594 188.695 48.3047C188.398 48.75 188.176 49.3125 188.027 49.9922C187.887 50.6641 187.816 51.4531 187.816 52.3594V53.5664C187.816 54.4492 187.883 55.2266 188.016 55.8984C188.148 56.5625 188.352 57.125 188.625 57.5859C188.906 58.0391 189.266 58.3828 189.703 58.6172C190.148 58.8438 190.684 58.957 191.309 58.957C192.043 58.957 192.648 58.8398 193.125 58.6055C193.602 58.3711 193.965 58.0234 194.215 57.5625C194.473 57.1016 194.625 56.5273 194.672 55.8398ZM199.734 55.2891V55.043C199.734 54.1133 199.867 53.2578 200.133 52.4766C200.398 51.6875 200.785 51.0039 201.293 50.4258C201.801 49.8477 202.426 49.3984 203.168 49.0781C203.91 48.75 204.762 48.5859 205.723 48.5859C206.684 48.5859 207.539 48.75 208.289 49.0781C209.039 49.3984 209.668 49.8477 210.176 50.4258C210.691 51.0039 211.082 51.6875 211.348 52.4766C211.613 53.2578 211.746 54.1133 211.746 55.043V55.2891C211.746 56.2109 211.613 57.0664 211.348 57.8555C211.082 58.6367 210.691 59.3203 210.176 59.9062C209.668 60.4844 209.043 60.9336 208.301 61.2539C207.559 61.5742 206.707 61.7344 205.746 61.7344C204.785 61.7344 203.93 61.5742 203.18 61.2539C202.438 60.9336 201.809 60.4844 201.293 59.9062C200.785 59.3203 200.398 58.6367 200.133 57.8555C199.867 57.0664 199.734 56.2109 199.734 55.2891ZM203.109 55.043V55.2891C203.109 55.8203 203.156 56.3164 203.25 56.7773C203.344 57.2383 203.492 57.6445 203.695 57.9961C203.906 58.3398 204.18 58.6094 204.516 58.8047C204.852 59 205.262 59.0977 205.746 59.0977C206.215 59.0977 206.617 59 206.953 58.8047C207.289 58.6094 207.559 58.3398 207.762 57.9961C207.965 57.6445 208.113 57.2383 208.207 56.7773C208.309 56.3164 208.359 55.8203 208.359 55.2891V55.043C208.359 54.5273 208.309 54.043 208.207 53.5898C208.113 53.1289 207.961 52.7227 207.75 52.3711C207.547 52.0117 207.277 51.7305 206.941 51.5273C206.605 51.3242 206.199 51.2227 205.723 51.2227C205.246 51.2227 204.84 51.3242 204.504 51.5273C204.176 51.7305 203.906 52.0117 203.695 52.3711C203.492 52.7227 203.344 53.1289 203.25 53.5898C203.156 54.043 203.109 54.5273 203.109 55.043ZM217.125 51.5273V61.5H213.75V48.8203H216.914L217.125 51.5273ZM216.633 54.7148H215.719C215.719 53.7773 215.84 52.9336 216.082 52.1836C216.324 51.4258 216.664 50.7812 217.102 50.25C217.539 49.7109 218.059 49.3008 218.66 49.0195C219.27 48.7305 219.949 48.5859 220.699 48.5859C221.293 48.5859 221.836 48.6719 222.328 48.8438C222.82 49.0156 223.242 49.2891 223.594 49.6641C223.953 50.0391 224.227 50.5352 224.414 51.1523C224.609 51.7695 224.707 52.5234 224.707 53.4141V61.5H221.309V53.4023C221.309 52.8398 221.23 52.4023 221.074 52.0898C220.918 51.7773 220.688 51.5586 220.383 51.4336C220.086 51.3008 219.719 51.2344 219.281 51.2344C218.828 51.2344 218.434 51.3242 218.098 51.5039C217.77 51.6836 217.496 51.9336 217.277 52.2539C217.066 52.5664 216.906 52.9336 216.797 53.3555C216.688 53.7773 216.633 54.2305 216.633 54.7148ZM230.578 51.5273V61.5H227.203V48.8203H230.367L230.578 51.5273ZM230.086 54.7148H229.172C229.172 53.7773 229.293 52.9336 229.535 52.1836C229.777 51.4258 230.117 50.7812 230.555 50.25C230.992 49.7109 231.512 49.3008 232.113 49.0195C232.723 48.7305 233.402 48.5859 234.152 48.5859C234.746 48.5859 235.289 48.6719 235.781 48.8438C236.273 49.0156 236.695 49.2891 237.047 49.6641C237.406 50.0391 237.68 50.5352 237.867 51.1523C238.062 51.7695 238.16 52.5234 238.16 53.4141V61.5H234.762V53.4023C234.762 52.8398 234.684 52.4023 234.527 52.0898C234.371 51.7773 234.141 51.5586 233.836 51.4336C233.539 51.3008 233.172 51.2344 232.734 51.2344C232.281 51.2344 231.887 51.3242 231.551 51.5039C231.223 51.6836 230.949 51.9336 230.73 52.2539C230.52 52.5664 230.359 52.9336 230.25 53.3555C230.141 53.7773 230.086 54.2305 230.086 54.7148ZM246.562 61.7344C245.578 61.7344 244.695 61.5781 243.914 61.2656C243.133 60.9453 242.469 60.5039 241.922 59.9414C241.383 59.3789 240.969 58.7266 240.68 57.9844C240.391 57.2344 240.246 56.4375 240.246 55.5938V55.125C240.246 54.1641 240.383 53.2852 240.656 52.4883C240.93 51.6914 241.32 51 241.828 50.4141C242.344 49.8281 242.969 49.3789 243.703 49.0664C244.438 48.7461 245.266 48.5859 246.188 48.5859C247.086 48.5859 247.883 48.7344 248.578 49.0312C249.273 49.3281 249.855 49.75 250.324 50.2969C250.801 50.8438 251.16 51.5 251.402 52.2656C251.645 53.0234 251.766 53.8672 251.766 54.7969V56.2031H241.688V53.9531H248.449V53.6953C248.449 53.2266 248.363 52.8086 248.191 52.4414C248.027 52.0664 247.777 51.7695 247.441 51.5508C247.105 51.332 246.676 51.2227 246.152 51.2227C245.707 51.2227 245.324 51.3203 245.004 51.5156C244.684 51.7109 244.422 51.9844 244.219 52.3359C244.023 52.6875 243.875 53.1016 243.773 53.5781C243.68 54.0469 243.633 54.5625 243.633 55.125V55.5938C243.633 56.1016 243.703 56.5703 243.844 57C243.992 57.4297 244.199 57.8008 244.465 58.1133C244.738 58.4258 245.066 58.668 245.449 58.8398C245.84 59.0117 246.281 59.0977 246.773 59.0977C247.383 59.0977 247.949 58.9805 248.473 58.7461C249.004 58.5039 249.461 58.1406 249.844 57.6562L251.484 59.4375C251.219 59.8203 250.855 60.1875 250.395 60.5391C249.941 60.8906 249.395 61.1797 248.754 61.4062C248.113 61.625 247.383 61.7344 246.562 61.7344ZM258.926 59.0977C259.34 59.0977 259.707 59.0195 260.027 58.8633C260.348 58.6992 260.598 58.4727 260.777 58.1836C260.965 57.8867 261.062 57.5391 261.07 57.1406H264.246C264.238 58.0312 264 58.8242 263.531 59.5195C263.062 60.207 262.434 60.75 261.645 61.1484C260.855 61.5391 259.973 61.7344 258.996 61.7344C258.012 61.7344 257.152 61.5703 256.418 61.2422C255.691 60.9141 255.086 60.4609 254.602 59.8828C254.117 59.2969 253.754 58.6172 253.512 57.8438C253.27 57.0625 253.148 56.2266 253.148 55.3359V54.9961C253.148 54.0977 253.27 53.2617 253.512 52.4883C253.754 51.707 254.117 51.0273 254.602 50.4492C255.086 49.8633 255.691 49.4062 256.418 49.0781C257.145 48.75 257.996 48.5859 258.973 48.5859C260.012 48.5859 260.922 48.7852 261.703 49.1836C262.492 49.582 263.109 50.1523 263.555 50.8945C264.008 51.6289 264.238 52.5 264.246 53.5078H261.07C261.062 53.0859 260.973 52.7031 260.801 52.3594C260.637 52.0156 260.395 51.7422 260.074 51.5391C259.762 51.3281 259.375 51.2227 258.914 51.2227C258.422 51.2227 258.02 51.3281 257.707 51.5391C257.395 51.7422 257.152 52.0234 256.98 52.3828C256.809 52.7344 256.688 53.1367 256.617 53.5898C256.555 54.0352 256.523 54.5039 256.523 54.9961V55.3359C256.523 55.8281 256.555 56.3008 256.617 56.7539C256.68 57.207 256.797 57.6094 256.969 57.9609C257.148 58.3125 257.395 58.5898 257.707 58.793C258.02 58.9961 258.426 59.0977 258.926 59.0977ZM272.414 48.8203V51.2109H265.031V48.8203H272.414ZM266.859 45.6914H270.234V57.6797C270.234 58.0469 270.281 58.3281 270.375 58.5234C270.477 58.7188 270.625 58.8555 270.82 58.9336C271.016 59.0039 271.262 59.0391 271.559 59.0391C271.77 59.0391 271.957 59.0312 272.121 59.0156C272.293 58.9922 272.438 58.9688 272.555 58.9453L272.566 61.4297C272.277 61.5234 271.965 61.5977 271.629 61.6523C271.293 61.707 270.922 61.7344 270.516 61.7344C269.773 61.7344 269.125 61.6133 268.57 61.3711C268.023 61.1211 267.602 60.7227 267.305 60.1758C267.008 59.6289 266.859 58.9102 266.859 58.0195V45.6914Z" fill="#888888"/>
<path d="M118.594 98.922V105.25H101.086V98.922H118.594ZM103.828 85.3751V119.5H95.6016V85.3751H103.828ZM124.125 85.3751V119.5H115.922V85.3751H124.125ZM127.992 107.078V106.586C127.992 104.727 128.258 103.016 128.789 101.453C129.32 99.8751 130.102 98.5079 131.133 97.3517C132.164 96.1954 133.438 95.297 134.953 94.6562C136.469 94 138.219 93.672 140.203 93.672C142.203 93.672 143.961 94 145.477 94.6562C147.008 95.297 148.289 96.1954 149.32 97.3517C150.352 98.5079 151.133 99.8751 151.664 101.453C152.195 103.016 152.461 104.727 152.461 106.586V107.078C152.461 108.922 152.195 110.633 151.664 112.211C151.133 113.773 150.352 115.141 149.32 116.312C148.289 117.469 147.016 118.367 145.5 119.008C143.984 119.648 142.234 119.969 140.25 119.969C138.266 119.969 136.508 119.648 134.977 119.008C133.445 118.367 132.164 117.469 131.133 116.312C130.102 115.141 129.32 113.773 128.789 112.211C128.258 110.633 127.992 108.922 127.992 107.078ZM135.891 106.586V107.078C135.891 108.031 135.961 108.922 136.102 109.75C136.242 110.578 136.477 111.305 136.805 111.93C137.133 112.539 137.578 113.016 138.141 113.359C138.703 113.703 139.406 113.875 140.25 113.875C141.078 113.875 141.766 113.703 142.312 113.359C142.875 113.016 143.32 112.539 143.648 111.93C143.977 111.305 144.211 110.578 144.352 109.75C144.492 108.922 144.562 108.031 144.562 107.078V106.586C144.562 105.664 144.492 104.797 144.352 103.984C144.211 103.156 143.977 102.43 143.648 101.805C143.32 101.164 142.875 100.664 142.312 100.305C141.75 99.9454 141.047 99.7657 140.203 99.7657C139.375 99.7657 138.68 99.9454 138.117 100.305C137.57 100.664 137.133 101.164 136.805 101.805C136.477 102.43 136.242 103.156 136.102 103.984C135.961 104.797 135.891 105.664 135.891 106.586ZM163.688 111.953L168.375 94.1407H173.32L171.562 103.07L166.922 119.5H162.961L163.688 111.953ZM161.836 94.1407L164.742 111.812L165.07 119.5H160.266L154.266 94.1407H161.836ZM177.492 111.438L180.422 94.1407H187.992L182.039 119.5H177.234L177.492 111.438ZM173.883 94.1407L178.617 111.906L179.344 119.5H175.336L170.789 103.117L169.102 94.1407H173.883ZM218.297 85.3751V119.5H210.07V85.3751H218.297ZM228.562 85.3751V91.7267H200.039V85.3751H228.562ZM225.773 107.078V106.586C225.773 104.727 226.039 103.016 226.57 101.453C227.102 99.8751 227.883 98.5079 228.914 97.3517C229.945 96.1954 231.219 95.297 232.734 94.6562C234.25 94 236 93.672 237.984 93.672C239.984 93.672 241.742 94 243.258 94.6562C244.789 95.297 246.07 96.1954 247.102 97.3517C248.133 98.5079 248.914 99.8751 249.445 101.453C249.977 103.016 250.242 104.727 250.242 106.586V107.078C250.242 108.922 249.977 110.633 249.445 112.211C248.914 113.773 248.133 115.141 247.102 116.312C246.07 117.469 244.797 118.367 243.281 119.008C241.766 119.648 240.016 119.969 238.031 119.969C236.047 119.969 234.289 119.648 232.758 119.008C231.227 118.367 229.945 117.469 228.914 116.312C227.883 115.141 227.102 113.773 226.57 112.211C226.039 110.633 225.773 108.922 225.773 107.078ZM233.672 106.586V107.078C233.672 108.031 233.742 108.922 233.883 109.75C234.023 110.578 234.258 111.305 234.586 111.93C234.914 112.539 235.359 113.016 235.922 113.359C236.484 113.703 237.188 113.875 238.031 113.875C238.859 113.875 239.547 113.703 240.094 113.359C240.656 113.016 241.102 112.539 241.43 111.93C241.758 111.305 241.992 110.578 242.133 109.75C242.273 108.922 242.344 108.031 242.344 107.078V106.586C242.344 105.664 242.273 104.797 242.133 103.984C241.992 103.156 241.758 102.43 241.43 101.805C241.102 101.164 240.656 100.664 240.094 100.305C239.531 99.9454 238.828 99.7657 237.984 99.7657C237.156 99.7657 236.461 99.9454 235.898 100.305C235.352 100.664 234.914 101.164 234.586 101.805C234.258 102.43 234.023 103.156 233.883 103.984C233.742 104.797 233.672 105.664 233.672 106.586ZM266.086 85.3751H279.516C282.141 85.3751 284.422 85.7657 286.359 86.547C288.297 87.3282 289.789 88.4845 290.836 90.0157C291.898 91.547 292.43 93.4376 292.43 95.6876C292.43 97.6407 292.125 99.2735 291.516 100.586C290.906 101.898 290.055 102.984 288.961 103.844C287.883 104.688 286.625 105.383 285.188 105.93L282.492 107.453H271.219L271.172 101.102H279.516C280.562 101.102 281.43 100.914 282.117 100.539C282.805 100.164 283.32 99.6329 283.664 98.9454C284.023 98.2423 284.203 97.4063 284.203 96.4376C284.203 95.4532 284.023 94.6095 283.664 93.9062C283.305 93.2031 282.773 92.6642 282.07 92.2892C281.383 91.9142 280.531 91.7267 279.516 91.7267H274.312V119.5H266.086V85.3751ZM284.766 119.5L277.219 104.406L285.938 104.359L293.578 119.148V119.5H284.766ZM311.836 113.336V94.1407H319.758V119.5H312.352L311.836 113.336ZM312.586 108.18L314.648 108.133C314.648 109.836 314.445 111.414 314.039 112.867C313.633 114.305 313.031 115.555 312.234 116.617C311.453 117.68 310.484 118.508 309.328 119.102C308.188 119.68 306.867 119.969 305.367 119.969C304.117 119.969 302.969 119.797 301.922 119.453C300.891 119.094 300 118.539 299.25 117.789C298.5 117.023 297.914 116.047 297.492 114.859C297.086 113.656 296.883 112.219 296.883 110.547V94.1407H304.781V110.594C304.781 111.156 304.852 111.641 304.992 112.047C305.133 112.453 305.336 112.797 305.602 113.078C305.867 113.344 306.195 113.547 306.586 113.688C306.992 113.812 307.453 113.875 307.969 113.875C309.156 113.875 310.086 113.625 310.758 113.125C311.43 112.625 311.898 111.945 312.164 111.086C312.445 110.227 312.586 109.258 312.586 108.18ZM331.875 99.5548V119.5H323.977V94.1407H331.383L331.875 99.5548ZM330.938 105.953L329.086 106C329.086 104.062 329.32 102.336 329.789 100.82C330.258 99.2892 330.922 97.9923 331.781 96.9298C332.641 95.8673 333.664 95.0626 334.852 94.5157C336.055 93.9532 337.391 93.672 338.859 93.672C340.031 93.672 341.102 93.8439 342.07 94.1876C343.055 94.5313 343.898 95.086 344.602 95.8517C345.32 96.6173 345.867 97.6329 346.242 98.8985C346.633 100.148 346.828 101.695 346.828 103.539V119.5H338.883V103.516C338.883 102.5 338.742 101.727 338.461 101.195C338.18 100.648 337.773 100.273 337.242 100.07C336.711 99.8673 336.062 99.7657 335.297 99.7657C334.484 99.7657 333.797 99.922 333.234 100.234C332.672 100.547 332.219 100.984 331.875 101.547C331.547 102.094 331.305 102.742 331.148 103.492C331.008 104.242 330.938 105.062 330.938 105.953ZM363.773 108.695H357.047C357.047 107.32 357.141 106.109 357.328 105.062C357.531 104 357.875 103.047 358.359 102.203C358.844 101.359 359.5 100.578 360.328 99.8595C361.062 99.2501 361.695 98.6642 362.227 98.1017C362.758 97.5392 363.164 96.9689 363.445 96.3907C363.727 95.8126 363.867 95.1954 363.867 94.5392C363.867 93.7267 363.75 93.0626 363.516 92.547C363.297 92.0313 362.961 91.6485 362.508 91.3985C362.07 91.1329 361.516 91.0001 360.844 91.0001C360.297 91.0001 359.781 91.1329 359.297 91.3985C358.828 91.6642 358.445 92.0782 358.148 92.6407C357.852 93.1876 357.688 93.9142 357.656 94.8204H349.711C349.758 92.4923 350.273 90.6017 351.258 89.1485C352.258 87.6798 353.586 86.6095 355.242 85.9376C356.914 85.2501 358.781 84.9062 360.844 84.9062C363.125 84.9062 365.086 85.2579 366.727 85.961C368.367 86.6642 369.625 87.711 370.5 89.1017C371.375 90.4767 371.812 92.172 371.812 94.1876C371.812 95.5313 371.555 96.7032 371.039 97.7032C370.539 98.6876 369.859 99.6095 369 100.469C368.156 101.312 367.211 102.219 366.164 103.188C365.258 103.984 364.641 104.797 364.312 105.625C363.984 106.438 363.805 107.461 363.773 108.695ZM356.086 115.82C356.086 114.695 356.492 113.758 357.305 113.008C358.117 112.242 359.172 111.859 360.469 111.859C361.766 111.859 362.82 112.242 363.633 113.008C364.445 113.758 364.852 114.695 364.852 115.82C364.852 116.945 364.445 117.891 363.633 118.656C362.82 119.406 361.766 119.781 360.469 119.781C359.172 119.781 358.117 119.406 357.305 118.656C356.492 117.891 356.086 116.945 356.086 115.82Z" fill="black"/>
<path d="M1134 0.5H1348C1356.28 0.5 1363 7.21573 1363 15.5V148.5C1363 156.784 1356.28 163.5 1348 163.5H1134V0.5Z" fill="#40C784"/>
<path d="M1260.62 79.3847C1263.81 79.3847 1266.93 80.305 1269.59 82.0293C1272.25 83.7536 1274.32 86.2044 1275.54 89.0718C1276.76 91.9391 1277.08 95.0943 1276.46 98.1383C1275.84 101.182 1274.3 103.978 1272.04 106.173C1269.78 108.368 1266.9 109.862 1263.77 110.468C1260.63 111.073 1257.39 110.762 1254.43 109.575C1251.48 108.387 1248.96 106.376 1247.18 103.795C1245.41 101.214 1244.46 98.1806 1244.46 95.0769C1244.46 90.9151 1246.16 86.9237 1249.19 83.9808C1252.22 81.038 1256.33 79.3847 1260.62 79.3847ZM1260.62 74.1539C1256.36 74.1539 1252.19 75.381 1248.65 77.6801C1245.11 79.9791 1242.35 83.2469 1240.72 87.07C1239.09 90.8932 1238.66 95.1001 1239.49 99.1588C1240.32 103.217 1242.37 106.946 1245.39 109.872C1248.4 112.798 1252.24 114.791 1256.41 115.598C1260.59 116.405 1264.92 115.991 1268.86 114.407C1272.79 112.824 1276.16 110.142 1278.52 106.701C1280.89 103.26 1282.15 99.2151 1282.15 95.0769C1282.15 89.5278 1279.88 84.206 1275.85 80.2821C1271.81 76.3583 1266.33 74.1539 1260.62 74.1539Z" fill="white"/>
<path d="M1274.08 48H1220.23C1218.8 48 1217.43 48.5511 1216.42 49.5321C1215.41 50.513 1214.85 51.8435 1214.85 53.2307V105.538C1214.85 106.926 1215.41 108.256 1216.42 109.237C1217.43 110.218 1218.8 110.769 1220.23 110.769H1231V105.538H1220.23V68.923H1279.46V53.2307C1279.46 51.8435 1278.89 50.513 1277.88 49.5321C1276.87 48.5511 1275.5 48 1274.08 48ZM1220.23 63.6922V53.2307H1274.08V63.6922H1220.23Z" fill="white"/>
<path d="M1255.23 87.231V102.923L1268.69 95.0771L1255.23 87.231Z" fill="white"/>
</g>
<defs>
<clipPath id="clip0_296_2467">
<rect width="1363" height="163" fill="white" transform="translate(0 0.5)"/>
</clipPath>
</defs>
</svg>
