<svg width="1363" height="164" viewBox="0 0 1363 164" fill="none" xmlns="http://www.w3.org/2000/svg">
<g clip-path="url(#clip0_296_2521)">
<path d="M0 15.5C0 7.21573 6.71573 0.5 15 0.5H37V163.5H15C6.71573 163.5 0 156.784 0 148.5V15.5Z" fill="#424242"/>
<path d="M1134 0.5H37V163.5H1134V0.5Z" fill="#F0F0F0"/>
<path d="M104.414 55.8398H107.918C107.848 56.9883 107.531 58.0078 106.969 58.8984C106.414 59.7891 105.637 60.4844 104.637 60.9844C103.645 61.4844 102.449 61.7344 101.051 61.7344C99.957 61.7344 98.9766 61.5469 98.1094 61.1719C97.2422 60.7891 96.5 60.2422 95.8828 59.5312C95.2734 58.8203 94.8086 57.9609 94.4883 56.9531C94.168 55.9453 94.0078 54.8164 94.0078 53.5664V52.3828C94.0078 51.1328 94.1719 50.0039 94.5 48.9961C94.8359 47.9805 95.3125 47.1172 95.9297 46.4062C96.5547 45.6953 97.3008 45.1484 98.168 44.7656C99.0352 44.3828 100.004 44.1914 101.074 44.1914C102.496 44.1914 103.695 44.4492 104.672 44.9648C105.656 45.4805 106.418 46.1914 106.957 47.0977C107.504 48.0039 107.832 49.0352 107.941 50.1914H104.426C104.387 49.5039 104.25 48.9219 104.016 48.4453C103.781 47.9609 103.426 47.5977 102.949 47.3555C102.48 47.1055 101.855 46.9805 101.074 46.9805C100.488 46.9805 99.9766 47.0898 99.5391 47.3086C99.1016 47.5273 98.7344 47.8594 98.4375 48.3047C98.1406 48.75 97.918 49.3125 97.7695 49.9922C97.6289 50.6641 97.5586 51.4531 97.5586 52.3594V53.5664C97.5586 54.4492 97.625 55.2266 97.7578 55.8984C97.8906 56.5625 98.0938 57.125 98.3672 57.5859C98.6484 58.0391 99.0078 58.3828 99.4453 58.6172C99.8906 58.8438 100.426 58.957 101.051 58.957C101.785 58.957 102.391 58.8398 102.867 58.6055C103.344 58.3711 103.707 58.0234 103.957 57.5625C104.215 57.1016 104.367 56.5273 104.414 55.8398ZM116.859 58.6406V52.9922C116.859 52.5859 116.793 52.2383 116.66 51.9492C116.527 51.6523 116.32 51.4219 116.039 51.2578C115.766 51.0938 115.41 51.0117 114.973 51.0117C114.598 51.0117 114.273 51.0781 114 51.2109C113.727 51.3359 113.516 51.5195 113.367 51.7617C113.219 51.9961 113.145 52.2734 113.145 52.5938H109.77C109.77 52.0547 109.895 51.543 110.145 51.0586C110.395 50.5742 110.758 50.1484 111.234 49.7812C111.711 49.4062 112.277 49.1133 112.934 48.9023C113.598 48.6914 114.34 48.5859 115.16 48.5859C116.145 48.5859 117.02 48.75 117.785 49.0781C118.551 49.4062 119.152 49.8984 119.59 50.5547C120.035 51.2109 120.258 52.0312 120.258 53.0156V58.4414C120.258 59.1367 120.301 59.707 120.387 60.1523C120.473 60.5898 120.598 60.9727 120.762 61.3008V61.5H117.352C117.188 61.1562 117.062 60.7266 116.977 60.2109C116.898 59.6875 116.859 59.1641 116.859 58.6406ZM117.305 53.7773L117.328 55.6875H115.441C114.996 55.6875 114.609 55.7383 114.281 55.8398C113.953 55.9414 113.684 56.0859 113.473 56.2734C113.262 56.4531 113.105 56.6641 113.004 56.9062C112.91 57.1484 112.863 57.4141 112.863 57.7031C112.863 57.9922 112.93 58.2539 113.062 58.4883C113.195 58.7148 113.387 58.8945 113.637 59.0273C113.887 59.1523 114.18 59.2148 114.516 59.2148C115.023 59.2148 115.465 59.1133 115.84 58.9102C116.215 58.707 116.504 58.457 116.707 58.1602C116.918 57.8633 117.027 57.582 117.035 57.3164L117.926 58.7461C117.801 59.0664 117.629 59.3984 117.41 59.7422C117.199 60.0859 116.93 60.4102 116.602 60.7148C116.273 61.0117 115.879 61.2578 115.418 61.4531C114.957 61.6406 114.41 61.7344 113.777 61.7344C112.973 61.7344 112.242 61.5742 111.586 61.2539C110.938 60.9258 110.422 60.4766 110.039 59.9062C109.664 59.3281 109.477 58.6719 109.477 57.9375C109.477 57.2734 109.602 56.6836 109.852 56.168C110.102 55.6523 110.469 55.2188 110.953 54.8672C111.445 54.5078 112.059 54.2383 112.793 54.0586C113.527 53.8711 114.379 53.7773 115.348 53.7773H117.305ZM126.234 51.5859V61.5H122.859V48.8203H126.035L126.234 51.5859ZM130.055 48.7383L129.996 51.8672C129.832 51.8438 129.633 51.8242 129.398 51.8086C129.172 51.7852 128.965 51.7734 128.777 51.7734C128.301 51.7734 127.887 51.8359 127.535 51.9609C127.191 52.0781 126.902 52.2539 126.668 52.4883C126.441 52.7227 126.27 53.0078 126.152 53.3438C126.043 53.6797 125.98 54.0625 125.965 54.4922L125.285 54.2812C125.285 53.4609 125.367 52.707 125.531 52.0195C125.695 51.3242 125.934 50.7188 126.246 50.2031C126.566 49.6875 126.957 49.2891 127.418 49.0078C127.879 48.7266 128.406 48.5859 129 48.5859C129.188 48.5859 129.379 48.6016 129.574 48.6328C129.77 48.6562 129.93 48.6914 130.055 48.7383ZM135.023 51.2578V66.375H131.648V48.8203H134.777L135.023 51.2578ZM143.051 55.0195V55.2656C143.051 56.1875 142.941 57.043 142.723 57.832C142.512 58.6211 142.199 59.3086 141.785 59.8945C141.371 60.4727 140.855 60.9258 140.238 61.2539C139.629 61.5742 138.926 61.7344 138.129 61.7344C137.355 61.7344 136.684 61.5781 136.113 61.2656C135.543 60.9531 135.062 60.5156 134.672 59.9531C134.289 59.3828 133.98 58.7227 133.746 57.9727C133.512 57.2227 133.332 56.418 133.207 55.5586V54.9141C133.332 53.9922 133.512 53.1484 133.746 52.3828C133.98 51.6094 134.289 50.9414 134.672 50.3789C135.062 49.8086 135.539 49.3672 136.102 49.0547C136.672 48.7422 137.34 48.5859 138.105 48.5859C138.91 48.5859 139.617 48.7383 140.227 49.043C140.844 49.3477 141.359 49.7852 141.773 50.3555C142.195 50.9258 142.512 51.6055 142.723 52.3945C142.941 53.1836 143.051 54.0586 143.051 55.0195ZM139.664 55.2656V55.0195C139.664 54.4805 139.617 53.9844 139.523 53.5312C139.438 53.0703 139.297 52.668 139.102 52.3242C138.914 51.9805 138.664 51.7148 138.352 51.5273C138.047 51.332 137.676 51.2344 137.238 51.2344C136.777 51.2344 136.383 51.3086 136.055 51.457C135.734 51.6055 135.473 51.8203 135.27 52.1016C135.066 52.3828 134.914 52.7188 134.812 53.1094C134.711 53.5 134.648 53.9414 134.625 54.4336V56.0625C134.664 56.6406 134.773 57.1602 134.953 57.6211C135.133 58.0742 135.41 58.4336 135.785 58.6992C136.16 58.9648 136.652 59.0977 137.262 59.0977C137.707 59.0977 138.082 59 138.387 58.8047C138.691 58.6016 138.938 58.3242 139.125 57.9727C139.32 57.6211 139.457 57.2148 139.535 56.7539C139.621 56.293 139.664 55.7969 139.664 55.2656ZM144.609 55.2891V55.043C144.609 54.1133 144.742 53.2578 145.008 52.4766C145.273 51.6875 145.66 51.0039 146.168 50.4258C146.676 49.8477 147.301 49.3984 148.043 49.0781C148.785 48.75 149.637 48.5859 150.598 48.5859C151.559 48.5859 152.414 48.75 153.164 49.0781C153.914 49.3984 154.543 49.8477 155.051 50.4258C155.566 51.0039 155.957 51.6875 156.223 52.4766C156.488 53.2578 156.621 54.1133 156.621 55.043V55.2891C156.621 56.2109 156.488 57.0664 156.223 57.8555C155.957 58.6367 155.566 59.3203 155.051 59.9062C154.543 60.4844 153.918 60.9336 153.176 61.2539C152.434 61.5742 151.582 61.7344 150.621 61.7344C149.66 61.7344 148.805 61.5742 148.055 61.2539C147.312 60.9336 146.684 60.4844 146.168 59.9062C145.66 59.3203 145.273 58.6367 145.008 57.8555C144.742 57.0664 144.609 56.2109 144.609 55.2891ZM147.984 55.043V55.2891C147.984 55.8203 148.031 56.3164 148.125 56.7773C148.219 57.2383 148.367 57.6445 148.57 57.9961C148.781 58.3398 149.055 58.6094 149.391 58.8047C149.727 59 150.137 59.0977 150.621 59.0977C151.09 59.0977 151.492 59 151.828 58.8047C152.164 58.6094 152.434 58.3398 152.637 57.9961C152.84 57.6445 152.988 57.2383 153.082 56.7773C153.184 56.3164 153.234 55.8203 153.234 55.2891V55.043C153.234 54.5273 153.184 54.043 153.082 53.5898C152.988 53.1289 152.836 52.7227 152.625 52.3711C152.422 52.0117 152.152 51.7305 151.816 51.5273C151.48 51.3242 151.074 51.2227 150.598 51.2227C150.121 51.2227 149.715 51.3242 149.379 51.5273C149.051 51.7305 148.781 52.0117 148.57 52.3711C148.367 52.7227 148.219 53.1289 148.125 53.5898C148.031 54.043 147.984 54.5273 147.984 55.043ZM158.156 55.2891V55.043C158.156 54.1133 158.289 53.2578 158.555 52.4766C158.82 51.6875 159.207 51.0039 159.715 50.4258C160.223 49.8477 160.848 49.3984 161.59 49.0781C162.332 48.75 163.184 48.5859 164.145 48.5859C165.105 48.5859 165.961 48.75 166.711 49.0781C167.461 49.3984 168.09 49.8477 168.598 50.4258C169.113 51.0039 169.504 51.6875 169.77 52.4766C170.035 53.2578 170.168 54.1133 170.168 55.043V55.2891C170.168 56.2109 170.035 57.0664 169.77 57.8555C169.504 58.6367 169.113 59.3203 168.598 59.9062C168.09 60.4844 167.465 60.9336 166.723 61.2539C165.98 61.5742 165.129 61.7344 164.168 61.7344C163.207 61.7344 162.352 61.5742 161.602 61.2539C160.859 60.9336 160.23 60.4844 159.715 59.9062C159.207 59.3203 158.82 58.6367 158.555 57.8555C158.289 57.0664 158.156 56.2109 158.156 55.2891ZM161.531 55.043V55.2891C161.531 55.8203 161.578 56.3164 161.672 56.7773C161.766 57.2383 161.914 57.6445 162.117 57.9961C162.328 58.3398 162.602 58.6094 162.938 58.8047C163.273 59 163.684 59.0977 164.168 59.0977C164.637 59.0977 165.039 59 165.375 58.8047C165.711 58.6094 165.98 58.3398 166.184 57.9961C166.387 57.6445 166.535 57.2383 166.629 56.7773C166.73 56.3164 166.781 55.8203 166.781 55.2891V55.043C166.781 54.5273 166.73 54.043 166.629 53.5898C166.535 53.1289 166.383 52.7227 166.172 52.3711C165.969 52.0117 165.699 51.7305 165.363 51.5273C165.027 51.3242 164.621 51.2227 164.145 51.2227C163.668 51.2227 163.262 51.3242 162.926 51.5273C162.598 51.7305 162.328 52.0117 162.117 52.3711C161.914 52.7227 161.766 53.1289 161.672 53.5898C161.578 54.043 161.531 54.5273 161.531 55.043ZM175.805 43.5V61.5H172.418V43.5H175.805ZM194.672 55.8398H198.176C198.105 56.9883 197.789 58.0078 197.227 58.8984C196.672 59.7891 195.895 60.4844 194.895 60.9844C193.902 61.4844 192.707 61.7344 191.309 61.7344C190.215 61.7344 189.234 61.5469 188.367 61.1719C187.5 60.7891 186.758 60.2422 186.141 59.5312C185.531 58.8203 185.066 57.9609 184.746 56.9531C184.426 55.9453 184.266 54.8164 184.266 53.5664V52.3828C184.266 51.1328 184.43 50.0039 184.758 48.9961C185.094 47.9805 185.57 47.1172 186.188 46.4062C186.812 45.6953 187.559 45.1484 188.426 44.7656C189.293 44.3828 190.262 44.1914 191.332 44.1914C192.754 44.1914 193.953 44.4492 194.93 44.9648C195.914 45.4805 196.676 46.1914 197.215 47.0977C197.762 48.0039 198.09 49.0352 198.199 50.1914H194.684C194.645 49.5039 194.508 48.9219 194.273 48.4453C194.039 47.9609 193.684 47.5977 193.207 47.3555C192.738 47.1055 192.113 46.9805 191.332 46.9805C190.746 46.9805 190.234 47.0898 189.797 47.3086C189.359 47.5273 188.992 47.8594 188.695 48.3047C188.398 48.75 188.176 49.3125 188.027 49.9922C187.887 50.6641 187.816 51.4531 187.816 52.3594V53.5664C187.816 54.4492 187.883 55.2266 188.016 55.8984C188.148 56.5625 188.352 57.125 188.625 57.5859C188.906 58.0391 189.266 58.3828 189.703 58.6172C190.148 58.8438 190.684 58.957 191.309 58.957C192.043 58.957 192.648 58.8398 193.125 58.6055C193.602 58.3711 193.965 58.0234 194.215 57.5625C194.473 57.1016 194.625 56.5273 194.672 55.8398ZM199.734 55.2891V55.043C199.734 54.1133 199.867 53.2578 200.133 52.4766C200.398 51.6875 200.785 51.0039 201.293 50.4258C201.801 49.8477 202.426 49.3984 203.168 49.0781C203.91 48.75 204.762 48.5859 205.723 48.5859C206.684 48.5859 207.539 48.75 208.289 49.0781C209.039 49.3984 209.668 49.8477 210.176 50.4258C210.691 51.0039 211.082 51.6875 211.348 52.4766C211.613 53.2578 211.746 54.1133 211.746 55.043V55.2891C211.746 56.2109 211.613 57.0664 211.348 57.8555C211.082 58.6367 210.691 59.3203 210.176 59.9062C209.668 60.4844 209.043 60.9336 208.301 61.2539C207.559 61.5742 206.707 61.7344 205.746 61.7344C204.785 61.7344 203.93 61.5742 203.18 61.2539C202.438 60.9336 201.809 60.4844 201.293 59.9062C200.785 59.3203 200.398 58.6367 200.133 57.8555C199.867 57.0664 199.734 56.2109 199.734 55.2891ZM203.109 55.043V55.2891C203.109 55.8203 203.156 56.3164 203.25 56.7773C203.344 57.2383 203.492 57.6445 203.695 57.9961C203.906 58.3398 204.18 58.6094 204.516 58.8047C204.852 59 205.262 59.0977 205.746 59.0977C206.215 59.0977 206.617 59 206.953 58.8047C207.289 58.6094 207.559 58.3398 207.762 57.9961C207.965 57.6445 208.113 57.2383 208.207 56.7773C208.309 56.3164 208.359 55.8203 208.359 55.2891V55.043C208.359 54.5273 208.309 54.043 208.207 53.5898C208.113 53.1289 207.961 52.7227 207.75 52.3711C207.547 52.0117 207.277 51.7305 206.941 51.5273C206.605 51.3242 206.199 51.2227 205.723 51.2227C205.246 51.2227 204.84 51.3242 204.504 51.5273C204.176 51.7305 203.906 52.0117 203.695 52.3711C203.492 52.7227 203.344 53.1289 203.25 53.5898C203.156 54.043 203.109 54.5273 203.109 55.043ZM217.125 51.5273V61.5H213.75V48.8203H216.914L217.125 51.5273ZM216.633 54.7148H215.719C215.719 53.7773 215.84 52.9336 216.082 52.1836C216.324 51.4258 216.664 50.7812 217.102 50.25C217.539 49.7109 218.059 49.3008 218.66 49.0195C219.27 48.7305 219.949 48.5859 220.699 48.5859C221.293 48.5859 221.836 48.6719 222.328 48.8438C222.82 49.0156 223.242 49.2891 223.594 49.6641C223.953 50.0391 224.227 50.5352 224.414 51.1523C224.609 51.7695 224.707 52.5234 224.707 53.4141V61.5H221.309V53.4023C221.309 52.8398 221.23 52.4023 221.074 52.0898C220.918 51.7773 220.688 51.5586 220.383 51.4336C220.086 51.3008 219.719 51.2344 219.281 51.2344C218.828 51.2344 218.434 51.3242 218.098 51.5039C217.77 51.6836 217.496 51.9336 217.277 52.2539C217.066 52.5664 216.906 52.9336 216.797 53.3555C216.688 53.7773 216.633 54.2305 216.633 54.7148ZM230.578 51.5273V61.5H227.203V48.8203H230.367L230.578 51.5273ZM230.086 54.7148H229.172C229.172 53.7773 229.293 52.9336 229.535 52.1836C229.777 51.4258 230.117 50.7812 230.555 50.25C230.992 49.7109 231.512 49.3008 232.113 49.0195C232.723 48.7305 233.402 48.5859 234.152 48.5859C234.746 48.5859 235.289 48.6719 235.781 48.8438C236.273 49.0156 236.695 49.2891 237.047 49.6641C237.406 50.0391 237.68 50.5352 237.867 51.1523C238.062 51.7695 238.16 52.5234 238.16 53.4141V61.5H234.762V53.4023C234.762 52.8398 234.684 52.4023 234.527 52.0898C234.371 51.7773 234.141 51.5586 233.836 51.4336C233.539 51.3008 233.172 51.2344 232.734 51.2344C232.281 51.2344 231.887 51.3242 231.551 51.5039C231.223 51.6836 230.949 51.9336 230.73 52.2539C230.52 52.5664 230.359 52.9336 230.25 53.3555C230.141 53.7773 230.086 54.2305 230.086 54.7148ZM246.562 61.7344C245.578 61.7344 244.695 61.5781 243.914 61.2656C243.133 60.9453 242.469 60.5039 241.922 59.9414C241.383 59.3789 240.969 58.7266 240.68 57.9844C240.391 57.2344 240.246 56.4375 240.246 55.5938V55.125C240.246 54.1641 240.383 53.2852 240.656 52.4883C240.93 51.6914 241.32 51 241.828 50.4141C242.344 49.8281 242.969 49.3789 243.703 49.0664C244.438 48.7461 245.266 48.5859 246.188 48.5859C247.086 48.5859 247.883 48.7344 248.578 49.0312C249.273 49.3281 249.855 49.75 250.324 50.2969C250.801 50.8438 251.16 51.5 251.402 52.2656C251.645 53.0234 251.766 53.8672 251.766 54.7969V56.2031H241.688V53.9531H248.449V53.6953C248.449 53.2266 248.363 52.8086 248.191 52.4414C248.027 52.0664 247.777 51.7695 247.441 51.5508C247.105 51.332 246.676 51.2227 246.152 51.2227C245.707 51.2227 245.324 51.3203 245.004 51.5156C244.684 51.7109 244.422 51.9844 244.219 52.3359C244.023 52.6875 243.875 53.1016 243.773 53.5781C243.68 54.0469 243.633 54.5625 243.633 55.125V55.5938C243.633 56.1016 243.703 56.5703 243.844 57C243.992 57.4297 244.199 57.8008 244.465 58.1133C244.738 58.4258 245.066 58.668 245.449 58.8398C245.84 59.0117 246.281 59.0977 246.773 59.0977C247.383 59.0977 247.949 58.9805 248.473 58.7461C249.004 58.5039 249.461 58.1406 249.844 57.6562L251.484 59.4375C251.219 59.8203 250.855 60.1875 250.395 60.5391C249.941 60.8906 249.395 61.1797 248.754 61.4062C248.113 61.625 247.383 61.7344 246.562 61.7344ZM258.926 59.0977C259.34 59.0977 259.707 59.0195 260.027 58.8633C260.348 58.6992 260.598 58.4727 260.777 58.1836C260.965 57.8867 261.062 57.5391 261.07 57.1406H264.246C264.238 58.0312 264 58.8242 263.531 59.5195C263.062 60.207 262.434 60.75 261.645 61.1484C260.855 61.5391 259.973 61.7344 258.996 61.7344C258.012 61.7344 257.152 61.5703 256.418 61.2422C255.691 60.9141 255.086 60.4609 254.602 59.8828C254.117 59.2969 253.754 58.6172 253.512 57.8438C253.27 57.0625 253.148 56.2266 253.148 55.3359V54.9961C253.148 54.0977 253.27 53.2617 253.512 52.4883C253.754 51.707 254.117 51.0273 254.602 50.4492C255.086 49.8633 255.691 49.4062 256.418 49.0781C257.145 48.75 257.996 48.5859 258.973 48.5859C260.012 48.5859 260.922 48.7852 261.703 49.1836C262.492 49.582 263.109 50.1523 263.555 50.8945C264.008 51.6289 264.238 52.5 264.246 53.5078H261.07C261.062 53.0859 260.973 52.7031 260.801 52.3594C260.637 52.0156 260.395 51.7422 260.074 51.5391C259.762 51.3281 259.375 51.2227 258.914 51.2227C258.422 51.2227 258.02 51.3281 257.707 51.5391C257.395 51.7422 257.152 52.0234 256.98 52.3828C256.809 52.7344 256.688 53.1367 256.617 53.5898C256.555 54.0352 256.523 54.5039 256.523 54.9961V55.3359C256.523 55.8281 256.555 56.3008 256.617 56.7539C256.68 57.207 256.797 57.6094 256.969 57.9609C257.148 58.3125 257.395 58.5898 257.707 58.793C258.02 58.9961 258.426 59.0977 258.926 59.0977ZM272.414 48.8203V51.2109H265.031V48.8203H272.414ZM266.859 45.6914H270.234V57.6797C270.234 58.0469 270.281 58.3281 270.375 58.5234C270.477 58.7188 270.625 58.8555 270.82 58.9336C271.016 59.0039 271.262 59.0391 271.559 59.0391C271.77 59.0391 271.957 59.0312 272.121 59.0156C272.293 58.9922 272.438 58.9688 272.555 58.9453L272.566 61.4297C272.277 61.5234 271.965 61.5977 271.629 61.6523C271.293 61.707 270.922 61.7344 270.516 61.7344C269.773 61.7344 269.125 61.6133 268.57 61.3711C268.023 61.1211 267.602 60.7227 267.305 60.1758C267.008 59.6289 266.859 58.9102 266.859 58.0195V45.6914Z" fill="#888888"/>
<path d="M109.219 107.922H100.734V101.57H109.219C110.375 101.57 111.312 101.375 112.031 100.984C112.75 100.594 113.273 100.055 113.602 99.3672C113.945 98.6641 114.117 97.875 114.117 97C114.117 96.0625 113.945 95.1953 113.602 94.3984C113.273 93.6016 112.75 92.9609 112.031 92.4766C111.312 91.9766 110.375 91.7266 109.219 91.7266H103.828V119.5H95.6016V85.375H109.219C111.953 85.375 114.305 85.875 116.273 86.875C118.258 87.875 119.781 89.25 120.844 91C121.906 92.7344 122.438 94.7188 122.438 96.9531C122.438 99.1562 121.906 101.078 120.844 102.719C119.781 104.359 118.258 105.641 116.273 106.562C114.305 107.469 111.953 107.922 109.219 107.922ZM134.461 100.422V119.5H126.562V94.1406H133.945L134.461 100.422ZM141.961 93.9531L141.82 101.289C141.508 101.258 141.086 101.219 140.555 101.172C140.023 101.125 139.578 101.102 139.219 101.102C138.297 101.102 137.5 101.211 136.828 101.43C136.172 101.633 135.625 101.945 135.188 102.367C134.766 102.773 134.453 103.289 134.25 103.914C134.062 104.539 133.977 105.266 133.992 106.094L132.562 105.156C132.562 103.453 132.727 101.906 133.055 100.516C133.398 99.1094 133.883 97.8984 134.508 96.8828C135.133 95.8516 135.891 95.0625 136.781 94.5156C137.672 93.9531 138.672 93.6719 139.781 93.6719C140.172 93.6719 140.555 93.6953 140.93 93.7422C141.32 93.7891 141.664 93.8594 141.961 93.9531ZM142.852 107.078V106.586C142.852 104.727 143.117 103.016 143.648 101.453C144.18 99.875 144.961 98.5078 145.992 97.3516C147.023 96.1953 148.297 95.2969 149.812 94.6562C151.328 94 153.078 93.6719 155.062 93.6719C157.062 93.6719 158.82 94 160.336 94.6562C161.867 95.2969 163.148 96.1953 164.18 97.3516C165.211 98.5078 165.992 99.875 166.523 101.453C167.055 103.016 167.32 104.727 167.32 106.586V107.078C167.32 108.922 167.055 110.633 166.523 112.211C165.992 113.773 165.211 115.141 164.18 116.312C163.148 117.469 161.875 118.367 160.359 119.008C158.844 119.648 157.094 119.969 155.109 119.969C153.125 119.969 151.367 119.648 149.836 119.008C148.305 118.367 147.023 117.469 145.992 116.312C144.961 115.141 144.18 113.773 143.648 112.211C143.117 110.633 142.852 108.922 142.852 107.078ZM150.75 106.586V107.078C150.75 108.031 150.82 108.922 150.961 109.75C151.102 110.578 151.336 111.305 151.664 111.93C151.992 112.539 152.438 113.016 153 113.359C153.562 113.703 154.266 113.875 155.109 113.875C155.938 113.875 156.625 113.703 157.172 113.359C157.734 113.016 158.18 112.539 158.508 111.93C158.836 111.305 159.07 110.578 159.211 109.75C159.352 108.922 159.422 108.031 159.422 107.078V106.586C159.422 105.664 159.352 104.797 159.211 103.984C159.07 103.156 158.836 102.43 158.508 101.805C158.18 101.164 157.734 100.664 157.172 100.305C156.609 99.9453 155.906 99.7656 155.062 99.7656C154.234 99.7656 153.539 99.9453 152.977 100.305C152.43 100.664 151.992 101.164 151.664 101.805C151.336 102.43 151.102 103.156 150.961 103.984C150.82 104.797 150.75 105.664 150.75 106.586ZM178.805 99.5078V119.5H170.906V94.1406H178.312L178.805 99.5078ZM177.844 105.953L176.039 106C176.039 104.219 176.25 102.578 176.672 101.078C177.094 99.5781 177.719 98.2734 178.547 97.1641C179.375 96.0547 180.391 95.1953 181.594 94.5859C182.812 93.9766 184.219 93.6719 185.812 93.6719C186.922 93.6719 187.93 93.8438 188.836 94.1875C189.742 94.5156 190.523 95.0391 191.18 95.7578C191.836 96.4609 192.336 97.3828 192.68 98.5234C193.039 99.6484 193.219 101 193.219 102.578V119.5H185.32V103.586C185.32 102.508 185.195 101.695 184.945 101.148C184.711 100.602 184.367 100.234 183.914 100.047C183.461 99.8594 182.906 99.7656 182.25 99.7656C181.562 99.7656 180.945 99.9219 180.398 100.234C179.852 100.547 179.383 100.984 178.992 101.547C178.617 102.094 178.328 102.742 178.125 103.492C177.938 104.242 177.844 105.062 177.844 105.953ZM192.328 105.953L190.125 106C190.125 104.219 190.32 102.578 190.711 101.078C191.117 99.5781 191.719 98.2734 192.516 97.1641C193.328 96.0547 194.336 95.1953 195.539 94.5859C196.742 93.9766 198.141 93.6719 199.734 93.6719C200.891 93.6719 201.953 93.8438 202.922 94.1875C203.891 94.5312 204.727 95.0859 205.43 95.8516C206.133 96.6172 206.68 97.6328 207.07 98.8984C207.461 100.148 207.656 101.695 207.656 103.539V119.5H199.734V103.539C199.734 102.492 199.609 101.703 199.359 101.172C199.125 100.625 198.781 100.258 198.328 100.07C197.875 99.8672 197.336 99.7656 196.711 99.7656C195.961 99.7656 195.312 99.9219 194.766 100.234C194.219 100.547 193.758 100.984 193.383 101.547C193.023 102.094 192.758 102.742 192.586 103.492C192.414 104.242 192.328 105.062 192.328 105.953ZM220.148 99.0156V129.25H212.25V94.1406H219.609L220.148 99.0156ZM235.711 106.516V107.008C235.711 108.852 235.5 110.562 235.078 112.141C234.656 113.719 234.031 115.094 233.203 116.266C232.375 117.438 231.344 118.352 230.109 119.008C228.891 119.648 227.477 119.969 225.867 119.969C224.352 119.969 223.047 119.633 221.953 118.961C220.859 118.289 219.945 117.359 219.211 116.172C218.477 114.984 217.883 113.625 217.43 112.094C216.977 110.562 216.617 108.945 216.352 107.242V106.609C216.617 104.781 216.977 103.086 217.43 101.523C217.883 99.9453 218.477 98.5703 219.211 97.3984C219.945 96.2266 220.852 95.3125 221.93 94.6562C223.023 94 224.328 93.6719 225.844 93.6719C227.453 93.6719 228.867 93.9766 230.086 94.5859C231.32 95.1953 232.352 96.0703 233.18 97.2109C234.023 98.3359 234.656 99.6875 235.078 101.266C235.5 102.844 235.711 104.594 235.711 106.516ZM227.812 107.008V106.516C227.812 105.531 227.742 104.633 227.602 103.82C227.461 102.992 227.234 102.273 226.922 101.664C226.625 101.055 226.227 100.586 225.727 100.258C225.227 99.9297 224.609 99.7656 223.875 99.7656C223.031 99.7656 222.32 99.8984 221.742 100.164C221.18 100.414 220.727 100.805 220.383 101.336C220.055 101.852 219.82 102.5 219.68 103.281C219.555 104.047 219.5 104.945 219.516 105.977V107.898C219.484 109.086 219.602 110.133 219.867 111.039C220.133 111.93 220.594 112.625 221.25 113.125C221.906 113.625 222.797 113.875 223.922 113.875C224.672 113.875 225.297 113.703 225.797 113.359C226.297 113 226.695 112.508 226.992 111.883C227.289 111.242 227.5 110.508 227.625 109.68C227.75 108.852 227.812 107.961 227.812 107.008ZM252.586 94.1406V99.625H237.305V94.1406H252.586ZM240.516 87.8359H248.414V111.227C248.414 111.898 248.492 112.422 248.648 112.797C248.805 113.156 249.07 113.414 249.445 113.57C249.836 113.711 250.352 113.781 250.992 113.781C251.445 113.781 251.82 113.773 252.117 113.758C252.414 113.727 252.695 113.688 252.961 113.641V119.289C252.289 119.508 251.586 119.672 250.852 119.781C250.117 119.906 249.336 119.969 248.508 119.969C246.82 119.969 245.375 119.703 244.172 119.172C242.984 118.641 242.078 117.805 241.453 116.664C240.828 115.523 240.516 114.039 240.516 112.211V87.8359ZM291.539 113.172V119.5H273.352V113.172H291.539ZM276.281 85.375V119.5H268.055V85.375H276.281ZM289.195 98.9219V105.039H273.352V98.9219H289.195ZM291.609 85.375V91.7266H273.352V85.375H291.609ZM302.297 99.5547V119.5H294.398V94.1406H301.805L302.297 99.5547ZM301.359 105.953L299.508 106C299.508 104.062 299.742 102.336 300.211 100.82C300.68 99.2891 301.344 97.9922 302.203 96.9297C303.062 95.8672 304.086 95.0625 305.273 94.5156C306.477 93.9531 307.812 93.6719 309.281 93.6719C310.453 93.6719 311.523 93.8438 312.492 94.1875C313.477 94.5312 314.32 95.0859 315.023 95.8516C315.742 96.6172 316.289 97.6328 316.664 98.8984C317.055 100.148 317.25 101.695 317.25 103.539V119.5H309.305V103.516C309.305 102.5 309.164 101.727 308.883 101.195C308.602 100.648 308.195 100.273 307.664 100.07C307.133 99.8672 306.484 99.7656 305.719 99.7656C304.906 99.7656 304.219 99.9219 303.656 100.234C303.094 100.547 302.641 100.984 302.297 101.547C301.969 102.094 301.727 102.742 301.57 103.492C301.43 104.242 301.359 105.062 301.359 105.953ZM337.57 94.1406H344.742V118.516C344.742 120.859 344.203 122.844 343.125 124.469C342.047 126.109 340.539 127.352 338.602 128.195C336.68 129.055 334.43 129.484 331.852 129.484C330.711 129.484 329.547 129.336 328.359 129.039C327.172 128.758 326.062 128.336 325.031 127.773C324 127.211 323.133 126.516 322.43 125.688L325.734 121.047C326.375 121.766 327.18 122.375 328.148 122.875C329.117 123.391 330.258 123.648 331.57 123.648C332.711 123.648 333.664 123.445 334.43 123.039C335.211 122.633 335.805 122.039 336.211 121.258C336.617 120.492 336.82 119.562 336.82 118.469V100.141L337.57 94.1406ZM320.719 107.125V106.633C320.719 104.711 320.953 102.961 321.422 101.383C321.906 99.7891 322.594 98.4219 323.484 97.2812C324.391 96.125 325.484 95.2344 326.766 94.6094C328.047 93.9844 329.492 93.6719 331.102 93.6719C332.836 93.6719 334.258 94.0078 335.367 94.6797C336.492 95.3359 337.391 96.2578 338.062 97.4453C338.75 98.6328 339.281 100.023 339.656 101.617C340.047 103.195 340.375 104.898 340.641 106.727V107.312C340.375 109.031 340.008 110.656 339.539 112.188C339.086 113.703 338.492 115.047 337.758 116.219C337.023 117.391 336.102 118.312 334.992 118.984C333.898 119.641 332.586 119.969 331.055 119.969C329.461 119.969 328.023 119.648 326.742 119.008C325.477 118.367 324.391 117.469 323.484 116.312C322.594 115.156 321.906 113.797 321.422 112.234C320.953 110.672 320.719 108.969 320.719 107.125ZM328.617 106.633V107.125C328.617 108.078 328.703 108.961 328.875 109.773C329.062 110.586 329.344 111.305 329.719 111.93C330.094 112.539 330.555 113.016 331.102 113.359C331.664 113.703 332.32 113.875 333.07 113.875C334.211 113.875 335.133 113.633 335.836 113.148C336.539 112.664 337.047 111.977 337.359 111.086C337.672 110.195 337.805 109.148 337.758 107.945V106.094C337.789 105.062 337.719 104.156 337.547 103.375C337.375 102.578 337.102 101.914 336.727 101.383C336.367 100.852 335.883 100.453 335.273 100.188C334.68 99.9062 333.961 99.7656 333.117 99.7656C332.383 99.7656 331.734 99.9375 331.172 100.281C330.609 100.625 330.141 101.109 329.766 101.734C329.391 102.344 329.102 103.07 328.898 103.914C328.711 104.742 328.617 105.648 328.617 106.633ZM357.633 94.1406V119.5H349.711V94.1406H357.633ZM349.242 87.6016C349.242 86.4766 349.648 85.5547 350.461 84.8359C351.273 84.1172 352.328 83.7578 353.625 83.7578C354.922 83.7578 355.977 84.1172 356.789 84.8359C357.602 85.5547 358.008 86.4766 358.008 87.6016C358.008 88.7266 357.602 89.6484 356.789 90.3672C355.977 91.0859 354.922 91.4453 353.625 91.4453C352.328 91.4453 351.273 91.0859 350.461 90.3672C349.648 89.6484 349.242 88.7266 349.242 87.6016ZM370.266 99.5547V119.5H362.367V94.1406H369.773L370.266 99.5547ZM369.328 105.953L367.477 106C367.477 104.062 367.711 102.336 368.18 100.82C368.648 99.2891 369.312 97.9922 370.172 96.9297C371.031 95.8672 372.055 95.0625 373.242 94.5156C374.445 93.9531 375.781 93.6719 377.25 93.6719C378.422 93.6719 379.492 93.8438 380.461 94.1875C381.445 94.5312 382.289 95.0859 382.992 95.8516C383.711 96.6172 384.258 97.6328 384.633 98.8984C385.023 100.148 385.219 101.695 385.219 103.539V119.5H377.273V103.516C377.273 102.5 377.133 101.727 376.852 101.195C376.57 100.648 376.164 100.273 375.633 100.07C375.102 99.8672 374.453 99.7656 373.688 99.7656C372.875 99.7656 372.188 99.9219 371.625 100.234C371.062 100.547 370.609 100.984 370.266 101.547C369.938 102.094 369.695 102.742 369.539 103.492C369.398 104.242 369.328 105.062 369.328 105.953ZM401.883 119.969C399.82 119.969 397.977 119.648 396.352 119.008C394.727 118.352 393.352 117.453 392.227 116.312C391.117 115.172 390.266 113.859 389.672 112.375C389.094 110.891 388.805 109.32 388.805 107.664V106.773C388.805 104.914 389.062 103.195 389.578 101.617C390.094 100.023 390.859 98.6328 391.875 97.4453C392.891 96.2578 394.164 95.3359 395.695 94.6797C397.227 94.0078 399.008 93.6719 401.039 93.6719C402.836 93.6719 404.445 93.9609 405.867 94.5391C407.289 95.1172 408.492 95.9453 409.477 97.0234C410.477 98.1016 411.234 99.4062 411.75 100.938C412.281 102.469 412.547 104.188 412.547 106.094V109.305H391.828V104.359H404.836V103.75C404.852 102.906 404.703 102.188 404.391 101.594C404.094 101 403.656 100.547 403.078 100.234C402.5 99.9219 401.797 99.7656 400.969 99.7656C400.109 99.7656 399.398 99.9531 398.836 100.328C398.289 100.703 397.859 101.219 397.547 101.875C397.25 102.516 397.039 103.258 396.914 104.102C396.789 104.945 396.727 105.836 396.727 106.773V107.664C396.727 108.602 396.852 109.453 397.102 110.219C397.367 110.984 397.742 111.641 398.227 112.188C398.727 112.719 399.32 113.133 400.008 113.43C400.711 113.727 401.508 113.875 402.398 113.875C403.477 113.875 404.539 113.672 405.586 113.266C406.633 112.859 407.531 112.188 408.281 111.25L411.867 115.516C411.352 116.25 410.617 116.961 409.664 117.648C408.727 118.336 407.602 118.898 406.289 119.336C404.977 119.758 403.508 119.969 401.883 119.969ZM428.039 119.969C425.977 119.969 424.133 119.648 422.508 119.008C420.883 118.352 419.508 117.453 418.383 116.312C417.273 115.172 416.422 113.859 415.828 112.375C415.25 110.891 414.961 109.32 414.961 107.664V106.773C414.961 104.914 415.219 103.195 415.734 101.617C416.25 100.023 417.016 98.6328 418.031 97.4453C419.047 96.2578 420.32 95.3359 421.852 94.6797C423.383 94.0078 425.164 93.6719 427.195 93.6719C428.992 93.6719 430.602 93.9609 432.023 94.5391C433.445 95.1172 434.648 95.9453 435.633 97.0234C436.633 98.1016 437.391 99.4062 437.906 100.938C438.438 102.469 438.703 104.188 438.703 106.094V109.305H417.984V104.359H430.992V103.75C431.008 102.906 430.859 102.188 430.547 101.594C430.25 101 429.812 100.547 429.234 100.234C428.656 99.9219 427.953 99.7656 427.125 99.7656C426.266 99.7656 425.555 99.9531 424.992 100.328C424.445 100.703 424.016 101.219 423.703 101.875C423.406 102.516 423.195 103.258 423.07 104.102C422.945 104.945 422.883 105.836 422.883 106.773V107.664C422.883 108.602 423.008 109.453 423.258 110.219C423.523 110.984 423.898 111.641 424.383 112.188C424.883 112.719 425.477 113.133 426.164 113.43C426.867 113.727 427.664 113.875 428.555 113.875C429.633 113.875 430.695 113.672 431.742 113.266C432.789 112.859 433.688 112.188 434.438 111.25L438.023 115.516C437.508 116.25 436.773 116.961 435.82 117.648C434.883 118.336 433.758 118.898 432.445 119.336C431.133 119.758 429.664 119.969 428.039 119.969ZM449.883 100.422V119.5H441.984V94.1406H449.367L449.883 100.422ZM457.383 93.9531L457.242 101.289C456.93 101.258 456.508 101.219 455.977 101.172C455.445 101.125 455 101.102 454.641 101.102C453.719 101.102 452.922 101.211 452.25 101.43C451.594 101.633 451.047 101.945 450.609 102.367C450.188 102.773 449.875 103.289 449.672 103.914C449.484 104.539 449.398 105.266 449.414 106.094L447.984 105.156C447.984 103.453 448.148 101.906 448.477 100.516C448.82 99.1094 449.305 97.8984 449.93 96.8828C450.555 95.8516 451.312 95.0625 452.203 94.5156C453.094 93.9531 454.094 93.6719 455.203 93.6719C455.594 93.6719 455.977 93.6953 456.352 93.7422C456.742 93.7891 457.086 93.8594 457.383 93.9531ZM468.445 94.1406V119.5H460.523V94.1406H468.445ZM460.055 87.6016C460.055 86.4766 460.461 85.5547 461.273 84.8359C462.086 84.1172 463.141 83.7578 464.438 83.7578C465.734 83.7578 466.789 84.1172 467.602 84.8359C468.414 85.5547 468.82 86.4766 468.82 87.6016C468.82 88.7266 468.414 89.6484 467.602 90.3672C466.789 91.0859 465.734 91.4453 464.438 91.4453C463.141 91.4453 462.086 91.0859 461.273 90.3672C460.461 89.6484 460.055 88.7266 460.055 87.6016ZM481.078 99.5547V119.5H473.18V94.1406H480.586L481.078 99.5547ZM480.141 105.953L478.289 106C478.289 104.062 478.523 102.336 478.992 100.82C479.461 99.2891 480.125 97.9922 480.984 96.9297C481.844 95.8672 482.867 95.0625 484.055 94.5156C485.258 93.9531 486.594 93.6719 488.062 93.6719C489.234 93.6719 490.305 93.8438 491.273 94.1875C492.258 94.5312 493.102 95.0859 493.805 95.8516C494.523 96.6172 495.07 97.6328 495.445 98.8984C495.836 100.148 496.031 101.695 496.031 103.539V119.5H488.086V103.516C488.086 102.5 487.945 101.727 487.664 101.195C487.383 100.648 486.977 100.273 486.445 100.07C485.914 99.8672 485.266 99.7656 484.5 99.7656C483.688 99.7656 483 99.9219 482.438 100.234C481.875 100.547 481.422 100.984 481.078 101.547C480.75 102.094 480.508 102.742 480.352 103.492C480.211 104.242 480.141 105.062 480.141 105.953ZM516.352 94.1406H523.523V118.516C523.523 120.859 522.984 122.844 521.906 124.469C520.828 126.109 519.32 127.352 517.383 128.195C515.461 129.055 513.211 129.484 510.633 129.484C509.492 129.484 508.328 129.336 507.141 129.039C505.953 128.758 504.844 128.336 503.812 127.773C502.781 127.211 501.914 126.516 501.211 125.688L504.516 121.047C505.156 121.766 505.961 122.375 506.93 122.875C507.898 123.391 509.039 123.648 510.352 123.648C511.492 123.648 512.445 123.445 513.211 123.039C513.992 122.633 514.586 122.039 514.992 121.258C515.398 120.492 515.602 119.562 515.602 118.469V100.141L516.352 94.1406ZM499.5 107.125V106.633C499.5 104.711 499.734 102.961 500.203 101.383C500.688 99.7891 501.375 98.4219 502.266 97.2812C503.172 96.125 504.266 95.2344 505.547 94.6094C506.828 93.9844 508.273 93.6719 509.883 93.6719C511.617 93.6719 513.039 94.0078 514.148 94.6797C515.273 95.3359 516.172 96.2578 516.844 97.4453C517.531 98.6328 518.062 100.023 518.438 101.617C518.828 103.195 519.156 104.898 519.422 106.727V107.312C519.156 109.031 518.789 110.656 518.32 112.188C517.867 113.703 517.273 115.047 516.539 116.219C515.805 117.391 514.883 118.312 513.773 118.984C512.68 119.641 511.367 119.969 509.836 119.969C508.242 119.969 506.805 119.648 505.523 119.008C504.258 118.367 503.172 117.469 502.266 116.312C501.375 115.156 500.688 113.797 500.203 112.234C499.734 110.672 499.5 108.969 499.5 107.125ZM507.398 106.633V107.125C507.398 108.078 507.484 108.961 507.656 109.773C507.844 110.586 508.125 111.305 508.5 111.93C508.875 112.539 509.336 113.016 509.883 113.359C510.445 113.703 511.102 113.875 511.852 113.875C512.992 113.875 513.914 113.633 514.617 113.148C515.32 112.664 515.828 111.977 516.141 111.086C516.453 110.195 516.586 109.148 516.539 107.945V106.094C516.57 105.062 516.5 104.156 516.328 103.375C516.156 102.578 515.883 101.914 515.508 101.383C515.148 100.852 514.664 100.453 514.055 100.188C513.461 99.9062 512.742 99.7656 511.898 99.7656C511.164 99.7656 510.516 99.9375 509.953 100.281C509.391 100.625 508.922 101.109 508.547 101.734C508.172 102.344 507.883 103.07 507.68 103.914C507.492 104.742 507.398 105.648 507.398 106.633Z" fill="black"/>
<path d="M1134 0.5H1348C1356.28 0.5 1363 7.21573 1363 15.5V148.5C1363 156.784 1356.28 163.5 1348 163.5H1134V0.5Z" fill="#40C784"/>
<path d="M1257.78 111.295L1258.17 117.533C1258.2 118.05 1257.82 118.505 1257.3 118.582C1255.41 118.859 1253.48 119 1251.56 119C1249.65 119 1247.72 118.859 1245.83 118.582C1245.3 118.505 1244.93 118.05 1244.96 117.533L1245.29 112.177C1241.26 111.391 1237.48 109.871 1234.05 107.648L1230.39 111.663C1230.04 112.05 1229.44 112.112 1229.01 111.805C1225.91 109.588 1223.19 106.936 1220.9 103.923C1220.59 103.506 1220.65 102.925 1221.05 102.581L1225.18 99.0235C1222.89 95.6861 1221.33 92.0191 1220.52 88.0987L1215.01 88.421C1214.48 88.4525 1214.01 88.0844 1213.93 87.5723C1213.64 85.7408 1213.5 83.8658 1213.5 81.9989C1213.5 80.1323 1213.64 78.2573 1213.93 76.4255C1214.01 75.9134 1214.48 75.537 1215.01 75.5768L1220.52 75.8991C1221.33 71.98 1222.89 68.3127 1225.18 64.9753L1221.05 61.4166C1220.65 61.0732 1220.59 60.4915 1220.9 60.0751C1223.18 57.065 1225.91 54.4132 1229.01 52.1928C1229.44 51.8858 1230.04 51.948 1230.39 52.3344L1234.05 56.3498C1237.51 54.119 1241.42 52.5541 1245.48 51.7839L1245.04 46.4743C1245 45.9495 1245.38 45.4818 1245.92 45.4043C1249.64 44.8652 1253.49 44.8652 1257.21 45.4043C1257.75 45.4818 1258.13 45.9496 1258.09 46.4743L1257.57 52.6893C1257.52 53.2401 1257.02 53.6503 1256.46 53.605C1255.89 53.5601 1255.47 53.0776 1255.52 52.5273L1255.96 47.2572C1253.05 46.9128 1250.08 46.9128 1247.17 47.2572L1247.61 52.5268C1247.66 53.046 1247.28 53.5109 1246.75 53.5949C1242.36 54.2915 1238.12 55.9843 1234.48 58.4899C1234.05 58.7849 1233.46 58.7181 1233.11 58.3373L1229.48 54.3537C1227.1 56.1511 1224.97 58.2247 1223.12 60.534L1227.22 64.065C1227.61 64.4035 1227.68 64.9749 1227.38 65.3912C1224.81 68.9236 1223.12 72.8693 1222.38 77.1188C1222.29 77.6218 1221.82 77.9795 1221.3 77.9485L1215.84 77.6288C1215.65 79.0723 1215.56 80.5384 1215.56 81.999C1215.56 83.4599 1215.65 84.9259 1215.84 86.3692L1221.3 86.0495C1221.82 86.0157 1222.29 86.3767 1222.38 86.8793C1223.12 91.1301 1224.81 95.0761 1227.38 98.6078C1227.68 99.0242 1227.61 99.5954 1227.22 99.934L1223.12 103.464C1224.97 105.776 1227.11 107.849 1229.48 109.644L1233.11 105.661C1233.46 105.279 1234.05 105.213 1234.48 105.508C1238.11 108.008 1242.17 109.643 1246.54 110.369C1247.06 110.455 1247.43 110.906 1247.4 111.415L1247.07 116.729C1250.04 117.089 1253.09 117.089 1256.06 116.729L1255.73 111.415C1255.7 110.863 1256.13 110.39 1256.7 110.357C1257.26 110.327 1257.75 110.744 1257.78 111.295ZM1279.87 68.0195C1281.52 68.0195 1282.86 69.3234 1282.86 70.9259C1282.86 72.5285 1281.52 73.8323 1279.87 73.8323C1279.49 73.8323 1279.13 73.7564 1278.8 73.631L1276 76.447C1275.8 76.642 1275.54 76.7524 1275.26 76.7524H1260.97C1260.4 76.7524 1259.94 76.3048 1259.94 75.7524C1259.94 75.2 1260.4 74.7524 1260.97 74.7524H1274.82L1277.25 72.3052C1277.02 71.8928 1276.88 71.4277 1276.88 70.9261C1276.88 69.3232 1278.22 68.0195 1279.87 68.0195ZM1278.93 70.9259C1278.93 71.4256 1279.35 71.8321 1279.87 71.8321C1280.38 71.8321 1280.8 71.4256 1280.8 70.9259C1280.8 70.4263 1280.38 70.0197 1279.87 70.0197C1279.35 70.0196 1278.93 70.4261 1278.93 70.9259ZM1268.7 65.3892L1272.51 60.0583C1272.12 59.5691 1271.89 58.9651 1271.89 58.3029C1271.89 56.7003 1273.23 55.3965 1274.87 55.3965C1276.52 55.3965 1277.86 56.7003 1277.86 58.3029C1277.86 59.9054 1276.52 61.2092 1274.87 61.2092C1274.66 61.2092 1274.45 61.1835 1274.24 61.1403L1270.08 66.9604C1269.89 67.229 1269.57 67.3895 1269.23 67.3895H1257.92C1257.35 67.3895 1256.89 66.9419 1256.89 66.3895C1256.89 65.8371 1257.35 65.3895 1257.92 65.3895L1268.7 65.3892ZM1273.94 58.3029C1273.94 58.8025 1274.36 59.2091 1274.87 59.2091C1275.39 59.2091 1275.81 58.8025 1275.81 58.3029C1275.81 57.8032 1275.39 57.3967 1274.87 57.3967C1274.36 57.3965 1273.94 57.8031 1273.94 58.3029ZM1277.62 105.696C1277.62 107.298 1276.28 108.602 1274.63 108.602C1272.98 108.602 1271.64 107.298 1271.64 105.696C1271.64 104.912 1271.96 104.203 1272.48 103.679L1268.69 98.3852H1257.92C1257.35 98.3852 1256.89 97.9376 1256.89 97.3852C1256.89 96.8328 1257.35 96.3852 1257.92 96.3852H1269.23C1269.57 96.3852 1269.89 96.5456 1270.08 96.8143L1274.37 102.815C1274.46 102.807 1274.54 102.789 1274.63 102.789C1276.28 102.789 1277.62 104.093 1277.62 105.696ZM1275.56 105.696C1275.56 105.196 1275.14 104.789 1274.63 104.789C1274.11 104.789 1273.69 105.196 1273.69 105.696C1273.69 106.195 1274.11 106.602 1274.63 106.602C1275.14 106.602 1275.56 106.195 1275.56 105.696ZM1282.61 93.3506C1282.61 94.9532 1281.27 96.257 1279.62 96.257C1277.97 96.257 1276.63 94.9532 1276.63 93.3506C1276.63 92.7267 1276.84 92.1518 1277.18 91.6777L1274.82 89.3004H1260.97C1260.4 89.3004 1259.94 88.8528 1259.94 88.3004C1259.94 87.748 1260.4 87.3004 1260.97 87.3004H1275.26C1275.54 87.3004 1275.8 87.4109 1276 87.6058L1278.91 90.5363C1279.14 90.4817 1279.37 90.4444 1279.62 90.4444C1281.27 90.4443 1282.61 91.7479 1282.61 93.3506ZM1280.55 93.3506C1280.55 92.851 1280.13 92.4444 1279.62 92.4444C1279.11 92.4444 1278.69 92.851 1278.69 93.3506C1278.69 93.8503 1279.11 94.2569 1279.62 94.2569C1280.13 94.2569 1280.55 93.8503 1280.55 93.3506ZM1283.5 82.0261C1283.5 83.6286 1282.16 84.9324 1280.51 84.9324C1279.22 84.9324 1278.14 84.1352 1277.71 83.0258H1255.16V100.704C1255.16 104.326 1252.13 107.273 1248.41 107.273C1245.68 107.273 1243.27 105.718 1242.21 103.335C1242.17 103.336 1242.13 103.337 1242.08 103.337C1238.36 103.337 1235.33 100.39 1235.33 96.7674C1235.33 96.5939 1235.33 96.4203 1235.35 96.2475C1233.74 95.9353 1232.22 95.1326 1230.98 93.9249C1229.39 92.3756 1228.51 90.3161 1228.51 88.1253C1228.51 85.9345 1229.39 83.8749 1230.98 82.326C1231.1 82.2098 1231.23 82.1079 1231.36 81.9992C1231.23 81.8903 1231.1 81.7884 1230.98 81.6724C1229.39 80.1232 1228.51 78.0636 1228.51 75.8731C1228.51 73.6823 1229.39 71.6227 1230.98 70.0735C1232.22 68.8658 1233.74 68.063 1235.35 67.7509C1235.33 67.578 1235.33 67.4046 1235.33 67.231C1235.33 63.6085 1238.36 60.6615 1242.08 60.6615C1242.13 60.6615 1242.17 60.6618 1242.21 60.6628C1243.27 58.2799 1245.68 56.7252 1248.41 56.7252C1252.13 56.7252 1255.16 59.6721 1255.16 63.2944V81.0259H1277.71C1278.14 79.9168 1279.22 79.12 1280.51 79.12C1282.16 79.1198 1283.5 80.4235 1283.5 82.0261ZM1232.44 80.2581C1232.72 80.5356 1233.05 80.7792 1233.39 80.999H1253.11V63.2941C1253.11 60.7745 1251 58.725 1248.41 58.725C1246.68 58.725 1245.14 59.6203 1244.32 61.0297C1245.15 61.313 1245.92 61.7544 1246.59 62.3364C1246.6 62.3432 1246.6 62.3529 1246.61 62.3598C1246.99 62.1858 1247.42 62.0815 1247.87 62.0815C1249.51 62.0815 1250.86 63.3853 1250.86 64.9874C1250.86 66.59 1249.51 67.8938 1247.87 67.8938C1246.22 67.8938 1244.88 66.59 1244.88 64.9874C1244.88 64.5541 1244.98 64.1465 1245.16 63.7768C1244.3 63.0582 1243.22 62.6612 1242.08 62.6612C1239.49 62.6612 1237.38 64.7111 1237.38 67.2307C1237.38 67.3749 1237.4 67.5183 1237.41 67.6615C1238.63 67.784 1239.8 68.1579 1240.85 68.77C1241.31 68.4875 1241.85 68.3176 1242.43 68.3176C1244.08 68.3176 1245.42 69.6214 1245.42 71.2239C1245.42 72.8262 1244.08 74.1299 1242.43 74.1299C1240.78 74.1299 1239.44 72.8261 1239.44 71.2239C1239.44 70.93 1239.5 70.6516 1239.58 70.3839C1238.66 69.888 1237.63 69.6172 1236.55 69.6139C1235.06 69.6935 1233.6 70.357 1232.44 71.4873C1231.23 72.6588 1230.57 74.2162 1230.57 75.8728C1230.57 77.5293 1231.23 79.0866 1232.44 80.2581ZM1241.5 71.2241C1241.5 71.7237 1241.92 72.13 1242.43 72.13C1242.95 72.13 1243.36 71.7237 1243.36 71.2241C1243.36 70.7244 1242.95 70.3179 1242.43 70.3179C1241.92 70.3177 1241.5 70.7243 1241.5 71.2241ZM1247.87 65.8938C1248.38 65.8938 1248.8 65.4872 1248.8 64.9876C1248.8 64.4879 1248.38 64.0816 1247.87 64.0816C1247.35 64.0816 1246.93 64.4879 1246.93 64.9876C1246.93 65.4872 1247.35 65.8938 1247.87 65.8938ZM1253.11 100.704V82.999H1233.37C1233.03 83.2166 1232.72 83.4651 1232.44 83.7399C1231.23 84.9112 1230.57 86.4685 1230.57 88.1251C1230.57 89.7817 1231.23 91.3391 1232.44 92.5106C1233.6 93.6409 1235.06 94.3044 1236.55 94.384C1237.61 94.3807 1238.63 94.12 1239.54 93.6388C1239.48 93.4112 1239.44 93.1768 1239.44 92.9315C1239.44 91.3289 1240.78 90.0251 1242.43 90.0251C1244.08 90.0251 1245.42 91.3289 1245.42 92.9315C1245.42 94.5341 1244.08 95.8379 1242.43 95.8379C1241.79 95.8379 1241.2 95.6364 1240.71 95.3008C1239.7 95.8682 1238.58 96.2192 1237.41 96.3365C1237.4 96.4797 1237.38 96.6231 1237.38 96.7674C1237.38 99.287 1239.49 101.336 1242.08 101.336C1243.19 101.336 1244.26 100.955 1245.1 100.265C1244.96 99.9261 1244.88 99.5564 1244.88 99.1677C1244.88 97.5652 1246.22 96.2614 1247.87 96.2614C1249.51 96.2614 1250.86 97.5652 1250.86 99.1677C1250.86 100.77 1249.51 102.074 1247.87 102.074C1247.37 102.074 1246.91 101.945 1246.5 101.736C1245.85 102.279 1245.11 102.698 1244.32 102.968C1245.14 104.378 1246.68 105.273 1248.41 105.273C1251 105.273 1253.11 103.224 1253.11 100.704ZM1247.87 100.074C1248.38 100.074 1248.8 99.6675 1248.8 99.1679C1248.8 98.6682 1248.38 98.2617 1247.87 98.2617C1247.35 98.2617 1246.93 98.6682 1246.93 99.1679C1246.93 99.6675 1247.35 100.074 1247.87 100.074ZM1242.43 93.8379C1242.95 93.8379 1243.36 93.4313 1243.36 92.9316C1243.36 92.432 1242.95 92.0254 1242.43 92.0254C1241.92 92.0254 1241.5 92.432 1241.5 92.9316C1241.5 93.0993 1241.55 93.2544 1241.63 93.3892C1241.65 93.4087 1241.67 93.4252 1241.68 93.4463C1241.7 93.4687 1241.71 93.4933 1241.73 93.5166C1241.9 93.7114 1242.15 93.8379 1242.43 93.8379ZM1281.44 82.0261C1281.44 81.5264 1281.02 81.1198 1280.51 81.1198C1280 81.1198 1279.58 81.5264 1279.58 82.0261C1279.58 82.5257 1280 82.9323 1280.51 82.9323C1281.02 82.9323 1281.44 82.5257 1281.44 82.0261Z" fill="white"/>
<mask id="mask0_296_2521" style="mask-type:luminance" maskUnits="userSpaceOnUse" x="1212" y="44" width="73" height="76">
<path d="M1284.5 44H1212.5V120H1284.5V44Z" fill="white"/>
<path d="M1257.78 111.295L1258.17 117.533C1258.2 118.05 1257.82 118.505 1257.3 118.582C1255.41 118.859 1253.48 119 1251.56 119C1249.65 119 1247.72 118.859 1245.83 118.582C1245.3 118.505 1244.93 118.05 1244.96 117.533L1245.29 112.177C1241.26 111.391 1237.48 109.871 1234.05 107.648L1230.39 111.663C1230.04 112.05 1229.44 112.112 1229.01 111.805C1225.91 109.588 1223.19 106.936 1220.9 103.923C1220.59 103.506 1220.65 102.925 1221.05 102.581L1225.18 99.0235C1222.89 95.6861 1221.33 92.0191 1220.52 88.0987L1215.01 88.421C1214.48 88.4525 1214.01 88.0844 1213.93 87.5723C1213.64 85.7408 1213.5 83.8658 1213.5 81.9989C1213.5 80.1323 1213.64 78.2573 1213.93 76.4255C1214.01 75.9134 1214.48 75.537 1215.01 75.5768L1220.52 75.8991C1221.33 71.98 1222.89 68.3127 1225.18 64.9753L1221.05 61.4166C1220.65 61.0732 1220.59 60.4915 1220.9 60.0751C1223.18 57.065 1225.91 54.4132 1229.01 52.1928C1229.44 51.8858 1230.04 51.948 1230.39 52.3344L1234.05 56.3498C1237.51 54.119 1241.42 52.5541 1245.48 51.7839L1245.04 46.4743C1245 45.9495 1245.38 45.4818 1245.92 45.4043C1249.64 44.8652 1253.49 44.8652 1257.21 45.4043C1257.75 45.4818 1258.13 45.9496 1258.09 46.4743L1257.57 52.6893C1257.52 53.2401 1257.02 53.6503 1256.46 53.605C1255.89 53.5601 1255.47 53.0776 1255.52 52.5273L1255.96 47.2572C1253.05 46.9128 1250.08 46.9128 1247.17 47.2572L1247.61 52.5268C1247.66 53.046 1247.28 53.5109 1246.75 53.5949C1242.36 54.2915 1238.12 55.9843 1234.48 58.4899C1234.05 58.7849 1233.46 58.7181 1233.11 58.3373L1229.48 54.3537C1227.1 56.1511 1224.97 58.2247 1223.12 60.534L1227.22 64.065C1227.61 64.4035 1227.68 64.9749 1227.38 65.3912C1224.81 68.9236 1223.12 72.8693 1222.38 77.1188C1222.29 77.6218 1221.82 77.9795 1221.3 77.9485L1215.84 77.6288C1215.65 79.0723 1215.56 80.5384 1215.56 81.999C1215.56 83.4599 1215.65 84.9259 1215.84 86.3692L1221.3 86.0495C1221.82 86.0157 1222.29 86.3767 1222.38 86.8793C1223.12 91.1301 1224.81 95.0761 1227.38 98.6078C1227.68 99.0242 1227.61 99.5954 1227.22 99.934L1223.12 103.464C1224.97 105.776 1227.11 107.849 1229.48 109.644L1233.11 105.661C1233.46 105.279 1234.05 105.213 1234.48 105.508C1238.11 108.008 1242.17 109.643 1246.54 110.369C1247.06 110.455 1247.43 110.906 1247.4 111.415L1247.07 116.729C1250.04 117.089 1253.09 117.089 1256.06 116.729L1255.73 111.415C1255.7 110.863 1256.13 110.39 1256.7 110.357C1257.26 110.327 1257.75 110.744 1257.78 111.295ZM1279.87 68.0195C1281.52 68.0195 1282.86 69.3234 1282.86 70.9259C1282.86 72.5285 1281.52 73.8323 1279.87 73.8323C1279.49 73.8323 1279.13 73.7564 1278.8 73.631L1276 76.447C1275.8 76.642 1275.54 76.7524 1275.26 76.7524H1260.97C1260.4 76.7524 1259.94 76.3048 1259.94 75.7524C1259.94 75.2 1260.4 74.7524 1260.97 74.7524H1274.82L1277.25 72.3052C1277.02 71.8928 1276.88 71.4277 1276.88 70.9261C1276.88 69.3232 1278.22 68.0195 1279.87 68.0195ZM1278.93 70.9259C1278.93 71.4256 1279.35 71.8321 1279.87 71.8321C1280.38 71.8321 1280.8 71.4256 1280.8 70.9259C1280.8 70.4263 1280.38 70.0197 1279.87 70.0197C1279.35 70.0196 1278.93 70.4261 1278.93 70.9259ZM1268.7 65.3892L1272.51 60.0583C1272.12 59.5691 1271.89 58.9651 1271.89 58.3029C1271.89 56.7003 1273.23 55.3965 1274.87 55.3965C1276.52 55.3965 1277.86 56.7003 1277.86 58.3029C1277.86 59.9054 1276.52 61.2092 1274.87 61.2092C1274.66 61.2092 1274.45 61.1835 1274.24 61.1403L1270.08 66.9604C1269.89 67.229 1269.57 67.3895 1269.23 67.3895H1257.92C1257.35 67.3895 1256.89 66.9419 1256.89 66.3895C1256.89 65.8371 1257.35 65.3895 1257.92 65.3895L1268.7 65.3892ZM1273.94 58.3029C1273.94 58.8025 1274.36 59.2091 1274.87 59.2091C1275.39 59.2091 1275.81 58.8025 1275.81 58.3029C1275.81 57.8032 1275.39 57.3967 1274.87 57.3967C1274.36 57.3965 1273.94 57.8031 1273.94 58.3029ZM1277.62 105.696C1277.62 107.298 1276.28 108.602 1274.63 108.602C1272.98 108.602 1271.64 107.298 1271.64 105.696C1271.64 104.912 1271.96 104.203 1272.48 103.679L1268.69 98.3852H1257.92C1257.35 98.3852 1256.89 97.9376 1256.89 97.3852C1256.89 96.8328 1257.35 96.3852 1257.92 96.3852H1269.23C1269.57 96.3852 1269.89 96.5456 1270.08 96.8143L1274.37 102.815C1274.46 102.807 1274.54 102.789 1274.63 102.789C1276.28 102.789 1277.62 104.093 1277.62 105.696ZM1275.56 105.696C1275.56 105.196 1275.14 104.789 1274.63 104.789C1274.11 104.789 1273.69 105.196 1273.69 105.696C1273.69 106.195 1274.11 106.602 1274.63 106.602C1275.14 106.602 1275.56 106.195 1275.56 105.696ZM1282.61 93.3506C1282.61 94.9532 1281.27 96.257 1279.62 96.257C1277.97 96.257 1276.63 94.9532 1276.63 93.3506C1276.63 92.7267 1276.84 92.1518 1277.18 91.6777L1274.82 89.3004H1260.97C1260.4 89.3004 1259.94 88.8528 1259.94 88.3004C1259.94 87.748 1260.4 87.3004 1260.97 87.3004H1275.26C1275.54 87.3004 1275.8 87.4109 1276 87.6058L1278.91 90.5363C1279.14 90.4817 1279.37 90.4444 1279.62 90.4444C1281.27 90.4443 1282.61 91.7479 1282.61 93.3506ZM1280.55 93.3506C1280.55 92.851 1280.13 92.4444 1279.62 92.4444C1279.11 92.4444 1278.69 92.851 1278.69 93.3506C1278.69 93.8503 1279.11 94.2569 1279.62 94.2569C1280.13 94.2569 1280.55 93.8503 1280.55 93.3506ZM1283.5 82.0261C1283.5 83.6286 1282.16 84.9324 1280.51 84.9324C1279.22 84.9324 1278.14 84.1352 1277.71 83.0258H1255.16V100.704C1255.16 104.326 1252.13 107.273 1248.41 107.273C1245.68 107.273 1243.27 105.718 1242.21 103.335C1242.17 103.336 1242.13 103.337 1242.08 103.337C1238.36 103.337 1235.33 100.39 1235.33 96.7674C1235.33 96.5939 1235.33 96.4203 1235.35 96.2475C1233.74 95.9353 1232.22 95.1326 1230.98 93.9249C1229.39 92.3756 1228.51 90.3161 1228.51 88.1253C1228.51 85.9345 1229.39 83.8749 1230.98 82.326C1231.1 82.2098 1231.23 82.1079 1231.36 81.9992C1231.23 81.8903 1231.1 81.7884 1230.98 81.6724C1229.39 80.1232 1228.51 78.0636 1228.51 75.8731C1228.51 73.6823 1229.39 71.6227 1230.98 70.0735C1232.22 68.8658 1233.74 68.063 1235.35 67.7509C1235.33 67.578 1235.33 67.4046 1235.33 67.231C1235.33 63.6085 1238.36 60.6615 1242.08 60.6615C1242.13 60.6615 1242.17 60.6618 1242.21 60.6628C1243.27 58.2799 1245.68 56.7252 1248.41 56.7252C1252.13 56.7252 1255.16 59.6721 1255.16 63.2944V81.0259H1277.71C1278.14 79.9168 1279.22 79.12 1280.51 79.12C1282.16 79.1198 1283.5 80.4235 1283.5 82.0261ZM1232.44 80.2581C1232.72 80.5356 1233.05 80.7792 1233.39 80.999H1253.11V63.2941C1253.11 60.7745 1251 58.725 1248.41 58.725C1246.68 58.725 1245.14 59.6203 1244.32 61.0297C1245.15 61.313 1245.92 61.7544 1246.59 62.3364C1246.6 62.3432 1246.6 62.3529 1246.61 62.3598C1246.99 62.1858 1247.42 62.0815 1247.87 62.0815C1249.51 62.0815 1250.86 63.3853 1250.86 64.9874C1250.86 66.59 1249.51 67.8938 1247.87 67.8938C1246.22 67.8938 1244.88 66.59 1244.88 64.9874C1244.88 64.5541 1244.98 64.1465 1245.16 63.7768C1244.3 63.0582 1243.22 62.6612 1242.08 62.6612C1239.49 62.6612 1237.38 64.7111 1237.38 67.2307C1237.38 67.3749 1237.4 67.5183 1237.41 67.6615C1238.63 67.784 1239.8 68.1579 1240.85 68.77C1241.31 68.4875 1241.85 68.3176 1242.43 68.3176C1244.08 68.3176 1245.42 69.6214 1245.42 71.2239C1245.42 72.8262 1244.08 74.1299 1242.43 74.1299C1240.78 74.1299 1239.44 72.8261 1239.44 71.2239C1239.44 70.93 1239.5 70.6516 1239.58 70.3839C1238.66 69.888 1237.63 69.6172 1236.55 69.6139C1235.06 69.6935 1233.6 70.357 1232.44 71.4873C1231.23 72.6588 1230.57 74.2162 1230.57 75.8728C1230.57 77.5293 1231.23 79.0866 1232.44 80.2581ZM1241.5 71.2241C1241.5 71.7237 1241.92 72.13 1242.43 72.13C1242.95 72.13 1243.36 71.7237 1243.36 71.2241C1243.36 70.7244 1242.95 70.3179 1242.43 70.3179C1241.92 70.3177 1241.5 70.7243 1241.5 71.2241ZM1247.87 65.8938C1248.38 65.8938 1248.8 65.4872 1248.8 64.9876C1248.8 64.4879 1248.38 64.0816 1247.87 64.0816C1247.35 64.0816 1246.93 64.4879 1246.93 64.9876C1246.93 65.4872 1247.35 65.8938 1247.87 65.8938ZM1253.11 100.704V82.999H1233.37C1233.03 83.2166 1232.72 83.4651 1232.44 83.7399C1231.23 84.9112 1230.57 86.4685 1230.57 88.1251C1230.57 89.7817 1231.23 91.3391 1232.44 92.5106C1233.6 93.6409 1235.06 94.3044 1236.55 94.384C1237.61 94.3807 1238.63 94.12 1239.54 93.6388C1239.48 93.4112 1239.44 93.1768 1239.44 92.9315C1239.44 91.3289 1240.78 90.0251 1242.43 90.0251C1244.08 90.0251 1245.42 91.3289 1245.42 92.9315C1245.42 94.5341 1244.08 95.8379 1242.43 95.8379C1241.79 95.8379 1241.2 95.6364 1240.71 95.3008C1239.7 95.8682 1238.58 96.2192 1237.41 96.3365C1237.4 96.4797 1237.38 96.6231 1237.38 96.7674C1237.38 99.287 1239.49 101.336 1242.08 101.336C1243.19 101.336 1244.26 100.955 1245.1 100.265C1244.96 99.9261 1244.88 99.5564 1244.88 99.1677C1244.88 97.5652 1246.22 96.2614 1247.87 96.2614C1249.51 96.2614 1250.86 97.5652 1250.86 99.1677C1250.86 100.77 1249.51 102.074 1247.87 102.074C1247.37 102.074 1246.91 101.945 1246.5 101.736C1245.85 102.279 1245.11 102.698 1244.32 102.968C1245.14 104.378 1246.68 105.273 1248.41 105.273C1251 105.273 1253.11 103.224 1253.11 100.704ZM1247.87 100.074C1248.38 100.074 1248.8 99.6675 1248.8 99.1679C1248.8 98.6682 1248.38 98.2617 1247.87 98.2617C1247.35 98.2617 1246.93 98.6682 1246.93 99.1679C1246.93 99.6675 1247.35 100.074 1247.87 100.074ZM1242.43 93.8379C1242.95 93.8379 1243.36 93.4313 1243.36 92.9316C1243.36 92.432 1242.95 92.0254 1242.43 92.0254C1241.92 92.0254 1241.5 92.432 1241.5 92.9316C1241.5 93.0993 1241.55 93.2544 1241.63 93.3892C1241.65 93.4087 1241.67 93.4252 1241.68 93.4463C1241.7 93.4687 1241.71 93.4933 1241.73 93.5166C1241.9 93.7114 1242.15 93.8379 1242.43 93.8379ZM1281.44 82.0261C1281.44 81.5264 1281.02 81.1198 1280.51 81.1198C1280 81.1198 1279.58 81.5264 1279.58 82.0261C1279.58 82.5257 1280 82.9323 1280.51 82.9323C1281.02 82.9323 1281.44 82.5257 1281.44 82.0261Z" fill="black"/>
</mask>
<g mask="url(#mask0_296_2521)">
<path d="M1257.78 111.295L1258.17 117.533C1258.2 118.05 1257.82 118.505 1257.3 118.582C1255.41 118.859 1253.48 119 1251.56 119C1249.65 119 1247.72 118.859 1245.83 118.582C1245.3 118.505 1244.93 118.05 1244.96 117.533L1245.29 112.177C1241.26 111.391 1237.48 109.871 1234.05 107.648L1230.39 111.663C1230.04 112.05 1229.44 112.112 1229.01 111.805C1225.91 109.588 1223.19 106.936 1220.9 103.923C1220.59 103.506 1220.65 102.925 1221.05 102.581L1225.18 99.0235C1222.89 95.6861 1221.33 92.0191 1220.52 88.0987L1215.01 88.421C1214.48 88.4525 1214.01 88.0844 1213.93 87.5723C1213.64 85.7408 1213.5 83.8658 1213.5 81.9989C1213.5 80.1323 1213.64 78.2573 1213.93 76.4255C1214.01 75.9134 1214.48 75.537 1215.01 75.5768L1220.52 75.8991C1221.33 71.98 1222.89 68.3127 1225.18 64.9753L1221.05 61.4166C1220.65 61.0732 1220.59 60.4915 1220.9 60.0751C1223.18 57.065 1225.91 54.4132 1229.01 52.1928C1229.44 51.8858 1230.04 51.948 1230.39 52.3344L1234.05 56.3498C1237.51 54.119 1241.42 52.5541 1245.48 51.7839L1245.04 46.4743C1245 45.9495 1245.38 45.4818 1245.92 45.4043C1249.64 44.8652 1253.49 44.8652 1257.21 45.4043C1257.75 45.4818 1258.13 45.9496 1258.09 46.4743L1257.57 52.6893C1257.52 53.2401 1257.02 53.6503 1256.46 53.605C1255.89 53.5601 1255.47 53.0776 1255.52 52.5273L1255.96 47.2572C1253.05 46.9128 1250.08 46.9128 1247.17 47.2572L1247.61 52.5268C1247.66 53.046 1247.28 53.5109 1246.75 53.5949C1242.36 54.2915 1238.12 55.9843 1234.48 58.4899C1234.05 58.7849 1233.46 58.7181 1233.11 58.3373L1229.48 54.3537C1227.1 56.1511 1224.97 58.2247 1223.12 60.534L1227.22 64.065C1227.61 64.4035 1227.68 64.9749 1227.38 65.3912C1224.81 68.9236 1223.12 72.8693 1222.38 77.1188C1222.29 77.6218 1221.82 77.9795 1221.3 77.9485L1215.84 77.6288C1215.65 79.0723 1215.56 80.5384 1215.56 81.999C1215.56 83.4599 1215.65 84.9259 1215.84 86.3692L1221.3 86.0495C1221.82 86.0157 1222.29 86.3767 1222.38 86.8793C1223.12 91.1301 1224.81 95.0761 1227.38 98.6078C1227.68 99.0242 1227.61 99.5954 1227.22 99.934L1223.12 103.464C1224.97 105.776 1227.11 107.849 1229.48 109.644L1233.11 105.661C1233.46 105.279 1234.05 105.213 1234.48 105.508C1238.11 108.008 1242.17 109.643 1246.54 110.369C1247.06 110.455 1247.43 110.906 1247.4 111.415L1247.07 116.729C1250.04 117.089 1253.09 117.089 1256.06 116.729L1255.73 111.415C1255.7 110.863 1256.13 110.39 1256.7 110.357C1257.26 110.327 1257.75 110.744 1257.78 111.295ZM1279.87 68.0195C1281.52 68.0195 1282.86 69.3234 1282.86 70.9259C1282.86 72.5285 1281.52 73.8323 1279.87 73.8323C1279.49 73.8323 1279.13 73.7564 1278.8 73.631L1276 76.447C1275.8 76.642 1275.54 76.7524 1275.26 76.7524H1260.97C1260.4 76.7524 1259.94 76.3048 1259.94 75.7524C1259.94 75.2 1260.4 74.7524 1260.97 74.7524H1274.82L1277.25 72.3052C1277.02 71.8928 1276.88 71.4277 1276.88 70.9261C1276.88 69.3232 1278.22 68.0195 1279.87 68.0195ZM1278.93 70.9259C1278.93 71.4256 1279.35 71.8321 1279.87 71.8321C1280.38 71.8321 1280.8 71.4256 1280.8 70.9259C1280.8 70.4263 1280.38 70.0197 1279.87 70.0197C1279.35 70.0196 1278.93 70.4261 1278.93 70.9259ZM1268.7 65.3892L1272.51 60.0583C1272.12 59.5691 1271.89 58.9651 1271.89 58.3029C1271.89 56.7003 1273.23 55.3965 1274.87 55.3965C1276.52 55.3965 1277.86 56.7003 1277.86 58.3029C1277.86 59.9054 1276.52 61.2092 1274.87 61.2092C1274.66 61.2092 1274.45 61.1835 1274.24 61.1403L1270.08 66.9604C1269.89 67.229 1269.57 67.3895 1269.23 67.3895H1257.92C1257.35 67.3895 1256.89 66.9419 1256.89 66.3895C1256.89 65.8371 1257.35 65.3895 1257.92 65.3895L1268.7 65.3892ZM1273.94 58.3029C1273.94 58.8025 1274.36 59.2091 1274.87 59.2091C1275.39 59.2091 1275.81 58.8025 1275.81 58.3029C1275.81 57.8032 1275.39 57.3967 1274.87 57.3967C1274.36 57.3965 1273.94 57.8031 1273.94 58.3029ZM1277.62 105.696C1277.62 107.298 1276.28 108.602 1274.63 108.602C1272.98 108.602 1271.64 107.298 1271.64 105.696C1271.64 104.912 1271.96 104.203 1272.48 103.679L1268.69 98.3852H1257.92C1257.35 98.3852 1256.89 97.9376 1256.89 97.3852C1256.89 96.8328 1257.35 96.3852 1257.92 96.3852H1269.23C1269.57 96.3852 1269.89 96.5456 1270.08 96.8143L1274.37 102.815C1274.46 102.807 1274.54 102.789 1274.63 102.789C1276.28 102.789 1277.62 104.093 1277.62 105.696ZM1275.56 105.696C1275.56 105.196 1275.14 104.789 1274.63 104.789C1274.11 104.789 1273.69 105.196 1273.69 105.696C1273.69 106.195 1274.11 106.602 1274.63 106.602C1275.14 106.602 1275.56 106.195 1275.56 105.696ZM1282.61 93.3506C1282.61 94.9532 1281.27 96.257 1279.62 96.257C1277.97 96.257 1276.63 94.9532 1276.63 93.3506C1276.63 92.7267 1276.84 92.1518 1277.18 91.6777L1274.82 89.3004H1260.97C1260.4 89.3004 1259.94 88.8528 1259.94 88.3004C1259.94 87.748 1260.4 87.3004 1260.97 87.3004H1275.26C1275.54 87.3004 1275.8 87.4109 1276 87.6058L1278.91 90.5363C1279.14 90.4817 1279.37 90.4444 1279.62 90.4444C1281.27 90.4443 1282.61 91.7479 1282.61 93.3506ZM1280.55 93.3506C1280.55 92.851 1280.13 92.4444 1279.62 92.4444C1279.11 92.4444 1278.69 92.851 1278.69 93.3506C1278.69 93.8503 1279.11 94.2569 1279.62 94.2569C1280.13 94.2569 1280.55 93.8503 1280.55 93.3506ZM1283.5 82.0261C1283.5 83.6286 1282.16 84.9324 1280.51 84.9324C1279.22 84.9324 1278.14 84.1352 1277.71 83.0258H1255.16V100.704C1255.16 104.326 1252.13 107.273 1248.41 107.273C1245.68 107.273 1243.27 105.718 1242.21 103.335C1242.17 103.336 1242.13 103.337 1242.08 103.337C1238.36 103.337 1235.33 100.39 1235.33 96.7674C1235.33 96.5939 1235.33 96.4203 1235.35 96.2475C1233.74 95.9353 1232.22 95.1326 1230.98 93.9249C1229.39 92.3756 1228.51 90.3161 1228.51 88.1253C1228.51 85.9345 1229.39 83.8749 1230.98 82.326C1231.1 82.2098 1231.23 82.1079 1231.36 81.9992C1231.23 81.8903 1231.1 81.7884 1230.98 81.6724C1229.39 80.1232 1228.51 78.0636 1228.51 75.8731C1228.51 73.6823 1229.39 71.6227 1230.98 70.0735C1232.22 68.8658 1233.74 68.063 1235.35 67.7509C1235.33 67.578 1235.33 67.4046 1235.33 67.231C1235.33 63.6085 1238.36 60.6615 1242.08 60.6615C1242.13 60.6615 1242.17 60.6618 1242.21 60.6628C1243.27 58.2799 1245.68 56.7252 1248.41 56.7252C1252.13 56.7252 1255.16 59.6721 1255.16 63.2944V81.0259H1277.71C1278.14 79.9168 1279.22 79.12 1280.51 79.12C1282.16 79.1198 1283.5 80.4235 1283.5 82.0261ZM1232.44 80.2581C1232.72 80.5356 1233.05 80.7792 1233.39 80.999H1253.11V63.2941C1253.11 60.7745 1251 58.725 1248.41 58.725C1246.68 58.725 1245.14 59.6203 1244.32 61.0297C1245.15 61.313 1245.92 61.7544 1246.59 62.3364C1246.6 62.3432 1246.6 62.3529 1246.61 62.3598C1246.99 62.1858 1247.42 62.0815 1247.87 62.0815C1249.51 62.0815 1250.86 63.3853 1250.86 64.9874C1250.86 66.59 1249.51 67.8938 1247.87 67.8938C1246.22 67.8938 1244.88 66.59 1244.88 64.9874C1244.88 64.5541 1244.98 64.1465 1245.16 63.7768C1244.3 63.0582 1243.22 62.6612 1242.08 62.6612C1239.49 62.6612 1237.38 64.7111 1237.38 67.2307C1237.38 67.3749 1237.4 67.5183 1237.41 67.6615C1238.63 67.784 1239.8 68.1579 1240.85 68.77C1241.31 68.4875 1241.85 68.3176 1242.43 68.3176C1244.08 68.3176 1245.42 69.6214 1245.42 71.2239C1245.42 72.8262 1244.08 74.1299 1242.43 74.1299C1240.78 74.1299 1239.44 72.8261 1239.44 71.2239C1239.44 70.93 1239.5 70.6516 1239.58 70.3839C1238.66 69.888 1237.63 69.6172 1236.55 69.6139C1235.06 69.6935 1233.6 70.357 1232.44 71.4873C1231.23 72.6588 1230.57 74.2162 1230.57 75.8728C1230.57 77.5293 1231.23 79.0866 1232.44 80.2581ZM1241.5 71.2241C1241.5 71.7237 1241.92 72.13 1242.43 72.13C1242.95 72.13 1243.36 71.7237 1243.36 71.2241C1243.36 70.7244 1242.95 70.3179 1242.43 70.3179C1241.92 70.3177 1241.5 70.7243 1241.5 71.2241ZM1247.87 65.8938C1248.38 65.8938 1248.8 65.4872 1248.8 64.9876C1248.8 64.4879 1248.38 64.0816 1247.87 64.0816C1247.35 64.0816 1246.93 64.4879 1246.93 64.9876C1246.93 65.4872 1247.35 65.8938 1247.87 65.8938ZM1253.11 100.704V82.999H1233.37C1233.03 83.2166 1232.72 83.4651 1232.44 83.7399C1231.23 84.9112 1230.57 86.4685 1230.57 88.1251C1230.57 89.7817 1231.23 91.3391 1232.44 92.5106C1233.6 93.6409 1235.06 94.3044 1236.55 94.384C1237.61 94.3807 1238.63 94.12 1239.54 93.6388C1239.48 93.4112 1239.44 93.1768 1239.44 92.9315C1239.44 91.3289 1240.78 90.0251 1242.43 90.0251C1244.08 90.0251 1245.42 91.3289 1245.42 92.9315C1245.42 94.5341 1244.08 95.8379 1242.43 95.8379C1241.79 95.8379 1241.2 95.6364 1240.71 95.3008C1239.7 95.8682 1238.58 96.2192 1237.41 96.3365C1237.4 96.4797 1237.38 96.6231 1237.38 96.7674C1237.38 99.287 1239.49 101.336 1242.08 101.336C1243.19 101.336 1244.26 100.955 1245.1 100.265C1244.96 99.9261 1244.88 99.5564 1244.88 99.1677C1244.88 97.5652 1246.22 96.2614 1247.87 96.2614C1249.51 96.2614 1250.86 97.5652 1250.86 99.1677C1250.86 100.77 1249.51 102.074 1247.87 102.074C1247.37 102.074 1246.91 101.945 1246.5 101.736C1245.85 102.279 1245.11 102.698 1244.32 102.968C1245.14 104.378 1246.68 105.273 1248.41 105.273C1251 105.273 1253.11 103.224 1253.11 100.704ZM1247.87 100.074C1248.38 100.074 1248.8 99.6675 1248.8 99.1679C1248.8 98.6682 1248.38 98.2617 1247.87 98.2617C1247.35 98.2617 1246.93 98.6682 1246.93 99.1679C1246.93 99.6675 1247.35 100.074 1247.87 100.074ZM1242.43 93.8379C1242.95 93.8379 1243.36 93.4313 1243.36 92.9316C1243.36 92.432 1242.95 92.0254 1242.43 92.0254C1241.92 92.0254 1241.5 92.432 1241.5 92.9316C1241.5 93.0993 1241.55 93.2544 1241.63 93.3892C1241.65 93.4087 1241.67 93.4252 1241.68 93.4463C1241.7 93.4687 1241.71 93.4933 1241.73 93.5166C1241.9 93.7114 1242.15 93.8379 1242.43 93.8379ZM1281.44 82.0261C1281.44 81.5264 1281.02 81.1198 1280.51 81.1198C1280 81.1198 1279.58 81.5264 1279.58 82.0261C1279.58 82.5257 1280 82.9323 1280.51 82.9323C1281.02 82.9323 1281.44 82.5257 1281.44 82.0261Z" stroke="white"/>
</g>
</g>
<defs>
<clipPath id="clip0_296_2521">
<rect width="1363" height="163" fill="white" transform="translate(0 0.5)"/>
</clipPath>
</defs>
</svg>
