<svg width="1363" height="164" viewBox="0 0 1363 164" fill="none" xmlns="http://www.w3.org/2000/svg">
<g clip-path="url(#clip0_296_2492)">
<path d="M0 15.5C0 7.21573 6.71573 0.5 15 0.5H37V163.5H15C6.71573 163.5 0 156.784 0 148.5V15.5Z" fill="#424242"/>
<path d="M1134 0.5H37V163.5H1134V0.5Z" fill="#F0F0F0"/>
<path d="M104.414 55.8398H107.918C107.848 56.9883 107.531 58.0078 106.969 58.8984C106.414 59.7891 105.637 60.4844 104.637 60.9844C103.645 61.4844 102.449 61.7344 101.051 61.7344C99.957 61.7344 98.9766 61.5469 98.1094 61.1719C97.2422 60.7891 96.5 60.2422 95.8828 59.5312C95.2734 58.8203 94.8086 57.9609 94.4883 56.9531C94.168 55.9453 94.0078 54.8164 94.0078 53.5664V52.3828C94.0078 51.1328 94.1719 50.0039 94.5 48.9961C94.8359 47.9805 95.3125 47.1172 95.9297 46.4062C96.5547 45.6953 97.3008 45.1484 98.168 44.7656C99.0352 44.3828 100.004 44.1914 101.074 44.1914C102.496 44.1914 103.695 44.4492 104.672 44.9648C105.656 45.4805 106.418 46.1914 106.957 47.0977C107.504 48.0039 107.832 49.0352 107.941 50.1914H104.426C104.387 49.5039 104.25 48.9219 104.016 48.4453C103.781 47.9609 103.426 47.5977 102.949 47.3555C102.48 47.1055 101.855 46.9805 101.074 46.9805C100.488 46.9805 99.9766 47.0898 99.5391 47.3086C99.1016 47.5273 98.7344 47.8594 98.4375 48.3047C98.1406 48.75 97.918 49.3125 97.7695 49.9922C97.6289 50.6641 97.5586 51.4531 97.5586 52.3594V53.5664C97.5586 54.4492 97.625 55.2266 97.7578 55.8984C97.8906 56.5625 98.0938 57.125 98.3672 57.5859C98.6484 58.0391 99.0078 58.3828 99.4453 58.6172C99.8906 58.8438 100.426 58.957 101.051 58.957C101.785 58.957 102.391 58.8398 102.867 58.6055C103.344 58.3711 103.707 58.0234 103.957 57.5625C104.215 57.1016 104.367 56.5273 104.414 55.8398ZM116.859 58.6406V52.9922C116.859 52.5859 116.793 52.2383 116.66 51.9492C116.527 51.6523 116.32 51.4219 116.039 51.2578C115.766 51.0938 115.41 51.0117 114.973 51.0117C114.598 51.0117 114.273 51.0781 114 51.2109C113.727 51.3359 113.516 51.5195 113.367 51.7617C113.219 51.9961 113.145 52.2734 113.145 52.5938H109.77C109.77 52.0547 109.895 51.543 110.145 51.0586C110.395 50.5742 110.758 50.1484 111.234 49.7812C111.711 49.4062 112.277 49.1133 112.934 48.9023C113.598 48.6914 114.34 48.5859 115.16 48.5859C116.145 48.5859 117.02 48.75 117.785 49.0781C118.551 49.4062 119.152 49.8984 119.59 50.5547C120.035 51.2109 120.258 52.0312 120.258 53.0156V58.4414C120.258 59.1367 120.301 59.707 120.387 60.1523C120.473 60.5898 120.598 60.9727 120.762 61.3008V61.5H117.352C117.188 61.1562 117.062 60.7266 116.977 60.2109C116.898 59.6875 116.859 59.1641 116.859 58.6406ZM117.305 53.7773L117.328 55.6875H115.441C114.996 55.6875 114.609 55.7383 114.281 55.8398C113.953 55.9414 113.684 56.0859 113.473 56.2734C113.262 56.4531 113.105 56.6641 113.004 56.9062C112.91 57.1484 112.863 57.4141 112.863 57.7031C112.863 57.9922 112.93 58.2539 113.062 58.4883C113.195 58.7148 113.387 58.8945 113.637 59.0273C113.887 59.1523 114.18 59.2148 114.516 59.2148C115.023 59.2148 115.465 59.1133 115.84 58.9102C116.215 58.707 116.504 58.457 116.707 58.1602C116.918 57.8633 117.027 57.582 117.035 57.3164L117.926 58.7461C117.801 59.0664 117.629 59.3984 117.41 59.7422C117.199 60.0859 116.93 60.4102 116.602 60.7148C116.273 61.0117 115.879 61.2578 115.418 61.4531C114.957 61.6406 114.41 61.7344 113.777 61.7344C112.973 61.7344 112.242 61.5742 111.586 61.2539C110.938 60.9258 110.422 60.4766 110.039 59.9062C109.664 59.3281 109.477 58.6719 109.477 57.9375C109.477 57.2734 109.602 56.6836 109.852 56.168C110.102 55.6523 110.469 55.2188 110.953 54.8672C111.445 54.5078 112.059 54.2383 112.793 54.0586C113.527 53.8711 114.379 53.7773 115.348 53.7773H117.305ZM126.234 51.5859V61.5H122.859V48.8203H126.035L126.234 51.5859ZM130.055 48.7383L129.996 51.8672C129.832 51.8438 129.633 51.8242 129.398 51.8086C129.172 51.7852 128.965 51.7734 128.777 51.7734C128.301 51.7734 127.887 51.8359 127.535 51.9609C127.191 52.0781 126.902 52.2539 126.668 52.4883C126.441 52.7227 126.27 53.0078 126.152 53.3438C126.043 53.6797 125.98 54.0625 125.965 54.4922L125.285 54.2812C125.285 53.4609 125.367 52.707 125.531 52.0195C125.695 51.3242 125.934 50.7188 126.246 50.2031C126.566 49.6875 126.957 49.2891 127.418 49.0078C127.879 48.7266 128.406 48.5859 129 48.5859C129.188 48.5859 129.379 48.6016 129.574 48.6328C129.77 48.6562 129.93 48.6914 130.055 48.7383ZM135.023 51.2578V66.375H131.648V48.8203H134.777L135.023 51.2578ZM143.051 55.0195V55.2656C143.051 56.1875 142.941 57.043 142.723 57.832C142.512 58.6211 142.199 59.3086 141.785 59.8945C141.371 60.4727 140.855 60.9258 140.238 61.2539C139.629 61.5742 138.926 61.7344 138.129 61.7344C137.355 61.7344 136.684 61.5781 136.113 61.2656C135.543 60.9531 135.062 60.5156 134.672 59.9531C134.289 59.3828 133.98 58.7227 133.746 57.9727C133.512 57.2227 133.332 56.418 133.207 55.5586V54.9141C133.332 53.9922 133.512 53.1484 133.746 52.3828C133.98 51.6094 134.289 50.9414 134.672 50.3789C135.062 49.8086 135.539 49.3672 136.102 49.0547C136.672 48.7422 137.34 48.5859 138.105 48.5859C138.91 48.5859 139.617 48.7383 140.227 49.043C140.844 49.3477 141.359 49.7852 141.773 50.3555C142.195 50.9258 142.512 51.6055 142.723 52.3945C142.941 53.1836 143.051 54.0586 143.051 55.0195ZM139.664 55.2656V55.0195C139.664 54.4805 139.617 53.9844 139.523 53.5312C139.438 53.0703 139.297 52.668 139.102 52.3242C138.914 51.9805 138.664 51.7148 138.352 51.5273C138.047 51.332 137.676 51.2344 137.238 51.2344C136.777 51.2344 136.383 51.3086 136.055 51.457C135.734 51.6055 135.473 51.8203 135.27 52.1016C135.066 52.3828 134.914 52.7188 134.812 53.1094C134.711 53.5 134.648 53.9414 134.625 54.4336V56.0625C134.664 56.6406 134.773 57.1602 134.953 57.6211C135.133 58.0742 135.41 58.4336 135.785 58.6992C136.16 58.9648 136.652 59.0977 137.262 59.0977C137.707 59.0977 138.082 59 138.387 58.8047C138.691 58.6016 138.938 58.3242 139.125 57.9727C139.32 57.6211 139.457 57.2148 139.535 56.7539C139.621 56.293 139.664 55.7969 139.664 55.2656ZM144.609 55.2891V55.043C144.609 54.1133 144.742 53.2578 145.008 52.4766C145.273 51.6875 145.66 51.0039 146.168 50.4258C146.676 49.8477 147.301 49.3984 148.043 49.0781C148.785 48.75 149.637 48.5859 150.598 48.5859C151.559 48.5859 152.414 48.75 153.164 49.0781C153.914 49.3984 154.543 49.8477 155.051 50.4258C155.566 51.0039 155.957 51.6875 156.223 52.4766C156.488 53.2578 156.621 54.1133 156.621 55.043V55.2891C156.621 56.2109 156.488 57.0664 156.223 57.8555C155.957 58.6367 155.566 59.3203 155.051 59.9062C154.543 60.4844 153.918 60.9336 153.176 61.2539C152.434 61.5742 151.582 61.7344 150.621 61.7344C149.66 61.7344 148.805 61.5742 148.055 61.2539C147.312 60.9336 146.684 60.4844 146.168 59.9062C145.66 59.3203 145.273 58.6367 145.008 57.8555C144.742 57.0664 144.609 56.2109 144.609 55.2891ZM147.984 55.043V55.2891C147.984 55.8203 148.031 56.3164 148.125 56.7773C148.219 57.2383 148.367 57.6445 148.57 57.9961C148.781 58.3398 149.055 58.6094 149.391 58.8047C149.727 59 150.137 59.0977 150.621 59.0977C151.09 59.0977 151.492 59 151.828 58.8047C152.164 58.6094 152.434 58.3398 152.637 57.9961C152.84 57.6445 152.988 57.2383 153.082 56.7773C153.184 56.3164 153.234 55.8203 153.234 55.2891V55.043C153.234 54.5273 153.184 54.043 153.082 53.5898C152.988 53.1289 152.836 52.7227 152.625 52.3711C152.422 52.0117 152.152 51.7305 151.816 51.5273C151.48 51.3242 151.074 51.2227 150.598 51.2227C150.121 51.2227 149.715 51.3242 149.379 51.5273C149.051 51.7305 148.781 52.0117 148.57 52.3711C148.367 52.7227 148.219 53.1289 148.125 53.5898C148.031 54.043 147.984 54.5273 147.984 55.043ZM158.156 55.2891V55.043C158.156 54.1133 158.289 53.2578 158.555 52.4766C158.82 51.6875 159.207 51.0039 159.715 50.4258C160.223 49.8477 160.848 49.3984 161.59 49.0781C162.332 48.75 163.184 48.5859 164.145 48.5859C165.105 48.5859 165.961 48.75 166.711 49.0781C167.461 49.3984 168.09 49.8477 168.598 50.4258C169.113 51.0039 169.504 51.6875 169.77 52.4766C170.035 53.2578 170.168 54.1133 170.168 55.043V55.2891C170.168 56.2109 170.035 57.0664 169.77 57.8555C169.504 58.6367 169.113 59.3203 168.598 59.9062C168.09 60.4844 167.465 60.9336 166.723 61.2539C165.98 61.5742 165.129 61.7344 164.168 61.7344C163.207 61.7344 162.352 61.5742 161.602 61.2539C160.859 60.9336 160.23 60.4844 159.715 59.9062C159.207 59.3203 158.82 58.6367 158.555 57.8555C158.289 57.0664 158.156 56.2109 158.156 55.2891ZM161.531 55.043V55.2891C161.531 55.8203 161.578 56.3164 161.672 56.7773C161.766 57.2383 161.914 57.6445 162.117 57.9961C162.328 58.3398 162.602 58.6094 162.938 58.8047C163.273 59 163.684 59.0977 164.168 59.0977C164.637 59.0977 165.039 59 165.375 58.8047C165.711 58.6094 165.98 58.3398 166.184 57.9961C166.387 57.6445 166.535 57.2383 166.629 56.7773C166.73 56.3164 166.781 55.8203 166.781 55.2891V55.043C166.781 54.5273 166.73 54.043 166.629 53.5898C166.535 53.1289 166.383 52.7227 166.172 52.3711C165.969 52.0117 165.699 51.7305 165.363 51.5273C165.027 51.3242 164.621 51.2227 164.145 51.2227C163.668 51.2227 163.262 51.3242 162.926 51.5273C162.598 51.7305 162.328 52.0117 162.117 52.3711C161.914 52.7227 161.766 53.1289 161.672 53.5898C161.578 54.043 161.531 54.5273 161.531 55.043ZM175.805 43.5V61.5H172.418V43.5H175.805ZM194.672 55.8398H198.176C198.105 56.9883 197.789 58.0078 197.227 58.8984C196.672 59.7891 195.895 60.4844 194.895 60.9844C193.902 61.4844 192.707 61.7344 191.309 61.7344C190.215 61.7344 189.234 61.5469 188.367 61.1719C187.5 60.7891 186.758 60.2422 186.141 59.5312C185.531 58.8203 185.066 57.9609 184.746 56.9531C184.426 55.9453 184.266 54.8164 184.266 53.5664V52.3828C184.266 51.1328 184.43 50.0039 184.758 48.9961C185.094 47.9805 185.57 47.1172 186.188 46.4062C186.812 45.6953 187.559 45.1484 188.426 44.7656C189.293 44.3828 190.262 44.1914 191.332 44.1914C192.754 44.1914 193.953 44.4492 194.93 44.9648C195.914 45.4805 196.676 46.1914 197.215 47.0977C197.762 48.0039 198.09 49.0352 198.199 50.1914H194.684C194.645 49.5039 194.508 48.9219 194.273 48.4453C194.039 47.9609 193.684 47.5977 193.207 47.3555C192.738 47.1055 192.113 46.9805 191.332 46.9805C190.746 46.9805 190.234 47.0898 189.797 47.3086C189.359 47.5273 188.992 47.8594 188.695 48.3047C188.398 48.75 188.176 49.3125 188.027 49.9922C187.887 50.6641 187.816 51.4531 187.816 52.3594V53.5664C187.816 54.4492 187.883 55.2266 188.016 55.8984C188.148 56.5625 188.352 57.125 188.625 57.5859C188.906 58.0391 189.266 58.3828 189.703 58.6172C190.148 58.8438 190.684 58.957 191.309 58.957C192.043 58.957 192.648 58.8398 193.125 58.6055C193.602 58.3711 193.965 58.0234 194.215 57.5625C194.473 57.1016 194.625 56.5273 194.672 55.8398ZM199.734 55.2891V55.043C199.734 54.1133 199.867 53.2578 200.133 52.4766C200.398 51.6875 200.785 51.0039 201.293 50.4258C201.801 49.8477 202.426 49.3984 203.168 49.0781C203.91 48.75 204.762 48.5859 205.723 48.5859C206.684 48.5859 207.539 48.75 208.289 49.0781C209.039 49.3984 209.668 49.8477 210.176 50.4258C210.691 51.0039 211.082 51.6875 211.348 52.4766C211.613 53.2578 211.746 54.1133 211.746 55.043V55.2891C211.746 56.2109 211.613 57.0664 211.348 57.8555C211.082 58.6367 210.691 59.3203 210.176 59.9062C209.668 60.4844 209.043 60.9336 208.301 61.2539C207.559 61.5742 206.707 61.7344 205.746 61.7344C204.785 61.7344 203.93 61.5742 203.18 61.2539C202.438 60.9336 201.809 60.4844 201.293 59.9062C200.785 59.3203 200.398 58.6367 200.133 57.8555C199.867 57.0664 199.734 56.2109 199.734 55.2891ZM203.109 55.043V55.2891C203.109 55.8203 203.156 56.3164 203.25 56.7773C203.344 57.2383 203.492 57.6445 203.695 57.9961C203.906 58.3398 204.18 58.6094 204.516 58.8047C204.852 59 205.262 59.0977 205.746 59.0977C206.215 59.0977 206.617 59 206.953 58.8047C207.289 58.6094 207.559 58.3398 207.762 57.9961C207.965 57.6445 208.113 57.2383 208.207 56.7773C208.309 56.3164 208.359 55.8203 208.359 55.2891V55.043C208.359 54.5273 208.309 54.043 208.207 53.5898C208.113 53.1289 207.961 52.7227 207.75 52.3711C207.547 52.0117 207.277 51.7305 206.941 51.5273C206.605 51.3242 206.199 51.2227 205.723 51.2227C205.246 51.2227 204.84 51.3242 204.504 51.5273C204.176 51.7305 203.906 52.0117 203.695 52.3711C203.492 52.7227 203.344 53.1289 203.25 53.5898C203.156 54.043 203.109 54.5273 203.109 55.043ZM217.125 51.5273V61.5H213.75V48.8203H216.914L217.125 51.5273ZM216.633 54.7148H215.719C215.719 53.7773 215.84 52.9336 216.082 52.1836C216.324 51.4258 216.664 50.7812 217.102 50.25C217.539 49.7109 218.059 49.3008 218.66 49.0195C219.27 48.7305 219.949 48.5859 220.699 48.5859C221.293 48.5859 221.836 48.6719 222.328 48.8438C222.82 49.0156 223.242 49.2891 223.594 49.6641C223.953 50.0391 224.227 50.5352 224.414 51.1523C224.609 51.7695 224.707 52.5234 224.707 53.4141V61.5H221.309V53.4023C221.309 52.8398 221.23 52.4023 221.074 52.0898C220.918 51.7773 220.688 51.5586 220.383 51.4336C220.086 51.3008 219.719 51.2344 219.281 51.2344C218.828 51.2344 218.434 51.3242 218.098 51.5039C217.77 51.6836 217.496 51.9336 217.277 52.2539C217.066 52.5664 216.906 52.9336 216.797 53.3555C216.688 53.7773 216.633 54.2305 216.633 54.7148ZM230.578 51.5273V61.5H227.203V48.8203H230.367L230.578 51.5273ZM230.086 54.7148H229.172C229.172 53.7773 229.293 52.9336 229.535 52.1836C229.777 51.4258 230.117 50.7812 230.555 50.25C230.992 49.7109 231.512 49.3008 232.113 49.0195C232.723 48.7305 233.402 48.5859 234.152 48.5859C234.746 48.5859 235.289 48.6719 235.781 48.8438C236.273 49.0156 236.695 49.2891 237.047 49.6641C237.406 50.0391 237.68 50.5352 237.867 51.1523C238.062 51.7695 238.16 52.5234 238.16 53.4141V61.5H234.762V53.4023C234.762 52.8398 234.684 52.4023 234.527 52.0898C234.371 51.7773 234.141 51.5586 233.836 51.4336C233.539 51.3008 233.172 51.2344 232.734 51.2344C232.281 51.2344 231.887 51.3242 231.551 51.5039C231.223 51.6836 230.949 51.9336 230.73 52.2539C230.52 52.5664 230.359 52.9336 230.25 53.3555C230.141 53.7773 230.086 54.2305 230.086 54.7148ZM246.562 61.7344C245.578 61.7344 244.695 61.5781 243.914 61.2656C243.133 60.9453 242.469 60.5039 241.922 59.9414C241.383 59.3789 240.969 58.7266 240.68 57.9844C240.391 57.2344 240.246 56.4375 240.246 55.5938V55.125C240.246 54.1641 240.383 53.2852 240.656 52.4883C240.93 51.6914 241.32 51 241.828 50.4141C242.344 49.8281 242.969 49.3789 243.703 49.0664C244.438 48.7461 245.266 48.5859 246.188 48.5859C247.086 48.5859 247.883 48.7344 248.578 49.0312C249.273 49.3281 249.855 49.75 250.324 50.2969C250.801 50.8438 251.16 51.5 251.402 52.2656C251.645 53.0234 251.766 53.8672 251.766 54.7969V56.2031H241.688V53.9531H248.449V53.6953C248.449 53.2266 248.363 52.8086 248.191 52.4414C248.027 52.0664 247.777 51.7695 247.441 51.5508C247.105 51.332 246.676 51.2227 246.152 51.2227C245.707 51.2227 245.324 51.3203 245.004 51.5156C244.684 51.7109 244.422 51.9844 244.219 52.3359C244.023 52.6875 243.875 53.1016 243.773 53.5781C243.68 54.0469 243.633 54.5625 243.633 55.125V55.5938C243.633 56.1016 243.703 56.5703 243.844 57C243.992 57.4297 244.199 57.8008 244.465 58.1133C244.738 58.4258 245.066 58.668 245.449 58.8398C245.84 59.0117 246.281 59.0977 246.773 59.0977C247.383 59.0977 247.949 58.9805 248.473 58.7461C249.004 58.5039 249.461 58.1406 249.844 57.6562L251.484 59.4375C251.219 59.8203 250.855 60.1875 250.395 60.5391C249.941 60.8906 249.395 61.1797 248.754 61.4062C248.113 61.625 247.383 61.7344 246.562 61.7344ZM258.926 59.0977C259.34 59.0977 259.707 59.0195 260.027 58.8633C260.348 58.6992 260.598 58.4727 260.777 58.1836C260.965 57.8867 261.062 57.5391 261.07 57.1406H264.246C264.238 58.0312 264 58.8242 263.531 59.5195C263.062 60.207 262.434 60.75 261.645 61.1484C260.855 61.5391 259.973 61.7344 258.996 61.7344C258.012 61.7344 257.152 61.5703 256.418 61.2422C255.691 60.9141 255.086 60.4609 254.602 59.8828C254.117 59.2969 253.754 58.6172 253.512 57.8438C253.27 57.0625 253.148 56.2266 253.148 55.3359V54.9961C253.148 54.0977 253.27 53.2617 253.512 52.4883C253.754 51.707 254.117 51.0273 254.602 50.4492C255.086 49.8633 255.691 49.4062 256.418 49.0781C257.145 48.75 257.996 48.5859 258.973 48.5859C260.012 48.5859 260.922 48.7852 261.703 49.1836C262.492 49.582 263.109 50.1523 263.555 50.8945C264.008 51.6289 264.238 52.5 264.246 53.5078H261.07C261.062 53.0859 260.973 52.7031 260.801 52.3594C260.637 52.0156 260.395 51.7422 260.074 51.5391C259.762 51.3281 259.375 51.2227 258.914 51.2227C258.422 51.2227 258.02 51.3281 257.707 51.5391C257.395 51.7422 257.152 52.0234 256.98 52.3828C256.809 52.7344 256.688 53.1367 256.617 53.5898C256.555 54.0352 256.523 54.5039 256.523 54.9961V55.3359C256.523 55.8281 256.555 56.3008 256.617 56.7539C256.68 57.207 256.797 57.6094 256.969 57.9609C257.148 58.3125 257.395 58.5898 257.707 58.793C258.02 58.9961 258.426 59.0977 258.926 59.0977ZM272.414 48.8203V51.2109H265.031V48.8203H272.414ZM266.859 45.6914H270.234V57.6797C270.234 58.0469 270.281 58.3281 270.375 58.5234C270.477 58.7188 270.625 58.8555 270.82 58.9336C271.016 59.0039 271.262 59.0391 271.559 59.0391C271.77 59.0391 271.957 59.0312 272.121 59.0156C272.293 58.9922 272.438 58.9688 272.555 58.9453L272.566 61.4297C272.277 61.5234 271.965 61.5977 271.629 61.6523C271.293 61.707 270.922 61.7344 270.516 61.7344C269.773 61.7344 269.125 61.6133 268.57 61.3711C268.023 61.1211 267.602 60.7227 267.305 60.1758C267.008 59.6289 266.859 58.9102 266.859 58.0195V45.6914Z" fill="#888888"/>
<path d="M106.688 119.5H99.1172L99.1641 113.172H106.688C108.25 113.172 109.57 112.797 110.648 112.047C111.742 111.297 112.57 110.18 113.133 108.695C113.711 107.195 114 105.352 114 103.164V101.688C114 100.047 113.836 98.6094 113.508 97.375C113.195 96.125 112.727 95.0859 112.102 94.2578C111.477 93.4141 110.695 92.7812 109.758 92.3594C108.836 91.9375 107.773 91.7266 106.57 91.7266H98.9766V85.375H106.57C108.883 85.375 111 85.7734 112.922 86.5703C114.859 87.3516 116.531 88.4766 117.938 89.9453C119.359 91.3984 120.453 93.125 121.219 95.125C122 97.1094 122.391 99.3125 122.391 101.734V103.164C122.391 105.57 122 107.773 121.219 109.773C120.453 111.773 119.367 113.5 117.961 114.953C116.555 116.406 114.891 117.531 112.969 118.328C111.062 119.109 108.969 119.5 106.688 119.5ZM103.828 85.375V119.5H95.6016V85.375H103.828ZM139.477 113.125V102.672C139.477 101.953 139.375 101.336 139.172 100.82C138.969 100.305 138.648 99.9062 138.211 99.625C137.773 99.3281 137.188 99.1797 136.453 99.1797C135.859 99.1797 135.352 99.2812 134.93 99.4844C134.508 99.6875 134.188 99.9922 133.969 100.398C133.75 100.805 133.641 101.32 133.641 101.945H125.742C125.742 100.773 126 99.6875 126.516 98.6875C127.047 97.6719 127.797 96.7891 128.766 96.0391C129.75 95.2891 130.922 94.7109 132.281 94.3047C133.656 93.8828 135.188 93.6719 136.875 93.6719C138.891 93.6719 140.688 94.0078 142.266 94.6797C143.859 95.3516 145.117 96.3594 146.039 97.7031C146.961 99.0312 147.422 100.703 147.422 102.719V113.102C147.422 114.758 147.516 116.016 147.703 116.875C147.891 117.719 148.156 118.461 148.5 119.102V119.5H140.578C140.203 118.719 139.922 117.766 139.734 116.641C139.562 115.5 139.477 114.328 139.477 113.125ZM140.438 104.008L140.484 108.227H136.992C136.258 108.227 135.633 108.328 135.117 108.531C134.617 108.734 134.211 109.016 133.898 109.375C133.602 109.719 133.383 110.109 133.242 110.547C133.117 110.984 133.055 111.445 133.055 111.93C133.055 112.398 133.164 112.82 133.383 113.195C133.617 113.555 133.93 113.836 134.32 114.039C134.711 114.242 135.148 114.344 135.633 114.344C136.508 114.344 137.25 114.18 137.859 113.852C138.484 113.508 138.961 113.094 139.289 112.609C139.617 112.125 139.781 111.672 139.781 111.25L141.516 114.484C141.203 115.109 140.844 115.742 140.438 116.383C140.047 117.023 139.555 117.617 138.961 118.164C138.383 118.695 137.672 119.133 136.828 119.477C135.984 119.805 134.961 119.969 133.758 119.969C132.195 119.969 130.758 119.648 129.445 119.008C128.148 118.367 127.109 117.477 126.328 116.336C125.547 115.18 125.156 113.852 125.156 112.352C125.156 111.039 125.391 109.867 125.859 108.836C126.344 107.805 127.07 106.93 128.039 106.211C129.008 105.492 130.242 104.945 131.742 104.57C133.242 104.195 135.008 104.008 137.039 104.008H140.438ZM165.164 94.1406V99.625H149.883V94.1406H165.164ZM153.094 87.8359H160.992V111.227C160.992 111.898 161.07 112.422 161.227 112.797C161.383 113.156 161.648 113.414 162.023 113.57C162.414 113.711 162.93 113.781 163.57 113.781C164.023 113.781 164.398 113.773 164.695 113.758C164.992 113.727 165.273 113.688 165.539 113.641V119.289C164.867 119.508 164.164 119.672 163.43 119.781C162.695 119.906 161.914 119.969 161.086 119.969C159.398 119.969 157.953 119.703 156.75 119.172C155.562 118.641 154.656 117.805 154.031 116.664C153.406 115.523 153.094 114.039 153.094 112.211V87.8359ZM181.477 113.125V102.672C181.477 101.953 181.375 101.336 181.172 100.82C180.969 100.305 180.648 99.9062 180.211 99.625C179.773 99.3281 179.188 99.1797 178.453 99.1797C177.859 99.1797 177.352 99.2812 176.93 99.4844C176.508 99.6875 176.188 99.9922 175.969 100.398C175.75 100.805 175.641 101.32 175.641 101.945H167.742C167.742 100.773 168 99.6875 168.516 98.6875C169.047 97.6719 169.797 96.7891 170.766 96.0391C171.75 95.2891 172.922 94.7109 174.281 94.3047C175.656 93.8828 177.188 93.6719 178.875 93.6719C180.891 93.6719 182.688 94.0078 184.266 94.6797C185.859 95.3516 187.117 96.3594 188.039 97.7031C188.961 99.0312 189.422 100.703 189.422 102.719V113.102C189.422 114.758 189.516 116.016 189.703 116.875C189.891 117.719 190.156 118.461 190.5 119.102V119.5H182.578C182.203 118.719 181.922 117.766 181.734 116.641C181.562 115.5 181.477 114.328 181.477 113.125ZM182.438 104.008L182.484 108.227H178.992C178.258 108.227 177.633 108.328 177.117 108.531C176.617 108.734 176.211 109.016 175.898 109.375C175.602 109.719 175.383 110.109 175.242 110.547C175.117 110.984 175.055 111.445 175.055 111.93C175.055 112.398 175.164 112.82 175.383 113.195C175.617 113.555 175.93 113.836 176.32 114.039C176.711 114.242 177.148 114.344 177.633 114.344C178.508 114.344 179.25 114.18 179.859 113.852C180.484 113.508 180.961 113.094 181.289 112.609C181.617 112.125 181.781 111.672 181.781 111.25L183.516 114.484C183.203 115.109 182.844 115.742 182.438 116.383C182.047 117.023 181.555 117.617 180.961 118.164C180.383 118.695 179.672 119.133 178.828 119.477C177.984 119.805 176.961 119.969 175.758 119.969C174.195 119.969 172.758 119.648 171.445 119.008C170.148 118.367 169.109 117.477 168.328 116.336C167.547 115.18 167.156 113.852 167.156 112.352C167.156 111.039 167.391 109.867 167.859 108.836C168.344 107.805 169.07 106.93 170.039 106.211C171.008 105.492 172.242 104.945 173.742 104.57C175.242 104.195 177.008 104.008 179.039 104.008H182.438ZM193.875 83.5H201.773V113.266L200.953 119.5H193.875V83.5ZM217.336 106.539V107.031C217.336 108.953 217.141 110.703 216.75 112.281C216.359 113.859 215.758 115.227 214.945 116.383C214.133 117.523 213.109 118.406 211.875 119.031C210.641 119.656 209.18 119.969 207.492 119.969C205.961 119.969 204.648 119.641 203.555 118.984C202.461 118.312 201.547 117.391 200.812 116.219C200.078 115.031 199.484 113.664 199.031 112.117C198.578 110.555 198.219 108.883 197.953 107.102V106.516C198.219 104.75 198.578 103.094 199.031 101.547C199.484 99.9844 200.078 98.6172 200.812 97.4453C201.547 96.2578 202.453 95.3359 203.531 94.6797C204.625 94.0078 205.93 93.6719 207.445 93.6719C209.148 93.6719 210.617 93.9922 211.852 94.6328C213.102 95.2734 214.133 96.1719 214.945 97.3281C215.758 98.4844 216.359 99.8438 216.75 101.406C217.141 102.969 217.336 104.68 217.336 106.539ZM209.438 107.031V106.539C209.438 105.617 209.383 104.75 209.273 103.938C209.164 103.125 208.969 102.406 208.688 101.781C208.406 101.156 208.008 100.664 207.492 100.305C206.977 99.9453 206.305 99.7656 205.477 99.7656C204.633 99.7656 203.922 99.9062 203.344 100.188C202.781 100.469 202.328 100.875 201.984 101.406C201.656 101.922 201.422 102.562 201.281 103.328C201.141 104.078 201.078 104.93 201.094 105.883V107.734C201.062 109.031 201.18 110.141 201.445 111.062C201.711 111.984 202.172 112.688 202.828 113.172C203.484 113.656 204.383 113.898 205.523 113.898C206.367 113.898 207.047 113.734 207.562 113.406C208.094 113.078 208.492 112.609 208.758 112C209.023 111.391 209.203 110.664 209.297 109.82C209.391 108.977 209.438 108.047 209.438 107.031ZM234.023 113.125V102.672C234.023 101.953 233.922 101.336 233.719 100.82C233.516 100.305 233.195 99.9062 232.758 99.625C232.32 99.3281 231.734 99.1797 231 99.1797C230.406 99.1797 229.898 99.2812 229.477 99.4844C229.055 99.6875 228.734 99.9922 228.516 100.398C228.297 100.805 228.188 101.32 228.188 101.945H220.289C220.289 100.773 220.547 99.6875 221.062 98.6875C221.594 97.6719 222.344 96.7891 223.312 96.0391C224.297 95.2891 225.469 94.7109 226.828 94.3047C228.203 93.8828 229.734 93.6719 231.422 93.6719C233.438 93.6719 235.234 94.0078 236.812 94.6797C238.406 95.3516 239.664 96.3594 240.586 97.7031C241.508 99.0312 241.969 100.703 241.969 102.719V113.102C241.969 114.758 242.062 116.016 242.25 116.875C242.438 117.719 242.703 118.461 243.047 119.102V119.5H235.125C234.75 118.719 234.469 117.766 234.281 116.641C234.109 115.5 234.023 114.328 234.023 113.125ZM234.984 104.008L235.031 108.227H231.539C230.805 108.227 230.18 108.328 229.664 108.531C229.164 108.734 228.758 109.016 228.445 109.375C228.148 109.719 227.93 110.109 227.789 110.547C227.664 110.984 227.602 111.445 227.602 111.93C227.602 112.398 227.711 112.82 227.93 113.195C228.164 113.555 228.477 113.836 228.867 114.039C229.258 114.242 229.695 114.344 230.18 114.344C231.055 114.344 231.797 114.18 232.406 113.852C233.031 113.508 233.508 113.094 233.836 112.609C234.164 112.125 234.328 111.672 234.328 111.25L236.062 114.484C235.75 115.109 235.391 115.742 234.984 116.383C234.594 117.023 234.102 117.617 233.508 118.164C232.93 118.695 232.219 119.133 231.375 119.477C230.531 119.805 229.508 119.969 228.305 119.969C226.742 119.969 225.305 119.648 223.992 119.008C222.695 118.367 221.656 117.477 220.875 116.336C220.094 115.18 219.703 113.852 219.703 112.352C219.703 111.039 219.938 109.867 220.406 108.836C220.891 107.805 221.617 106.93 222.586 106.211C223.555 105.492 224.789 104.945 226.289 104.57C227.789 104.195 229.555 104.008 231.586 104.008H234.984ZM259.641 112.375C259.641 111.938 259.492 111.562 259.195 111.25C258.914 110.922 258.414 110.625 257.695 110.359C256.977 110.078 255.969 109.797 254.672 109.516C253.438 109.25 252.273 108.898 251.18 108.461C250.102 108.023 249.156 107.492 248.344 106.867C247.531 106.242 246.891 105.5 246.422 104.641C245.969 103.781 245.742 102.797 245.742 101.688C245.742 100.609 245.969 99.5938 246.422 98.6406C246.891 97.6719 247.57 96.8203 248.461 96.0859C249.367 95.3359 250.469 94.75 251.766 94.3281C253.062 93.8906 254.539 93.6719 256.195 93.6719C258.477 93.6719 260.445 94.0234 262.102 94.7266C263.758 95.4141 265.031 96.3828 265.922 97.6328C266.828 98.8672 267.281 100.297 267.281 101.922H259.383C259.383 101.281 259.273 100.734 259.055 100.281C258.852 99.8281 258.516 99.4844 258.047 99.25C257.578 99 256.953 98.875 256.172 98.875C255.625 98.875 255.125 98.9766 254.672 99.1797C254.234 99.3828 253.883 99.6641 253.617 100.023C253.352 100.383 253.219 100.805 253.219 101.289C253.219 101.633 253.297 101.945 253.453 102.227C253.625 102.492 253.883 102.742 254.227 102.977C254.57 103.195 255.008 103.398 255.539 103.586C256.07 103.758 256.711 103.914 257.461 104.055C259.164 104.367 260.758 104.812 262.242 105.391C263.727 105.969 264.93 106.789 265.852 107.852C266.789 108.914 267.258 110.344 267.258 112.141C267.258 113.266 267 114.305 266.484 115.258C265.969 116.195 265.227 117.023 264.258 117.742C263.289 118.445 262.125 118.992 260.766 119.383C259.406 119.773 257.875 119.969 256.172 119.969C253.75 119.969 251.703 119.539 250.031 118.68C248.359 117.805 247.094 116.711 246.234 115.398C245.391 114.07 244.969 112.727 244.969 111.367H252.328C252.359 112.148 252.547 112.789 252.891 113.289C253.25 113.789 253.727 114.156 254.32 114.391C254.914 114.625 255.602 114.742 256.383 114.742C257.102 114.742 257.695 114.641 258.164 114.438C258.648 114.234 259.016 113.961 259.266 113.617C259.516 113.258 259.641 112.844 259.641 112.375ZM283.242 119.969C281.18 119.969 279.336 119.648 277.711 119.008C276.086 118.352 274.711 117.453 273.586 116.312C272.477 115.172 271.625 113.859 271.031 112.375C270.453 110.891 270.164 109.32 270.164 107.664V106.773C270.164 104.914 270.422 103.195 270.938 101.617C271.453 100.023 272.219 98.6328 273.234 97.4453C274.25 96.2578 275.523 95.3359 277.055 94.6797C278.586 94.0078 280.367 93.6719 282.398 93.6719C284.195 93.6719 285.805 93.9609 287.227 94.5391C288.648 95.1172 289.852 95.9453 290.836 97.0234C291.836 98.1016 292.594 99.4062 293.109 100.938C293.641 102.469 293.906 104.188 293.906 106.094V109.305H273.188V104.359H286.195V103.75C286.211 102.906 286.062 102.188 285.75 101.594C285.453 101 285.016 100.547 284.438 100.234C283.859 99.9219 283.156 99.7656 282.328 99.7656C281.469 99.7656 280.758 99.9531 280.195 100.328C279.648 100.703 279.219 101.219 278.906 101.875C278.609 102.516 278.398 103.258 278.273 104.102C278.148 104.945 278.086 105.836 278.086 106.773V107.664C278.086 108.602 278.211 109.453 278.461 110.219C278.727 110.984 279.102 111.641 279.586 112.188C280.086 112.719 280.68 113.133 281.367 113.43C282.07 113.727 282.867 113.875 283.758 113.875C284.836 113.875 285.898 113.672 286.945 113.266C287.992 112.859 288.891 112.188 289.641 111.25L293.227 115.516C292.711 116.25 291.977 116.961 291.023 117.648C290.086 118.336 288.961 118.898 287.648 119.336C286.336 119.758 284.867 119.969 283.242 119.969ZM320.531 119.5H312.961L313.008 113.172H320.531C322.094 113.172 323.414 112.797 324.492 112.047C325.586 111.297 326.414 110.18 326.977 108.695C327.555 107.195 327.844 105.352 327.844 103.164V101.688C327.844 100.047 327.68 98.6094 327.352 97.375C327.039 96.125 326.57 95.0859 325.945 94.2578C325.32 93.4141 324.539 92.7812 323.602 92.3594C322.68 91.9375 321.617 91.7266 320.414 91.7266H312.82V85.375H320.414C322.727 85.375 324.844 85.7734 326.766 86.5703C328.703 87.3516 330.375 88.4766 331.781 89.9453C333.203 91.3984 334.297 93.125 335.062 95.125C335.844 97.1094 336.234 99.3125 336.234 101.734V103.164C336.234 105.57 335.844 107.773 335.062 109.773C334.297 111.773 333.211 113.5 331.805 114.953C330.398 116.406 328.734 117.531 326.812 118.328C324.906 119.109 322.812 119.5 320.531 119.5ZM317.672 85.375V119.5H309.445V85.375H317.672ZM352.43 119.969C350.367 119.969 348.523 119.648 346.898 119.008C345.273 118.352 343.898 117.453 342.773 116.312C341.664 115.172 340.812 113.859 340.219 112.375C339.641 110.891 339.352 109.32 339.352 107.664V106.773C339.352 104.914 339.609 103.195 340.125 101.617C340.641 100.023 341.406 98.6328 342.422 97.4453C343.438 96.2578 344.711 95.3359 346.242 94.6797C347.773 94.0078 349.555 93.6719 351.586 93.6719C353.383 93.6719 354.992 93.9609 356.414 94.5391C357.836 95.1172 359.039 95.9453 360.023 97.0234C361.023 98.1016 361.781 99.4062 362.297 100.938C362.828 102.469 363.094 104.188 363.094 106.094V109.305H342.375V104.359H355.383V103.75C355.398 102.906 355.25 102.188 354.938 101.594C354.641 101 354.203 100.547 353.625 100.234C353.047 99.9219 352.344 99.7656 351.516 99.7656C350.656 99.7656 349.945 99.9531 349.383 100.328C348.836 100.703 348.406 101.219 348.094 101.875C347.797 102.516 347.586 103.258 347.461 104.102C347.336 104.945 347.273 105.836 347.273 106.773V107.664C347.273 108.602 347.398 109.453 347.648 110.219C347.914 110.984 348.289 111.641 348.773 112.188C349.273 112.719 349.867 113.133 350.555 113.43C351.258 113.727 352.055 113.875 352.945 113.875C354.023 113.875 355.086 113.672 356.133 113.266C357.18 112.859 358.078 112.188 358.828 111.25L362.414 115.516C361.898 116.25 361.164 116.961 360.211 117.648C359.273 118.336 358.148 118.898 356.836 119.336C355.523 119.758 354.055 119.969 352.43 119.969ZM379.594 112.375C379.594 111.938 379.445 111.562 379.148 111.25C378.867 110.922 378.367 110.625 377.648 110.359C376.93 110.078 375.922 109.797 374.625 109.516C373.391 109.25 372.227 108.898 371.133 108.461C370.055 108.023 369.109 107.492 368.297 106.867C367.484 106.242 366.844 105.5 366.375 104.641C365.922 103.781 365.695 102.797 365.695 101.688C365.695 100.609 365.922 99.5938 366.375 98.6406C366.844 97.6719 367.523 96.8203 368.414 96.0859C369.32 95.3359 370.422 94.75 371.719 94.3281C373.016 93.8906 374.492 93.6719 376.148 93.6719C378.43 93.6719 380.398 94.0234 382.055 94.7266C383.711 95.4141 384.984 96.3828 385.875 97.6328C386.781 98.8672 387.234 100.297 387.234 101.922H379.336C379.336 101.281 379.227 100.734 379.008 100.281C378.805 99.8281 378.469 99.4844 378 99.25C377.531 99 376.906 98.875 376.125 98.875C375.578 98.875 375.078 98.9766 374.625 99.1797C374.188 99.3828 373.836 99.6641 373.57 100.023C373.305 100.383 373.172 100.805 373.172 101.289C373.172 101.633 373.25 101.945 373.406 102.227C373.578 102.492 373.836 102.742 374.18 102.977C374.523 103.195 374.961 103.398 375.492 103.586C376.023 103.758 376.664 103.914 377.414 104.055C379.117 104.367 380.711 104.812 382.195 105.391C383.68 105.969 384.883 106.789 385.805 107.852C386.742 108.914 387.211 110.344 387.211 112.141C387.211 113.266 386.953 114.305 386.438 115.258C385.922 116.195 385.18 117.023 384.211 117.742C383.242 118.445 382.078 118.992 380.719 119.383C379.359 119.773 377.828 119.969 376.125 119.969C373.703 119.969 371.656 119.539 369.984 118.68C368.312 117.805 367.047 116.711 366.188 115.398C365.344 114.07 364.922 112.727 364.922 111.367H372.281C372.312 112.148 372.5 112.789 372.844 113.289C373.203 113.789 373.68 114.156 374.273 114.391C374.867 114.625 375.555 114.742 376.336 114.742C377.055 114.742 377.648 114.641 378.117 114.438C378.602 114.234 378.969 113.961 379.219 113.617C379.469 113.258 379.594 112.844 379.594 112.375ZM399.258 94.1406V119.5H391.336V94.1406H399.258ZM390.867 87.6016C390.867 86.4766 391.273 85.5547 392.086 84.8359C392.898 84.1172 393.953 83.7578 395.25 83.7578C396.547 83.7578 397.602 84.1172 398.414 84.8359C399.227 85.5547 399.633 86.4766 399.633 87.6016C399.633 88.7266 399.227 89.6484 398.414 90.3672C397.602 91.0859 396.547 91.4453 395.25 91.4453C393.953 91.4453 392.898 91.0859 392.086 90.3672C391.273 89.6484 390.867 88.7266 390.867 87.6016ZM420.07 94.1406H427.242V118.516C427.242 120.859 426.703 122.844 425.625 124.469C424.547 126.109 423.039 127.352 421.102 128.195C419.18 129.055 416.93 129.484 414.352 129.484C413.211 129.484 412.047 129.336 410.859 129.039C409.672 128.758 408.562 128.336 407.531 127.773C406.5 127.211 405.633 126.516 404.93 125.688L408.234 121.047C408.875 121.766 409.68 122.375 410.648 122.875C411.617 123.391 412.758 123.648 414.07 123.648C415.211 123.648 416.164 123.445 416.93 123.039C417.711 122.633 418.305 122.039 418.711 121.258C419.117 120.492 419.32 119.562 419.32 118.469V100.141L420.07 94.1406ZM403.219 107.125V106.633C403.219 104.711 403.453 102.961 403.922 101.383C404.406 99.7891 405.094 98.4219 405.984 97.2812C406.891 96.125 407.984 95.2344 409.266 94.6094C410.547 93.9844 411.992 93.6719 413.602 93.6719C415.336 93.6719 416.758 94.0078 417.867 94.6797C418.992 95.3359 419.891 96.2578 420.562 97.4453C421.25 98.6328 421.781 100.023 422.156 101.617C422.547 103.195 422.875 104.898 423.141 106.727V107.312C422.875 109.031 422.508 110.656 422.039 112.188C421.586 113.703 420.992 115.047 420.258 116.219C419.523 117.391 418.602 118.312 417.492 118.984C416.398 119.641 415.086 119.969 413.555 119.969C411.961 119.969 410.523 119.648 409.242 119.008C407.977 118.367 406.891 117.469 405.984 116.312C405.094 115.156 404.406 113.797 403.922 112.234C403.453 110.672 403.219 108.969 403.219 107.125ZM411.117 106.633V107.125C411.117 108.078 411.203 108.961 411.375 109.773C411.562 110.586 411.844 111.305 412.219 111.93C412.594 112.539 413.055 113.016 413.602 113.359C414.164 113.703 414.82 113.875 415.57 113.875C416.711 113.875 417.633 113.633 418.336 113.148C419.039 112.664 419.547 111.977 419.859 111.086C420.172 110.195 420.305 109.148 420.258 107.945V106.094C420.289 105.062 420.219 104.156 420.047 103.375C419.875 102.578 419.602 101.914 419.227 101.383C418.867 100.852 418.383 100.453 417.773 100.188C417.18 99.9062 416.461 99.7656 415.617 99.7656C414.883 99.7656 414.234 99.9375 413.672 100.281C413.109 100.625 412.641 101.109 412.266 101.734C411.891 102.344 411.602 103.07 411.398 103.914C411.211 104.742 411.117 105.648 411.117 106.633ZM439.547 99.5547V119.5H431.648V94.1406H439.055L439.547 99.5547ZM438.609 105.953L436.758 106C436.758 104.062 436.992 102.336 437.461 100.82C437.93 99.2891 438.594 97.9922 439.453 96.9297C440.312 95.8672 441.336 95.0625 442.523 94.5156C443.727 93.9531 445.062 93.6719 446.531 93.6719C447.703 93.6719 448.773 93.8438 449.742 94.1875C450.727 94.5312 451.57 95.0859 452.273 95.8516C452.992 96.6172 453.539 97.6328 453.914 98.8984C454.305 100.148 454.5 101.695 454.5 103.539V119.5H446.555V103.516C446.555 102.5 446.414 101.727 446.133 101.195C445.852 100.648 445.445 100.273 444.914 100.07C444.383 99.8672 443.734 99.7656 442.969 99.7656C442.156 99.7656 441.469 99.9219 440.906 100.234C440.344 100.547 439.891 100.984 439.547 101.547C439.219 102.094 438.977 102.742 438.82 103.492C438.68 104.242 438.609 105.062 438.609 105.953Z" fill="black"/>
<path d="M1134 0.5H1348C1356.28 0.5 1363 7.21573 1363 15.5V148.5C1363 156.784 1356.28 163.5 1348 163.5H1134V0.5Z" fill="#40C784"/>
<path d="M1217.58 64.6668C1217.58 66.5282 1218.51 68.242 1220.09 69.7435C1221.67 71.243 1223.94 72.5619 1226.71 73.6553C1232.26 75.843 1239.93 77.1668 1248.5 77.1668C1257.07 77.1668 1264.74 75.843 1270.29 73.6553C1273.06 72.5619 1275.33 71.243 1276.91 69.7435C1278.49 68.242 1279.42 66.5282 1279.42 64.6668C1279.42 62.8053 1278.49 61.0915 1276.91 59.59C1275.33 58.0905 1273.06 56.7715 1270.29 55.6781C1264.74 53.4904 1257.07 52.1667 1248.5 52.1667C1239.93 52.1667 1232.26 53.4904 1226.71 55.6781C1223.94 56.7715 1221.67 58.0905 1220.09 59.59C1218.51 61.0915 1217.58 62.8053 1217.58 64.6668ZM1221.62 64.6668C1221.62 63.5284 1222.37 62.3878 1223.88 61.2921C1225.37 60.2041 1227.52 59.2293 1230.11 58.4144C1235.28 56.7864 1242.07 55.8334 1248.5 55.8334C1254.93 55.8334 1261.72 56.7864 1266.89 58.4144C1269.48 59.2293 1271.63 60.2041 1273.12 61.2921C1274.63 62.3878 1275.37 63.5284 1275.37 64.6668C1275.37 65.8051 1274.63 66.9455 1273.12 68.0412C1271.63 69.1292 1269.48 70.104 1266.89 70.9189C1261.72 72.5469 1254.93 73.5 1248.5 73.5C1242.07 73.5 1235.28 72.5469 1230.11 70.9189C1227.52 70.104 1225.37 69.1292 1223.88 68.0412C1222.37 66.9455 1221.62 65.8051 1221.62 64.6668Z" fill="white" stroke="white"/>
<path d="M1217.58 75.3332C1217.58 77.1947 1218.51 78.9086 1220.09 80.4101C1221.67 81.9096 1223.94 83.2285 1226.71 84.3219C1232.26 86.5096 1239.93 87.8332 1248.5 87.8332C1257.07 87.8332 1264.74 86.5096 1270.29 84.3219C1273.06 83.2285 1275.33 81.9096 1276.91 80.4101C1278.49 78.9086 1279.42 77.1947 1279.42 75.3332V64.6667C1279.42 64.1576 1279.19 63.6851 1278.8 63.3479C1278.42 63.0126 1277.91 62.8333 1277.4 62.8333C1276.88 62.8333 1276.37 63.0126 1275.99 63.3479C1275.61 63.6851 1275.37 64.1576 1275.37 64.6667V75.3332C1275.37 76.4716 1274.63 77.6122 1273.12 78.7079C1271.63 79.7959 1269.48 80.7707 1266.89 81.5856C1261.72 83.2136 1254.93 84.1667 1248.5 84.1667C1242.07 84.1667 1235.28 83.2136 1230.11 81.5856C1227.52 80.7707 1225.37 79.7959 1223.88 78.7079C1222.37 77.6122 1221.62 76.4716 1221.62 75.3332V64.6667C1221.62 64.1576 1221.39 63.6851 1221.01 63.3479C1220.63 63.0126 1220.12 62.8333 1219.6 62.8333C1219.09 62.8333 1218.58 63.0126 1218.2 63.3479C1217.81 63.6851 1217.58 64.1576 1217.58 64.6667V75.3332Z" fill="white" stroke="white"/>
<path d="M1217.58 87.3333C1217.58 89.1948 1218.51 90.9086 1220.09 92.4101C1221.67 93.9095 1223.94 95.2286 1226.71 96.3219C1232.26 98.5097 1239.93 99.8333 1248.5 99.8333C1257.07 99.8333 1264.74 98.5097 1270.29 96.3219C1273.06 95.2286 1275.33 93.9095 1276.91 92.4101C1278.49 90.9086 1279.42 89.1948 1279.42 87.3333V75.3333C1279.42 74.8243 1279.19 74.3517 1278.8 74.0146C1278.42 73.6792 1277.91 73.5 1277.4 73.5C1276.88 73.5 1276.37 73.6792 1275.99 74.0146C1275.61 74.3517 1275.37 74.8243 1275.37 75.3333V87.3333C1275.37 88.4717 1274.63 89.6122 1273.12 90.7079C1271.63 91.7958 1269.48 92.7707 1266.89 93.5856C1261.72 95.2136 1254.93 96.1667 1248.5 96.1667C1242.07 96.1667 1235.28 95.2136 1230.11 93.5856C1227.52 92.7707 1225.37 91.7958 1223.88 90.7079C1222.37 89.6122 1221.62 88.4717 1221.62 87.3333V75.3333C1221.62 74.8243 1221.39 74.3517 1221.01 74.0146C1220.63 73.6792 1220.12 73.5 1219.6 73.5C1219.09 73.5 1218.58 73.6792 1218.2 74.0146C1217.81 74.3517 1217.58 74.8243 1217.58 75.3333V87.3333Z" fill="white" stroke="white"/>
<path d="M1217.58 99.3333C1217.58 101.195 1218.51 102.909 1220.09 104.41C1221.67 105.91 1223.94 107.229 1226.71 108.322C1232.26 110.51 1239.93 111.833 1248.5 111.833C1257.07 111.833 1264.74 110.51 1270.29 108.322C1273.06 107.229 1275.33 105.91 1276.91 104.41C1278.49 102.909 1279.42 101.195 1279.42 99.3333V87.3333C1279.42 86.8243 1279.19 86.3517 1278.8 86.0146C1278.42 85.6792 1277.91 85.5 1277.4 85.5C1276.88 85.5 1276.37 85.6792 1275.99 86.0146C1275.61 86.3517 1275.37 86.8243 1275.37 87.3333V99.3333C1275.37 100.472 1274.63 101.612 1273.12 102.708C1271.63 103.796 1269.48 104.771 1266.89 105.586C1261.72 107.214 1254.93 108.167 1248.5 108.167C1242.07 108.167 1235.28 107.214 1230.11 105.586C1227.52 104.771 1225.37 103.796 1223.88 102.708C1222.37 101.612 1221.62 100.472 1221.62 99.3333V87.3333C1221.62 86.8243 1221.39 86.3517 1221.01 86.0146C1220.63 85.6792 1220.12 85.5 1219.6 85.5C1219.09 85.5 1218.58 85.6792 1218.2 86.0146C1217.81 86.3517 1217.58 86.8243 1217.58 87.3333V99.3333Z" fill="white" stroke="white"/>
</g>
<defs>
<clipPath id="clip0_296_2492">
<rect width="1363" height="163" fill="white" transform="translate(0 0.5)"/>
</clipPath>
</defs>
</svg>
